<svg width="200" height="200" viewBox="0 0 200 200" fill="none" xmlns="http://www.w3.org/2000/svg">
<g clip-path="url(#clip0_1886_10685)">
<path d="M100.476 125.29C103.288 124.908 105.942 123.766 108.152 121.986L107.828 121.566C105.176 121.662 101.781 120.495 99.1761 117.757C96.2877 114.621 93.6134 111.295 91.1713 107.8C97.3618 106.309 100.476 100.633 98.9428 96.3998C97.4047 92.0284 93.5904 90.8188 86.9856 90.7236C85.2618 90.7236 79.3666 90.5855 76.238 90.9093C74.4713 91.095 73.0713 92.8141 73.1666 95.0998C74.3386 94.9132 75.5327 94.9132 76.7047 95.0998C77.3094 95.2379 77.5856 95.7045 77.4475 96.7712C77.2618 98.3569 73.9094 113.438 73.2142 117.385C72.738 119.895 72.6999 121.338 73.8666 122.271C75.3523 123.433 78.938 124.319 80.3332 124.595L80.7523 124.038C80.4527 122.148 80.3887 120.229 80.5618 118.324C81.1666 111.657 83.2142 101.247 84.5666 95.2474C89.638 94.7712 93.0332 95.5284 91.9618 100.085C91.1237 103.666 87.7761 106.505 82.8428 106.319C85.6999 111.347 93.9189 122.509 96.6142 124.466C97.7142 125.29 98.6904 125.476 100.476 125.29Z" fill="white"/>
<path d="M123.071 94.5809C124.933 94.5809 125.538 92.2999 126.095 90.1142C126.095 90.1142 109.343 89.838 105.948 90.2571C103.995 90.4856 102.69 91.8856 102.738 94.4904C103.808 94.2631 104.909 94.2148 105.995 94.3475C106.648 94.4428 107.157 94.7666 107.019 95.7428C106.505 99.4666 104.876 108.262 102.971 117.238C102.971 117.238 113.205 117.148 120.048 117.381C122.138 117.428 122.743 116.962 123.581 115.333C124.057 114.495 125.305 111.1 125.305 111.1C125.305 111.1 125.21 111.052 124.829 110.914C123.504 112.089 121.816 112.774 120.048 112.857C118.51 112.995 113.767 113.09 111.671 112.995C110.51 112.952 110.786 112.067 110.786 112.067C110.786 112.067 112.043 105.181 112.138 104.762C113.81 104.857 119.348 104.809 121.395 104.809C122.016 104.826 122.623 104.628 123.114 104.248C123.461 103.998 123.735 103.661 123.91 103.271C124.334 102.39 124.677 101.472 124.933 100.528H112.857C112.905 100.295 113.929 95.2237 114.067 94.5237L123.071 94.5809Z" fill="white"/>
<path d="M151.267 82.3812C149.574 82.2828 147.876 82.345 146.195 82.5669C148.986 93.2717 144.657 103.319 141.633 107.6C142.005 100.015 140.424 91.8859 137.119 87.8288C135.448 85.7812 134.095 85.405 132.048 85.5955C130.093 85.8272 128.164 86.2319 126.281 86.805V87.2193C135.91 91.8764 136.376 109.6 135.262 116.115C134.424 117.067 124.624 125.348 117.438 126.538C114.043 127.419 109.205 127.934 105.295 127.095L104.971 127.419C106.086 129.838 107.576 132.215 108.738 132.91C109.81 133.515 111.39 133.467 113.348 133.386C122.605 132.829 136.329 125.943 145.543 111.238C149.124 105.472 153.452 96.024 153.962 87.605C154.567 84.5336 153.871 82.6717 151.267 82.3812Z" fill="white"/>
<path d="M58.0953 122.59C58.0953 122.59 58.0953 120.124 58.1429 119.057C58.4238 114.681 59.681 108.495 60.6572 104.352C63.2619 104.538 68.1 104.447 68.9857 104.4C71.3095 104.352 72.381 102.352 73.3095 99.6046H61.8048C62.4714 96.457 64.8238 88.2427 65.4715 86.2094C68.5857 86.0189 73.0905 85.9284 76.2667 86.0189C78.0606 86.0374 79.8497 86.2095 81.6143 86.5332C81.6504 86.5382 81.6839 86.555 81.7095 86.5808C81.854 86.6108 81.9946 86.6571 82.1286 86.7189C82.3143 86.8142 82.4524 86.857 82.5476 86.9046C82.582 86.9106 82.6137 86.9273 82.6381 86.9523C82.6943 86.9852 82.7587 87.0017 82.8238 86.9999C82.8714 86.9999 82.8715 87.0427 82.9191 87.0427C82.9667 87.0427 82.9667 87.0903 83.0095 87.0903L83.0572 87.138C83.1197 87.1684 83.1816 87.2002 83.2429 87.2332C83.2688 87.2579 83.3024 87.273 83.3381 87.2761C83.3493 87.2896 83.3631 87.3007 83.3786 87.3089C83.3941 87.3171 83.4111 87.3221 83.4286 87.3237C83.4533 87.3508 83.4873 87.3678 83.5238 87.3713C83.5471 87.3978 83.5793 87.4148 83.6143 87.4189C83.6402 87.4436 83.6738 87.4588 83.7095 87.4618C83.7966 87.511 83.8753 87.5737 83.9429 87.6475C84.3685 86.312 84.4953 84.8993 84.3143 83.5094C84.1762 82.7189 83.6619 81.8332 81.7572 81.5094C79.0095 81.0903 73.6619 80.9475 69.0524 81.0903C63.2381 81.2284 58.7238 81.5665 55.6524 82.0665C54.685 82.2172 53.7963 82.6889 53.1295 83.4058C52.4627 84.1227 52.0565 85.0431 51.9762 86.0189C51.9762 86.1142 51.9334 86.2094 51.9334 86.2999V86.7761C53.2578 86.5808 54.6011 86.5488 55.9334 86.6808C56.1076 86.7012 56.2746 86.7628 56.4203 86.8605C56.566 86.9582 56.6864 87.0892 56.7714 87.2427C56.9589 87.8454 56.9754 88.4883 56.8191 89.0999C54.5381 99.7094 50.7667 113.9 50.2095 115.767C49.5572 117.952 49.7334 119.486 50.6857 120.419C51.6381 121.352 54.3619 122.419 57.6191 123.162L58.0953 122.59Z" fill="white"/>
<path d="M43.3715 139.481C42.4871 139.428 41.6127 139.691 40.9048 140.224C40.5488 140.486 40.2614 140.83 40.0674 141.227C39.8733 141.624 39.7783 142.063 39.7905 142.505C39.7689 143.059 39.9063 143.607 40.1864 144.086C40.4666 144.564 40.8778 144.952 41.3715 145.205C41.8491 145.435 42.3751 145.546 42.9048 145.528C43.2241 145.519 43.5423 145.487 43.8572 145.433C44.1281 145.409 44.3942 145.346 44.6477 145.248L44.7382 144.971L44.881 144.595L44.9715 144.319L44.8334 144.224C44.6502 144.4 44.426 144.528 44.181 144.595C43.9278 144.688 43.6603 144.736 43.3905 144.738C42.181 144.738 41.3429 143.786 41.3429 142.357C41.3429 140.929 42.0429 140.076 43.1572 140.076C43.4911 140.054 43.8236 140.136 44.1096 140.309C44.3425 140.463 44.5352 140.671 44.6715 140.914H44.8572L44.9048 140.586L44.9953 140.076L45.1334 139.748C44.8236 139.642 44.5048 139.566 44.181 139.519C43.9132 139.478 43.6419 139.465 43.3715 139.481Z" fill="white"/>
<path d="M50.4761 142.038C50.47 141.666 50.4859 141.294 50.5237 140.924H49.2666C49.3749 141.317 49.4215 141.725 49.4047 142.133V142.738H47.357V142.038C47.351 141.666 47.3669 141.294 47.4047 140.924H46.0237L45.8809 141.248H45.9285C46.1618 141.248 46.2571 141.295 46.2571 141.433C46.2999 141.648 46.3144 141.867 46.2999 142.086V144.133C46.2999 144.552 46.2571 144.876 46.2571 145.062C46.2333 145.154 46.2174 145.248 46.2094 145.343H47.419C47.3055 144.95 47.2588 144.541 47.2809 144.133V143.181H49.3713V144.133C49.3713 144.552 49.3237 144.876 49.3237 145.062C49.3023 145.154 49.288 145.248 49.2809 145.343H50.2571L50.6285 145.39C50.5174 144.997 50.4708 144.589 50.4904 144.181L50.4761 142.038Z" fill="white"/>
<path d="M55.3763 140.953C54.9807 140.779 54.5502 140.701 54.1191 140.724C53.786 140.704 53.4524 140.754 53.1392 140.869C52.8261 140.984 52.5403 141.163 52.2996 141.395C52.059 141.626 51.8689 141.904 51.7411 142.213C51.6133 142.521 51.5507 142.852 51.5572 143.186C51.5438 143.5 51.5967 143.813 51.7123 144.105C51.828 144.397 52.0038 144.661 52.2284 144.881C52.453 145.101 52.7213 145.271 53.0159 145.38C53.3104 145.489 53.6247 145.535 53.9382 145.514C55.5191 145.467 56.5905 144.491 56.5905 143C56.6095 142.578 56.5047 142.159 56.289 141.795C56.0733 141.431 55.7561 141.139 55.3763 140.953ZM54.0715 145C53.2334 145 52.6763 144.257 52.6763 143.048C52.6763 141.838 53.1524 141.234 54.0239 141.234C54.8953 141.234 55.4191 141.934 55.4191 143.138C55.4191 144.343 54.9096 145.014 54.0715 145.014V145Z" fill="white"/>
<path d="M60.0285 140.781C59.3446 140.769 58.6755 140.981 58.1238 141.386C57.855 141.594 57.6391 141.864 57.4935 142.171C57.348 142.479 57.2768 142.817 57.2857 143.157C57.2714 143.584 57.3772 144.006 57.5911 144.375C57.8049 144.745 58.1182 145.047 58.4952 145.247C58.8647 145.402 59.2614 145.481 59.6619 145.481C59.9105 145.489 60.1592 145.473 60.4047 145.433C60.6094 145.402 60.8116 145.356 61.0095 145.295L61.1 145.062L61.1952 144.786L61.2905 144.595L61.1476 144.505C61.0184 144.658 60.8369 144.758 60.6381 144.786C60.4402 144.837 60.2375 144.867 60.0333 144.876C59.0809 144.876 58.4524 144.133 58.4524 143.014C58.4524 141.895 59.0095 141.247 59.8476 141.247C60.1078 141.238 60.3653 141.302 60.5905 141.433C60.7949 141.538 60.9613 141.705 61.0666 141.909H61.2047L61.2524 141.676L61.3428 141.305L61.3905 141.024C61.1467 140.947 60.8987 140.885 60.6476 140.838C60.444 140.796 60.2364 140.777 60.0285 140.781Z" fill="white"/>
<path d="M65.7476 140.953C65.3538 140.78 64.9248 140.701 64.4953 140.724C64.1621 140.704 63.8285 140.754 63.5154 140.869C63.2023 140.984 62.9164 141.163 62.6758 141.395C62.4352 141.626 62.245 141.904 62.1172 142.213C61.9895 142.521 61.9269 142.852 61.9333 143.186C61.921 143.503 61.9758 143.819 62.0943 144.113C62.2127 144.407 62.392 144.673 62.6205 144.893C62.849 145.113 63.1214 145.282 63.4199 145.389C63.7184 145.496 64.0362 145.539 64.3524 145.514C65.9381 145.467 66.9572 144.491 66.9572 143C66.9778 142.578 66.8742 142.159 66.6592 141.795C66.4443 141.431 66.1273 141.138 65.7476 140.953ZM64.4953 145C63.6572 145 63.1429 144.257 63.1429 143.048C63.1429 141.838 63.6572 141.234 64.4953 141.234C65.3334 141.234 65.8429 141.934 65.8429 143.138C65.8429 144.343 65.3334 145.014 64.4953 145.014V145Z" fill="white"/>
<path d="M71.0525 144.553C70.9734 144.674 70.8609 144.77 70.7287 144.829C70.6435 144.881 70.5474 144.914 70.4477 144.924C70.2813 144.966 70.1095 144.982 69.9382 144.972C69.5191 144.972 69.381 144.924 69.2858 144.829C69.1906 144.733 69.1906 144.643 69.1477 144.41V142.086C69.1477 141.667 69.1906 141.481 69.1906 140.967H67.7953L67.6572 141.295H67.7525C67.981 141.295 68.0287 141.343 68.0763 141.481C68.1242 141.695 68.1402 141.915 68.1239 142.133V145.11C68.0763 145.157 68.0763 145.248 68.0287 145.391H70.9525L71.0001 145.11L71.0429 144.786L71.1382 144.595L71.0525 144.553Z" fill="white"/>
<path d="M75.3334 144.224L74.3096 141.367C74.2191 141.091 74.2191 140.995 74.1239 140.719L73.8477 140.762L73.2429 140.81H73.0096C72.9491 141.084 72.8548 141.349 72.7287 141.6L71.6572 144.205C71.608 144.335 71.5458 144.459 71.4715 144.576C71.4293 144.711 71.3667 144.837 71.2858 144.953C71.2204 145.034 71.1733 145.128 71.1477 145.229V145.276H72.2191C72.2191 145.138 72.1715 145.091 72.1715 144.953C72.1826 144.729 72.2292 144.509 72.3096 144.3L72.4953 143.786H74.1239L74.3096 144.3C74.4148 144.599 74.4773 144.912 74.4953 145.229H75.5668L75.8477 145.324C75.7899 145.236 75.742 145.142 75.7048 145.043C75.5667 144.762 75.4287 144.457 75.3334 144.224ZM72.681 143.386L73.3334 141.529L73.9382 143.386H72.681Z" fill="white"/>
<path d="M77.7047 140.738C77.0571 140.738 76.4952 140.69 75.9857 140.69H75.7143L75.6714 140.966L75.6238 141.295L75.5762 141.528L75.6714 141.571C75.7943 141.468 75.9368 141.39 76.0905 141.343C76.1809 141.295 76.2762 141.295 76.3666 141.247H77.1428V144.038C77.1428 144.457 77.0952 144.786 77.0952 144.99V145.238H78.3524C78.241 144.845 78.1943 144.436 78.2143 144.028V141.905L78.2619 141.3H78.5381C78.7741 141.303 79.0091 141.333 79.2381 141.39C79.3656 141.436 79.4778 141.517 79.5619 141.624H79.6571V141.428L79.7952 141.105L79.8428 140.686H79.5238C79.0095 140.738 78.4047 140.738 77.7047 140.738Z" fill="white"/>
<path d="M86.3618 141.852C86.0462 141.721 85.7486 141.549 85.4761 141.343C85.3879 141.278 85.3166 141.194 85.2685 141.096C85.2204 140.998 85.1968 140.89 85.1999 140.781C85.1999 140.362 85.5713 140.086 86.0809 140.086C86.3097 140.096 86.533 140.16 86.7332 140.271C86.9276 140.39 87.0909 140.553 87.2094 140.747H87.3475L87.3951 140.466L87.5332 140.047L87.6713 139.724C87.3552 139.555 87.0054 139.459 86.6475 139.443C86.5286 139.4 86.4019 139.384 86.2761 139.395C84.9761 139.395 84.0428 140.143 84.0428 141.209C84.0381 141.407 84.0728 141.603 84.1447 141.787C84.2167 141.971 84.3245 142.139 84.4618 142.281C84.8187 142.561 85.209 142.796 85.6237 142.981C85.9273 143.107 86.2099 143.279 86.4618 143.49C86.5447 143.556 86.6096 143.641 86.6504 143.739C86.6912 143.836 86.7066 143.942 86.6951 144.047C86.6951 144.562 86.2761 144.886 85.6713 144.886C85.3675 144.894 85.0704 144.795 84.8332 144.605C84.6501 144.472 84.4893 144.312 84.357 144.128H84.2142L84.1237 144.452L84.0285 144.871L83.8904 145.2C84.2154 145.344 84.5607 145.437 84.9142 145.476C85.0813 145.513 85.2525 145.529 85.4237 145.524C86.8523 145.524 87.8428 144.686 87.8428 143.524C87.8408 143.164 87.7088 142.817 87.4713 142.547C87.1449 142.253 86.7694 142.017 86.3618 141.852Z" fill="white"/>
<path d="M92.4572 140.952H92.1763C92.2239 141.048 92.2239 141.138 92.2715 141.233C92.3461 141.537 92.3765 141.85 92.362 142.162V143.333C92.3694 143.677 92.339 144.02 92.2715 144.357C92.2192 144.507 92.1209 144.637 91.9905 144.729C91.7557 144.882 91.4808 144.964 91.2001 144.962C90.9947 144.975 90.7903 144.924 90.6154 144.815C90.4405 144.707 90.3036 144.547 90.2239 144.357C90.1256 144.04 90.0931 143.706 90.1286 143.376V141.981C90.1208 141.609 90.1367 141.237 90.1763 140.867H88.781L88.6858 141.191H88.7334C88.9191 141.191 89.0572 141.238 89.0572 141.376C89.1048 141.59 89.1209 141.81 89.1048 142.029V143.81C89.0572 144.976 89.7096 145.486 91.062 145.486C91.5326 145.506 91.9996 145.394 92.4096 145.162C92.6205 145.041 92.7934 144.864 92.9087 144.65C93.024 144.437 93.0771 144.195 93.062 143.952V142.091C93.062 141.719 93.1096 141.348 93.1096 141.138C93.1096 141.095 93.1525 141 93.1525 140.952H92.4572Z" fill="white"/>
<path d="M95.5715 142.038C95.5655 141.666 95.5814 141.294 95.6191 140.924H94.2239L94.1287 141.248H94.1763C94.362 141.248 94.4572 141.295 94.5049 141.433C94.5525 141.571 94.5477 141.805 94.5477 142.086V144.133C94.5477 144.552 94.5049 144.876 94.5049 145.062C94.4811 145.154 94.4652 145.248 94.4572 145.343H95.4096L95.6906 145.39C95.575 144.998 95.5267 144.589 95.5477 144.181L95.5715 142.038Z" fill="white"/>
<path d="M98.5713 142.643C98.3304 142.534 98.0966 142.41 97.8713 142.271C97.8075 142.21 97.7578 142.136 97.7257 142.054C97.6936 141.972 97.6799 141.883 97.6856 141.795C97.6856 141.424 97.9666 141.238 98.338 141.238C98.5332 141.229 98.7268 141.277 98.8951 141.376C99.0332 141.424 99.0809 141.519 99.219 141.705H99.3142L99.4094 141.519L99.4999 141.191L99.5951 140.957C99.219 140.867 99.0809 140.819 98.8047 140.771H98.4761C97.4523 140.771 96.7571 141.333 96.7571 142.167C96.7499 142.321 96.775 142.476 96.8307 142.62C96.8865 142.764 96.9717 142.895 97.0809 143.005C97.3516 143.215 97.6495 143.388 97.9666 143.519C98.338 143.752 98.5237 143.795 98.6142 143.938C98.6779 143.987 98.7283 144.051 98.7608 144.124C98.7932 144.197 98.8067 144.277 98.7999 144.357C98.7929 144.453 98.7666 144.545 98.7225 144.63C98.6785 144.715 98.6176 144.79 98.5437 144.851C98.4697 144.911 98.3842 144.956 98.2924 144.983C98.2006 145.009 98.1043 145.017 98.0094 145.005C97.779 145.016 97.5512 144.951 97.3618 144.819C97.219 144.729 97.1761 144.633 97.0332 144.448H96.9428L96.8475 144.729L96.7999 145.052L96.7571 145.286C97 145.365 97.2482 145.427 97.4999 145.471H97.8713C98.9428 145.471 99.7332 144.819 99.6856 143.981C99.7019 143.691 99.6026 143.407 99.4094 143.191C99.172 142.951 98.8864 142.764 98.5713 142.643Z" fill="white"/>
<path d="M102.271 142.643C102.045 142.535 101.827 142.411 101.619 142.271C101.55 142.213 101.493 142.14 101.454 142.058C101.415 141.976 101.393 141.886 101.39 141.795C101.39 141.424 101.667 141.238 102.086 141.238C102.267 141.236 102.445 141.283 102.6 141.376C102.756 141.443 102.886 141.558 102.971 141.705H103.062L103.109 141.519L103.205 141.191L103.295 140.957C103.036 140.88 102.772 140.818 102.505 140.771H102.228C101.205 140.771 100.505 141.333 100.505 142.167C100.499 142.321 100.524 142.475 100.58 142.619C100.636 142.763 100.72 142.895 100.828 143.005C101.1 143.214 101.398 143.387 101.714 143.519C102.086 143.752 102.271 143.795 102.367 143.938C102.428 143.988 102.477 144.053 102.51 144.125C102.542 144.198 102.557 144.278 102.552 144.357C102.545 144.453 102.519 144.545 102.475 144.63C102.431 144.715 102.37 144.79 102.296 144.851C102.222 144.911 102.137 144.956 102.045 144.983C101.953 145.009 101.857 145.017 101.762 145.005C101.545 145.01 101.333 144.945 101.157 144.819C101.014 144.729 100.971 144.633 100.828 144.448H100.69L100.643 144.729L100.552 145.052L100.457 145.286C100.702 145.365 100.952 145.427 101.205 145.471H101.619C102.69 145.471 103.481 144.819 103.438 143.981C103.452 143.691 103.351 143.407 103.157 143.191C102.902 142.95 102.6 142.764 102.271 142.643Z" fill="white"/>
<path d="M107.143 144.691C107.08 144.75 106.996 144.784 106.91 144.786C106.726 144.821 106.539 144.836 106.352 144.829C105.981 144.829 105.795 144.786 105.7 144.691C105.647 144.635 105.608 144.569 105.584 144.497C105.56 144.424 105.552 144.347 105.562 144.272V143.157H106.119C106.437 143.152 106.755 143.167 107.072 143.2L107.024 143.014L107.072 142.781V142.643C106.84 142.681 106.606 142.697 106.372 142.691H105.629V141.386H106.048C106.267 141.388 106.485 141.42 106.695 141.481C106.831 141.513 106.949 141.597 107.024 141.714H107.143L107.191 141.529L107.281 141.2L107.376 140.967H104.305L104.167 141.295H104.214C104.4 141.295 104.491 141.343 104.538 141.481C104.586 141.695 104.602 141.915 104.586 142.133V144.181C104.586 144.595 104.538 144.924 104.538 145.133C104.514 145.226 104.498 145.32 104.491 145.414H107.472V145.181L107.514 144.853L107.61 144.529L107.472 144.481C107.382 144.578 107.269 144.65 107.143 144.691Z" fill="white"/>
<path d="M116.929 139.9C116.427 139.642 115.863 139.528 115.3 139.572H111.857L111.671 139.991H111.762C111.995 139.991 112.138 140.038 112.181 140.272C112.227 140.548 112.242 140.829 112.229 141.11V143.762C112.244 144.166 112.228 144.57 112.181 144.972C112.181 145.062 112.138 145.157 112.138 145.343H112.414C112.645 145.295 112.883 145.295 113.114 145.343H114.286C115.495 145.343 116.19 145.157 116.843 144.643C117.224 144.349 117.529 143.967 117.732 143.53C117.935 143.094 118.03 142.615 118.009 142.134C118.024 141.701 117.933 141.272 117.745 140.883C117.557 140.494 117.277 140.157 116.929 139.9ZM114.548 144.738C114.129 144.738 113.895 144.691 113.757 144.553C113.619 144.414 113.614 144.319 113.614 143.991V140.272C113.943 140.272 114.09 140.224 114.362 140.224C115.195 140.224 115.614 140.362 115.99 140.781C116.182 141.013 116.326 141.28 116.413 141.568C116.501 141.856 116.53 142.158 116.5 142.457C116.509 143.9 115.809 144.762 114.557 144.762L114.548 144.738Z" fill="white"/>
<path d="M121.905 144.691C121.821 144.743 121.727 144.776 121.628 144.786C121.46 144.823 121.287 144.838 121.114 144.829C120.743 144.829 120.557 144.786 120.467 144.691C120.411 144.638 120.368 144.572 120.343 144.499C120.319 144.426 120.312 144.348 120.324 144.272V143.157H120.838C121.156 143.152 121.474 143.167 121.79 143.2V142.643C121.561 142.681 121.328 142.697 121.095 142.691H120.348V141.386H120.767C120.987 141.391 121.206 141.423 121.419 141.481C121.553 141.513 121.67 141.597 121.743 141.714H121.886V141.529L121.976 141.2L122.071 140.967H119L118.862 141.295H118.952C119.186 141.295 119.281 141.343 119.281 141.481C119.281 141.619 119.324 141.853 119.324 142.133V144.181C119.324 144.595 119.281 144.924 119.281 145.133C119.233 145.181 119.233 145.272 119.233 145.414H122.162L122.209 145.181L122.305 144.853L122.395 144.529L122.257 144.481C122.154 144.573 122.034 144.644 121.905 144.691Z" fill="white"/>
<path d="M126.233 141.11C125.963 140.961 125.655 140.896 125.348 140.924H123.071L122.976 141.248H123.024C123.209 141.248 123.305 141.295 123.348 141.433C123.39 141.571 123.395 141.805 123.395 142.086L123.348 144.133V145.062C123.326 145.154 123.312 145.248 123.305 145.343H124.557C124.446 144.95 124.399 144.541 124.419 144.133V141.343C124.54 141.309 124.665 141.293 124.79 141.295C124.906 141.282 125.023 141.294 125.133 141.331C125.243 141.367 125.344 141.428 125.429 141.508C125.513 141.587 125.579 141.685 125.622 141.793C125.665 141.901 125.683 142.017 125.676 142.133C125.691 142.239 125.682 142.346 125.651 142.448C125.62 142.55 125.568 142.643 125.497 142.723C125.427 142.803 125.34 142.866 125.242 142.909C125.145 142.952 125.04 142.973 124.933 142.971H124.652L124.605 143.2L124.557 143.433H124.976C126.095 143.433 126.748 142.924 126.748 142.086C126.766 141.891 126.727 141.695 126.636 141.521C126.544 141.348 126.404 141.205 126.233 141.11Z" fill="white"/>
<path d="M131.071 140.952H130.795C130.844 141.039 130.875 141.134 130.886 141.233C130.925 141.541 130.941 141.852 130.933 142.162V143.333C130.967 143.678 130.935 144.025 130.838 144.357C130.79 144.496 130.712 144.623 130.609 144.729C130.375 144.887 130.097 144.969 129.814 144.962C129.616 144.971 129.419 144.917 129.253 144.809C129.086 144.7 128.958 144.542 128.886 144.357C128.787 144.04 128.755 143.706 128.79 143.376V141.981C128.783 141.609 128.799 141.237 128.838 140.867H127.443L127.305 141.191H127.352C127.538 141.191 127.628 141.238 127.676 141.376C127.724 141.59 127.74 141.81 127.724 142.029V143.81C127.724 144.976 128.376 145.486 129.724 145.486C130.194 145.506 130.661 145.394 131.071 145.162C131.282 145.041 131.455 144.864 131.57 144.65C131.686 144.437 131.739 144.195 131.724 143.952V141.157C131.762 141.103 131.779 141.037 131.771 140.971H131.071V140.952Z" fill="white"/>
<path d="M134.19 142.038C134.184 141.666 134.2 141.294 134.238 140.924H132.857L132.719 141.248H132.814C133.048 141.248 133.138 141.295 133.138 141.433C133.186 141.647 133.202 141.867 133.186 142.086V144.133C133.201 144.444 133.185 144.755 133.138 145.062C133.09 145.11 133.09 145.205 133.09 145.343H134.043L134.367 145.39C134.232 145.003 134.185 144.589 134.229 144.181L134.19 142.038Z" fill="white"/>
<path d="M137.214 142.643C136.987 142.536 136.769 142.412 136.562 142.271C136.492 142.213 136.435 142.14 136.395 142.058C136.354 141.976 136.332 141.887 136.328 141.795C136.328 141.424 136.562 141.238 136.981 141.238C137.176 141.229 137.37 141.277 137.538 141.376C137.681 141.424 137.724 141.519 137.867 141.705H137.957L138.005 141.519L138.1 141.191L138.19 140.957C137.819 140.867 137.681 140.819 137.4 140.771H137.076C136.052 140.771 135.352 141.333 135.352 142.167C135.36 142.475 135.474 142.771 135.676 143.005C135.955 143.203 136.251 143.375 136.562 143.519C136.793 143.636 137.012 143.777 137.214 143.938C137.322 144.053 137.387 144.201 137.4 144.357C137.393 144.453 137.367 144.545 137.323 144.63C137.278 144.715 137.218 144.79 137.144 144.851C137.07 144.911 136.984 144.956 136.892 144.983C136.801 145.009 136.704 145.017 136.609 145.005C136.377 145.017 136.148 144.952 135.957 144.819C135.826 144.717 135.716 144.591 135.633 144.448H135.538L135.49 144.729L135.4 145.052L135.305 145.286C135.676 145.381 135.819 145.424 136.095 145.471H136.471C137.586 145.471 138.328 144.819 138.376 143.981C138.392 143.691 138.293 143.407 138.1 143.191C137.843 142.953 137.542 142.767 137.214 142.643Z" fill="white"/>
<path d="M144.705 142.553C144.705 142.176 144.752 141.714 144.752 141.433C144.747 141.308 144.764 141.182 144.8 141.062L144.705 140.967L144.519 141.014L144.19 141.11L142.843 141.386C142.629 141.441 142.411 141.473 142.191 141.481L142.1 141.714L142.005 141.991L141.914 142.224L141.957 142.272C142.059 142.218 142.171 142.186 142.286 142.176L142.795 142.086C142.901 142.05 143.012 142.034 143.124 142.038C143.448 142.038 143.495 142.176 143.495 142.991V143.81C143.495 144.324 143.448 144.695 143.448 144.976C143.426 145.099 143.41 145.223 143.4 145.348H144.89C144.737 144.836 144.674 144.301 144.705 143.767V142.553Z" fill="white"/>
<path d="M149.405 142.381C149.22 142.23 149.017 142.103 148.8 142.005C149.042 141.849 149.274 141.678 149.495 141.495C149.731 141.26 149.864 140.942 149.867 140.609C149.867 139.819 149.171 139.262 148.1 139.262C146.938 139.262 146.148 139.914 146.148 140.843C146.148 141.061 146.193 141.277 146.281 141.477C146.368 141.677 146.497 141.857 146.657 142.005C146.8 142.1 146.891 142.19 147.133 142.333C146.205 142.89 145.876 143.357 145.876 144.005C145.876 144.986 146.667 145.59 147.876 145.59C149.181 145.495 150.11 144.752 150.11 143.686C150.105 143.428 150.038 143.175 149.915 142.948C149.793 142.721 149.618 142.526 149.405 142.381ZM148.148 139.728C148.257 139.728 148.366 139.749 148.468 139.79C148.57 139.832 148.662 139.893 148.74 139.971C148.818 140.048 148.88 140.14 148.922 140.242C148.964 140.343 148.986 140.452 148.986 140.562C148.993 140.673 148.976 140.785 148.936 140.89C148.895 140.994 148.833 141.089 148.752 141.166C148.657 141.357 148.519 141.4 148.243 141.586C148.02 141.476 147.815 141.335 147.633 141.166C147.539 141.089 147.464 140.989 147.416 140.876C147.368 140.764 147.348 140.641 147.357 140.519C147.35 140.413 147.366 140.306 147.403 140.206C147.44 140.107 147.498 140.016 147.573 139.94C147.647 139.864 147.737 139.805 147.836 139.766C147.935 139.727 148.041 139.709 148.148 139.714V139.728ZM147.824 144.966C147.688 144.973 147.551 144.951 147.424 144.902C147.297 144.853 147.181 144.778 147.085 144.682C146.988 144.585 146.913 144.47 146.864 144.342C146.815 144.215 146.793 144.079 146.8 143.943C146.8 143.428 147.076 142.99 147.752 142.638C147.979 142.763 148.197 142.903 148.405 143.057L148.681 143.338C148.842 143.514 148.925 143.747 148.914 143.986C148.912 144.123 148.882 144.259 148.825 144.385C148.768 144.511 148.686 144.623 148.583 144.716C148.481 144.808 148.361 144.878 148.23 144.922C148.1 144.966 147.961 144.983 147.824 144.971V144.966Z" fill="white"/>
<path d="M153.871 141.99C154.121 141.847 154.355 141.676 154.567 141.481C154.802 141.246 154.935 140.928 154.938 140.595C154.938 139.805 154.243 139.248 153.171 139.248C152.1 139.248 151.171 139.9 151.171 140.828C151.17 141.052 151.22 141.272 151.316 141.474C151.413 141.675 151.554 141.852 151.729 141.99C151.871 142.086 151.962 142.176 152.205 142.319C151.267 142.857 150.952 143.333 150.952 143.99C150.952 144.971 151.743 145.576 152.952 145.576C154.21 145.481 155.143 144.738 155.143 143.671C155.134 143.42 155.07 143.174 154.955 142.951C154.839 142.728 154.676 142.533 154.476 142.381C154.285 142.235 154.083 142.104 153.871 141.99ZM153.171 139.714C153.282 139.71 153.393 139.728 153.496 139.768C153.6 139.808 153.694 139.869 153.773 139.948C153.851 140.026 153.913 140.12 153.954 140.223C153.995 140.326 154.014 140.437 154.01 140.548C154.005 140.77 153.922 140.984 153.776 141.152C153.686 141.343 153.59 141.386 153.3 141.571C153.08 141.461 152.876 141.32 152.695 141.152C152.595 141.077 152.514 140.979 152.457 140.866C152.401 140.754 152.372 140.63 152.371 140.505C152.367 140.399 152.384 140.293 152.423 140.194C152.461 140.096 152.52 140.006 152.596 139.932C152.671 139.857 152.761 139.799 152.86 139.762C152.96 139.724 153.066 139.708 153.171 139.714ZM152.848 144.952C152.711 144.959 152.575 144.937 152.448 144.888C152.321 144.839 152.205 144.764 152.109 144.668C152.012 144.571 151.937 144.456 151.888 144.328C151.839 144.201 151.817 144.065 151.824 143.929C151.824 143.414 152.1 142.976 152.752 142.624C152.98 142.747 153.198 142.887 153.405 143.043L153.686 143.324C153.844 143.501 153.928 143.733 153.919 143.971C153.918 144.108 153.889 144.242 153.835 144.367C153.78 144.492 153.701 144.605 153.602 144.698C153.502 144.792 153.385 144.864 153.257 144.911C153.129 144.958 152.993 144.978 152.857 144.971L152.848 144.952Z" fill="white"/>
<path d="M160.105 141.429L160.057 141.195H156.29L156.243 141.614L156.057 142.219L155.962 142.591L156.105 142.638C156.203 142.56 156.312 142.498 156.429 142.452C156.663 142.398 156.903 142.374 157.143 142.381H159.095C159 142.567 158.91 142.705 158.862 142.795L158.49 143.4L158.119 143.962C157.933 144.238 157.838 144.471 157.748 144.61L157.376 145.219L157 145.867L156.629 146.519L156.395 146.891L156.19 147.143L156.286 147.233H157.681C157.707 146.902 157.769 146.575 157.867 146.257C157.949 146.035 158.043 145.817 158.148 145.605C158.341 145.111 158.573 144.633 158.843 144.176C159.319 143.381 159.59 142.871 159.867 142.5C159.971 142.316 160.096 142.143 160.238 141.986L160.148 141.752L160.105 141.429Z" fill="white"/>
<path d="M88.2619 69.362C88.7857 57.0905 94.3095 46.7429 106.871 44.1239C107.143 44.0858 107.257 44.381 107.219 44.6001C107.206 44.6338 107.187 44.6646 107.162 44.6905H107.195C107.169 44.763 107.116 44.8226 107.048 44.8572C95.8809 48.462 92.6809 58.1144 92.7381 69.862C100.414 71.1429 110.186 75.7953 113.5 83.9953C113.5 84.0524 113.733 83.9953 113.733 83.9382C113.038 76.4953 106.233 69.6905 103.324 65.8429C100.705 62.2953 100.943 58.9191 101.462 57.3524C101.638 56.8286 102.162 55.7239 101.938 57.0572C101.414 60.1429 102.695 62.4096 105.195 64.5048C106.648 65.7239 107.229 65.6667 108.052 66.5382C108.643 67.2261 109.009 68.0788 109.1 68.981C109.39 70.7286 109.624 71.0191 110.786 71.1334C111.124 71.1659 111.465 71.1258 111.786 71.0158C112.107 70.9057 112.401 70.7282 112.648 70.4953C112.713 70.2817 112.692 70.0512 112.59 69.8524C112.243 69.1572 111.429 68.0524 112.181 67.181C113.133 66.1334 116.138 67.0048 117.419 68.1096C118.114 68.6905 118.233 69.6191 119.395 67.4715C120.671 65.0905 120.09 64.7953 119.919 64.562C119.748 64.3286 119.105 63.5144 119.105 63.5144C116.533 60.2191 113.11 51.5191 112.019 46.8144C112.224 46.8698 112.436 46.8923 112.648 46.881C112.881 47.0572 113.576 46.9382 114.51 46.5905C117.014 45.6858 121.381 43.3572 124.419 41.681C126.114 41.0524 127.276 40.6191 127.305 40.6001C127.308 40.5525 127.308 40.5048 127.305 40.4572C127.305 40.4572 127.305 40.4572 127.305 40.4286C127.305 40.4001 127.248 40.3667 127.248 40.3096C127.248 40.3096 127.219 40.2667 127.2 40.2667H126.967C126.967 40.2667 124.933 40.5001 121.852 40.9048C119.814 41.1953 117.314 41.5477 114.638 41.9524L113.59 42.1286L112.548 42.3001C112.371 42.3001 112.257 42.362 112.071 42.362L111.119 42.5334V42.4763H111.09C110.911 41.2367 110.822 39.9858 110.824 38.7334C86.4 40.2477 82.5047 60.2525 82.5619 69.5572C84.4474 69.2664 86.3609 69.2009 88.2619 69.362ZM109.048 51.0429C109.443 51.2582 109.85 51.4521 110.267 51.6239C111.024 51.8572 111.895 52.0334 112.171 52.5001C112.301 52.7234 112.349 52.985 112.306 53.2397C112.263 53.4944 112.133 53.7262 111.938 53.8953C111.648 54.2429 111.243 54.4191 111.186 54.7667H111.067C110.991 54.4308 110.894 54.1 110.776 53.7763C110.406 53.0695 109.957 52.4066 109.438 51.8001C109.138 51.5096 108.905 51.3334 109.048 51.0429Z" fill="white"/>
<path d="M178.405 21.9048H21.5952C23.4143 40.1095 25.5524 68.3191 25.5524 100C25.5524 131.833 23.4143 159.886 21.5952 178.095H178.319C176.5 159.891 174.362 131.843 174.362 100C174.362 69.1334 176.586 40.1143 178.405 21.9048ZM173.395 173.614H26.5143C28.3857 154.005 30.0238 127.486 30.0238 100C30.0238 72.5143 28.3762 45.9905 26.5143 26.381H173.486C171.629 45.9905 169.89 72.5334 169.89 100C169.89 127.467 171.529 154.005 173.395 173.614Z" fill="white"/>
</g>
<defs>
<clipPath id="clip0_1886_10685">
<rect width="200" height="200" fill="white"/>
</clipPath>
</defs>
</svg>
