<svg width="200" height="200" viewBox="0 0 200 200" fill="none" xmlns="http://www.w3.org/2000/svg">
<g clip-path="url(#clip0_3052_1818)">
<path d="M36.2163 92.6192H13.0912V87.7498H36.2163V92.6192ZM36.0136 111.281H30.8601V96.2688H36.0136V111.281ZM27.2097 111.281H22.0566V96.2688H27.2097V111.281ZM18.4465 111.281H13.2938V96.2688H18.4465V111.281ZM24.6333 76.3875C11.8619 76.3875 1.50879 86.7402 1.50879 99.5113C1.50879 112.283 11.8619 122.636 24.6333 122.636C37.4047 122.636 47.7575 112.283 47.7575 99.5113C47.7575 86.7402 37.4047 76.3875 24.6333 76.3875Z" fill="white"/>
<path d="M190.43 97.3841C192.877 97.3841 193.345 99.4141 193.451 101.393H187.671C187.721 99.6219 188.244 97.3841 190.43 97.3841ZM190.743 108.786C188.139 108.786 187.671 106.547 187.671 104.362H198.503C198.503 99.1011 196.628 94.416 190.536 94.416C185.276 94.416 182.621 98.6852 182.621 103.528C182.621 108.578 185.64 111.755 190.689 111.755C194.129 111.755 197.667 110.298 197.928 106.444H193.556C193.241 108.004 192.358 108.786 190.743 108.786ZM170.747 97.9031H167.102V91.4477H170.797C172.883 91.4477 174.601 92.3309 174.601 94.6238C174.601 96.9659 172.883 97.9031 170.747 97.9031ZM174.808 99.6219C177.725 98.7892 179.913 97.0193 179.913 93.7909C179.913 89.2595 175.694 87.7506 171.788 87.7506H162.052V111.287H167.102V101.758H171.06C175.591 101.758 174.496 108.058 175.224 111.287H180.745C178.244 106.86 181.267 100.872 174.808 99.6219ZM151.793 99.2052H147.419C147.315 98.007 146.22 97.3841 145.077 97.3841C144.034 97.3841 142.524 97.696 142.576 99.0496C142.628 100.091 143.774 100.403 144.606 100.61L146.483 101.081C149.347 101.705 152.627 102.903 152.627 106.34C152.627 110.505 148.355 111.755 144.918 111.755C141.534 111.755 138.202 110.245 137.942 106.6H142.472C142.628 108.058 143.774 108.786 145.18 108.786C146.431 108.786 148.043 108.266 148.043 106.756C148.043 103.632 138.254 105.87 138.254 99.518C138.254 95.6651 142.108 94.416 145.336 94.416C148.305 94.416 151.273 95.6131 151.741 98.8415L151.793 99.2052ZM135.704 99.2052H131.33C131.223 98.007 130.131 97.3841 128.985 97.3841C127.943 97.3841 126.433 97.696 126.485 99.0496C126.537 100.091 127.683 100.403 128.517 100.61L130.391 101.081C133.256 101.705 136.536 102.903 136.536 106.34C136.536 110.505 132.265 111.755 128.829 111.755C125.445 111.755 122.113 110.245 121.851 106.6H126.381C126.537 108.058 127.683 108.786 129.089 108.786C130.339 108.786 131.954 108.266 131.954 106.756C131.954 103.632 122.163 105.87 122.163 99.518C122.163 95.6651 126.017 94.416 129.245 94.416C132.214 94.416 135.182 95.6131 135.65 98.8415L135.704 99.2052ZM114.092 91.8117H119.301V87.7507H114.092V91.8117ZM114.248 111.287H119.143V94.8839H114.248V111.287ZM100.449 111.287L98.1073 103.476C97.5853 101.758 97.2733 100.038 96.9093 98.3199C96.6471 99.5704 96.4412 100.822 96.0751 102.018L95.7111 103.32L93.525 111.287H87.7446L82.3806 94.8839H87.9006L90.1929 103.476L90.5048 104.672L90.7648 105.819C90.8688 106.496 90.9728 107.173 91.0769 107.849C91.3368 105.87 91.807 103.997 92.327 102.122L94.3569 94.8839H99.9815L102.116 102.434C102.637 104.205 103.002 105.974 103.262 107.798L103.418 106.86C103.626 105.299 104.042 103.789 104.512 102.226L106.542 94.8839H111.802L106.178 111.287H100.449ZM80.5053 94.3631H75.6629C75.6113 92.0708 73.944 90.7697 71.7059 90.7697C69.7789 90.7697 67.5409 91.4976 67.5409 93.7909C67.5409 98.9972 81.1825 95.5612 81.1825 104.101C81.1825 109.361 76.6522 111.755 71.8619 111.755C66.3934 111.755 61.8641 109.83 61.9165 103.84H67.0717C67.0717 106.444 68.4777 108.214 71.2367 108.214C73.2679 108.214 75.9761 107.486 75.9761 105.038C75.9761 99.5704 62.5413 103.268 62.5413 94.4679C62.5413 89.2595 67.3836 87.2294 71.8619 87.2294C76.6002 87.2294 80.1932 89.5207 80.5053 94.3631Z" fill="white"/>
</g>
<defs>
<clipPath id="clip0_3052_1818">
<rect width="200" height="200" fill="white"/>
</clipPath>
</defs>
</svg>
