<svg width="200" height="200" viewBox="0 0 200 200" fill="none" xmlns="http://www.w3.org/2000/svg">
<g clip-path="url(#clip0_3303_393)">
<g clip-path="url(#clip1_3303_393)">
<path d="M195.15 137.702H0.878906Z" fill="white"/>
<path d="M195.15 137.702H0.878906" stroke="white" stroke-width="1.73376" stroke-miterlimit="3.864"/>
<path d="M170.372 61.4315H193.875L172.351 83.4484H148.926L170.372 61.4315Z" fill="white"/>
<path d="M139.899 61.4315H163.4L141.878 83.4484H118.453L139.899 61.4315Z" fill="white"/>
<mask id="mask0_3303_393" style="mask-type:luminance" maskUnits="userSpaceOnUse" x="-5" y="61" width="206" height="83">
<path d="M-4.48047 143.066H200.519V61.4311H-4.48047V143.066Z" fill="white"/>
</mask>
<g mask="url(#mask0_3303_393)">
<path fill-rule="evenodd" clip-rule="evenodd" d="M27.8137 126.888C25.5627 128.001 22.9645 128.297 20.3177 128.348C17.4718 128.396 4.90562 128.348 4.90562 128.348C3.32483 128.175 1.91402 127.333 1.37009 125.254C1.17098 124.489 1.11999 123.278 1.11999 123.278L1.0957 97.5503C1.0957 97.5503 1.19526 94.5806 1.11999 93.0945C1.11999 91.0427 1.56678 89.4594 3.3734 88.3959C5.08045 87.4804 7.62768 87.9005 8.93893 87.7524L22.3453 87.7767C26.7234 87.9005 30.6814 90.1029 32.1675 94.0367C33.4035 97.2784 33.0587 101.606 30.6814 104.155C29.8679 105.267 27.7141 106.503 26.7234 106.627C28.8262 107.368 29.324 107.742 30.1375 108.409C33.3063 110.959 34.4185 114.939 33.7483 118.797C33.1801 122.141 30.8781 125.427 27.8137 126.888ZM22.4958 120.284C21.8523 120.679 21.0607 121.048 19.798 121.172C19.2541 121.221 17.8943 121.221 17.8943 121.221L10.2016 121.248V110.857C13.3899 110.833 19.0574 110.833 19.0574 110.833C19.0574 110.833 20.4172 110.906 21.2817 111.078C22.9402 111.452 24.4505 112.962 24.7468 114.643C25.0187 116.867 24.4505 119.244 22.4958 120.284ZM22.1728 102.892C20.6139 103.781 18.5839 103.682 16.7312 103.66H15.619H10.0996L10.0753 95.1731L18.3144 95.1974C18.3144 95.1974 20.8373 95.3455 21.8256 95.6442C23.3117 96.2877 23.9309 97.8466 24.028 99.3302C23.977 100.666 23.336 102.225 22.1728 102.892Z" fill="white"/>
<path fill-rule="evenodd" clip-rule="evenodd" d="M184.079 127.457C177.324 130.448 168.172 130.079 162.485 125.031C155.358 118.822 153.877 108.334 156.647 99.6025C158.575 93.6387 164.066 88.5419 170.301 87.4321C178.263 85.8246 186.799 87.8765 191.624 94.6295C196.546 101.382 196.597 113.307 191.874 120.68C189.895 123.72 187.071 125.898 184.079 127.457ZM180.172 120.381C176.901 122.015 172.081 121.94 169.311 119.441C164.337 114.643 163.917 106.601 166.44 100.443C167.902 97.2277 171.239 94.729 174.755 94.6295C178.489 94.3332 182.151 96.3122 183.907 99.7239C186.182 104.325 186.209 110.287 184.548 115.16C183.681 117.142 182.248 119.317 180.172 120.381Z" fill="white"/>
<path d="M62.7436 128.026C61.7311 128.347 60.6165 128.373 60.6165 128.373H42.1133H40.9987C39.787 128.223 38.6239 127.159 38.1043 126.122C37.5093 124.092 37.6842 123.772 37.6113 122.461V91.2917C37.808 89.3855 38.3034 88.6692 39.8356 87.9504C41.074 87.778 42.2881 87.7537 42.2881 87.7537L61.3571 87.778C63.4138 87.9504 64.203 88.7663 64.5745 90.2499C64.9193 91.5393 64.5503 92.7972 63.7344 93.7636C62.8918 94.5795 61.8525 94.8272 60.7403 94.951H48.1232H46.3409V103.61C51.0686 103.586 56.1121 103.61 60.8642 103.61C62.3478 103.61 63.4843 104.203 64.2273 105.465C64.7979 106.677 64.7469 108.285 63.8072 109.324C63.3118 109.992 62.224 110.662 61.2333 110.662H60.7161H46.3409V121.05C46.3409 121.05 56.1388 121.025 61.3085 121.123C62.7679 121.149 64.2273 122.065 64.7469 123.449C65.4876 125.255 64.424 127.332 62.7436 128.026Z" fill="white"/>
<path d="M91.8582 127.53C90.8189 128.521 89.039 128.324 89.039 128.324H72.9835H71.8204C70.1133 128.152 68.2581 127.013 67.7142 125.281L67.418 123.451V91.9805C67.6656 89.3847 68.7292 88.1245 70.2639 87.6291C71.5994 87.1337 73.3793 87.2819 74.591 88.0249C75.9265 89.1128 76.3709 90.4507 76.4462 92.1553V121.049H76.8905C76.8905 121.049 85.0567 121.073 89.5563 121.049C91.0423 121.297 92.0063 121.865 92.526 122.732C93.5386 124.215 93.218 126.59 91.8582 127.53Z" fill="white"/>
<path d="M100.394 128.843C98.4631 129.214 96.756 128.568 95.6196 126.961C94.9494 126.045 94.6799 124.61 94.6289 123.522V91.6104C94.828 88.0263 97.4748 87.4557 98.2178 87.3319C99.6772 87.0842 101.309 87.2105 102.249 88.3979C103.237 89.1385 103.584 90.3016 103.66 91.5133V121.963V123.027C103.66 125.873 103.288 128.148 100.394 128.843Z" fill="white"/>
<path fill-rule="evenodd" clip-rule="evenodd" d="M150.783 124.735C150.684 127.209 149.647 128.321 148.136 128.768C146.701 129.213 145.072 128.792 144.105 127.777C143.214 126.838 142.993 125.747 142.993 124.883C142.845 123.028 142.867 98.5876 142.867 98.5876C142.867 98.6872 136.612 123.572 136.612 123.572C136.612 123.572 136.238 125.058 135.815 126.17C134.951 128.321 133.246 128.868 131.343 128.892C129.361 128.941 126.692 128.693 125.626 126.639C125.626 126.639 124.772 125.094 124.291 123.176L118.13 98.7114V99.9498V123.868V125.354C117.958 127.581 116.698 128.448 115.236 128.843C113.903 129.115 112.414 128.868 111.552 128.074C110.61 127.382 110.338 126.59 110.093 124.686V93.566C109.967 90.4238 111.552 88.6925 113.034 88.0733C115.608 87.1117 119.245 86.9102 121.744 88.4691C122.783 89.2121 123.473 90.7711 123.968 92.2547C124.388 93.566 124.711 95.0496 124.711 95.0496L130.527 119.169L136.884 92.1309C136.884 92.1309 137.005 91.587 137.301 90.7954C137.773 89.6322 138.715 88.1486 140.742 87.7042C143.115 87.3084 146.458 87.0607 148.634 88.4205C150.511 89.7804 150.858 91.6622 150.783 93.566V124.735Z" fill="white"/>
<path fill-rule="evenodd" clip-rule="evenodd" d="M197.863 93.5744H196.702C196.554 93.2782 196.455 93.1058 196.032 92.336C195.884 92.0398 195.736 91.8164 195.513 91.8164C195.241 91.8431 195.046 91.8164 195.046 91.8164V93.5744H194.051V88.9729C194.051 88.9729 196.229 88.9486 196.501 89.0239C197.292 89.1477 197.419 89.5678 197.564 90.136C197.64 90.9519 197.193 91.5954 196.477 91.6197C196.576 91.6707 196.974 91.7435 197.244 92.5351C197.467 92.9042 197.516 93.1786 197.691 93.402C197.715 93.5258 197.863 93.5744 197.863 93.5744ZM195.046 89.8398L195.017 90.8766H196.083C196.328 90.8766 196.501 90.7552 196.501 90.357C196.501 90.136 196.455 89.8398 196.108 89.8398H195.046Z" fill="white"/>
<path fill-rule="evenodd" clip-rule="evenodd" d="M191.527 91.3238C191.527 89.0219 193.46 87.0696 195.76 87.0696C198.057 87.0696 200.014 89.0219 200.014 91.3238C200.014 93.6477 198.057 95.5538 195.76 95.5538C193.46 95.5538 191.527 93.6477 191.527 91.3238ZM192.27 91.3238C192.27 89.4444 193.878 87.8854 195.76 87.8854C197.637 87.8854 199.271 89.4444 199.271 91.3238C199.271 93.179 197.637 94.7112 195.76 94.7112C193.878 94.7112 192.27 93.179 192.27 91.3238Z" fill="white"/>
</g>
</g>
</g>
<defs>
<clipPath id="clip0_3303_393">
<rect width="200" height="200" fill="white"/>
</clipPath>
<clipPath id="clip1_3303_393">
<rect width="200" height="77.137" fill="white" transform="translate(0.015625 61.4315)"/>
</clipPath>
</defs>
</svg>
