<svg width="200" height="200" viewBox="0 0 200 200" fill="none" xmlns="http://www.w3.org/2000/svg">
<g clip-path="url(#clip0_1886_10667)">
<g clip-path="url(#clip1_1886_10667)">
<path d="M169.048 99.6712C171.686 98.3522 172.781 96.595 172.781 94.1807C172.781 89.7903 169.49 87.376 163.781 87.376H151.7V114.162H164.214C169.929 114.162 173.657 111.086 173.657 106.476C173.657 102.962 172.338 100.985 169.048 99.6712ZM157.414 91.7665H162.905C165.976 91.7665 167.514 92.6474 167.514 94.8426C167.514 96.8188 165.976 97.9141 163.124 97.9141H157.409L157.414 91.7665ZM163.333 109.328C163.333 109.328 157.619 109.328 157.405 109.547V102.305H162.895C166.624 102.305 168.162 103.405 168.162 105.819C168.162 108.233 166.629 109.328 163.333 109.328Z" fill="white"/>
<path d="M140.286 98.1335L135.457 97.2573C133.262 97.0383 132.162 95.9383 132.162 94.4002C132.162 92.424 133.919 91.3288 136.553 91.3288C139.629 91.3288 141.381 92.6478 141.605 95.2811V95.0621H147.529C147.31 89.7907 143.357 86.7192 137.21 86.7192C130.843 86.7192 126.895 89.7907 126.895 94.6192C126.895 98.7907 129.529 101.21 134.991 102.305L139.386 103.181C141.581 103.624 142.676 104.5 142.676 106.257C142.676 108.234 140.481 109.772 137.629 109.772C133.676 109.772 132.138 108.453 131.7 104.938H125.986C125.986 110.867 130.157 114.381 137.181 114.381C143.991 114.381 148.162 111.086 148.162 105.81C148.191 101.648 145.333 99.0145 140.286 98.1335Z" fill="white"/>
<path d="M195.39 99.6712C198.024 98.3522 199.124 96.595 199.124 94.1807C199.124 89.7903 195.829 87.376 190.119 87.376H178.048V114.162H190.562C196.276 114.162 200 111.086 200 106.476C200 102.962 198.681 100.985 195.39 99.6712ZM183.533 91.7665H189.048C192.119 91.7665 193.657 92.6474 193.657 94.8426C193.657 96.8188 192.119 97.9141 189.267 97.9141H183.552L183.533 91.7665ZM189.462 109.328L183.533 109.547V102.305H189.048C192.781 102.305 194.314 103.405 194.314 105.819C194.314 108.233 192.757 109.328 189.462 109.328Z" fill="white"/>
<path d="M0 118.991H113.5V81.0098H0V118.991ZM69.3762 87.3764H76.8381L66.9571 97.0383H79.0476V87.3764H84.7619V97.0383H97.0571L87.1429 87.3764H94.619L107.143 100.11L94.619 112.624H87.1429L97.0238 102.962H84.7619V112.624H79.0476V102.962H66.7381L76.619 112.624H69.3762L56.8619 100.11L69.3762 87.3764Z" fill="white"/>
</g>
</g>
<defs>
<clipPath id="clip0_1886_10667">
<rect width="200" height="200" fill="white"/>
</clipPath>
<clipPath id="clip1_1886_10667">
<rect width="200" height="200" fill="white"/>
</clipPath>
</defs>
</svg>
