<svg width="200" height="200" viewBox="0 0 200 200" fill="none" xmlns="http://www.w3.org/2000/svg">
<g clip-path="url(#clip0_1886_10682)">
<path d="M83.8944 81.4692H78.3577C78.0762 81.4692 77.8181 81.5631 77.6304 81.7508C77.4427 81.9384 77.3254 82.1965 77.3254 82.5484V113.727C77.3254 114.431 77.6773 114.783 78.3577 114.783H83.8944C84.5747 114.783 84.9031 114.431 84.9031 113.727V82.525C84.9031 82.1965 84.8093 81.9384 84.6216 81.7508C84.4574 81.5631 84.2228 81.4692 83.8944 81.4692Z" fill="white"/>
<path d="M71.953 81.4692H65.9941C65.3372 81.4692 64.9149 81.7742 64.6803 82.4311L56.9853 103.897L49.3372 82.5015C49.0791 81.8211 48.6568 81.4692 48.0234 81.4692H42.6979C42.346 81.4692 42.0879 81.5631 41.8768 81.7273C41.6656 81.8915 41.5718 82.1496 41.5718 82.478C41.5718 82.6892 41.6187 82.9472 41.736 83.2053L54.2873 113.821C54.5688 114.455 54.9911 114.783 55.6246 114.783H58.4867C59.0967 114.783 59.5425 114.455 59.824 113.821L72.5864 83.0176C72.7272 82.6423 72.7976 82.3607 72.7976 82.1731C72.7976 81.7038 72.5161 81.4692 71.953 81.4692Z" fill="white"/>
<path d="M35.9883 81.4692H30.4517C30.1702 81.4692 29.9121 81.5631 29.7244 81.7508C29.5133 81.9384 29.4194 82.1965 29.4194 82.5484V113.727C29.4194 114.431 29.7713 114.783 30.4517 114.783H35.9883C36.6687 114.783 36.9971 114.431 36.9971 113.727V82.525C36.9971 82.1965 36.9033 81.9384 36.7156 81.7508C36.5279 81.5631 36.2933 81.4692 35.9883 81.4692Z" fill="white"/>
<path d="M24.0469 107.557H7.62463V82.5484C7.60117 81.8211 7.27273 81.4692 6.59238 81.4692H1.0088C0.703812 81.4692 0.469208 81.5631 0.281525 81.7742C0.0938416 81.9619 0 82.22 0 82.5484V113.727C0 114.408 0.328446 114.76 1.0088 114.76H24.0469C24.7742 114.76 25.1261 114.408 25.1261 113.727V108.566C25.1261 107.909 24.7742 107.557 24.0469 107.557Z" fill="white"/>
<path d="M116.786 83.3226C114.112 81.7742 111.226 81 108.082 81C104.962 81 102.076 81.7742 99.4488 83.3226C96.7978 84.871 94.7098 86.9589 93.1849 89.5865C91.6365 92.2141 90.8623 95.0997 90.8623 98.2199C90.8623 101.34 91.6365 104.226 93.1849 106.877C94.7333 109.528 96.8213 111.616 99.4723 113.188C102.1 114.736 104.985 115.51 108.106 115.51C109.185 115.51 110.217 115.416 111.249 115.229L112.469 117.856C112.657 118.279 112.845 118.537 113.032 118.654C113.22 118.771 113.478 118.842 113.83 118.842H119.062H119.531C119.742 118.842 119.953 118.771 120.117 118.631C120.282 118.49 120.375 118.302 120.375 118.044C120.375 117.903 120.352 117.739 120.305 117.575L118.029 112.367C120.117 110.912 121.83 109.082 123.167 106.853C124.739 104.202 125.513 101.317 125.513 98.1965C125.513 95.0762 124.739 92.1906 123.167 89.5631C121.572 86.9355 119.461 84.8475 116.786 83.3226ZM117.185 103.522C116.669 104.484 116.012 105.352 115.238 106.079L113.431 101.88C113.29 101.504 113.103 101.246 112.915 101.106C112.727 100.965 112.446 100.894 112.094 100.894H111.625H105.947C105.713 100.894 105.525 100.965 105.361 101.129C105.197 101.293 105.126 101.504 105.126 101.762C105.126 101.95 105.173 102.114 105.244 102.255L108.317 108.894C108.246 108.894 108.176 108.894 108.106 108.894C106.135 108.894 104.352 108.425 102.804 107.463C101.255 106.501 100.035 105.211 99.1673 103.545C98.2993 101.903 97.8535 100.097 97.8535 98.1496C97.8535 96.1789 98.2993 94.3959 99.1673 92.7771C100.035 91.1584 101.255 89.868 102.827 88.9062C104.399 87.9443 106.158 87.4751 108.129 87.4751C110.123 87.4751 111.906 87.9443 113.502 88.9062C115.073 89.868 116.317 91.1584 117.208 92.7771C118.1 94.3959 118.546 96.1789 118.546 98.1261C118.522 100.073 118.076 101.88 117.185 103.522Z" fill="white"/>
<path d="M183.625 115.51C186.604 115.487 189.396 114.713 192.024 113.188C193.572 112.273 194.933 111.17 196.129 109.903H196.153C196.974 109.012 197.724 108.026 198.381 106.924C198.546 106.666 198.686 106.384 198.827 106.126C199.155 105.516 198.71 104.789 198.029 104.789H192.188C191.906 104.789 191.648 104.93 191.46 105.141L191.437 105.164C190.499 106.361 189.326 107.276 187.941 107.932C186.604 108.566 185.15 108.894 183.601 108.918C182.053 108.894 180.411 108.589 179.05 107.932C177.666 107.276 176.516 106.361 175.554 105.164C174.616 103.968 173.959 102.607 173.584 101.035H197.302C198.006 101.035 198.546 100.988 198.874 100.918C199.202 100.847 199.484 100.613 199.672 100.214C199.859 99.8386 199.977 99.2052 199.977 98.3606C199.977 94.5835 199.132 91.3929 197.466 88.7888C195.801 86.1847 193.689 84.2609 191.155 82.9941C188.622 81.7037 186.041 81.0703 183.437 81.0703C180.223 81.0703 177.314 81.8445 174.733 83.3929C172.153 84.9413 170.111 87.0293 168.633 89.6803C167.155 92.3078 166.428 95.1935 166.428 98.3372C166.428 101.41 166.944 104.296 168.516 106.947C170.088 109.575 172.199 111.686 174.851 113.235C177.478 114.759 180.551 115.51 183.531 115.534L183.625 115.51ZM173.889 94.7008C174.358 93.3401 175.062 92.1202 175.977 91.041C176.892 89.9383 177.994 89.0703 179.238 88.4369C180.504 87.8035 182.029 87.475 183.484 87.475C185.619 87.475 187.519 88.1319 189.161 89.4691C190.804 90.7829 192.024 92.5425 192.821 94.7008H173.889Z" fill="white"/>
<path d="M159.859 81.4692H154.557C153.806 81.4692 153.431 81.8446 153.431 82.6188V100.12C153.431 102.067 153.126 103.921 152.328 105.164C151.531 106.408 150.569 107.299 149.466 107.839C148.364 108.378 147.449 108.66 146.346 108.683C144.61 108.707 143.038 108.613 141.888 108.003C140.739 107.37 139.918 106.501 139.402 105.328C138.862 104.132 138.698 102.396 138.651 100.965V82.6188C138.651 81.8681 138.276 81.4692 137.548 81.4692H132.152C131.425 81.4692 131.073 81.8446 131.073 82.6188V101.129C131.073 104.507 131.73 107.252 133.067 109.411C134.405 111.569 136.07 113.117 138.088 114.079C140.105 115.041 142.17 115.534 144.281 115.534C149.466 115.534 152.047 113.915 154.369 111.194L154.956 113.469C155.05 113.845 155.237 114.15 155.519 114.408C155.824 114.666 156.152 114.806 156.528 114.806H159.836C160.586 114.806 160.938 114.431 160.938 113.657V82.6188C160.985 81.8446 160.61 81.4692 159.859 81.4692Z" fill="white"/>
</g>
<defs>
<clipPath id="clip0_1886_10682">
<rect width="200" height="200" fill="white"/>
</clipPath>
</defs>
</svg>
