<svg width="200" height="199" viewBox="0 0 200 199" fill="none" xmlns="http://www.w3.org/2000/svg">
<g clip-path="url(#clip0_1886_10664)">
<mask id="mask0_1886_10664" style="mask-type:luminance" maskUnits="userSpaceOnUse" x="0" y="84" width="200" height="30">
<path d="M199.444 84.5269H0.556396V113.871H199.444V84.5269Z" fill="white"/>
</mask>
<g mask="url(#mask0_1886_10664)">
<path d="M28.0486 94.8045C27.6388 94.7746 27.2272 94.7746 26.8175 94.7746C22.8854 94.7746 19.4248 95.6269 16.6225 97.2836C18.9694 94.1678 20.1487 90.0799 20.0752 85.2893V84.5269H11.1551L11.167 85.4071C11.2247 88.6627 10.463 91.0979 8.90966 92.5929C6.88697 94.5291 3.60534 94.8225 1.20079 94.7047L0.556396 94.6708V103.571L0.908428 103.593C1.31814 103.623 1.72983 103.623 2.13954 103.623C6.07154 103.623 9.53217 102.771 12.3345 101.114C9.98762 104.23 8.80822 108.318 8.88181 113.108V113.871H17.8019L17.79 112.991C17.7323 109.735 18.4941 107.3 20.0473 105.805C22.07 103.869 25.3516 103.575 27.7562 103.693L28.4006 103.727V94.8265L28.0486 94.8045Z" fill="white"/>
<path d="M50.1372 95.5133C50.1372 98.8946 47.7862 102.019 43.719 102.019H39.0471V109.402H35.3618V89.0082H43.735C47.7862 89.0082 50.1372 92.134 50.1372 95.5133ZM39.0471 92.3236V98.701H43.1781C45.165 98.701 46.3562 97.4415 46.3882 95.5113C46.3562 93.5812 45.165 92.3217 43.1781 92.3217H39.0471V92.3236ZM91.8756 106.739C89.7633 106.739 88.9997 106.228 88.9997 104.444V97.6032H92.8441V94.5732H88.5064C89.2045 93.9185 89.8251 93.0103 89.7296 90.9224H86.3922C86.3922 91.0981 86.2172 94.3197 83.2458 95.6112V97.6052H85.533V104.813C85.533 108.274 87.7089 109.803 91.1894 109.803C91.7941 109.803 92.4126 109.771 93.0172 109.675V106.677C92.6195 106.709 92.2554 106.741 91.8736 106.741L91.8756 106.739ZM109.332 89.0222H96.2232V109.4H99.9245V101.06H108.632V97.7749H99.9245V92.3536H109.33V89.0202L109.332 89.0222ZM115.471 94.2678H111.961V109.416H115.471V94.2678ZM118.825 109.418H122.335V100.775C122.335 98.2879 124.29 97.22 125.909 97.22C127.355 97.22 128.451 98.0962 128.451 100.25V109.418H131.961V99.8188C131.961 96.1042 130.149 93.9025 126.703 93.9025C124.716 93.9025 122.731 94.9704 122.142 96.9645L121.872 94.2698H118.821V109.418H118.825ZM134.378 101.827C134.378 97.9366 136.633 93.9185 141.623 93.9185C143.91 93.9185 145.627 95.2099 145.897 96.3417L146.136 94.2838H149.219V105.941C149.219 106.404 149.457 106.945 150.506 106.929V109.528L149.712 109.623C147.661 109.751 145.979 108.556 145.899 107.104V107.073C145.47 108.476 143.644 109.799 141.625 109.799C136.621 109.799 134.38 105.494 134.38 101.827H134.378ZM145.818 102.29V101.11C145.818 98.5593 144.069 97.1561 141.941 97.1561C139.225 97.1561 138.001 99.6751 138.001 101.813C138.001 103.951 138.859 106.502 141.941 106.502C144.467 106.518 145.818 104.619 145.818 102.292V102.29ZM153.373 94.2678V109.416H156.884V100.773C156.884 98.2859 158.839 97.218 160.458 97.218C161.904 97.218 163 98.0942 163 100.248V109.416H166.51V99.8168C166.51 96.1022 164.699 93.9005 161.251 93.9005C159.264 93.9005 157.28 94.9684 156.691 96.9625L156.42 94.2678H153.37H153.373ZM179.752 104.314C179.115 106.372 177.623 106.577 176.669 106.577C174.713 106.577 172.459 105.302 172.459 101.921C172.459 98.5394 174.746 97.2 176.669 97.2C177.669 97.2 179.227 97.4395 179.72 99.4635L183.171 98.5733C182.481 95.707 179.663 93.9784 176.687 93.9784C172.015 93.9784 169.014 97.5653 169.014 101.887C169.014 106.208 171.81 109.763 176.671 109.795C179.85 109.825 182.157 108.124 182.988 105.152L179.754 104.31L179.752 104.314ZM199 105.476C198.175 107.979 196.045 109.799 192.657 109.799C187.923 109.799 184.889 106.212 184.889 101.859C184.889 97.2659 187.925 93.9504 192.421 93.9504C195.551 93.9664 199.444 95.8647 199.444 101.683L199.411 102.687H188.471C188.376 104.887 190.244 106.769 192.628 106.769C193.85 106.769 195.282 106.402 195.807 104.649L199 105.476ZM188.614 100.184L195.828 100.176C195.828 98.214 194.312 96.8028 192.502 96.8028C190.451 96.8028 188.805 98.3178 188.614 100.184ZM113.821 91.9244C114.901 91.9244 115.824 91.0322 115.824 89.9463C115.824 88.8605 114.903 87.9683 113.821 87.9683C112.773 87.9683 111.85 88.8605 111.85 89.9463C111.85 91.0322 112.771 91.9244 113.821 91.9244ZM58.9399 93.7907C54.4111 93.7907 51.219 97.4096 51.219 101.795C51.219 106.18 54.3655 109.799 58.9717 109.799C63.548 109.799 66.6924 106.148 66.6924 101.795C66.6924 97.4096 63.5461 93.7907 58.9399 93.7907ZM58.9717 106.643C56.4776 106.643 54.4431 104.476 54.4431 101.781C54.4431 99.0863 56.4776 96.9186 58.9717 96.9186C61.4657 96.9186 63.5003 99.0863 63.5003 101.781C63.5003 104.476 61.4657 106.643 58.9717 106.643ZM75.4315 109.799C79.3239 109.799 81.9133 107.663 81.9133 104.49C81.9133 100.935 78.6555 100.519 75.8909 100.168C73.8722 99.8967 72.0943 99.6252 72.0943 98.1422C72.0943 97.1062 72.9833 96.3557 74.8429 96.3557C76.798 96.3557 77.8461 97.2 78.2756 98.699L81.6288 97.8388C81.0084 95.2878 78.8643 93.4374 74.9881 93.4374C71.064 93.4374 68.5381 95.3197 68.5381 98.4915C68.5381 102.078 71.764 102.557 74.5763 102.988C76.6428 103.308 78.3253 103.563 78.3253 104.983C78.3253 106.114 77.2831 106.845 75.5031 106.845C73.6435 106.845 72.2096 106.021 71.7322 104.314L68.3472 105.19C69.1884 108.077 71.953 109.799 75.4335 109.799H75.4315Z" fill="white"/>
</g>
</g>
<defs>
<clipPath id="clip0_1886_10664">
<rect width="198.887" height="29.344" fill="white" transform="translate(0.556396 84.5269)"/>
</clipPath>
</defs>
</svg>
