<svg width="200" height="200" viewBox="0 0 200 200" fill="none" xmlns="http://www.w3.org/2000/svg">
<g clip-path="url(#clip0_3520_1356)">
<path d="M200 111.312L14.3125 152.625L0 88.3125L185.688 47L200 111.312ZM37.6875 121.125C59.4375 116.75 52.4375 85.4375 30.875 90.625C30.8156 90.6382 12.0148 94.8091 12.0625 94.75L22.5 141.562L31.25 139.625L27.625 123.375L37.6875 121.125ZM81.625 98.875C72.6875 89.2501 52.625 97.6251 55.6875 111.312L63.6875 109.688C62 100.188 76.75 98.9375 77.125 108.562C71.8125 110.063 63.4375 112.5 60.5625 116.312C56.5626 120.312 57.5001 127.937 62.625 130.562C68.9375 133.938 80.25 129.75 80.125 121.438L80.375 121.375C80.875 123.75 81.5625 126.063 82.5 128.25L90.5 126.438C86.375 118.25 87.4375 106.187 81.625 98.875ZM78.1875 112.938C79.25 116.438 79.5 120.688 76.625 123.375C67.5626 131.187 60.6252 117.563 72.875 114.625L78.1875 112.938ZM93.6875 75.875V108.25C93.375 114.062 95.1876 121 101.688 122.438C104.625 123.187 107.625 122.875 110.375 121.625L110.188 114.812C105.125 117.375 101.125 113.187 101.75 108.062L101.812 75.6875L93.6875 75.875ZM144.812 96.25C139.937 72.7501 105.563 81.1875 111.438 104.188C114.375 123.562 145.812 123.25 145.438 103.188L138 104.25C137.562 114.437 121.562 114.375 120.25 104.5L145.125 99C145.125 98.125 145 97.1875 144.812 96.25ZM22.3125 99.75C25.5 99.3125 32.9999 96.5626 36.1875 97.75C42.25 99.3125 44.3125 108.438 39.4375 112.375C37.0624 114.75 29.125 115.5 26 116.438L22.3125 99.75ZM175 73.375C154.25 67.2502 138 102 160.25 110C181.25 116.125 197.25 81.5625 175 73.375ZM161.625 83.6875C173.625 72.4375 182.562 90.125 173.562 99.625C161.5 111.312 152.438 93.25 161.625 83.6875ZM111.562 75.125L113.938 80.6875L132.875 72.625L130.438 67.0625L111.562 75.125Z" fill="white"/>
<path d="M119.125 99.375C116.688 88 133.688 84.1875 136.063 95.6875L119.125 99.375Z" fill="white"/>
</g>
<defs>
<clipPath id="clip0_3520_1356">
<rect width="200" height="200" fill="white"/>
</clipPath>
</defs>
</svg>
