<svg width="200" height="200" viewBox="0 0 200 200" fill="none" xmlns="http://www.w3.org/2000/svg">
<g clip-path="url(#clip0_1886_10681)">
<g clip-path="url(#clip1_1886_10681)">
<path fill-rule="evenodd" clip-rule="evenodd" d="M74.9715 106.135C67.9701 106.135 62.3264 100.538 62.3264 93.6446C62.3264 86.7508 67.9701 81.1545 74.9715 81.1545C81.9239 81.1545 87.5676 86.7508 87.5676 93.6446C87.5676 100.538 81.9239 106.135 74.9715 106.135ZM96.287 76.6928C90.3878 72.637 82.3962 70.9127 74.9715 70.9127C61.0668 70.9127 44.7933 76.8073 44.7933 93.4954C44.7933 95.695 45.1466 97.742 45.4965 99.4906C42.526 102.787 37.638 106.034 31.5918 106.034C23.6317 106.034 17.988 100.989 17.988 93.2456C17.988 86.0499 23.5793 80.7555 30.885 80.7555C34.5624 80.7555 37.2846 82.0046 38.7961 83.0038L44.6428 73.8132C41.7177 72.3629 36.0249 70.3125 28.4673 70.3125C14.1567 70.3125 0 77.9557 0 93.3462C0 108.681 12.7466 116.578 28.0159 116.578C37.6869 116.578 45.4476 111.779 49.8282 106.985C55.5245 113.129 65.1465 116.029 74.9715 116.029C82.1793 116.029 90.2863 114.395 96.287 110.305V76.6928Z" fill="white"/>
<path fill-rule="evenodd" clip-rule="evenodd" d="M169.376 106.284H169.226C162.172 106.183 156.427 100.736 156.427 92.9437C156.427 85.4497 162.322 79.9541 169.226 79.9021H169.376C176.633 79.9021 182.074 85.6509 182.074 92.8431C182.074 99.789 176.783 106.284 169.376 106.284ZM118.285 105.333C111.333 105.333 105.689 99.7369 105.689 92.8431C105.689 85.9007 111.333 80.3045 118.285 80.3045C125.241 80.3045 130.885 85.9007 130.885 92.8431C130.885 99.7369 125.241 105.333 118.285 105.333ZM172.599 71.2111C171.441 71.2111 170.331 71.3117 169.226 71.4123C164.037 72.0125 159.954 73.8583 156.78 76.0579V71.9605H142.823V78.6045C136.931 72.7099 126.5 70.3125 118.337 70.3125H118.285C110.86 70.3125 102.799 72.0299 96.875 76.1412V109.611C102.76 113.691 110.783 115.426 118.285 115.426H118.337C127.708 115.426 136.574 112.48 142.522 107.484V128.467H156.78V109.83C158.998 111.88 163.229 114.427 169.226 115.176C170.433 115.325 171.696 115.426 173.005 115.426C184.24 115.426 198.9 108.733 198.9 92.9923C198.9 78.3547 187.06 71.2111 172.599 71.2111Z" fill="white"/>
<path fill-rule="evenodd" clip-rule="evenodd" d="M96.2683 110.185C91.1284 106.688 87.5 101.241 87.5 93.3997C87.5 85.6039 91.0269 80.1603 96.2683 76.5625C101.457 80.1603 105.033 85.6039 105.033 93.3997C105.033 101.241 101.457 106.639 96.2683 110.185Z" fill="white"/>
</g>
</g>
<defs>
<clipPath id="clip0_1886_10681">
<rect width="200" height="200" fill="white"/>
</clipPath>
<clipPath id="clip1_1886_10681">
<rect width="200" height="59.375" fill="white" transform="translate(0 70.3125)"/>
</clipPath>
</defs>
</svg>
