<svg width="200" height="200" viewBox="0 0 200 200" fill="none" xmlns="http://www.w3.org/2000/svg">
<g clip-path="url(#clip0_1886_10672)">
<path fill-rule="evenodd" clip-rule="evenodd" d="M101.21 41.1812C95.2808 41.1825 89.4705 42.8404 84.4338 45.968C79.3972 49.0955 75.3346 53.5682 72.7045 58.8815C70.0743 64.1948 68.9811 70.1374 69.5483 76.0389C70.1154 81.9404 72.3203 87.566 75.9143 92.2812L102.362 57.5193H96.6667C94.0251 57.4836 91.3857 57.6876 88.7809 58.1288C87.6199 58.3406 86.5156 58.7914 85.5381 59.4526C84.2139 60.5073 83.1131 61.8153 82.3 63.3002C82.2 63.4812 82.0571 63.7526 81.8714 64.1193L80.3238 63.7812L82.9143 53.7812H116.038L89.719 88.9717C90.9751 88.8415 92.2372 88.7795 93.5 88.7859C94.5667 88.7859 96.1905 88.8526 98.3571 88.9812L103.033 89.2574C104.724 89.3574 106.148 89.4097 107.224 89.4097C109.093 89.4793 110.962 89.256 112.762 88.7478C113.981 88.394 115.138 87.8526 116.19 87.1431C118.156 85.7377 119.771 83.8979 120.91 81.7669C121.019 81.5574 121.186 81.2431 121.386 80.8145L122.814 81.1812C122.486 82.5476 122.019 83.8768 121.419 85.1478C119.99 88.305 118.405 90.424 116.21 92.0478C113.986 93.7057 111.283 94.5949 108.51 94.5812H108.057C105.871 94.5812 104.181 94.3955 98.9476 93.5955C93.619 92.7812 90.9095 92.505 88.2333 92.505C86.498 92.4987 84.7651 92.6356 83.0524 92.9145C81.2302 93.1446 79.4595 93.679 77.8143 94.4955C81.3911 98.3941 85.884 101.339 90.8859 103.063C95.8879 104.788 101.241 105.237 106.46 104.371C111.68 103.505 116.601 101.351 120.778 98.1032C124.955 94.8557 128.256 90.6176 130.382 85.7727C132.508 80.9278 133.392 75.6291 132.954 70.3565C132.515 65.0838 130.769 60.0037 127.873 55.5761C124.976 51.1486 121.021 47.5135 116.365 45C111.709 42.4864 106.5 41.1739 101.21 41.1812Z" fill="white"/>
<path fill-rule="evenodd" clip-rule="evenodd" d="M34.5237 153.467C32.9129 153.731 31.2845 153.874 29.6523 153.895C29.0094 153.895 28.1808 153.919 27.1761 153.919H22.4142L41.1856 126.848H16.8523L13.8618 133.457C14.592 133.047 15.3493 132.688 16.1285 132.381C17.5428 131.82 19.0108 131.405 20.5094 131.143C21.9512 130.902 23.4096 130.775 24.8713 130.762C25.7285 130.738 26.5285 130.724 27.2761 130.724H30.8808L11.938 157.81H38.7142L41.8047 150.743C41.0696 151.186 40.3078 151.584 39.5237 151.933C37.9271 152.65 36.2475 153.165 34.5237 153.467Z" fill="white"/>
<path fill-rule="evenodd" clip-rule="evenodd" d="M119.828 134.4V132.586C119.828 130.51 119.9 129.943 120.162 129.105C120.451 128.205 121.012 127.416 121.767 126.848H111.833C112.281 127.191 112.67 127.604 112.986 128.071C113.19 128.383 113.35 128.721 113.462 129.076C113.695 129.829 113.767 130.571 113.781 132.41C113.781 133.362 113.781 133.971 113.781 134.271V152.814C113.797 153.831 113.636 154.843 113.305 155.805C113.18 156.123 113.02 156.426 112.828 156.71C112.545 157.103 112.226 157.47 111.876 157.805H121.695C121.317 157.497 120.995 157.126 120.743 156.71C120.55 156.41 120.39 156.091 120.267 155.757C119.973 154.88 119.828 153.959 119.838 153.033V134.4H119.828Z" fill="white"/>
<path fill-rule="evenodd" clip-rule="evenodd" d="M149.548 153.333C147.847 154.088 146.008 154.481 144.148 154.486C142.658 154.527 141.177 154.251 139.801 153.676C138.426 153.101 137.189 152.241 136.171 151.152C134.167 148.986 133.081 145.976 133.081 142.581C133.081 139.333 134.086 136.329 135.876 134.224C136.67 133.3 137.621 132.525 138.686 131.933C140.52 130.931 142.582 130.42 144.671 130.448C146.583 130.45 148.475 130.83 150.238 131.567C151.15 131.907 152.008 132.376 152.786 132.962V127.143C152.163 126.933 151.526 126.764 150.881 126.638C149.091 126.262 147.267 126.078 145.438 126.091C142.413 126.032 139.407 126.591 136.605 127.733C135.076 128.372 133.645 129.221 132.352 130.257C128.543 133.333 126.462 137.781 126.462 142.91C126.462 147.891 128.462 152.191 132.119 155.076C135.138 157.457 139.014 158.657 143.686 158.657C146.639 158.648 149.573 158.175 152.381 157.257L152.881 157.095V151.467C152.143 151.943 151.886 152.124 151.452 152.386C150.838 152.742 150.202 153.058 149.548 153.333Z" fill="white"/>
<path fill-rule="evenodd" clip-rule="evenodd" d="M186.41 155.833C186.11 155.11 186.029 154.562 186.005 153.038C186.005 152.124 185.976 151.586 185.976 151.433L186.005 134.4V132.562C185.976 131.46 186.091 130.358 186.348 129.286C186.451 128.885 186.611 128.502 186.824 128.148C187.132 127.63 187.549 127.186 188.048 126.848H177.962C178.416 127.19 178.798 127.619 179.086 128.11C179.302 128.448 179.476 128.811 179.605 129.191C179.883 130.249 179.994 131.345 179.933 132.438V139.967H166.052V134.314C166.052 132.605 166.081 131.481 166.138 130.648C166.166 130.19 166.249 129.737 166.386 129.3C166.674 128.516 167.11 127.795 167.672 127.176L168.014 126.848H158.095C158.475 127.209 158.816 127.608 159.114 128.038C159.336 128.364 159.513 128.718 159.643 129.091C159.914 129.876 159.957 130.3 159.986 132.367V134.329V151.271C160.013 152.36 159.972 153.45 159.862 154.533C159.809 154.953 159.707 155.366 159.557 155.762C159.305 156.428 158.897 157.024 158.367 157.5L158.024 157.81H167.819C167.248 157.245 166.801 156.567 166.51 155.819C166.167 154.958 166.005 154.036 166.033 153.11C166.033 152.452 166.01 151.833 166.01 151.262V143.757H179.891V151.31C179.921 152.362 179.876 153.416 179.757 154.462C179.701 154.918 179.589 155.366 179.424 155.795C179.176 156.41 178.795 156.963 178.31 157.414L177.881 157.81H187.776C187.466 157.522 187.186 157.203 186.943 156.857C186.727 156.537 186.548 156.194 186.41 155.833Z" fill="white"/>
<path fill-rule="evenodd" clip-rule="evenodd" d="M67.4953 128.195C67.6181 128.575 67.7042 128.966 67.7524 129.362C67.9233 131.069 67.9885 132.785 67.9476 134.5V144.11C67.9975 145.86 67.9115 147.611 67.6905 149.348C67.5735 150.144 67.3034 150.911 66.8953 151.605C66.467 152.278 65.9099 152.859 65.2562 153.316C64.6024 153.773 63.8648 154.096 63.0857 154.267C62.3648 154.436 61.6263 154.519 60.8857 154.514C59.4221 154.546 57.9752 154.198 56.6857 153.505C55.9552 153.12 55.3243 152.571 54.8429 151.9C53.9953 150.662 53.7476 149.41 53.7191 146.233L53.681 142.338V134.5C53.6393 132.785 53.7045 131.069 53.8762 129.362C53.9772 128.574 54.2363 127.814 54.6381 127.129C54.6714 127.067 54.7286 126.971 54.8095 126.848H45.4238C45.885 127.178 46.2699 127.603 46.5524 128.095C46.7487 128.434 46.8977 128.797 46.9953 129.176C47.1105 129.644 47.176 130.123 47.1905 130.605C47.1905 130.943 47.1905 131.586 47.2143 132.51V134.3V143.152C47.2143 146.281 47.2143 147.357 47.3381 148.61C47.4603 150.691 48.2238 152.684 49.5238 154.314C50.8905 155.996 52.7072 157.254 54.7619 157.943C56.581 158.554 58.4909 158.85 60.4095 158.819C62.5389 158.859 64.6596 158.537 66.681 157.867C68.4395 157.214 70.0189 156.155 71.2905 154.776C72.7516 153.102 73.629 150.998 73.7905 148.781C73.9659 146.939 74.0359 145.088 74 143.238V134.314V132.562V132.314C73.9622 131.284 74.0566 130.254 74.281 129.248C74.5026 128.405 74.9903 127.657 75.6714 127.114L76.0238 126.848H66.8191C67.1191 127.255 67.3478 127.711 67.4953 128.195Z" fill="white"/>
<path fill-rule="evenodd" clip-rule="evenodd" d="M106.891 155.662C105.8 154.629 104.833 153.638 103.386 152.067C102.462 151.073 101.71 150.232 101.129 149.543L96.3239 143.891C96.9192 143.71 97.1477 143.629 97.6954 143.414C99.0779 142.892 100.365 142.145 101.505 141.205C102.646 140.294 103.494 139.066 103.943 137.676C104.193 136.907 104.322 136.104 104.324 135.295C104.325 133.39 103.572 131.561 102.229 130.21C100.853 128.821 99.1075 127.856 97.2001 127.429C95.4596 127.058 93.6843 126.876 91.9049 126.886C90.9763 126.857 90.0001 126.848 89.0477 126.848H81.043C81.4474 127.18 81.799 127.572 82.0858 128.01C82.3174 128.359 82.4986 128.738 82.6239 129.138C82.8861 130.217 82.9904 131.329 82.9335 132.438V152.757C82.9946 153.767 82.8736 154.78 82.5763 155.748C82.4436 156.098 82.2625 156.428 82.0382 156.729C81.7336 157.125 81.3872 157.487 81.0049 157.81H90.8525C90.539 157.498 90.2523 157.16 89.9954 156.8C89.7794 156.506 89.6018 156.186 89.4668 155.848C89.1511 154.93 89.0137 153.96 89.062 152.991C89.062 152.514 89.062 152 89.062 151.433V144.481L94.8001 151.357C95.0716 151.686 95.5001 152.186 96.0858 152.852C96.7493 153.608 97.2525 154.165 97.5954 154.524C98.5265 155.527 99.6057 156.381 100.795 157.057C101.742 157.556 102.801 157.806 103.872 157.781C104.348 157.781 104.905 157.81 105.476 157.81H109.367C108.843 157.391 108.638 157.224 108.238 156.857C107.838 156.491 107.362 156.105 106.891 155.662ZM95.0715 140.476C93.8732 141.163 92.545 141.593 91.1716 141.738C90.636 141.825 90.0949 141.873 89.5525 141.881C89.3954 141.881 89.2906 141.881 89.0525 141.881V130.4H89.8573C91.2647 130.385 92.6677 130.56 94.0287 130.919C94.7984 131.137 95.5126 131.517 96.1239 132.033C96.6588 132.508 97.0799 133.097 97.356 133.756C97.6322 134.416 97.7563 135.129 97.7192 135.843C97.7658 137.115 97.3381 138.359 96.5192 139.333C96.0975 139.786 95.6094 140.171 95.0715 140.476Z" fill="white"/>
</g>
<defs>
<clipPath id="clip0_1886_10672">
<rect width="200" height="200" fill="white"/>
</clipPath>
</defs>
</svg>
