<svg width="200" height="204" viewBox="0 0 200 204" fill="none" xmlns="http://www.w3.org/2000/svg">
<path d="M2.38939 122.921C2.21526 121.772 2.21526 121.197 2.38939 120.433C2.56193 119.481 3.42941 117.952 4.2953 116.043C7.5959 109.167 12.6251 100.571 19.3908 90.0713C26.1581 79.3772 31.5372 71.9293 35.1781 67.9209C36.5648 66.5806 39.8654 65.0549 40.9038 65.8201C41.4246 66.1987 41.0779 66.7723 40.212 67.5359C39.1704 68.3012 36.913 71.164 33.0964 76.1309C28.5849 81.8598 24.5973 88.1606 21.1242 95.0334C19.5618 98.0928 19.5618 99.43 20.7775 99.43C21.4741 99.43 21.9933 99.0481 22.6866 98.2845C29.6265 90.4532 37.9547 83.1954 48.0162 76.3226C55.306 71.3557 60.6802 69.4466 63.8035 70.5921C65.0224 70.9755 65.5432 71.9293 65.5432 73.4565C65.5432 75.9392 62.7666 82.6218 57.7327 93.5093C57.0377 94.6564 56.691 95.8003 56.691 96.754C56.691 98.2845 57.2151 98.8564 58.2551 98.8564C58.7759 98.8564 59.4676 98.6679 59.99 98.0928C76.124 82.0515 90.3488 70.9755 101.974 64.8648C102.669 64.4814 103.366 64.2944 103.879 64.2944C105.964 64.2944 106.658 65.4367 106.141 68.3012C105.272 69.2565 104.229 70.7854 102.842 72.5044C98.0475 84.2689 92.4416 95.8626 84.1039 110.694C83.5224 111.762 83.0495 112.709 82.7475 113.538C81.9887 112.091 80.6307 110.92 78.9054 110.301C84.2285 100.909 88.2991 91.9549 91.2179 83.5804C92.0854 81.6697 92.4305 79.9523 92.4305 78.4218C92.4305 76.1309 91.5646 75.1755 90.0037 75.1755C88.9605 75.1755 87.9205 75.7491 86.5338 76.8961C69.1841 92.1722 58.0793 103.63 53.2227 111.268C52.8776 111.84 51.4877 112.987 49.0594 113.942C48.6441 114.156 48.2479 114.358 47.8724 114.545C47.3213 112.244 45.7093 110.378 43.0062 109.928C48.6888 100.365 52.8664 91.3686 55.3059 82.8136C55.8252 81.4796 55.9977 80.1408 55.9977 79.1855C55.9977 76.8961 55.1286 75.7491 53.3952 75.7491C52.8776 75.7491 52.1827 75.9392 51.1395 76.3226C48.8885 77.4681 44.722 80.7111 38.6496 86.4417C31.7097 92.7425 25.984 98.8564 21.2983 104.775C18.6975 107.832 15.5726 112.607 11.5819 118.909C11.2368 119.481 10.0226 120.245 7.41857 121.387C4.99025 122.344 3.60195 123.303 3.08114 123.681C2.73287 123.87 2.56193 123.681 2.38939 122.921ZM66.5801 129.599C66.5801 129.599 67.3996 128.416 68.454 126.878C69.5164 128.234 71.0932 129.285 73.0135 129.779C71.8856 130.661 70.7817 131.559 69.7017 132.466C69.1841 132.848 68.8374 133.035 68.1409 133.035C66.9267 133.035 66.0624 132.466 66.0624 130.937C66.0624 130.364 66.235 129.984 66.5801 129.599ZM103.425 108.196C108.183 106.292 113.314 104.387 118.803 102.486C136.672 96.3738 151.769 92.7425 163.914 91.982C173.801 91.4085 181.954 92.7425 188.2 96.754C194.445 100.764 197.741 105.728 197.741 111.84C197.741 113.369 197.569 115.086 197.046 116.807C196.358 119.096 194.966 121.007 192.712 121.965C191.841 122.534 191.154 122.921 190.458 122.921C189.937 122.921 189.763 122.534 189.763 122.344C189.763 121.387 191.841 121.007 193.928 115.661C194.621 113.754 195.142 112.035 195.142 110.316C195.142 105.728 193.06 102.103 188.894 99.0481C184.558 95.8003 178.486 94.0797 170.68 94.0797C168.769 94.0797 166.691 94.273 164.606 94.4631C147.78 96.3738 130.948 100.571 113.947 107.258C111.339 108.271 108.798 109.316 106.32 110.394H103.944V108.916C103.776 108.624 103.606 108.388 103.425 108.196Z" fill="white"/>
<path d="M164.988 101.007C163.809 101.007 162.792 101.818 162.792 103.164C162.792 104.266 163.603 105.161 164.868 105.161C165.969 105.161 166.985 104.51 166.985 103.084C166.985 101.943 166.212 101.007 164.988 101.007ZM102.004 109.075C101.836 109.049 101.666 109.073 101.564 109.115C101.157 109.928 100.376 111.024 99.847 111.511C99.4396 111.878 98.4315 112.42 97.2509 112.789C97.0863 113.033 97.1263 113.465 97.3707 113.628H98.489C99.3038 113.628 99.3677 113.724 99.3677 114.826V124.172C99.3677 126.618 100.098 128.565 103.601 128.565C105.678 128.565 107.141 127.543 107.875 126.688C107.955 126.444 107.8 125.969 107.475 125.969C107.354 125.969 106.804 126.448 106.437 126.568C106.113 126.693 105.764 126.768 105.359 126.768C102.67 126.768 102.363 124.616 102.363 122.255V114.626C102.363 113.77 102.389 113.628 103.082 113.628H107.715C108.084 113.382 108.164 112.316 107.675 111.95H103.122C102.43 111.95 102.403 111.885 102.403 111.152V109.314C102.322 109.171 102.172 109.1 102.004 109.075ZM24.6011 110.792C23.7863 111.404 21.4634 112.463 20.5272 112.789C20.3228 112.912 20.3244 113.345 20.4873 113.508L20.8468 113.748C21.9475 114.481 21.9251 114.716 21.9251 116.304V123.413C21.9251 126.348 21.9139 126.763 20.4074 126.968L19.4089 127.087C19.1246 127.292 19.2044 127.964 19.4888 128.086C20.7525 128.004 21.9762 127.966 23.4428 127.966C24.8695 127.966 26.0565 128.004 27.1572 128.086C27.4416 127.964 27.523 127.292 27.2371 127.087L26.5182 126.968C25.0516 126.721 24.9605 126.348 24.9605 123.413V117.102C24.9605 115.799 25.1522 115.275 25.5596 114.786C26.1715 114.053 27.3233 113.308 28.9944 113.308C31.5202 113.308 32.7487 114.772 32.7487 117.502V123.413C32.7487 126.348 32.6992 126.721 31.1911 126.968L30.4722 127.087C30.1862 127.292 30.2645 127.964 30.552 128.086C31.6911 128.004 32.7998 127.966 34.2664 127.966C35.693 127.966 36.8385 128.004 38.0607 128.086C38.3466 127.964 38.4249 127.292 38.1405 127.087L37.3018 126.968C35.8352 126.763 35.7442 126.348 35.7442 123.413V117.182C35.7442 115.757 35.8943 115.358 36.3832 114.746C36.9535 114.013 38.1901 113.308 39.7381 113.308C42.3054 113.308 43.5324 114.73 43.5324 117.502V123.413C43.5324 126.348 43.4812 126.721 41.9747 126.968L41.2558 127.087C40.9698 127.292 41.0497 127.964 41.3357 128.086C42.4748 128.004 43.5835 127.966 45.0501 127.966C46.4751 127.966 47.6589 128.004 49.0041 128.086C49.29 127.964 49.3683 127.292 49.0839 127.087L48.0855 126.968C46.6189 126.763 46.5678 126.348 46.5678 123.413V116.424C46.5678 113.612 44.9542 111.351 41.6951 111.351C39.7796 111.351 37.8114 112.287 36.1835 113.428C35.8161 113.672 35.5109 113.829 35.1451 113.748C34.0044 112.078 32.8685 111.351 30.8316 111.351C28.8762 111.351 26.9463 112.327 25.3999 113.428C25.1139 113.428 24.9605 113.235 24.9605 112.989C24.9605 112.623 24.9589 112.008 25.0404 111.072C24.9589 110.867 24.764 110.792 24.6011 110.792ZM114.944 110.792C113.926 111.402 111.768 112.463 110.83 112.789C110.626 112.91 110.627 113.345 110.79 113.508L111.15 113.748C112.251 114.479 112.268 114.714 112.268 116.304V123.413C112.268 126.346 112.217 126.721 110.71 126.968L109.952 127.087C109.667 127.292 109.746 128.003 110.032 128.126C111.089 128.043 112.321 127.966 113.786 127.966C115.212 127.966 116.387 128.043 118.299 128.126C118.585 128.003 118.665 127.292 118.379 127.087L116.901 126.968C115.356 126.846 115.264 126.346 115.264 123.413V117.861C115.264 116.478 115.415 115.315 115.823 114.746C116.149 114.299 116.61 113.947 117.261 113.947C117.831 113.947 118.448 114.177 119.058 114.586C119.344 114.749 119.571 114.866 119.976 114.866C120.63 114.866 121.734 114.332 121.734 112.989C121.734 112.011 120.914 111.351 119.897 111.351C118.388 111.351 116.848 112.605 115.423 113.788C115.342 113.746 115.264 113.633 115.264 113.428V111.072C115.264 110.907 115.149 110.834 114.944 110.792ZM144.899 110.792C144.084 111.402 141.761 112.463 140.825 112.789C140.622 112.91 140.622 113.345 140.785 113.508L141.144 113.748C142.245 114.479 142.263 114.714 142.263 116.304V123.413C142.263 126.346 142.211 126.763 140.705 126.968L139.866 127.087C139.582 127.292 139.66 128.003 139.946 128.126C141.087 128.043 142.314 127.966 143.78 127.966C145.205 127.966 146.356 128.043 147.455 128.126C147.742 128.003 147.819 127.292 147.535 127.087L146.816 126.968C145.349 126.721 145.258 126.346 145.258 123.413V117.182C145.258 116 145.368 115.439 145.897 114.746C146.467 113.971 147.785 113.308 149.332 113.308C152.102 113.308 153.166 115.019 153.166 117.342V123.413C153.166 126.346 153.117 126.721 151.608 126.968L150.85 127.087C150.564 127.292 150.647 128.003 150.929 128.126C152.03 128.043 153.257 127.966 154.724 127.966C156.15 127.966 157.333 128.043 158.558 128.126C158.842 128.003 158.924 127.292 158.638 127.087L157.719 126.968C156.253 126.763 156.202 126.346 156.201 123.413V116.424C156.201 113.695 154.791 111.351 151.409 111.351C149.332 111.351 147.41 112.369 145.697 113.428C145.413 113.428 145.258 113.233 145.258 112.989C145.258 112.623 145.255 112.008 145.338 111.072C145.255 110.866 145.062 110.792 144.899 110.792ZM166.426 110.792C165.49 111.404 163.169 112.465 162.232 112.789C162.029 112.912 162.029 113.347 162.192 113.508L162.552 113.748C163.653 114.481 163.63 114.714 163.63 116.304V123.413C163.63 126.346 163.617 126.763 162.113 126.968L161.234 127.087C160.948 127.292 161.029 127.964 161.314 128.086C162.456 128.004 163.681 127.966 165.148 127.966C166.575 127.966 167.758 128.004 168.982 128.086C169.268 127.964 169.348 127.292 169.062 127.087L168.223 126.968C166.755 126.763 166.666 126.346 166.666 123.413V116.104C166.666 114.435 166.742 112.458 166.825 111.032C166.784 110.867 166.63 110.792 166.426 110.792ZM59.1087 111.351C56.134 111.351 51.5202 114.264 51.5202 116.384C51.5202 116.749 51.712 116.943 52.0794 116.943C52.6913 116.943 53.7856 116.673 54.3959 116.184C54.7234 115.939 54.7953 115.438 54.8352 114.786C54.9183 113.522 56.289 112.949 57.4313 112.949C59.957 112.949 60.4283 114.997 60.3868 116.503L60.3469 118.381C60.3069 118.992 60.2798 119.334 59.6679 119.539L54.8352 121.296C52.228 122.234 51.4404 123.181 51.4404 124.771C51.4404 125.912 51.9436 126.913 52.7184 127.607C53.4102 128.215 54.3735 128.565 55.5541 128.565C56.6964 128.565 57.5735 128.016 58.4697 127.527C59.2845 127.078 59.7813 126.728 60.0673 126.728C60.3117 126.728 60.5833 127.044 60.7463 127.287C61.4396 128.183 62.4045 128.565 63.3823 128.565C65.3792 128.565 66.817 126.972 66.817 126.768C66.817 126.482 66.6605 126.249 66.4975 126.249C66.3745 126.249 66.1828 126.404 65.9783 126.528C65.7339 126.65 65.3872 126.768 64.9798 126.768C63.3902 126.768 63.0228 125.086 63.1027 123.213L63.3423 116.144C63.4637 113.086 62.0403 111.351 59.1087 111.351ZM76.083 111.351C71.1928 111.351 67.8954 115.566 67.8954 120.577C67.8954 122.368 68.3891 124.26 69.6128 125.849C70.7934 127.397 72.8751 128.565 75.5238 128.565C77.6406 128.565 80.5706 127.539 81.9142 124.771C81.8742 124.4 81.6026 124.17 81.1952 124.292C79.9316 125.881 78.7845 126.289 77.4409 126.289C73.0811 126.289 70.6512 122.774 70.6512 118.66C70.6512 117.641 70.7103 117.542 71.7695 117.542H79.3181C81.0291 117.542 81.593 117.507 81.7145 117.262C81.7975 117.098 81.8742 116.796 81.8742 116.224C81.8742 113.781 79.5865 111.351 76.083 111.351ZM90.1816 111.351C87.0839 111.351 84.63 113.049 84.63 116.024C84.63 118.266 86.2995 119.671 88.6639 121.017C90.172 121.873 91.8191 122.895 91.8191 124.771C91.8191 126.522 90.5698 127.367 89.1032 127.367C86.7804 127.367 85.4416 125.413 84.7498 123.173C84.5454 122.927 84.0341 122.967 83.8312 123.213C83.7482 124.557 83.9846 126.552 84.3105 127.327C85.3298 128.142 86.7484 128.565 88.6639 128.565C91.6785 128.565 94.535 126.99 94.535 123.892C94.535 121.001 92.5412 119.641 90.3813 118.42C88.9547 117.606 87.266 116.697 87.266 115.026C87.266 113.559 88.2741 112.549 89.8621 112.549C91.5332 112.549 92.7633 113.711 93.4566 115.505C93.6595 115.749 94.2522 115.668 94.4152 115.385C94.4152 114.286 94.1436 113.005 93.7762 112.11C93.4103 111.784 91.8926 111.351 90.1816 111.351ZM130.88 111.351C127.904 111.351 123.291 114.264 123.291 116.384C123.291 116.749 123.523 116.943 123.89 116.943C124.501 116.943 125.595 116.673 126.207 116.184C126.533 115.939 126.566 115.438 126.606 114.786C126.689 113.522 128.062 112.949 129.202 112.949C131.728 112.949 132.239 114.997 132.198 116.503L132.158 118.381C132.116 118.992 132.051 119.334 131.439 119.539L126.606 121.296C124.001 122.234 123.212 123.181 123.212 124.771C123.212 125.912 123.716 126.913 124.49 127.607C125.183 128.215 126.141 128.565 127.325 128.565C128.466 128.565 129.385 128.016 130.281 127.527C131.096 127.078 131.594 126.728 131.878 126.728C132.124 126.728 132.354 127.044 132.517 127.287C133.212 128.183 134.176 128.565 135.153 128.565C137.15 128.565 138.588 126.972 138.588 126.768C138.588 126.482 138.472 126.249 138.309 126.249C138.187 126.249 137.992 126.404 137.789 126.528C137.547 126.65 137.158 126.768 136.751 126.768C135.161 126.768 134.794 125.086 134.874 123.213L135.113 116.144C135.235 113.086 133.813 111.351 130.88 111.351ZM75.6437 112.589C78.0049 112.589 78.7589 114.005 78.7589 115.145C78.7589 115.674 78.6423 115.824 78.5193 115.904C78.1934 116.15 77.3019 116.344 74.2857 116.344H71.4101C71.1257 116.344 71.1305 116.224 71.1305 116.144C71.172 114.799 73.2393 112.589 75.6437 112.589ZM59.8276 120.857C60.0737 120.857 60.227 120.927 60.227 121.376L60.1472 123.772C60.1472 124.625 60.1168 125.201 59.6279 125.689C59.2206 126.097 57.9665 126.728 57.1517 126.728C55.0733 126.728 54.5956 124.985 54.5956 124.292C54.5956 122.702 55.7474 122.071 58.1502 121.256C58.8835 121.012 59.5848 120.857 59.8276 120.857ZM131.639 120.857C131.882 120.857 132.038 120.927 132.038 121.376L131.958 123.772C131.958 124.625 131.888 125.201 131.399 125.689C130.992 126.097 129.736 126.728 128.923 126.728C126.844 126.728 126.367 124.985 126.367 124.292C126.367 122.702 127.559 122.071 129.961 121.256C130.696 121.012 131.394 120.857 131.639 120.857Z" fill="white"/>
<path d="M105.558 133.278C105.229 133.407 104.834 133.59 104.519 133.677C104.462 133.701 104.471 133.805 104.519 133.837L104.639 133.917C104.816 134.022 104.799 134.094 104.799 134.636V138.111C104.799 138.708 104.794 138.79 104.519 138.83H104.32C104.264 138.887 104.294 139.036 104.36 139.069C104.698 139.053 104.939 139.069 105.198 139.069C105.497 139.069 105.794 139.053 106.077 139.069C106.142 139.036 106.134 138.887 106.077 138.83H105.957C105.681 138.782 105.678 138.708 105.678 138.111V136.992C105.678 136.678 105.67 136.569 105.757 136.473C105.855 136.366 106.05 136.234 106.317 136.234C106.794 136.234 106.956 136.566 106.956 136.952V138.111C106.956 138.708 106.911 138.782 106.636 138.83H106.516C106.46 138.887 106.491 139.036 106.556 139.069C106.839 139.053 107.088 139.069 107.355 139.069C107.654 139.069 107.935 139.053 108.274 139.069C108.355 139.036 108.385 138.887 108.314 138.83H108.114C107.841 138.79 107.794 138.708 107.794 138.111V136.873C107.794 136.186 107.451 135.754 106.756 135.754C106.353 135.754 106 135.943 105.718 136.154C105.662 136.154 105.678 136.091 105.678 135.994V134.516C105.678 134.168 105.663 133.681 105.678 133.358C105.663 133.318 105.607 133.27 105.558 133.278ZM121.454 133.278C121.129 133.407 120.73 133.59 120.415 133.677C120.359 133.701 120.367 133.805 120.415 133.837L120.495 133.917C120.698 134.038 120.695 134.094 120.695 134.636V138.111C120.695 138.708 120.692 138.79 120.415 138.83H120.255C120.198 138.887 120.192 139.036 120.255 139.069C120.588 139.053 120.867 139.069 121.134 139.069C121.434 139.069 121.682 139.053 122.013 139.069C122.078 139.036 122.109 138.887 122.053 138.83H121.853C121.577 138.79 121.573 138.708 121.573 138.111V134.516C121.573 134.168 121.557 133.681 121.573 133.358C121.558 133.318 121.502 133.27 121.454 133.278ZM102.043 133.597C101.227 133.597 100.404 133.824 99.8065 134.276C99.2074 134.738 98.808 135.487 98.808 136.433C98.808 137.492 99.2729 138.2 99.9263 138.63C100.509 139.008 101.203 139.189 102.003 139.189C102.529 139.189 103.104 139.045 103.281 138.989C103.371 138.965 103.465 138.925 103.561 138.909C103.674 138.754 103.904 138.213 103.96 137.671C103.92 137.599 103.794 137.599 103.721 137.671C103.495 138.197 103.022 138.87 102.003 138.87C100.96 138.87 99.8864 138.036 99.8864 136.313C99.8864 134.657 100.938 133.917 101.963 133.917C103.03 133.917 103.383 134.604 103.521 135.115C103.577 135.171 103.743 135.139 103.8 135.075C103.719 134.478 103.697 134.022 103.681 133.837C103.607 133.821 103.537 133.781 103.441 133.757C103.061 133.66 102.503 133.597 102.043 133.597ZM133.036 133.597C131.856 133.597 131.279 134.275 131.279 135.075C131.279 135.802 131.792 136.294 132.397 136.633L132.757 136.833C133.362 137.171 133.595 137.529 133.595 137.991C133.595 138.483 133.252 138.87 132.637 138.87C131.846 138.87 131.384 138.004 131.239 137.591C131.173 137.534 131.049 137.551 130.999 137.631C130.991 138.135 131.093 138.66 131.239 138.83C131.399 138.927 131.812 139.189 132.557 139.189C133.728 139.189 134.434 138.512 134.434 137.591C134.434 136.775 133.84 136.309 133.316 136.034L132.836 135.754C132.304 135.471 132.078 135.094 132.078 134.756C132.078 134.328 132.311 133.917 132.956 133.917C133.643 133.917 133.953 134.455 134.075 134.876C134.146 134.931 134.274 134.909 134.314 134.836C134.314 134.457 134.244 133.936 134.154 133.757C133.776 133.684 133.456 133.597 133.036 133.597ZM86.5865 133.677C86.2798 133.677 86.0673 133.906 86.0673 134.197C86.0673 134.487 86.2798 134.676 86.5865 134.676C86.8933 134.676 87.1058 134.487 87.1058 134.197C87.1058 133.906 86.8933 133.677 86.5865 133.677ZM140.145 133.677C139.835 133.677 139.626 133.906 139.626 134.197C139.626 134.487 139.835 134.676 140.145 134.676C140.45 134.676 140.665 134.487 140.665 134.197C140.665 133.906 140.45 133.677 140.145 133.677ZM73.726 133.717C72.9896 133.717 72.4959 133.692 71.9288 133.757C71.8649 133.789 71.8729 133.941 71.9288 133.997L72.2083 134.037C72.547 134.086 72.5678 134.181 72.5678 134.915V137.911C72.5678 138.766 72.4672 138.774 72.0885 138.83H71.9687C71.9112 138.887 71.9032 139.037 71.9687 139.069C72.2914 139.053 72.6908 139.069 73.0471 139.069C73.4017 139.069 73.7292 139.053 74.2053 139.069C74.2628 139.037 74.2948 138.887 74.2453 138.83H73.9257C73.5455 138.79 73.4864 138.766 73.4864 137.911V134.356C73.4864 134.04 73.4816 134.037 73.8858 134.037C74.6207 134.037 75.044 134.582 75.044 135.235C75.044 135.898 74.782 136.446 74.0456 136.593C74.0056 136.641 74.0296 136.743 74.0855 136.793C74.151 136.801 74.2117 136.793 74.2852 136.793C74.9242 136.793 76.0825 136.462 76.0825 135.235C76.0825 134.7 75.8237 134.289 75.4035 134.037C75.0393 133.828 74.4929 133.717 73.726 133.717ZM164.548 133.757L162.471 134.037C162.342 134.053 162.304 134.145 162.272 134.276L161.832 135.834C161.777 136.045 161.781 136.074 161.952 136.074C162.847 136.107 164.029 136.372 164.029 137.512C164.029 138.627 162.852 139.211 161.713 139.349C161.639 139.43 161.695 139.539 161.793 139.588C163.095 139.539 164.828 138.679 164.828 137.232C164.828 135.964 163.63 135.578 162.991 135.475L162.432 135.395C162.278 135.371 162.248 135.324 162.272 135.235L162.352 134.955C162.4 134.777 162.404 134.748 162.631 134.716L164.309 134.516C164.47 134.329 164.579 134.054 164.628 133.837C164.628 133.804 164.596 133.765 164.548 133.757ZM155.242 133.877C154.91 134.062 154.356 134.268 153.685 134.396C153.645 134.43 153.637 134.556 153.685 134.596L154.084 134.636C154.447 134.676 154.444 134.861 154.444 135.395V137.951C154.444 138.727 154.41 138.766 153.924 138.83H153.725C153.669 138.877 153.651 139.045 153.725 139.069C154.111 139.053 154.512 139.069 154.923 139.069C155.279 139.069 155.659 139.053 156.041 139.069C156.113 139.045 156.099 138.877 156.041 138.83H155.842C155.357 138.766 155.322 138.727 155.322 137.951V134.915C155.322 134.593 155.306 134.128 155.322 133.957C155.314 133.917 155.29 133.885 155.242 133.877ZM159.117 133.877C158.187 133.877 157.527 134.435 157.519 135.275C157.527 135.874 158.009 136.334 158.438 136.553C157.864 136.796 157.359 137.24 157.359 137.911C157.359 138.841 158.244 139.189 159.037 139.189C159.917 139.189 160.714 138.697 160.714 137.791C160.714 136.991 160.177 136.548 159.676 136.273C160.04 136.071 160.554 135.778 160.554 135.115C160.554 134.324 159.917 133.877 159.117 133.877ZM167.544 133.877C166.793 133.877 166.165 134.283 165.866 134.995C165.882 135.093 165.97 135.13 166.066 135.115C166.317 134.695 166.604 134.396 167.065 134.396C167.656 134.396 168.023 134.868 168.023 135.515C168.023 136.363 167.48 137.16 166.865 137.791C166.371 138.309 166.104 138.561 165.667 138.949C165.643 139.013 165.657 139.037 165.707 139.069C165.876 139.053 166.133 139.069 166.585 139.069H167.903C168.09 139.069 168.293 139.061 168.462 139.069C168.633 139.069 168.787 139.061 168.942 139.069C169.063 138.908 169.229 138.51 169.341 137.911C169.309 137.847 169.197 137.839 169.141 137.871C168.891 138.315 168.724 138.35 168.143 138.35H167.224C167.013 138.35 166.985 138.296 166.985 138.23C166.985 138.173 166.997 138.074 167.344 137.711L168.023 137.032C168.75 136.264 168.982 135.751 168.982 135.235C168.982 134.475 168.41 133.877 167.544 133.877ZM159.077 134.197C159.577 134.197 159.835 134.661 159.835 135.115C159.835 135.553 159.697 135.871 159.396 136.114C158.942 135.887 158.318 135.594 158.318 135.035C158.318 134.601 158.591 134.197 159.077 134.197ZM127.085 135.155C126.973 135.374 126.799 135.561 126.646 135.674C126.468 135.804 126.282 135.888 126.007 135.994C125.935 136.042 125.965 136.194 126.047 136.234H126.326C126.456 136.234 126.486 136.23 126.486 136.513V138.151C126.486 138.718 126.598 139.189 127.365 139.189C127.858 139.189 128.242 138.935 128.403 138.71C128.419 138.62 128.357 138.558 128.283 138.55C128.154 138.638 128.085 138.71 127.924 138.71C127.406 138.71 127.325 138.259 127.325 137.751V136.513C127.325 136.254 127.339 136.233 127.485 136.234H128.243C128.309 136.194 128.354 136.131 128.363 136.034C128.363 135.954 128.333 135.858 128.283 135.834H127.485C127.331 135.834 127.325 135.804 127.325 135.674V135.195C127.285 135.13 127.159 135.109 127.085 135.155ZM86.946 135.634C86.7207 135.772 86.2862 135.952 85.8676 136.074C85.8341 136.115 85.8421 136.24 85.8676 136.273L85.9874 136.313C86.1903 136.435 86.1872 136.55 86.1871 136.912V138.111C86.1871 138.708 86.1424 138.788 85.8676 138.83H85.7079C85.652 138.885 85.6823 139.037 85.7478 139.069C86.0545 139.055 86.3197 139.069 86.5865 139.069C86.8853 139.069 87.1665 139.055 87.4652 139.069C87.5307 139.037 87.5211 138.885 87.4652 138.83H87.3454C87.0706 138.788 87.0259 138.708 87.0259 138.111V136.713C87.0259 136.384 87.0099 135.981 87.0259 135.714C87.0019 135.674 86.9955 135.642 86.946 135.634ZM93.3363 135.634C93.0791 135.78 92.6046 135.978 92.2579 136.074C92.2244 136.115 92.2324 136.24 92.2579 136.273L92.3378 136.313C92.5407 136.435 92.5375 136.55 92.5375 136.912V138.111C92.5375 138.708 92.5327 138.788 92.2579 138.83H92.0582C92.0023 138.885 92.0343 139.037 92.0982 139.069C92.4385 139.055 92.718 139.069 92.9768 139.069C93.2756 139.069 93.5328 139.055 93.8156 139.069C93.8811 139.037 93.8731 138.885 93.8156 138.83H93.6958C93.421 138.78 93.4162 138.708 93.4162 138.111V136.992C93.4162 136.694 93.4306 136.658 93.536 136.513C93.6175 136.392 93.8044 136.234 94.0552 136.234C94.5393 136.234 94.6942 136.58 94.6942 136.992V138.111C94.6942 138.708 94.6495 138.78 94.3747 138.83H94.2549C94.1974 138.885 94.2294 139.037 94.2948 139.069C94.5776 139.055 94.8268 139.069 95.0936 139.069C95.3924 139.069 95.6736 139.055 96.0122 139.069C96.0777 139.037 96.1081 138.885 96.0522 138.83H95.8525C95.5777 138.788 95.533 138.708 95.533 138.111V136.833C95.533 136.202 95.2294 135.754 94.5744 135.754C94.0728 135.754 93.8763 135.943 93.4961 136.154C93.4465 136.144 93.4162 136.13 93.4162 136.074C93.4162 136.008 93.4002 135.869 93.4162 135.714C93.4002 135.682 93.3938 135.634 93.3363 135.634ZM140.505 135.634C140.278 135.772 139.847 135.952 139.426 136.074C139.394 136.115 139.402 136.24 139.426 136.273L139.546 136.313C139.748 136.435 139.746 136.55 139.746 136.912V138.111C139.746 138.708 139.701 138.788 139.426 138.83H139.267C139.211 138.885 139.241 139.037 139.307 139.069C139.612 139.055 139.88 139.069 140.145 139.069C140.446 139.069 140.724 139.055 141.024 139.069C141.088 139.037 141.08 138.885 141.024 138.83H140.904C140.629 138.788 140.585 138.708 140.585 138.111V136.713C140.585 136.384 140.609 135.981 140.625 135.714C140.601 135.674 140.554 135.642 140.505 135.634ZM77.9596 135.754C77.5475 135.754 76.9707 136.039 76.7215 136.273C76.4547 136.524 76.402 136.695 76.402 136.793C76.402 136.866 76.4579 136.912 76.5617 136.912C76.7407 136.912 76.9691 136.826 77.081 136.753C77.1704 136.697 77.2247 136.625 77.2407 136.473C77.2743 136.238 77.4133 136.114 77.6401 136.114C78.0363 136.114 78.1753 136.462 78.1593 136.873L78.1194 137.112C78.1194 137.194 78.121 137.256 77.9596 137.312C77.6609 137.425 77.3238 137.534 77.041 137.631C76.4835 137.825 76.402 138.098 76.402 138.39C76.402 138.793 76.6528 139.189 77.2008 139.189C77.4931 139.189 77.7663 139.047 77.9197 138.949C78.0411 138.876 78.0794 138.83 78.1194 138.83C78.1593 138.83 78.1833 138.892 78.2392 138.949C78.3926 139.119 78.637 139.189 78.8383 139.189C79.0891 139.189 79.4757 139.058 79.6371 138.83C79.661 138.758 79.5971 138.67 79.5572 138.67C79.5332 138.67 79.415 138.75 79.2776 138.75C78.9869 138.75 78.8942 138.5 78.9182 138.031L78.9581 136.753C78.9917 136.042 78.5986 135.754 77.9596 135.754ZM81.2746 135.754C80.6036 135.754 80.0684 136.123 80.0764 136.753C80.0764 137.27 80.4934 137.59 80.9151 137.791C81.1979 137.929 81.4743 138.13 81.4743 138.43C81.4743 138.711 81.2858 138.869 81.035 138.87C80.6068 138.87 80.3017 138.443 80.1563 137.991C80.0988 137.935 79.9662 137.927 79.9167 137.991C79.9007 138.339 79.955 138.756 80.0365 138.909C80.2953 139.104 80.6228 139.189 80.9551 139.189C81.5925 139.189 82.2332 138.855 82.2331 138.151C82.2331 137.512 81.7523 137.243 81.3145 137.032C81.0078 136.887 80.7953 136.708 80.7953 136.473C80.7953 136.238 80.9759 136.074 81.2347 136.074C81.5494 136.074 81.7922 136.38 81.9136 136.753C81.9695 136.801 82.1293 136.777 82.1533 136.713C82.1533 136.349 82.1133 136.083 82.0334 135.914C81.92 135.848 81.6069 135.754 81.2746 135.754ZM84.1902 135.754C83.5192 135.754 82.9824 136.123 82.992 136.753C82.992 137.27 83.409 137.59 83.8307 137.791C84.1135 137.929 84.3899 138.13 84.3899 138.43C84.3899 138.711 84.2014 138.869 83.9505 138.87C83.5224 138.87 83.2173 138.443 83.0719 137.991C83.0144 137.935 82.8818 137.927 82.8322 137.991C82.8163 138.339 82.8706 138.756 82.9521 138.909C83.2109 139.104 83.5384 139.189 83.8707 139.189C84.5081 139.189 85.1088 138.855 85.1088 138.151C85.1088 137.512 84.6663 137.243 84.2301 137.032C83.9218 136.887 83.671 136.708 83.671 136.473C83.671 136.238 83.8914 136.074 84.1502 136.074C84.4666 136.074 84.7078 136.38 84.8292 136.753C84.8851 136.801 85.0449 136.777 85.0688 136.713C85.0688 136.349 85.0289 136.083 84.949 135.914C84.8356 135.848 84.5225 135.754 84.1902 135.754ZM89.7817 135.754C88.8359 135.754 87.9844 136.428 87.9844 137.512C87.9844 138.571 88.772 139.189 89.7018 139.189C90.6636 139.189 91.4592 138.58 91.4592 137.432C91.4592 136.382 90.6955 135.754 89.7817 135.754ZM110.55 135.754C109.603 135.754 108.793 136.428 108.793 137.512C108.793 138.571 109.541 139.189 110.47 139.189C111.432 139.189 112.268 138.58 112.268 137.432C112.268 136.382 111.464 135.754 110.55 135.754ZM114.864 135.754C113.562 135.754 112.867 136.607 112.867 137.552C112.867 138.02 113.065 138.475 113.346 138.75C113.621 139.016 114.036 139.189 114.464 139.189C114.974 139.189 115.611 138.925 115.902 138.27C115.892 138.173 115.816 138.141 115.742 138.151C115.581 138.384 115.391 138.59 114.864 138.59C114.129 138.59 113.705 137.967 113.705 137.312C113.705 136.551 114.164 136.074 114.624 136.074C114.939 136.074 115.206 136.36 115.383 136.593C115.44 136.666 115.485 136.673 115.543 136.673C115.607 136.673 115.742 136.532 115.742 136.273C115.742 136.087 115.686 135.97 115.583 135.874C115.357 135.793 115.097 135.754 114.864 135.754ZM118.019 135.754C117.072 135.754 116.222 136.428 116.222 137.512C116.222 138.571 117.011 139.189 117.939 139.189C118.901 139.189 119.696 138.58 119.696 137.432C119.696 136.382 118.931 135.754 118.019 135.754ZM124.09 135.754C123.677 135.754 123.101 136.039 122.852 136.273C122.583 136.524 122.532 136.695 122.532 136.793C122.532 136.866 122.586 136.912 122.692 136.912C122.871 136.912 123.099 136.826 123.211 136.753C123.3 136.697 123.353 136.625 123.371 136.473C123.403 136.238 123.583 136.114 123.81 136.114C124.205 136.114 124.307 136.462 124.289 136.873V137.112C124.289 137.194 124.253 137.256 124.09 137.312C123.791 137.425 123.495 137.534 123.211 137.631C122.653 137.825 122.532 138.098 122.532 138.39C122.532 138.793 122.82 139.189 123.371 139.189C123.66 139.189 123.896 139.047 124.05 138.949C124.171 138.876 124.209 138.83 124.249 138.83C124.291 138.83 124.353 138.892 124.409 138.949C124.564 139.119 124.767 139.189 124.968 139.189C125.219 139.189 125.644 139.058 125.807 138.83C125.831 138.758 125.767 138.67 125.727 138.67C125.703 138.67 125.585 138.75 125.448 138.75C125.157 138.75 125.024 138.5 125.048 138.031L125.128 136.753C125.162 136.042 124.729 135.754 124.09 135.754ZM136.111 135.754C135.934 135.82 135.437 135.906 134.953 135.914C134.889 135.938 134.905 136.072 134.953 136.114L135.073 136.154C135.276 136.218 135.313 136.267 135.313 136.833V138.111C135.313 138.782 135.543 139.189 136.271 139.189C136.675 139.189 137.009 138.991 137.35 138.79C137.397 138.79 137.421 138.806 137.429 138.87C137.437 138.949 137.445 139.093 137.429 139.189C137.437 139.231 137.468 139.261 137.509 139.269C137.856 139.108 138.471 138.989 138.827 138.949C138.933 138.885 138.893 138.71 138.827 138.67C138.716 138.702 138.621 138.71 138.508 138.71C138.313 138.71 138.308 138.323 138.308 137.871V136.513C138.308 136.214 138.292 135.989 138.308 135.834C138.302 135.794 138.268 135.762 138.228 135.754C138.065 135.836 137.492 135.906 136.95 135.914C136.885 135.948 136.894 136.074 136.95 136.114L137.07 136.154C137.378 136.243 137.429 136.275 137.429 136.793V138.031C137.429 138.33 137.429 138.39 137.35 138.47C137.211 138.6 137.017 138.67 136.83 138.67C136.257 138.67 136.151 138.229 136.151 137.751V136.513C136.151 136.117 136.175 135.932 136.191 135.834C136.185 135.794 136.153 135.762 136.111 135.754ZM142.941 135.754C142.269 135.754 141.737 136.123 141.743 136.753C141.743 137.27 142.161 137.59 142.582 137.791C142.864 137.929 143.141 138.13 143.141 138.43C143.141 138.711 142.954 138.869 142.701 138.87C142.273 138.87 141.968 138.443 141.823 137.991C141.767 137.935 141.631 137.927 141.583 137.991C141.566 138.339 141.622 138.756 141.703 138.909C141.962 139.104 142.291 139.189 142.622 139.189C143.261 139.189 143.9 138.855 143.9 138.151C143.9 137.512 143.417 137.243 142.981 137.032C142.673 136.887 142.462 136.708 142.462 136.473C142.462 136.238 142.642 136.074 142.901 136.074C143.217 136.074 143.46 136.38 143.58 136.753C143.636 136.801 143.796 136.777 143.82 136.713C143.82 136.349 143.783 136.083 143.7 135.914C143.59 135.848 143.272 135.754 142.941 135.754ZM145.857 135.754C145.184 135.754 144.649 136.123 144.658 136.753C144.658 137.27 145.077 137.59 145.497 137.791C145.78 137.929 146.056 138.13 146.056 138.43C146.056 138.711 145.869 138.869 145.617 138.87C145.189 138.87 144.884 138.443 144.738 137.991C144.682 137.935 144.548 137.927 144.499 137.991C144.483 138.339 144.537 138.756 144.619 138.909C144.877 139.104 145.206 139.189 145.537 139.189C146.176 139.189 146.815 138.855 146.815 138.151C146.815 137.512 146.333 137.243 145.897 137.032C145.588 136.887 145.377 136.708 145.377 136.473C145.377 136.238 145.558 136.074 145.817 136.074C146.131 136.074 146.374 136.38 146.496 136.753C146.552 136.801 146.71 136.777 146.735 136.713C146.735 136.349 146.697 136.083 146.616 135.914C146.504 135.848 146.186 135.754 145.857 135.754ZM149.092 135.754C148.009 135.754 147.374 136.638 147.374 137.552C147.374 138.473 147.994 139.189 148.932 139.189C149.426 139.189 150.055 138.917 150.33 138.27C150.32 138.197 150.212 138.127 150.13 138.151C149.945 138.449 149.696 138.55 149.371 138.55C148.652 138.55 148.133 137.96 148.133 137.232C148.133 137.135 148.14 137.152 148.293 137.152H149.691C150.014 137.152 150.2 137.106 150.25 137.032C150.28 136.968 150.29 136.904 150.29 136.833C150.29 136.128 149.691 135.754 149.092 135.754ZM89.7018 136.074C90.2993 136.074 90.5006 136.873 90.5006 137.552C90.5006 138.173 90.3408 138.83 89.7817 138.83C89.2002 138.83 88.943 138.127 88.943 137.392C88.943 136.494 89.2897 136.074 89.7018 136.074ZM110.47 136.074C111.069 136.074 111.309 136.873 111.309 137.552C111.309 138.173 111.148 138.83 110.59 138.83C110.007 138.83 109.751 138.127 109.751 137.392C109.751 136.494 110.058 136.074 110.47 136.074ZM117.939 136.074C118.535 136.074 118.738 136.873 118.738 137.552C118.738 138.173 118.578 138.83 118.019 138.83C117.439 138.83 117.18 138.127 117.18 137.392C117.18 136.494 117.525 136.074 117.939 136.074ZM149.012 136.074C149.36 136.074 149.531 136.301 149.531 136.593C149.531 136.665 149.499 136.721 149.451 136.753C149.394 136.785 149.287 136.833 149.052 136.833H148.333C148.235 136.833 148.213 136.785 148.213 136.753C148.213 136.583 148.47 136.074 149.012 136.074ZM158.717 136.713C159.396 137.043 159.875 137.44 159.875 138.071C159.875 138.556 159.513 138.83 159.077 138.83C158.549 138.83 158.166 138.437 158.158 137.831C158.166 137.328 158.337 137.013 158.717 136.713ZM78.0395 137.631C78.0794 137.631 78.1194 137.663 78.1194 137.751L78.0794 138.35C78.0715 138.544 78.0107 138.71 77.72 138.71C77.4133 138.71 77.2407 138.481 77.2407 138.27C77.2407 137.924 77.4532 137.793 77.68 137.711C77.8254 137.655 77.974 137.631 78.0395 137.631ZM124.209 137.631C124.251 137.631 124.249 137.663 124.249 137.751V138.35C124.241 138.544 124.141 138.71 123.85 138.71C123.543 138.71 123.411 138.481 123.411 138.27C123.411 137.924 123.623 137.793 123.85 137.711C123.997 137.655 124.146 137.631 124.209 137.631Z" fill="white"/>
</svg>
