<svg width="200" height="199" viewBox="0 0 200 199" fill="none" xmlns="http://www.w3.org/2000/svg">
<g clip-path="url(#clip0_1886_10661)">
<g clip-path="url(#clip1_1886_10661)">
<path d="M75.7619 93.1027C74.2311 93.1055 72.7338 92.6567 71.4595 91.8131C70.1852 90.9695 69.1911 89.769 68.6031 88.3634C68.0151 86.9578 67.8596 85.4104 68.1561 83.9169C68.4527 82.4234 69.1881 81.051 70.2692 79.9732C71.3504 78.8954 72.7287 78.1607 74.2298 77.8621C75.7309 77.5635 77.2874 77.7144 78.7023 78.2957C80.1171 78.877 81.3268 79.8625 82.1783 81.1276C83.0298 82.3928 83.4848 83.8806 83.4857 85.403C83.4889 86.4134 83.2913 87.4145 82.9045 88.3488C82.5177 89.2832 81.9492 90.1324 81.2316 90.8478C80.514 91.5631 79.6615 92.1306 78.7228 92.5175C77.7842 92.9045 76.778 93.1034 75.7619 93.1027ZM174.705 114.412C173.925 114.414 173.162 114.186 172.513 113.756C171.864 113.326 171.358 112.715 171.059 111.999C170.759 111.283 170.681 110.495 170.832 109.734C170.984 108.974 171.359 108.275 171.911 107.727C172.462 107.178 173.164 106.805 173.929 106.654C174.694 106.504 175.487 106.582 176.207 106.88C176.927 107.177 177.542 107.681 177.974 108.326C178.406 108.972 178.635 109.73 178.633 110.505C178.632 111.541 178.218 112.534 177.481 113.266C176.745 113.999 175.746 114.411 174.705 114.412ZM120.981 114.355C120.21 114.354 119.456 114.126 118.815 113.699C118.174 113.272 117.675 112.666 117.381 111.957C117.086 111.248 117.01 110.468 117.162 109.716C117.313 108.964 117.685 108.273 118.231 107.731C118.777 107.189 119.473 106.821 120.23 106.672C120.986 106.524 121.77 106.601 122.483 106.896C123.195 107.19 123.803 107.688 124.231 108.326C124.659 108.965 124.887 109.715 124.886 110.482C124.885 110.991 124.784 111.495 124.587 111.965C124.39 112.436 124.103 112.863 123.74 113.223C123.377 113.582 122.947 113.868 122.474 114.062C122 114.256 121.493 114.356 120.981 114.355ZM34.5 101.835C33.6571 102.109 33.9095 101.806 34.0238 101.361C34.1381 100.916 34.5524 99.2256 34.9476 97.7576C35.3429 96.2897 34.9476 96.337 34.0952 96.337H23.4238C22.5714 96.3607 22.4714 96.4838 22.081 97.5161C21.6905 98.5484 19.5238 106.253 18.6143 108.313C18.1594 109.479 17.4178 110.513 16.4571 111.32C14.5524 112.74 12.4429 111.94 12.4429 108.199C12.4429 97.9518 22.0381 84.8773 35.8381 84.9957C42.2619 85.2562 44.5143 88.2395 44.8857 90.2852C46.3476 97.8097 35.5524 101.518 34.4762 101.854M199.895 119.896C199.819 119.365 199.057 112.561 198.9 111.249C198.743 109.937 197.786 110.515 197.567 110.638C197.348 110.761 195.662 111.95 194.195 112.821C193.071 113.484 191.462 112.916 192.157 110.766C192.424 109.937 195.919 98.842 196.271 97.6629C196.629 96.3607 195.919 96.3607 195.319 96.3607C195.319 96.3607 187.414 96.3607 186.148 96.3607C185.529 96.3607 185.276 96.9337 185.162 97.1799C184.933 97.6298 184.748 98.127 184.405 98.7237C184.176 99.1072 183.9 98.9604 183.667 98.7237C181.205 96.4129 177.965 95.0991 174.581 95.0395C165.024 95.0395 160.543 103.184 159.905 108.72C159.824 109.25 159.705 109.288 159.495 109.416C158.8 109.8 154.795 112.025 153.738 112.598C152.41 113.313 151.567 112.205 152.029 110.771C152.029 110.647 161.043 82.1355 161.362 81.1316C161.681 80.1277 161.095 80.0756 160.638 80.0709H150.371C149.633 80.0709 149.505 80.3219 149.314 80.8522C149.205 81.1553 143.714 98.9746 143.714 98.9746C143.714 98.9746 142.362 100.13 136.524 100.13C130.148 100.13 128.1 95.0537 120.171 95.0537C107.167 95.0537 105.886 109.26 105.886 109.26C105.886 109.26 101.295 111.812 99.6095 112.684C98.1809 113.413 97.3238 114.01 96 114.033C93.1143 114.085 92.0762 111.666 92.0905 110.169C92.0905 107.754 93.6476 106.542 95.3524 106.267C95.8051 106.196 96.2676 106.217 96.7121 106.328C97.1565 106.44 97.5736 106.64 97.9381 106.916C98.7333 107.427 98.9762 106.959 99.1286 106.783C99.6381 106.154 104.843 100.154 105.319 99.5902C105.407 99.482 105.47 99.3566 105.506 99.2223C105.542 99.088 105.549 98.9477 105.526 98.8105C105.504 98.6734 105.452 98.5425 105.376 98.4264C105.299 98.3102 105.199 98.2115 105.081 98.1365C103.624 96.6874 100.5 94.9969 96.5095 94.9969C84.8619 95.2621 81.6 104.51 81.3429 108.128C81.3083 108.333 81.2239 108.527 81.0969 108.692C80.9699 108.857 80.8042 108.988 80.6143 109.075C80.0714 109.454 76.6238 111.533 75.7857 111.978C73.7143 113.053 73.4048 111.301 73.6095 110.761C73.6095 110.761 76.9429 99.7891 77.5952 97.8713C78.1952 96.0292 78.1 96.3796 76.5095 96.3228H67.6048C66.0191 96.3228 66.219 96.1713 65.8857 97.2699C65.8857 97.4167 63.7857 104.207 63.2762 105.377C63.018 106.227 62.4622 106.958 61.7095 107.437C61.4333 107.64 59.3286 108.971 59.3286 108.971C51.8143 113.91 51.4048 113.034 48.4286 107.039C48.0524 106.457 48 106.168 48.681 105.841C50.5857 104.619 58.1095 100.632 58.1095 90.0768C58.1095 79.7157 49.1667 73.2188 35.2286 73.2188C15.6238 73.2188 -0.595234 90.1478 -0.00951968 109.208C0.661909 130.11 17.5619 128.988 25.8619 117.959C32.2762 109.435 31.9952 105.036 33.0048 105.036C33.4429 105.036 34.1667 106.717 35.2762 108.824C37.2667 112.613 40.0381 118.158 41.4048 120.189C43.5 123.244 46.8714 125.152 50.3524 125.19C54.5524 125.223 57.4048 122.983 61.381 120.417C61.8095 120.142 62.3714 119.82 62.9524 120.544C63.9377 122.023 65.2852 123.228 66.8681 124.045C68.4509 124.863 70.217 125.267 72 125.218C76.5762 125.218 82.281 121.203 83.4286 120.525C84.219 120.052 84.2571 120.052 84.9714 120.682C85.2619 120.937 89.6952 125.195 95.6143 125.195C100.6 125.195 108.176 121.117 108.729 120.8C109.1 120.568 109.638 120.246 110.157 120.8C111.19 121.861 113.967 125.195 120.543 125.195C132.076 125.195 135.848 115.615 136.105 111.031C136.138 110.458 136.176 110.306 137.057 110.311H139.224C139.614 110.311 140.238 110.311 140.09 111.031C139.881 111.978 138.938 114.848 139.505 117.523C140.219 120.947 143.443 125.465 150.219 125.195C154.543 125.024 161.905 120.459 162.348 120.27C162.79 120.08 163.167 119.948 163.776 120.511C165.681 122.249 169.229 125.133 173.748 125.247C176.801 125.314 179.798 124.428 182.319 122.713C182.733 122.439 182.986 122.334 183.405 122.68C184.247 123.511 185.25 124.163 186.354 124.596C187.457 125.029 188.638 125.234 189.824 125.199C193.59 125.199 198.838 121.624 199.519 121.207C200.2 120.791 199.971 120.497 199.895 119.915" fill="white"/>
</g>
</g>
<defs>
<clipPath id="clip0_1886_10661">
<rect width="200" height="198.887" fill="white"/>
</clipPath>
<clipPath id="clip1_1886_10661">
<rect width="200" height="198.887" fill="white"/>
</clipPath>
</defs>
</svg>
