<svg width="200" height="200" viewBox="0 0 200 200" fill="none" xmlns="http://www.w3.org/2000/svg">
<g clip-path="url(#clip0_3258_607)">
<g clip-path="url(#clip1_3258_607)">
<path d="M145.548 65.6836C145.356 65.8757 145.356 66.1921 145.548 66.3842L199.152 119.876C199.344 120.068 199.661 120.068 199.853 119.876C200.045 119.684 200.045 119.367 199.853 119.164L146.248 65.6836C146.056 65.4915 145.74 65.4915 145.548 65.6836ZM148.169 85.4576L148.067 84.2712L143.582 83.1864L143.672 84.3503L148.169 85.4576ZM171.842 97.7401C171.491 96.8475 170.813 96.1356 169.932 95.7514L163.582 93.3898C163.051 93.2203 162.678 92.7232 162.689 92.1582C162.689 91.8644 162.802 91.5932 162.983 91.3785C163.175 91.6949 163.536 91.9096 163.955 91.9209C164.587 91.9435 165.118 91.4915 165.141 90.9153C165.152 90.339 164.666 89.8644 164.034 89.8418H164.011V89.8305C162.723 89.8079 161.649 90.8362 161.627 92.1356C161.616 93.096 162.18 93.9548 163.051 94.3277L169.559 96.7571C170.158 97.0282 170.61 97.5141 170.847 98.1243C171.084 98.7458 171.073 99.435 170.813 100.045C170.542 100.655 170.056 101.13 169.423 101.379C168.802 101.627 168.113 101.605 167.503 101.345V101.356C165.582 100.169 158.519 95.8079 157.762 95.3446L160.474 91.1525C161.084 90.2373 161.401 89.3446 161.423 88.4972C161.423 88.1356 161.378 87.774 161.277 87.4237C160.858 86.0339 159.649 85.1864 158.994 84.8136C159.039 84.6328 159.073 84.4859 159.073 84.3842C159.084 83.9661 158.983 83.6384 158.779 83.322C158.406 82.7571 157.819 82.5989 157.401 82.565C156.678 82.5085 156.373 82.7684 156.158 83.0735H156.147C155.017 82.791 154.237 82.5989 153.842 82.5311L153.593 82.4859C152.712 82.3164 151.073 82.0113 150.305 81.9661L149.966 81.9435C149.966 81.9435 149.582 82.6441 149.446 82.9944C149.356 83.2203 149.288 83.3898 149.141 83.8192L148.994 84.2599L149.582 84.4294V84.4407C150.022 84.5763 150.271 85.0508 150.135 85.5028C150 85.9435 149.525 86.1921 149.073 86.0565V86.0678L148.463 85.8757C148.339 86.2938 148.067 87.3333 148.565 88.1017C148.757 88.3842 149.118 88.7345 149.808 88.8249C150.429 88.904 150.836 88.9831 151.197 89.1638C151.446 89.2994 151.593 89.7288 151.661 90.0339L150.87 91.2655L146.757 88.5876L146.768 88.3842C146.791 87.0282 145.706 85.8983 144.35 85.8757C143.288 85.8644 142.35 86.5085 141.988 87.5028C141.898 87.7514 141.853 88.0226 141.853 88.2938H141.864L145.084 91.5593L142.576 90.9153C142.316 89.8644 141.378 89.0734 140.237 89.0621C139.175 89.0395 138.226 89.6949 137.875 90.6893C137.774 90.9379 137.74 91.209 137.729 91.4802C137.729 91.7401 137.774 92.0452 137.83 92.2373L148.214 97.3446L148.226 97.5141C148.361 98.7006 148.712 99.3107 149.706 100.113C150.621 100.847 151.762 101.119 151.932 101.153C151.955 101.164 155.853 102.249 158.519 102.994C157.875 103.492 157.401 104.09 157.017 104.859C156.655 104.791 155.751 104.576 155.039 104.407C154.938 103.808 154.576 103.266 154.034 102.949C153.039 102.362 151.751 102.701 151.164 103.684C150.825 104.237 150.779 104.904 151.005 105.503L151.028 105.492L158.26 109.989L158.497 109.367C158.508 109.345 158.983 108.136 160.113 107.367C160.124 107.808 160.158 108.249 160.237 108.667C160.632 110.734 161.966 112.463 164.203 113.819L164.779 116.068C164.587 116.282 164.452 116.542 164.35 116.814C164.26 117.062 164.214 117.333 164.214 117.605C164.192 118.96 165.277 120.079 166.632 120.113C166.87 120.113 167.096 120.09 167.333 120.023C167.491 119.977 167.875 119.819 168.022 119.695L168.384 111.684L168.192 111.503C166.474 109.966 165.638 108.418 165.661 106.768V106.734C165.683 105.424 166.248 104.023 167.367 102.475C168.169 102.746 169.017 102.723 169.819 102.418C170.712 102.068 171.412 101.39 171.796 100.508C172.169 99.6045 172.18 98.6328 171.842 97.7401ZM149.943 87.6949C149.661 87.661 149.559 87.5593 149.503 87.4802C149.457 87.4011 149.423 87.2994 149.412 87.1977C150.214 87.1638 150.949 86.6328 151.197 85.8305C151.469 84.9831 151.118 84.0791 150.418 83.6045L150.599 83.1299C151.333 83.2203 152.463 83.4237 153.209 83.5593L152.971 84.3051C152.971 84.3051 153.254 84.5424 153.559 84.5537C153.977 84.565 154.113 84.452 154.113 84.452L154.327 83.7853C154.689 83.8644 155.164 83.9887 155.842 84.1582L156 84.1921C156.644 84.2712 156.904 83.9209 157.028 83.7514L157.062 83.6949L157.288 83.6836C157.661 83.7175 157.774 83.887 157.819 83.9435C157.875 84.0339 157.932 84.1243 157.932 84.3729C157.921 84.5537 157.717 85.0734 157.514 85.1977C157.299 85.3672 156.938 85.548 156.384 85.548C154.531 85.5706 153.627 86.9831 153.514 87.1638C153.514 87.1638 153.039 87.887 152.418 88.8588C152.26 88.5876 152.045 88.339 151.729 88.1695C151.22 87.8983 150.689 87.7853 149.943 87.6949ZM143.051 87.9209V87.8983C143.243 87.3672 143.751 87.0057 144.327 87.017C145.062 87.0283 145.638 87.6384 145.627 88.3616C145.627 88.4633 145.616 88.5763 145.582 88.678L145.57 88.7006C145.525 88.8701 145.503 88.9831 145.435 89.0734H145.423C145.423 89.0734 149.435 91.6836 150.203 92.1808L149.819 92.791L147.152 92.1017L143.051 87.9209ZM149.209 93.8305C149.13 93.9435 148.508 94.8814 148.282 96.113L138.858 91.4802C138.858 91.3446 138.892 91.1977 138.938 91.0621C139.13 90.5311 139.638 90.1808 140.203 90.1808C140.926 90.1921 141.514 90.8023 141.503 91.5254L141.48 91.7401L141.469 91.774L149.243 93.774L149.209 93.8305ZM152.203 100.056L155.367 95.1751C155.525 94.9379 155.457 94.6102 155.209 94.4407C154.971 94.2825 154.632 94.3503 154.486 94.5989L151.186 99.6949C150.926 99.5706 150.655 99.4124 150.406 99.2203L150.327 99.1525L153.277 94.6667C153.435 94.4181 153.367 94.0904 153.13 93.9322C152.892 93.774 152.565 93.8418 152.395 94.0791L149.604 98.339C149.469 98.0791 149.401 97.7853 149.356 97.3672L149.333 96.9492C149.356 95.6497 150.158 94.4746 150.169 94.4633L150.18 94.452L154.497 87.7514L154.508 87.7401C154.531 87.6949 155.141 86.6893 156.429 86.6667C157.514 86.6554 158.158 86.2034 158.508 85.8305C159.028 86.1356 159.909 86.7797 160.203 87.7514C160.271 87.9774 160.305 88.226 160.293 88.4746C160.282 89.1073 160.022 89.7966 159.536 90.5311C159.536 90.5311 159.096 91.209 158.542 92.0791L153.084 100.282L152.203 100.056ZM160.203 105.966C159.017 106.588 158.09 107.729 157.74 108.362C156.983 107.91 153.118 105.48 151.955 104.734C151.955 104.554 152 104.373 152.09 104.215C152.373 103.729 153.005 103.571 153.48 103.853C153.819 104.056 154.022 104.441 153.977 104.836L153.898 105.254L157.672 106.079L157.842 105.661C158.271 104.633 158.926 103.898 159.909 103.345L160.813 103.605C160.519 104.452 160.316 105.232 160.203 105.966ZM164.519 106.712C164.486 108.633 165.39 110.441 167.231 112.147C167.22 112.542 167.005 117.164 166.926 118.938L166.644 118.96C165.909 118.949 165.333 118.339 165.344 117.605C165.344 117.458 165.367 117.322 165.412 117.186C165.536 116.847 165.706 116.599 166.034 116.452L165.175 113.073L164.971 112.96C162.418 111.469 161.186 109.582 161.231 107.141C161.243 106.034 161.536 104.802 162.079 103.446L162.316 102.859L154.124 100.565L157.017 96.2034C159.322 97.6271 165.57 101.48 166.316 101.944C165.152 103.638 164.542 105.22 164.519 106.712ZM172.237 70.0904L172.135 68.904L167.649 67.8192L167.74 68.9831L172.237 70.0904ZM195.898 82.3729C195.548 81.4802 194.87 80.7684 194 80.3842L187.649 78.0226C187.107 77.8531 186.745 77.3559 186.757 76.791C186.757 76.4859 186.87 76.2147 187.051 76.0113C187.243 76.3277 187.604 76.5424 188.022 76.5537C188.655 76.5763 189.186 76.1243 189.209 75.548C189.22 74.9831 188.723 74.4972 188.101 74.4746H188.079V74.4633C186.779 74.4407 185.717 75.4802 185.695 76.7684C185.683 77.7288 186.26 78.5989 187.118 78.9605L193.638 81.3898C194.226 81.661 194.689 82.1469 194.915 82.7458C195.164 83.3672 195.152 84.0565 194.881 84.6667C194.61 85.2881 194.124 85.7514 193.491 86C192.87 86.2486 192.18 86.2373 191.57 85.9548V85.9661C189.649 84.7797 182.587 80.4294 181.819 79.9548C182.316 79.1864 184.542 75.7627 184.542 75.7627C185.152 74.8475 185.469 73.9548 185.48 73.1073C185.491 72.7458 185.435 72.3842 185.333 72.0339C184.915 70.6441 183.706 69.7966 183.051 69.4237C183.096 69.2429 183.13 69.096 183.13 68.9944C183.141 68.5763 183.051 68.2486 182.836 67.9322C182.463 67.3672 181.875 67.209 181.457 67.1751C180.734 67.1186 180.429 67.3785 180.203 67.6836H180.192C179.062 67.4011 178.293 67.209 177.887 67.1412L177.672 67.096C176.791 66.9379 175.152 66.6328 174.384 66.5876L174.056 66.565C174.056 66.565 173.672 67.2655 173.536 67.6045C173.446 67.8305 173.378 68 173.243 68.4294L173.096 68.8701L173.672 69.0396C174.113 69.1751 174.361 69.6497 174.226 70.1017C174.09 70.5424 173.604 70.791 173.164 70.6554V70.6667L172.565 70.4859C172.44 70.904 172.169 71.9548 172.666 72.7119C172.847 72.9944 173.22 73.3446 173.898 73.4237C174.519 73.5028 174.926 73.5819 175.288 73.774C175.548 73.9096 175.695 74.339 175.751 74.6441L174.96 75.8757L170.847 73.1977L170.858 72.9831C170.881 71.6271 169.796 70.4972 168.452 70.4746C167.39 70.452 166.44 71.1073 166.09 72.1017C166 72.3616 165.955 72.6215 165.943 72.8927H165.954L169.175 76.1582C168.158 75.9322 167.231 75.7062 166.621 75.5367C166.35 74.4859 165.412 73.6949 164.271 73.6723C163.209 73.6497 162.271 74.3051 161.909 75.2994C161.819 75.548 161.774 75.8192 161.762 76.0904C161.762 76.3503 161.819 76.6554 161.864 76.8475L172.248 81.9548L172.26 82.1243C172.406 83.322 172.745 83.9322 173.74 84.7232C174.655 85.4576 175.796 85.7288 175.966 85.774C175.988 85.774 179.887 86.8701 182.553 87.6158C181.909 88.113 181.435 88.7119 181.051 89.4802C180.7 89.4124 179.796 89.209 179.073 89.0395C178.971 88.4407 178.621 87.8983 178.079 87.5819C177.084 86.9944 175.796 87.322 175.209 88.3277C174.881 88.8814 174.825 89.548 175.062 90.1469L175.084 90.1356L182.316 94.6328L182.553 94.0113C182.565 94 183.051 92.7797 184.169 92.0113C184.169 92.4633 184.214 92.8927 184.293 93.3107C184.7 95.3785 186.034 97.1073 188.26 98.4633L188.836 100.723C188.644 100.938 188.508 101.186 188.406 101.469C188.316 101.718 188.271 101.989 188.271 102.26C188.248 103.616 189.333 104.734 190.689 104.757C190.926 104.768 191.164 104.734 191.39 104.678C191.548 104.633 191.932 104.475 192.079 104.339H192.09L192.452 96.3277L192.248 96.1469C190.531 94.6102 189.706 93.0621 189.717 91.4011V91.3672C189.74 90.0565 190.293 88.6554 191.423 87.1073C192.214 87.3785 193.073 87.3559 193.875 87.0508C194.768 86.7006 195.48 86.0226 195.864 85.1412C196.237 84.2373 196.248 83.2655 195.898 82.3729ZM174.011 72.3277C173.729 72.2938 173.627 72.1808 173.57 72.1017L173.48 71.8192C174.282 71.7853 175.005 71.2542 175.265 70.452C175.536 69.6045 175.186 68.7006 174.486 68.226L174.678 67.7514C175.401 67.8418 176.542 68.0452 177.277 68.1808L177.028 68.9266C177.028 68.9266 177.31 69.1751 177.616 69.1751C178.045 69.1864 178.18 69.0734 178.18 69.0734L178.384 68.4068C178.734 68.4859 179.22 68.6102 179.898 68.7797L180.056 68.8136C180.7 68.8927 180.96 68.5424 181.073 68.3729L181.118 68.3164H181.344C181.717 68.3503 181.83 68.5085 181.864 68.5763C181.932 68.6667 181.977 68.7571 181.977 69.0057C181.966 69.1864 181.762 69.7062 181.57 69.8305V69.8418C181.356 70.0113 180.994 70.1808 180.44 70.1921C178.587 70.2147 177.683 71.6271 177.57 71.8079C177.57 71.8079 177.096 72.5311 176.486 73.5028C176.327 73.2316 176.101 72.9831 175.796 72.8136C175.277 72.5311 174.757 72.4181 174.011 72.3277ZM167.107 72.5424V72.5198C167.299 71.9887 167.808 71.6384 168.384 71.6384C169.107 71.6497 169.695 72.2599 169.683 72.9831C169.683 73.0847 169.672 73.1977 169.638 73.2994V73.322C169.593 73.4915 169.559 73.6158 169.503 73.6949V73.7062C169.503 73.7062 173.514 76.3164 174.282 76.8136L173.909 77.4237L171.243 76.7345L167.107 72.5424ZM173.277 78.4633C173.197 78.5763 172.576 79.5141 172.339 80.7458L162.915 76.113C162.915 75.9661 162.949 75.8305 162.994 75.6949C163.186 75.1638 163.695 74.8136 164.271 74.8136C165.005 74.8249 165.582 75.435 165.57 76.1582L165.548 76.3729L165.536 76.4068L173.31 78.4068L173.277 78.4633ZM176.26 84.678L179.423 79.7966C179.582 79.548 179.514 79.2203 179.265 79.0622C179.017 78.904 178.689 78.9718 178.531 79.2203L175.231 84.3164C174.983 84.1921 174.7 84.0339 174.452 83.8418L174.361 83.774L177.31 79.2881C177.48 79.0396 177.401 78.7232 177.164 78.5537C176.915 78.3955 176.587 78.4633 176.429 78.7119L173.638 82.9718C173.514 82.7119 173.435 82.4181 173.39 82L173.367 81.5932C173.39 80.2938 174.192 79.1186 174.192 79.1073L174.203 79.096L178.519 72.3955L178.531 72.3729C178.553 72.3277 179.175 71.322 180.452 71.2994C181.536 71.2881 182.18 70.8362 182.531 70.452C183.051 70.7571 183.943 71.4011 184.237 72.3729C184.305 72.6102 184.339 72.8475 184.327 73.096C184.316 73.7288 184.056 74.4181 183.57 75.1525C183.57 75.1525 183.13 75.8305 182.576 76.7006L177.118 84.904L176.26 84.678ZM184.271 90.5989C183.084 91.2203 182.158 92.3616 181.796 93.0057C181.039 92.5424 177.186 90.113 176.011 89.3785C176.011 89.1977 176.056 89.017 176.147 88.8588C176.429 88.3729 177.051 88.2147 177.536 88.4972C177.875 88.7006 178.079 89.0847 178.034 89.4802L177.966 89.8983L181.729 90.7232L181.909 90.3051C182.339 89.2768 182.994 88.5537 183.977 87.9887L184.881 88.2373C184.587 89.0847 184.384 89.8644 184.271 90.5989ZM188.576 91.3446C188.542 93.2655 189.446 95.0621 191.288 96.7684C191.265 97.1638 191.062 101.785 190.971 103.559C190.881 103.582 190.779 103.593 190.689 103.582C189.954 103.571 189.378 102.972 189.39 102.237C189.39 102.09 189.412 101.955 189.469 101.819C189.582 101.492 189.762 101.232 190.079 101.096L189.22 97.7175L189.017 97.6045C186.474 96.113 185.231 94.226 185.277 91.7853C185.288 90.678 185.582 89.4463 186.124 88.0904L186.361 87.5141L178.158 85.2203L181.062 80.8588C183.367 82.2825 189.604 86.1356 190.361 86.5989C189.22 88.2712 188.61 89.8418 188.576 91.3446Z" fill="white"/>
<path d="M0 100.034H20.2147V105.232H13.4124V126.294H6.83616V105.232H0L0 100.034ZM28.1469 100.034V108.949C28.9605 108.136 30.6441 106.384 33.7175 106.384C35.1299 106.384 36.6893 106.791 37.8418 107.763C39.548 109.209 39.8531 111.04 39.8531 113.559V126.294H34.1695V116.158C34.1695 114.599 34.1356 113.853 33.9096 113.186C33.3559 111.435 31.8305 111.254 31.2316 111.254C30.226 111.254 29.3785 111.74 28.8927 112.373C28.1469 113.379 28.1469 114.972 28.1469 116.644V126.305H22.4294V100.034H28.1469ZM55.4576 106.904H61.1751V126.294H55.4576V124.124C54.9492 124.78 54.4181 125.254 53.8079 125.605C52.8927 126.136 51.3333 126.859 49.8418 126.859C48.5763 126.859 46.2373 126.667 44.904 124.814C43.8983 123.401 43.8305 122.249 43.7175 119.096V106.904H49.4802V118.938C49.4802 119.797 49.4802 120.644 49.9209 121.243C50.2599 121.684 51.0396 122.215 52.1921 122.215C52.5311 122.215 53.3107 122.215 54.1582 121.729C55.3785 120.983 55.4237 120.023 55.4576 118.983V106.904ZM133.186 106.904H138.904V126.294H133.186V124.124C132.667 124.78 132.147 125.254 131.537 125.605C130.621 126.136 129.062 126.859 127.571 126.859C126.305 126.859 123.966 126.667 122.621 124.814C121.616 123.401 121.548 122.249 121.435 119.096V106.904H127.198V118.938C127.198 119.797 127.198 120.644 127.638 121.243C127.977 121.684 128.746 122.215 129.898 122.215C130.237 122.215 131.006 122.215 131.864 121.729C133.085 120.983 133.13 120.023 133.164 118.983V106.904H133.186ZM70.7006 109.22C72.1582 107.876 73.5028 107.051 76.7797 106.633V111.672L74.4181 112.034C71.6723 112.52 70.8475 112.927 70.8475 115.379V126.305H65.13V106.87H70.7006V109.22ZM90.9944 123.74C89.8757 124.475 88.5085 125.379 85.8644 125.379C84.2599 125.379 82.7006 124.96 81.4463 124.113C78.8475 122.441 77.8418 119.424 77.8418 116.079C77.8418 112.181 79.661 106.565 86.0904 106.565C89.0057 106.565 90.4407 108.09 91.2881 108.994V106.859H96.6441V126.328C96.565 128.441 96.4972 130.927 93.6723 132.565C91.7062 133.751 88.8023 134.057 87.0509 134.057C83.1864 134.057 80.6667 132.712 79.6158 131.638C78.0904 130.124 78.1243 128.158 78.1243 127.107H84.0339C84.113 127.966 84.1808 129.186 85.7062 129.898C86.0791 130.09 86.6328 130.271 87.5254 130.271C90.9831 130.271 90.9831 128.226 90.9831 126.622V123.74H90.9944ZM83.7514 116.045C83.7514 117.672 83.8644 121.062 87.3898 121.062C90.2938 121.062 90.9605 118.791 90.9605 116.045C90.9605 115.119 90.8814 113.186 90.2486 112.26C89.8079 111.559 88.7684 110.768 87.13 110.847C84.4181 110.96 83.7514 113.299 83.7514 116.045ZM100.983 112.407C101.096 111.062 101.277 109.469 103.028 108.102C104.814 106.689 107.107 106.396 109.379 106.396C111.751 106.396 117.514 106.949 117.514 111.966V123.266C117.514 125.345 117.627 125.638 118.068 126.305H112.463V124.237C111.616 124.949 109.345 126.825 106.52 126.825C102.057 126.825 100.17 123.627 100.17 120.915C100.17 117.797 102.655 116.011 104.26 115.345C105.819 114.678 109.492 114.011 111.91 113.559V112.52C111.842 111.627 111.763 110.136 109.718 110.136C107.186 110.136 106.859 111.695 106.701 112.407H100.983ZM108.237 117.921C107.277 118.294 105.785 119.164 105.785 120.655C105.785 121.582 106.599 122.904 107.932 122.904C108.644 122.904 109.311 122.644 109.91 122.271C111.808 121.085 111.876 118.701 111.91 116.701L108.237 117.921Z" fill="white"/>
</g>
</g>
<defs>
<clipPath id="clip0_3258_607">
<rect width="200" height="200" fill="white"/>
</clipPath>
<clipPath id="clip1_3258_607">
<rect width="200" height="68.9266" fill="white" transform="translate(0 65.5367)"/>
</clipPath>
</defs>
</svg>
