<svg width="200" height="200" viewBox="0 0 200 200" fill="none" xmlns="http://www.w3.org/2000/svg">
<path d="M46.6113 79.443C46.6113 51.0303 69.6414 27.9999 98.0544 27.9999C126.469 27.9999 149.502 51.0303 149.502 79.443C149.502 107.856 126.469 130.885 98.0544 130.885C69.6414 130.885 46.6113 107.856 46.6113 79.443ZM72.332 79.443C72.332 86.1955 74.9351 92.3415 79.1922 96.9318L68.449 118.33C68.7307 118.543 69.0124 118.755 69.298 118.964L98.0544 76.8697L126.813 118.964C127.096 118.755 127.38 118.543 127.66 118.33L116.92 96.9318C121.174 92.3415 123.779 86.1955 123.779 79.443C123.779 65.2369 112.263 53.7205 98.0544 53.7205C83.8483 53.7205 72.332 65.2369 72.332 79.443Z" fill="white"/>
<path d="M17.0622 169.523L17.6331 164.005C19.3514 164.938 21.7509 165.654 24.5083 165.654C26.6221 165.654 28.6297 165.224 28.6297 163.216C28.6297 158.562 16.8103 161.498 16.8103 152.402C16.8103 146.384 22.6841 144.735 27.6961 144.735C30.096 144.735 32.4618 145.093 34.1452 145.668L33.7147 150.825C31.9968 150.036 30.0619 149.679 28.1654 149.679C26.4813 149.679 23.6858 149.823 23.6858 152.006C23.6858 156.055 35.5048 153.332 35.5048 162.36C35.5048 168.838 30.0619 170.593 24.5083 170.593C22.1814 170.593 19.2828 170.235 17.0622 169.523Z" fill="white"/>
<path d="M37.4446 160.854C37.4446 154.657 42.1369 151.076 48.2996 151.076C50.2348 151.076 51.9527 151.397 53.4191 152.113L52.9545 156.843C51.7738 156.124 50.5927 155.804 49.0502 155.804C46.2583 155.804 44.1103 157.735 44.1103 160.961C44.1103 163.932 46.6162 165.867 49.4124 165.867C50.8787 165.867 52.3447 165.543 53.4191 164.972L53.5639 169.771C51.9527 170.308 50.0178 170.593 48.2996 170.593C42.1369 170.593 37.4446 167.013 37.4446 160.854Z" fill="white"/>
<path d="M69.5489 170.167V161.139C69.5489 157.628 68.3305 156.447 66.5741 156.447C63.9231 156.447 62.5631 158.276 62.5631 162.287V170.167H56.1184V143.303H62.5631V154.261H62.6357C64.0338 152.329 66.0751 151.076 68.8673 151.076C73.9523 151.076 75.9936 154.657 75.9936 158.524V170.167H69.5489Z" fill="white"/>
<path d="M79.8357 148.46V143.733H86.284V148.46H79.8357ZM79.8357 170.167V151.504H86.284V170.167H79.8357Z" fill="white"/>
<path d="M103.769 170.167V161.139C103.769 157.628 102.549 156.447 100.794 156.447C98.1401 156.447 96.7805 158.276 96.7805 162.287V170.167H90.3318V151.504H96.2055V154.943H96.2774C97.5652 152.258 100.149 151.076 103.082 151.076C108.172 151.076 110.212 154.657 110.212 158.524V170.167H103.769Z" fill="white"/>
<path d="M119.431 160.637C119.431 163.612 120.897 165.654 123.335 165.654C125.487 165.654 127.274 163.612 127.274 160.888C127.274 158.058 125.701 156.017 123.335 156.017C120.829 156.017 119.431 158.169 119.431 160.637ZM133.722 170.167H127.776V166.835H127.704C126.881 168.911 124.268 170.593 121.294 170.593C115.74 170.593 112.77 166.011 112.77 160.496C112.77 155.909 115.599 151.076 120.756 151.076C123.335 151.076 125.518 151.755 127.171 153.907H127.239V143.303H133.722V170.167Z" fill="white"/>
<path d="M138.106 170.167V143.303H144.554V170.167H138.106Z" fill="white"/>
<path d="M153.934 159.064H161.094C161.094 156.912 160.093 155.16 157.514 155.16C155.187 155.16 154.074 156.912 153.934 159.064ZM147.485 160.816C147.485 154.657 151.675 151.076 157.48 151.076C164.393 151.076 166.899 155.983 166.899 161.532V162.717H154.002C154.364 165.296 156.33 166.298 159.483 166.298C161.239 166.298 163.243 165.905 165.177 164.865V169.413C163.102 170.235 160.737 170.593 158.336 170.593C152.178 170.593 147.485 166.979 147.485 160.816Z" fill="white"/>
<path d="M169.547 170.167V151.504H175.42V154.943H175.493C176.601 152.577 178.212 151.076 181.008 151.076C181.758 151.076 182.547 151.184 183.19 151.291L182.87 156.661C182.154 156.447 181.435 156.447 180.685 156.447C177.675 156.447 175.992 158.634 175.992 162.287V170.167H169.547Z" fill="white"/>
</svg>
