<svg width="200" height="200" viewBox="0 0 200 200" fill="none" xmlns="http://www.w3.org/2000/svg">
<g clip-path="url(#clip0_1886_10678)">
<mask id="mask0_1886_10678" style="mask-type:luminance" maskUnits="userSpaceOnUse" x="-3689" y="-7373" width="5714" height="7656">
<path d="M-3688.63 282.447H2024.23V-7372.55H-3688.63V282.447Z" fill="white"/>
</mask>
<g mask="url(#mask0_1886_10678)">
<path d="M176.849 99.9796H175.87C175.87 120.958 167.359 139.94 153.623 153.657C139.946 167.414 120.966 175.888 99.9708 175.888C79.0344 175.888 60.0742 167.414 46.3188 153.657C32.5634 139.94 24.091 120.958 24.091 99.9796C24.091 79.0603 32.5634 60.0588 46.3188 46.341C60.0742 32.6231 79.0344 24.1302 99.9708 24.1302C120.966 24.1302 139.946 32.6231 153.623 46.341C167.359 60.0588 175.87 79.0603 175.87 99.9796H176.849H177.886C177.886 56.9669 142.979 22.1146 99.9708 22.1146C56.9631 22.1146 22.1147 56.9669 22.1147 99.9796C22.1147 143.012 56.9631 177.884 99.9708 177.884C142.979 177.884 177.886 143.012 177.886 99.9796H176.849Z" fill="white"/>
<path fill-rule="evenodd" clip-rule="evenodd" d="M68.4861 55.2233H128.732V66.3776L90.2443 104.283H110.496C110.496 104.283 114.155 104.498 117.305 100.839C119.34 98.5099 119.379 93.422 119.379 93.422H130.493V114.713H66.275V100.643L102.552 64.8708H88.4637C88.4637 64.8708 85.5287 64.6556 82.8676 66.3776C81.2631 67.4344 80.0696 69.45 79.5413 71.2895C79.2478 72.6202 79.0325 74.714 79.0325 74.714H68.4861V55.2233ZM131.238 52.1842L138.106 58.9746V70.1289L117.503 90.3633H132.843L139.809 97.1537V124.022H71.1098L63.1853 116.253V99.0911L75.9428 86.5669L65.4746 76.2345V52.1842H131.238Z" fill="white"/>
<path fill-rule="evenodd" clip-rule="evenodd" d="M70.4548 128.969L63.7629 140.867L64.076 141.474H73.1354L73.6833 138.01H72.7245C72.2353 140.221 71.9614 140.456 70.7874 140.456H66.8349L73.4093 128.578L72.9984 127.893H64.6239L64.1543 131.219H65.113C65.5044 129.145 65.6413 128.969 66.7958 128.969H70.4548Z" fill="white"/>
<path fill-rule="evenodd" clip-rule="evenodd" d="M89.5069 129.867C89.7612 128.967 89.8982 128.81 90.4461 128.81V127.891H87.7654V128.81C88.5677 128.81 88.6459 129.006 88.372 130.141L86.5718 138.673H86.5131L84.4391 130.102C84.1847 129.045 84.263 128.81 85.1239 128.81V127.891H80.9953V128.81C81.6019 128.81 81.8367 128.928 81.9345 129.378L82.0519 129.75L79.9583 138.673H79.9192L77.9038 130.102C77.669 129.045 77.7277 128.81 78.569 128.81V127.891H74.4209V128.81C75.047 128.81 75.2231 129.045 75.4775 130.141L78.3342 141.765H80.2909L82.5998 131.902L84.9869 141.765H86.8849L89.5069 129.867Z" fill="white"/>
<path fill-rule="evenodd" clip-rule="evenodd" d="M100.55 141.468L101.137 138.239H100.159C99.7285 140.294 99.5132 140.45 98.5936 140.45H95.5021C95.189 140.45 95.052 140.372 95.052 139.667V134.99H97.1652C97.8696 134.99 98.0262 135.147 98.0262 136.967H98.9067V132.094H98.0262C98.0262 133.718 97.8696 133.934 97.1261 133.934H95.052V129.824C95.052 129.12 95.0911 128.963 95.5803 128.963H98.2414C99.0632 128.963 99.2784 129.041 99.7285 131.116H100.629L100.139 127.906H91.2756V128.826C92.5083 128.826 92.6453 129.002 92.6453 130.372V139.1C92.6453 140.45 92.5083 140.646 91.2756 140.646V141.468H100.55Z" fill="white"/>
<path fill-rule="evenodd" clip-rule="evenodd" d="M103.646 139.098C103.646 140.448 103.529 140.644 102.218 140.644V141.466H107.461V140.644C106.131 140.644 106.072 140.448 106.072 139.098V130.37C106.072 129 106.131 128.824 107.461 128.824V127.905H102.218V128.824C103.529 128.824 103.646 129 103.646 130.37V139.098Z" fill="white"/>
<path fill-rule="evenodd" clip-rule="evenodd" d="M115.894 132.237H114.936C114.936 133.783 114.799 134.135 114.114 134.135H112.353V129.869C112.353 129.126 112.392 128.969 112.881 128.969H115.249C116.129 128.969 116.286 129.184 116.716 131.141H117.655L117.127 127.893H108.635V128.812C109.789 128.812 109.926 129.008 109.926 130.358V139.106C109.926 140.456 109.829 140.652 108.635 140.652V141.474H113.859V140.652C112.411 140.652 112.353 140.456 112.353 139.106V135.133H114.114C114.838 135.133 114.936 135.29 114.936 137.071H115.894V132.237Z" fill="white"/>
<path fill-rule="evenodd" clip-rule="evenodd" d="M127.951 141.468L128.519 138.239H127.56C127.13 140.294 126.895 140.45 125.975 140.45H122.884C122.551 140.45 122.434 140.372 122.434 139.667V134.99H124.547C125.251 134.99 125.408 135.147 125.408 136.967H126.288V132.094H125.408C125.408 133.718 125.251 133.934 124.527 133.934H122.434V129.824C122.434 129.12 122.473 128.963 123.001 128.963H125.623C126.464 128.963 126.719 129.041 127.071 131.116H128.049L127.541 127.906H118.638V128.826C119.89 128.826 120.066 129.002 120.066 130.372V139.1C120.066 140.45 119.89 140.646 118.638 140.646V141.468H127.951Z" fill="white"/>
<path fill-rule="evenodd" clip-rule="evenodd" d="M139.55 138.008H138.572C138.142 140.298 137.926 140.454 136.968 140.454H133.954C133.504 140.454 133.387 140.376 133.387 139.593V130.396C133.387 128.967 133.504 128.811 134.698 128.811V127.891H129.65V128.811C130.863 128.811 131 129.006 131 130.356V139.104C131 140.454 130.863 140.65 129.65 140.65V141.472H138.944L139.55 138.008Z" fill="white"/>
<path d="M63.1953 144.486H139.799V148.595H63.1953V144.486Z" fill="white"/>
</g>
</g>
<defs>
<clipPath id="clip0_1886_10678">
<rect width="162" height="162" fill="white" transform="translate(19 19)"/>
</clipPath>
</defs>
</svg>
