<svg width="200" height="200" viewBox="0 0 200 200" fill="none" xmlns="http://www.w3.org/2000/svg">
<g clip-path="url(#clip0_1886_10690)">
<path d="M192.602 76C196.468 76 199.602 79.134 199.602 83V117C199.602 120.866 196.468 124 192.602 124H8C4.13401 124 1 120.866 1 117V83C1 79.134 4.13401 76 8 76H192.602ZM43.3105 89.5732C43.0934 89.5799 42.8845 89.6586 42.7178 89.7979C42.551 89.9371 42.436 90.1284 42.3906 90.3408L39.998 103.592C39.0989 108.661 41.4607 110.561 45.9727 110.562C51.1998 110.562 53.2352 109.298 54.2256 103.714L56.6094 90.3408C56.6846 89.9185 56.3937 89.5734 55.9619 89.5732H52.6514C52.4337 89.5792 52.2241 89.6576 52.0566 89.7969C51.8892 89.9362 51.773 90.1278 51.7275 90.3408L49.3359 103.754C48.992 105.69 48.5007 106.922 46.6211 106.922C44.4421 106.922 44.5314 105.57 44.877 103.631L47.2686 90.3408C47.3438 89.9184 47.0511 89.5732 46.6191 89.5732H43.3105ZM125.824 89.5713C125.607 89.5777 125.398 89.6568 125.231 89.7959C125.065 89.9351 124.949 90.1264 124.904 90.3389L122.514 103.591C121.613 108.659 123.974 110.56 128.486 110.56C133.715 110.56 135.747 109.296 136.744 103.712L139.125 90.3408V90.3389C139.198 89.9168 138.907 89.5715 138.476 89.5713H135.165C134.948 89.5768 134.738 89.6556 134.571 89.7949C134.404 89.9343 134.289 90.126 134.245 90.3389L131.852 103.752C131.506 105.688 131.014 106.92 129.136 106.92C126.957 106.92 127.046 105.568 127.389 103.629L129.781 90.3389C129.858 89.9167 129.563 89.5713 129.133 89.5713H125.824ZM65.6748 89.1934C62.5821 89.1935 59.2509 90.5329 58.6572 94.7246C58.1788 98.0942 60.7473 99.6771 62.6113 100.696C64.472 101.667 65.722 102.991 65.458 104.175C65.1763 105.451 63.8913 106.278 62.21 106.278C60.3012 106.278 59.008 105.051 58.3008 104.702C58.2111 104.662 58.1137 104.642 58.0156 104.641C57.9177 104.64 57.82 104.658 57.7295 104.695C57.639 104.733 57.5567 104.788 57.4883 104.858C57.4198 104.929 57.3664 105.012 57.3311 105.104L56.4668 107.845C56.3164 108.222 56.4675 108.585 56.8867 108.825C57.7187 109.302 59.2851 110.311 61.8242 110.311C65.9968 110.31 69.3978 108.84 70.0107 104.436C70.4747 101.079 68.2833 99.1038 65.8193 97.7998C64.1073 96.827 63.1035 96.0942 63.1035 94.9102C63.1037 93.448 64.3615 92.7638 65.9053 92.7637C67.3385 92.7637 68.6507 93.7866 68.9551 94.0205C69.2767 94.2637 69.792 94.1614 70.0576 93.7422C70.2555 93.4278 71.0949 92.1367 71.1006 92.1279C71.3742 91.6943 71.1197 91.3105 70.8877 91.1025V91.1006C70.0651 90.4045 67.8298 89.1934 65.6748 89.1934ZM80.1875 89.1934C77.0979 89.1934 73.7678 90.5327 73.1709 94.7246C72.6941 98.0941 75.262 99.6771 77.126 100.696C78.9868 101.667 80.2354 102.991 79.9746 104.175C79.6897 105.451 78.4081 106.278 76.7236 106.278C74.8166 106.278 73.5221 105.051 72.8164 104.702C72.7267 104.662 72.6294 104.641 72.5312 104.64C72.4331 104.638 72.3358 104.658 72.2451 104.695C72.1545 104.733 72.0724 104.788 72.0039 104.858C71.9355 104.929 71.8818 105.012 71.8467 105.104L70.9824 107.845C70.8337 108.222 70.9808 108.585 71.4014 108.825C72.2349 109.302 73.7999 110.31 76.3389 110.311C80.51 110.311 83.915 108.84 84.5264 104.436C84.9904 101.079 82.7983 99.1038 80.3359 97.7998C78.6224 96.827 77.6191 96.0941 77.6191 94.9102C77.6193 93.4479 78.8773 92.7637 80.4229 92.7637C81.8558 92.7639 83.1639 93.7864 83.4717 94.0205C83.7917 94.2637 84.3044 94.1614 84.5732 93.7422C84.7701 93.4269 85.6115 92.1321 85.6143 92.1279C85.891 91.6944 85.6369 91.3106 85.4033 91.1025V91.1006C84.5825 90.4046 82.3458 89.1935 80.1875 89.1934ZM92.0859 89.5732C90.1295 89.5734 89.624 90.6064 89.4736 91.4512L86.4736 108.306C86.3041 109.27 87.2163 110.219 87.9971 110.219H91.7637C97.0898 110.219 100.3 108.769 101.068 104.712C101.769 100.987 99.5412 99.0637 97.6484 98.7275C99.4355 98.3915 101.643 97.4684 101.987 94.6318C102.342 91.6752 100.283 89.5733 96.6289 89.5732H92.0859ZM24.4609 89.5732C24.2435 89.5793 24.0343 89.6577 23.8672 89.7969C23.7 89.9362 23.5842 90.128 23.5391 90.3408L20.168 109.259C20.1475 109.354 20.1493 109.453 20.1729 109.547C20.1965 109.641 20.241 109.729 20.3037 109.803C20.3665 109.877 20.4461 109.935 20.5352 109.974C20.6019 110.003 20.6729 110.021 20.7451 110.025H23.6348C23.8522 110.02 24.0621 109.942 24.2295 109.803C24.3969 109.664 24.5131 109.472 24.5586 109.259L25.8018 102.183C26.0514 100.763 26.5156 96.3867 26.5156 96.3867C26.5156 96.3867 27.2016 99.0357 27.6992 100.896C28.1986 102.761 29.9873 109.28 29.9873 109.28C30.0534 109.498 30.188 109.688 30.3711 109.822C30.5541 109.957 30.7759 110.028 31.0029 110.025H34.4307C34.6478 110.019 34.8564 109.941 35.0234 109.802C35.1906 109.663 35.3061 109.471 35.3516 109.259L38.7197 90.3408C38.7917 89.9184 38.5036 89.5732 38.0732 89.5732H35.2051C34.988 89.5797 34.7789 89.6586 34.6123 89.7979C34.4459 89.9371 34.3309 90.1284 34.2861 90.3408C34.2822 90.3622 33.3323 95.5652 32.9092 98.0098C32.4852 100.463 32.2686 104.047 32.2686 104.047C32.2686 104.047 31.624 100.648 31.3184 99.501C30.7536 97.3826 28.8564 90.3164 28.8564 90.3164C28.7188 89.8414 28.2718 89.5732 27.8398 89.5732H24.4609ZM114.061 89C109.952 89.0001 106.391 90.6513 105.466 95.8525L103.091 109.258C103.016 109.678 103.25 110.025 103.682 110.025H106.987C107.204 110.019 107.413 109.94 107.58 109.801C107.747 109.662 107.862 109.47 107.907 109.258L109.166 102.326H114.273L113.002 109.258C112.981 109.353 112.983 109.451 113.006 109.545C113.029 109.639 113.074 109.727 113.137 109.801C113.199 109.875 113.278 109.935 113.367 109.974C113.456 110.012 113.553 110.03 113.649 110.025H116.91C117.127 110.018 117.336 109.939 117.503 109.8C117.67 109.661 117.786 109.47 117.832 109.258L120.228 95.8525C121.024 91.3791 118.484 89 114.061 89ZM143.699 89.5732C143.482 89.5797 143.273 89.6581 143.106 89.7969C142.939 89.9357 142.823 90.1267 142.777 90.3389L139.431 109.258C139.354 109.679 139.648 110.025 140.08 110.025H143.306C143.738 110.025 144.19 109.718 144.266 109.296C144.271 109.267 145.278 103.479 145.484 102.336C145.689 101.194 146.133 97.3438 146.133 97.3438C146.133 97.3438 147.905 104.66 148.046 105.088C148.171 105.469 148.454 105.663 148.707 105.684C149.093 105.712 149.288 105.59 149.566 105.203C149.667 105.065 154.492 97.4539 154.524 97.4033C154.515 97.4363 153.353 101.309 152.968 103.539C152.581 105.781 152.002 109.258 152.002 109.258C151.981 109.353 151.982 109.452 152.006 109.546C152.029 109.64 152.074 109.728 152.137 109.802C152.2 109.876 152.279 109.935 152.368 109.974C152.435 110.003 152.506 110.021 152.578 110.025H155.933C156.146 110.023 156.353 109.948 156.519 109.812C156.684 109.677 156.798 109.489 156.842 109.28L160.218 90.3408C160.293 89.9184 160.001 89.5732 159.569 89.5732H155.915C155.481 89.5733 154.896 89.8609 154.649 90.2129L149.754 98.458L147.995 90.3076C147.87 89.8949 147.411 89.5734 146.979 89.5732H143.699ZM163.454 97.1875C162.163 97.1876 161.947 97.8357 161.947 98.3652V109.542C161.947 109.806 162.184 110.025 162.466 110.025H164.441C164.728 110.025 164.963 109.806 164.963 109.542L164.953 104.87L165.551 104.872L167.93 109.493C168.008 109.648 168.127 109.778 168.272 109.872C168.418 109.966 168.587 110.019 168.76 110.025H170.91C171.241 110.025 171.393 109.797 171.246 109.511L168.198 104.496C169.894 103.991 170.614 102.549 170.614 100.762C170.614 98.6498 169.104 97.1877 166.232 97.1875H163.454ZM172.366 97.1855C172.082 97.1856 171.848 97.4015 171.848 97.667L171.843 109.541C171.843 109.807 172.077 110.025 172.36 110.025H174.221C174.505 110.025 174.743 109.807 174.741 109.541L174.731 105.098C174.73 104.208 174.524 101.993 174.524 101.993C174.524 101.993 175.286 103.653 175.832 104.821C176.378 105.986 178.308 109.518 178.329 109.557C178.401 109.696 178.51 109.813 178.643 109.896C178.776 109.978 178.928 110.023 179.085 110.025H180.932C181.218 110.025 181.456 109.806 181.456 109.541V97.667C181.456 97.4015 181.222 97.1855 180.938 97.1855H179.045C178.76 97.1855 178.528 97.4015 178.528 97.667C178.528 97.667 178.512 100.943 178.519 102.483C178.523 104.009 178.742 105.353 178.745 105.371C178.734 105.347 177.978 103.605 177.645 102.887C177.022 101.559 174.942 97.6543 174.942 97.6543C174.795 97.3536 174.469 97.1856 174.183 97.1855H172.366ZM93.6289 100.396C96.4384 100.396 97.4069 101.746 97.0469 103.506C96.4932 106.218 94.0818 106.374 92.4131 106.374H91.1523L92.2236 100.396H93.6289ZM165.993 99.4131C167.499 99.4131 167.962 100.357 167.962 101.19C167.962 102.275 167.371 103.078 165.857 103.078H164.949V99.4131H165.993ZM113.411 92.6484C115.354 92.6484 115.701 94.1268 115.401 95.8164L114.917 98.7119H109.807L110.296 95.8164C110.641 93.8788 111.534 92.6485 113.411 92.6484ZM95.8867 92.8291C97.2192 92.8292 97.9099 93.5983 97.7148 94.6846C97.4092 96.4126 96.5565 97.1006 94.2637 97.1006H92.8252L93.5762 92.8291H95.8867Z" fill="white"/>
</g>
<defs>
<clipPath id="clip0_1886_10690">
<rect width="200" height="200" fill="white"/>
</clipPath>
</defs>
</svg>
