<svg width="200" height="200" viewBox="0 0 200 200" fill="none" xmlns="http://www.w3.org/2000/svg">
<g clip-path="url(#clip0_1886_10669)">
<g clip-path="url(#clip1_1886_10669)">
<mask id="mask0_1886_10669" style="mask-type:luminance" maskUnits="userSpaceOnUse" x="0" y="78" width="200" height="44">
<path d="M200 78H0V122H200V78Z" fill="white"/>
</mask>
<g mask="url(#mask0_1886_10669)">
<path d="M62.7596 91.2533C60.3316 91.2533 58.287 91.9773 56.6684 93.3404V83.0747H49.5549V114.213H56.1147V112.296C57.7334 113.872 59.9057 114.766 62.5892 114.766C69.1065 114.766 73.7495 109.74 73.7495 103.01C73.7495 96.2797 69.2343 91.2533 62.7596 91.2533ZM61.5669 108.505C58.4574 108.505 56.3277 106.247 56.3277 103.01C56.3277 99.7299 58.4148 97.4724 61.5669 97.4724C64.5486 97.4724 66.7211 99.8151 66.7211 103.01C66.7211 106.205 64.5486 108.505 61.5669 108.505Z" fill="white"/>
<path d="M93.7688 94.1073C92.193 92.5312 90.0631 91.6792 87.2945 91.6792C80.7772 91.6792 76.0916 96.2796 76.0916 103.01C76.0916 109.74 80.7772 114.766 87.2945 114.766C90.0631 114.766 92.193 113.829 93.7688 112.168V114.213H100.329V91.7644H93.7688V94.1073ZM88.3167 108.505C85.2924 108.505 83.1626 106.205 83.1626 103.01C83.1626 99.8151 85.3349 97.4723 88.3167 97.4723C91.4261 97.4723 93.5134 99.7299 93.5134 103.01C93.5134 106.247 91.4261 108.505 88.3167 108.505Z" fill="white"/>
<path d="M105.02 114.213H112.133V83.0747H105.02V114.213Z" fill="white"/>
<path d="M127.515 91.2534C120.359 91.2534 115.247 96.2796 115.247 103.01C115.247 109.697 120.359 114.766 127.515 114.766C134.714 114.766 139.825 109.697 139.825 103.01C139.825 96.2796 134.714 91.2534 127.515 91.2534ZM127.557 108.462C124.448 108.462 122.403 106.162 122.403 103.01C122.403 99.7726 124.448 97.5575 127.557 97.5575C130.667 97.5575 132.669 99.7726 132.669 102.967C132.669 106.205 130.624 108.462 127.557 108.462Z" fill="white"/>
<path d="M146.574 80.0078C144.061 80.0078 141.905 81.8394 141.905 84.3952C141.905 86.951 144.061 88.7399 146.574 88.7399C149.087 88.7399 151.047 86.951 151.047 84.3952C151.047 81.8394 149.087 80.0078 146.574 80.0078Z" fill="white"/>
<path d="M142.996 114.212H150.109V91.7642H142.996V114.212Z" fill="white"/>
<path d="M160.971 97.8985C160.971 96.9615 161.695 96.4076 163.143 96.4076C164.634 96.4076 165.699 97.1316 166.21 98.5372L172.089 96.2372C171.194 93.085 167.872 91.2534 163.271 91.2534C157.606 91.2534 154.028 93.8944 154.028 98.2392C154.028 105.949 165.742 104.245 165.742 107.781C165.742 108.803 164.89 109.442 163.271 109.442C160.971 109.442 159.48 108.377 158.884 106.503L153.006 108.76C154.326 112.679 157.947 114.766 163.016 114.766C168.937 114.766 172.685 111.955 172.685 107.312C172.685 99.0486 160.971 101.093 160.971 97.8985Z" fill="white"/>
<path d="M197.986 102.541C197.986 97.0036 193.642 91.2104 186.315 91.2104C179.84 91.2104 174.644 96.535 174.644 103.01C174.644 109.697 179.329 114.766 186.741 114.766C191.633 114.766 194.521 112.881 196.253 110.732L192.163 106.633C190.886 108.214 189.467 108.973 186.954 108.973C184.27 108.973 182.269 107.61 181.544 105.097H197.816C197.901 104.5 197.986 103.649 197.986 102.541ZM181.459 100.667C182.056 97.9406 183.887 96.535 186.485 96.535C189.084 96.535 190.788 98.111 191.384 100.667H181.459Z" fill="white"/>
<mask id="mask1_1886_10669" style="mask-type:luminance" maskUnits="userSpaceOnUse" x="-2" y="76" width="49" height="49">
<path d="M22.24 124.279L-1.79937 100.24L22.24 76.2006L46.2794 100.24L22.24 124.279Z" fill="white"/>
</mask>
<g mask="url(#mask1_1886_10669)">
<mask id="mask2_1886_10669" style="mask-type:luminance" maskUnits="userSpaceOnUse" x="-2" y="76" width="49" height="49">
<path d="M22.1648 124.279L-1.87457 100.24L22.1648 76.2006L46.2042 100.24L22.1648 124.279Z" fill="white"/>
</mask>
<g mask="url(#mask2_1886_10669)">
<mask id="mask3_1886_10669" style="mask-type:luminance" maskUnits="userSpaceOnUse" x="-2" y="76" width="49" height="49">
<path d="M22.1648 124.279L-1.87457 100.24L22.1648 76.2006L46.2042 100.24L22.1648 124.279Z" fill="white"/>
</mask>
<g mask="url(#mask3_1886_10669)">
<mask id="mask4_1886_10669" style="mask-type:alpha" maskUnits="userSpaceOnUse" x="2" y="80" width="40" height="40">
<path d="M23.3529 81.144C22.6962 80.4874 21.6314 80.4874 20.9747 81.144L3.08783 99.031C2.43101 99.6877 2.43101 100.752 3.08783 101.409L20.9747 119.296C21.6314 119.953 22.6962 119.953 23.3529 119.296L41.2397 101.409C41.8965 100.752 41.8965 99.6877 41.2397 99.031L23.3529 81.144Z" fill="#151F6D"/>
</mask>
<g mask="url(#mask4_1886_10669)">
<path d="M1.88169 100.24L7.9058 94.2157L13.3823 99.6922L7.35815 105.716L1.88169 100.24Z" fill="white"/>
</g>
<mask id="mask5_1886_10669" style="mask-type:alpha" maskUnits="userSpaceOnUse" x="1" y="79" width="40" height="40">
<path d="M21.9256 79.7163C21.269 79.0596 20.2041 79.0596 19.5474 79.7163L1.66058 97.6033C1.00376 98.26 1.00376 99.3247 1.66058 99.9813L19.5474 117.868C20.2041 118.525 21.2689 118.525 21.9256 117.868L39.8125 99.9813C40.4693 99.3247 40.4693 98.26 39.8125 97.6033L21.9256 79.7163Z" fill="#151F6D"/>
</mask>
<g mask="url(#mask5_1886_10669)">
<path d="M7.45953 94.6619L16.587 85.5345L22.6111 91.5586L13.4836 100.686L7.45953 94.6619Z" fill="white"/>
</g>
<path d="M21.3995 109.24L26.5372 104.102L32.5613 110.126L27.4236 115.264L21.3995 109.24Z" fill="white"/>
<path d="M20.5354 90.3755L26.5595 84.3514L35.687 93.4788L29.6628 99.5029L20.5354 90.3755Z" fill="white"/>
<mask id="mask6_1886_10669" style="mask-type:alpha" maskUnits="userSpaceOnUse" x="2" y="80" width="40" height="40">
<path d="M23.3529 81.144C22.6962 80.4874 21.6314 80.4874 20.9747 81.144L3.08783 99.031C2.43101 99.6877 2.43101 100.752 3.08783 101.409L20.9747 119.296C21.6314 119.953 22.6962 119.953 23.3529 119.296L41.2397 101.409C41.8965 100.752 41.8965 99.6877 41.2397 99.031L23.3529 81.144Z" fill="#151F6D"/>
</mask>
<g mask="url(#mask6_1886_10669)">
<path d="M29.6632 99.5033L35.6873 93.4792L42.4477 100.24L36.4236 106.264L29.6632 99.5033Z" fill="white"/>
</g>
<mask id="mask7_1886_10669" style="mask-type:alpha" maskUnits="userSpaceOnUse" x="2" y="80" width="40" height="40">
<path d="M23.3529 81.144C22.6962 80.4874 21.6314 80.4874 20.9747 81.144L3.08783 99.031C2.43101 99.6877 2.43101 100.752 3.08783 101.409L20.9747 119.296C21.6314 119.953 22.6962 119.953 23.3529 119.296L41.2397 101.409C41.8965 100.752 41.8965 99.6877 41.2397 99.031L23.3529 81.144Z" fill="#151F6D"/>
</mask>
<g mask="url(#mask7_1886_10669)">
<path d="M6.95238 105.311L12.9765 99.2864L28.1889 114.499L22.1648 120.523L6.95238 105.311Z" fill="white"/>
</g>
<mask id="mask8_1886_10669" style="mask-type:alpha" maskUnits="userSpaceOnUse" x="2" y="80" width="40" height="40">
<path d="M23.3529 81.144C22.6962 80.4874 21.6314 80.4874 20.9747 81.144L3.08783 99.031C2.43101 99.6877 2.43101 100.752 3.08783 101.409L20.9747 119.296C21.6314 119.953 22.6962 119.953 23.3529 119.296L41.2397 101.409C41.8965 100.752 41.8965 99.6877 41.2397 99.031L23.3529 81.144Z" fill="#151F6D"/>
</mask>
<g mask="url(#mask8_1886_10669)">
<path d="M15.4044 86.7171L22.1648 79.9567L27.6542 85.4461L20.8938 92.2065L15.4044 86.7171Z" fill="white"/>
</g>
</g>
</g>
<mask id="mask9_1886_10669" style="mask-type:luminance" maskUnits="userSpaceOnUse" x="-2" y="76" width="49" height="49">
<path d="M22.1648 124.204L-1.87457 100.165L22.1648 76.1254L46.2042 100.165L22.1648 124.204Z" fill="white"/>
</mask>
<g mask="url(#mask9_1886_10669)">
<mask id="mask10_1886_10669" style="mask-type:luminance" maskUnits="userSpaceOnUse" x="-2" y="76" width="49" height="49">
<path d="M22.1648 124.204L-1.87457 100.165L22.1648 76.1254L46.2042 100.165L22.1648 124.204Z" fill="white"/>
</mask>
<g mask="url(#mask10_1886_10669)">
<mask id="mask11_1886_10669" style="mask-type:alpha" maskUnits="userSpaceOnUse" x="2" y="80" width="40" height="40">
<path d="M23.3529 81.0693C22.6962 80.4127 21.6314 80.4127 20.9747 81.0693L3.08783 98.9563C2.43101 99.613 2.43101 100.678 3.08783 101.334L20.9747 119.221C21.6314 119.878 22.6962 119.878 23.3529 119.221L41.2397 101.334C41.8965 100.678 41.8965 99.613 41.2397 98.9563L23.3529 81.0693Z" fill="#151F6D"/>
</mask>
<g mask="url(#mask11_1886_10669)">
<path d="M1.88169 100.165L7.9058 94.141L13.3823 99.6175L7.35815 105.642L1.88169 100.165Z" fill="white"/>
</g>
<mask id="mask12_1886_10669" style="mask-type:alpha" maskUnits="userSpaceOnUse" x="1" y="79" width="40" height="40">
<path d="M21.9256 79.6416C21.269 78.9849 20.2041 78.9849 19.5474 79.6416L1.66058 97.5286C1.00376 98.1853 1.00376 99.25 1.66058 99.9066L19.5474 117.794C20.2041 118.45 21.2689 118.45 21.9256 117.794L39.8125 99.9066C40.4693 99.25 40.4693 98.1853 39.8125 97.5286L21.9256 79.6416Z" fill="#151F6D"/>
</mask>
<g mask="url(#mask12_1886_10669)">
<path d="M7.45953 94.5872L16.587 85.4598L22.6111 91.4839L13.4836 100.611L7.45953 94.5872Z" fill="white"/>
</g>
<path d="M21.3995 109.166L26.5372 104.028L32.5613 110.052L27.4236 115.19L21.3995 109.166Z" fill="white"/>
<path d="M20.5354 90.3008L26.5595 84.2767L35.687 93.4041L29.6628 99.4282L20.5354 90.3008Z" fill="white"/>
<mask id="mask13_1886_10669" style="mask-type:alpha" maskUnits="userSpaceOnUse" x="2" y="80" width="40" height="40">
<path d="M23.3529 81.0693C22.6962 80.4127 21.6314 80.4127 20.9747 81.0693L3.08783 98.9563C2.43101 99.613 2.43101 100.678 3.08783 101.334L20.9747 119.221C21.6314 119.878 22.6962 119.878 23.3529 119.221L41.2397 101.334C41.8965 100.678 41.8965 99.613 41.2397 98.9563L23.3529 81.0693Z" fill="#151F6D"/>
</mask>
<g mask="url(#mask13_1886_10669)">
<path d="M29.6632 99.4286L35.6873 93.4045L42.4477 100.165L36.4236 106.189L29.6632 99.4286Z" fill="white"/>
</g>
<mask id="mask14_1886_10669" style="mask-type:alpha" maskUnits="userSpaceOnUse" x="2" y="80" width="40" height="40">
<path d="M23.3529 81.0693C22.6962 80.4127 21.6314 80.4127 20.9747 81.0693L3.08783 98.9563C2.43101 99.613 2.43101 100.678 3.08783 101.334L20.9747 119.221C21.6314 119.878 22.6962 119.878 23.3529 119.221L41.2397 101.334C41.8965 100.678 41.8965 99.613 41.2397 98.9563L23.3529 81.0693Z" fill="#151F6D"/>
</mask>
<g mask="url(#mask14_1886_10669)">
<path d="M6.95238 105.236L12.9765 99.2117L28.1889 114.424L22.1648 120.448L6.95238 105.236Z" fill="white"/>
</g>
<mask id="mask15_1886_10669" style="mask-type:alpha" maskUnits="userSpaceOnUse" x="2" y="80" width="40" height="40">
<path d="M23.3529 81.0693C22.6962 80.4127 21.6314 80.4127 20.9747 81.0693L3.08783 98.9563C2.43101 99.613 2.43101 100.678 3.08783 101.334L20.9747 119.221C21.6314 119.878 22.6962 119.878 23.3529 119.221L41.2397 101.334C41.8965 100.678 41.8965 99.613 41.2397 98.9563L23.3529 81.0693Z" fill="#151F6D"/>
</mask>
<g mask="url(#mask15_1886_10669)">
<path d="M15.4044 86.6424L22.1648 79.882L27.6542 85.3714L20.8938 92.1318L15.4044 86.6424Z" fill="white"/>
</g>
</g>
</g>
<mask id="mask16_1886_10669" style="mask-type:luminance" maskUnits="userSpaceOnUse" x="-2" y="76" width="49" height="49">
<path d="M22.1648 124.354L-1.87457 100.315L22.1648 76.2758L46.2042 100.315L22.1648 124.354Z" fill="white"/>
</mask>
<g mask="url(#mask16_1886_10669)">
<mask id="mask17_1886_10669" style="mask-type:luminance" maskUnits="userSpaceOnUse" x="-2" y="76" width="49" height="49">
<path d="M22.1648 124.354L-1.87457 100.315L22.1648 76.2758L46.2042 100.315L22.1648 124.354Z" fill="white"/>
</mask>
<g mask="url(#mask17_1886_10669)">
<mask id="mask18_1886_10669" style="mask-type:alpha" maskUnits="userSpaceOnUse" x="2" y="80" width="40" height="40">
<path d="M23.3529 81.2192C22.6962 80.5626 21.6314 80.5626 20.9747 81.2192L3.08783 99.1062C2.43101 99.7629 2.43101 100.828 3.08783 101.484L20.9747 119.371C21.6314 120.028 22.6962 120.028 23.3529 119.371L41.2397 101.484C41.8965 100.828 41.8965 99.7629 41.2397 99.1062L23.3529 81.2192Z" fill="#151F6D"/>
</mask>
<g mask="url(#mask18_1886_10669)">
<path d="M1.88169 100.315L7.9058 94.2909L13.3823 99.7674L7.35815 105.792L1.88169 100.315Z" fill="white"/>
</g>
<mask id="mask19_1886_10669" style="mask-type:alpha" maskUnits="userSpaceOnUse" x="1" y="79" width="40" height="40">
<path d="M21.9256 79.7915C21.269 79.1348 20.2041 79.1348 19.5474 79.7915L1.66058 97.6785C1.00376 98.3352 1.00376 99.3999 1.66058 100.057L19.5474 117.944C20.2041 118.6 21.2689 118.6 21.9256 117.944L39.8125 100.057C40.4693 99.3999 40.4693 98.3352 39.8125 97.6785L21.9256 79.7915Z" fill="#151F6D"/>
</mask>
<g mask="url(#mask19_1886_10669)">
<path d="M7.45953 94.7371L16.587 85.6097L22.6111 91.6338L13.4836 100.761L7.45953 94.7371Z" fill="white"/>
</g>
<path d="M21.3995 109.316L26.5372 104.178L32.5613 110.202L27.4236 115.34L21.3995 109.316Z" fill="white"/>
<path d="M20.5354 90.4507L26.5595 84.4266L35.687 93.554L29.6628 99.5781L20.5354 90.4507Z" fill="white"/>
<mask id="mask20_1886_10669" style="mask-type:alpha" maskUnits="userSpaceOnUse" x="2" y="80" width="40" height="40">
<path d="M23.3529 81.2192C22.6962 80.5626 21.6314 80.5626 20.9747 81.2192L3.08783 99.1062C2.43101 99.7629 2.43101 100.828 3.08783 101.484L20.9747 119.371C21.6314 120.028 22.6962 120.028 23.3529 119.371L41.2397 101.484C41.8965 100.828 41.8965 99.7629 41.2397 99.1062L23.3529 81.2192Z" fill="#151F6D"/>
</mask>
<g mask="url(#mask20_1886_10669)">
<path d="M29.6632 99.5785L35.6873 93.5544L42.4477 100.315L36.4236 106.339L29.6632 99.5785Z" fill="white"/>
</g>
<mask id="mask21_1886_10669" style="mask-type:alpha" maskUnits="userSpaceOnUse" x="2" y="80" width="40" height="40">
<path d="M23.3529 81.2192C22.6962 80.5626 21.6314 80.5626 20.9747 81.2192L3.08783 99.1062C2.43101 99.7629 2.43101 100.828 3.08783 101.484L20.9747 119.371C21.6314 120.028 22.6962 120.028 23.3529 119.371L41.2397 101.484C41.8965 100.828 41.8965 99.7629 41.2397 99.1062L23.3529 81.2192Z" fill="#151F6D"/>
</mask>
<g mask="url(#mask21_1886_10669)">
<path d="M6.95238 105.386L12.9765 99.3616L28.1889 114.574L22.1648 120.598L6.95238 105.386Z" fill="white"/>
</g>
<mask id="mask22_1886_10669" style="mask-type:alpha" maskUnits="userSpaceOnUse" x="2" y="80" width="40" height="40">
<path d="M23.3529 81.2192C22.6962 80.5626 21.6314 80.5626 20.9747 81.2192L3.08783 99.1062C2.43101 99.7629 2.43101 100.828 3.08783 101.484L20.9747 119.371C21.6314 120.028 22.6962 120.028 23.3529 119.371L41.2397 101.484C41.8965 100.828 41.8965 99.7629 41.2397 99.1062L23.3529 81.2192Z" fill="#151F6D"/>
</mask>
<g mask="url(#mask22_1886_10669)">
<path d="M15.4044 86.7923L22.1648 80.0319L27.6542 85.5213L20.8938 92.2817L15.4044 86.7923Z" fill="white"/>
</g>
</g>
</g>
</g>
</g>
</g>
</g>
<defs>
<clipPath id="clip0_1886_10669">
<rect width="200" height="200" fill="white"/>
</clipPath>
<clipPath id="clip1_1886_10669">
<rect width="200" height="44" fill="white" transform="translate(0 78)"/>
</clipPath>
</defs>
</svg>
