<svg width="200" height="200" viewBox="0 0 200 200" fill="none" xmlns="http://www.w3.org/2000/svg">
<path d="M174.001 26.0015V174H26.0017V26.0015H174.001Z" stroke="white" stroke-width="2"/>
<path d="M117.953 99.0768L175 25H166.574L109.339 99.0768H117.953Z" fill="white"/>
<path d="M139.614 132.135C142.229 139.449 147.616 158.484 149.758 160.001H135.614C135.572 158.318 135.349 156.644 134.951 155.009C134.341 152.833 129.225 136.374 129.225 136.374H106.759L103.227 141.382C103.227 141.382 107.469 154.662 107.733 155.314C108.19 156.487 110.216 160.001 110.216 160.001H96.6615C96.6615 160.001 96.3101 157.972 96.1783 157.128C96.0722 156.445 94.8941 152.709 94.8941 152.709C94.8941 152.709 91.822 156.076 90.9849 157.637C90.1399 159.194 89.7652 160.001 89.7652 160.001H79.1614C79.1614 160.001 78.8074 157.972 78.6756 157.128C78.5725 156.445 77.2752 152.41 77.2752 152.41C77.2752 152.41 74.3066 156.014 73.4616 157.572C72.6218 159.132 72.2601 160.001 72.2601 160.001H61.7727C61.7727 160.001 64.7363 157.179 65.7724 155.967C67.5189 153.913 74.0275 145.407 74.0275 145.407L71.418 136.374H49.1224C49.1224 136.374 36.4102 153.079 35.9091 153.595C35.4027 154.104 31.6975 159.422 31.6147 160.001H25.0002V155.794C25.0823 155.705 25.1694 155.62 25.2611 155.541C25.4654 155.391 34.8987 143.681 43.5647 132.135C51.3523 122.065 58.6592 112.273 59.3 111.34C60.8528 109.085 63.0904 104.214 63.0904 104.214H74.6165C74.6165 104.214 74.9731 108.694 75.3091 109.782C75.6086 110.743 82.6314 133.786 82.7967 134.034L86.6802 129.068L80.0425 108.635C80.0425 108.635 78.487 104.79 77.9806 104.214H91.4448C91.3972 105.45 91.5455 106.686 91.884 107.875C92.4316 109.56 95.3179 119.975 95.3179 119.975C95.3179 119.975 104.501 108.465 105.038 107.638C105.69 106.607 106.08 105.431 106.172 104.214H117.391C117.391 104.214 115.337 105.715 111.738 110.268C110.529 111.8 98.6818 126.856 98.6818 126.856C98.6818 126.856 99.7155 130.38 100.219 132.135C100.356 132.638 100.452 132.979 100.452 133.016C100.452 133.031 100.713 132.711 101.162 132.135C104.219 128.261 118.122 110.03 118.965 108.47C119.644 107.209 120.644 105.775 121.231 104.214H132.175C132.175 104.214 132.429 107.483 132.762 108.387L139.614 132.135ZM122.959 114.877C121.352 118.335 111.893 129.85 111.893 129.85H126.873C126.873 129.85 123.969 120.908 123.463 118.893C123.204 117.604 123.105 116.288 123.168 114.976C123.168 114.792 123.135 114.495 122.959 114.877ZM65.4001 114.877C63.7931 118.335 54.3339 129.85 54.3339 129.85H69.3146C69.3146 129.85 66.4132 120.908 65.9068 118.893C65.648 117.604 65.549 116.288 65.6121 114.976C65.6121 114.792 65.5761 114.495 65.4001 114.877ZM87.9542 149.795L92.0779 144.131C91.698 143.723 89.3752 136.68 89.3752 136.68L85.3883 141.852L87.9542 149.795Z" fill="white"/>
</svg>
