<svg width="200" height="200" viewBox="0 0 200 200" fill="none" xmlns="http://www.w3.org/2000/svg">
<g clip-path="url(#clip0_3045_298)">
<g clip-path="url(#clip1_3045_298)">
<path d="M94.4756 120.494H101.6L113.008 78.9059H105.884L94.4756 120.494Z" fill="white"/>
<path d="M20.1659 96.832L13.7079 95.564C10.5079 94.9 8.87986 92.848 8.87986 90.252C8.87986 87.052 12.0179 84.276 16.2439 84.276C20.7739 84.276 23.6539 86.924 24.7139 90.42L30.9719 88.622C30.0659 83.976 25.7199 78 16.1819 78C8.45586 78 1.81586 83.794 1.81586 90.736C1.81586 97.014 6.04186 101.178 12.3799 102.446L18.7179 103.654C22.2799 104.438 24.2719 106.612 24.2719 109.328C24.2719 112.528 21.4959 115.062 16.4859 115.062C10.5099 115.062 7.31186 110.836 6.52586 106.792L0.00585938 108.664C0.669859 114.64 5.92186 121.4 16.4839 121.4C25.9599 121.4 31.4539 115.244 31.4539 108.784C31.4539 102.928 27.5299 98.282 20.1659 96.832Z" fill="white"/>
<path d="M79.9442 106.49C79.7702 107.168 79.2802 107.456 78.7362 107.456C78.1922 107.456 77.7182 107.156 77.5282 106.55L68.8362 78.9059H60.6882L52.0562 106.43C51.8642 107.03 51.3922 107.336 50.9102 107.336C50.3662 107.336 49.8642 106.976 49.7022 106.37L42.3982 78.9059H35.0342L46.5022 120.496H54.5902L63.5842 91.6439C63.7702 91.0379 64.2482 90.7379 64.7302 90.7379C65.2122 90.7379 65.6902 91.0419 65.8762 91.6439L74.8702 120.496H82.9582L94.3702 78.9059H87.0662L79.9442 106.492V106.49Z" fill="white"/>
<path d="M137.976 114.64C130.854 114.64 124.214 109.51 124.214 99.7299C124.214 89.9499 131.034 84.6399 137.916 84.6399C144.374 84.6399 148.056 88.1419 150.23 93.8759L156.75 91.8239C154.274 84.2779 148.238 77.9999 137.916 77.9999C127.594 77.9999 116.97 86.2099 116.97 99.7299C116.97 113.25 126.748 121.4 137.976 121.4C148.6 121.4 154.756 114.338 156.93 107.336L150.532 105.404C148.782 109.932 144.978 114.64 137.976 114.64Z" fill="white"/>
<path d="M184.312 78.9059H175.198L159.504 120.496H166.928L170.188 111.562C170.344 111.14 170.732 110.838 171.214 110.838H188.054C188.536 110.838 188.926 111.136 189.08 111.562L192.34 120.496H200.006L184.312 78.9059ZM185.278 104.378H173.99C173.392 104.376 173.012 103.76 173.206 103.232L178.578 88.3839C178.772 87.8479 179.182 87.5999 179.604 87.5999C180.026 87.5999 180.434 87.8499 180.63 88.3839L186.062 103.232C186.258 103.768 185.88 104.378 185.278 104.378Z" fill="white"/>
</g>
</g>
<defs>
<clipPath id="clip0_3045_298">
<rect width="200" height="200" fill="white"/>
</clipPath>
<clipPath id="clip1_3045_298">
<rect width="200" height="43.4" fill="white" transform="translate(0.00585938 78)"/>
</clipPath>
</defs>
</svg>
