<svg width="200" height="199" viewBox="0 0 200 199" fill="none" xmlns="http://www.w3.org/2000/svg">
<g clip-path="url(#clip0_1886_10688)">
<path d="M33.3058 62.1958H36.5916L47.7931 96.7344L60.7869 56.5507H54.8124L47.7931 78.1652L40.7736 56.5507H29.124L21.6562 79.5766L14.1886 56.5507H8.2144L21.6562 98.0714L33.3058 62.1958ZM34.9487 82.3248L42.5658 105.945H53.0204L69.0013 56.5507H63.0271L48.9133 100.299H46.6731L34.9487 63.9041L23.2242 100.3H20.0881L5.97424 56.5516H0L15.98 105.945H27.3309L34.9487 82.3248ZM70.942 81.8048C70.942 96.7344 83.1889 108.916 98.1989 108.916C113.209 108.916 125.456 96.7344 125.456 81.8048C125.456 66.8754 113.209 54.6938 98.1991 54.6938C83.1891 54.6938 70.942 66.8752 70.942 81.8048ZM74.7504 81.36C74.7502 76.8353 76.0991 72.4121 78.6262 68.6499C81.1536 64.8877 84.7456 61.9554 88.9484 60.2237C93.1511 58.4921 97.7758 58.039 102.238 58.9216C106.699 59.8042 110.798 61.983 114.014 65.1823C117.231 68.3817 119.422 72.458 120.309 76.8958C121.197 81.3335 120.741 85.9333 119.001 90.1137C117.26 94.294 114.312 97.8669 110.529 100.381C106.747 102.895 102.3 104.236 97.7511 104.236C91.6518 104.234 85.8029 101.823 81.4902 97.5328C77.1773 93.243 74.7529 87.4265 74.7504 81.36ZM97.7511 101.414C101.739 101.414 105.637 100.238 108.953 98.034C112.268 95.8303 114.853 92.6983 116.379 89.0337C117.905 85.3693 118.304 81.337 117.526 77.4468C116.748 73.5565 114.828 69.9832 112.008 67.1785C109.188 64.3738 105.596 62.4638 101.684 61.69C97.7733 60.9162 93.7193 61.3133 90.0351 62.8312C86.3507 64.349 83.2018 66.9195 80.9862 70.2174C78.7707 73.5153 77.5882 77.3926 77.5882 81.3591C77.5911 86.6771 79.7165 91.7764 83.4969 95.5366C87.2776 99.2972 92.4044 101.411 97.7511 101.414ZM97.7511 63.3842C101.325 63.3842 104.819 64.4385 107.791 66.4136C110.763 68.3887 113.08 71.196 114.447 74.4806C115.815 77.765 116.173 81.3792 115.476 84.8661C114.778 88.3528 113.057 91.5558 110.53 94.0695C108.002 96.5835 104.782 98.2954 101.277 98.9889C97.7709 99.6823 94.1373 99.3265 90.8351 97.9659C87.5329 96.6053 84.7104 94.3016 82.7247 91.3454C80.7389 88.3895 79.6791 84.9143 79.6791 81.3591C79.6749 78.9974 80.1393 76.6581 81.046 74.4754C81.9527 72.2926 83.2838 70.3094 84.9627 68.6395C86.6418 66.9696 88.6358 65.6457 90.8302 64.744C93.0247 63.8422 95.3767 63.3799 97.7511 63.3842ZM82.5169 81.3591C82.5169 84.3559 83.4104 87.2855 85.0842 89.7773C86.7582 92.2692 89.1376 94.2112 91.9211 95.3581C94.7049 96.505 97.768 96.8051 100.723 96.2204C103.678 95.6356 106.393 94.1926 108.523 92.0736C110.654 89.9543 112.105 87.2545 112.692 84.3152C113.28 81.3759 112.979 78.3292 111.826 75.5605C110.672 72.7917 108.72 70.4252 106.215 68.7602C103.709 67.0953 100.764 66.2066 97.7511 66.2066C95.7493 66.2024 93.7665 66.5915 91.9162 67.3515C90.066 68.1115 88.3849 69.2275 86.9696 70.6354C85.554 72.0432 84.432 73.7153 83.668 75.5555C82.904 77.3957 82.5127 79.368 82.5169 81.3591ZM87.2211 81.8039C87.2211 79.6442 87.8649 77.5334 89.0713 75.7377C90.2776 73.9422 91.992 72.5427 93.9978 71.7163C96.0038 70.8898 98.2109 70.6736 100.34 71.0949C102.47 71.5162 104.426 72.5561 105.961 74.0832C107.496 75.6101 108.542 77.5557 108.965 79.6736C109.389 81.7918 109.172 83.987 108.341 85.9823C107.51 87.9774 106.103 89.6827 104.298 90.8825C102.492 92.0822 100.37 92.7226 98.1987 92.7226C95.2887 92.718 92.4993 91.566 90.4416 89.5194C88.384 87.4727 87.2258 84.6982 87.2211 81.8039ZM160.479 61.4521H166.303L176.236 92.0541L187.959 55.8072H181.985L176.236 73.5593L170.486 55.8072H156.297L150.099 74.9707L143.901 55.8079H137.926L150.099 93.4662L160.479 61.4521ZM163.391 87.0033L170.112 107.801H182.36L199.161 55.8074H193.187L178.177 102.157H174.295L163.391 68.5084L152.489 102.157H147.709L132.699 55.8079H126.725L143.527 107.802H156.67L163.391 87.0033Z" fill="white"/>
<path d="M166.972 124.262V143.086H169.436V119.913H166.638L158.728 133.612L150.819 119.913H148.021V143.086H150.484V124.262L157.911 137.148H159.558L166.985 124.262H166.972ZM136.373 134.844C136.373 136.779 134.764 138.368 132.833 138.368H131.632C129.689 138.368 128.092 136.766 128.092 134.844V117.092H125.628V134.844C125.628 138.146 128.315 140.819 131.632 140.819H132.833C136.15 140.819 138.836 138.146 138.836 134.844V117.092H136.373V134.844ZM116.666 122.365V119.913H102.332V140.265H116.666V137.813H104.796V131.198H116.666V128.746H104.796V122.365H116.666ZM83.6038 125.223C83.6038 123.252 85.0891 121.811 87.0698 121.811C89.1618 121.811 90.6967 123.412 90.6967 125.334V126.036H93.16V125.334C93.16 122.032 90.4738 119.359 87.1193 119.359C83.7647 119.359 81.1529 121.958 81.1529 125.519C81.1529 128.894 83.5791 130.828 86.5622 131.346L87.6516 131.531C89.1122 131.789 90.7089 132.947 90.7089 134.869C90.7089 136.791 89.0998 138.355 87.1565 138.355C85.2129 138.355 83.6162 136.754 83.6162 134.832V134.241H81.1529V134.832C81.1529 138.134 83.8389 140.807 87.1565 140.807C90.4738 140.807 93.16 138.134 93.16 134.684C93.16 130.791 89.694 129.486 88.0476 129.153L86.9707 128.931C84.8416 128.488 83.6162 127.034 83.6162 125.223M70.4456 134.844C70.4456 136.779 68.8362 138.368 66.9053 138.368H65.7169C63.7736 138.368 62.1642 136.766 62.1642 134.844V117.092H59.7011V134.844C59.7011 138.146 62.3871 140.819 65.7047 140.819H66.8929C70.2102 140.819 72.8964 138.146 72.8964 134.844V117.092H70.4331V134.844H70.4456ZM48.0529 124.262V143.086H50.5162V119.913H47.7187L39.8089 133.612L31.8991 119.913H29.1016V143.086H31.5649V124.262L38.992 137.148H40.6382L48.0653 124.262H48.0529Z" fill="white"/>
</g>
<defs>
<clipPath id="clip0_1886_10688">
<rect width="200" height="198.887" fill="white"/>
</clipPath>
</defs>
</svg>
