<svg width="200" height="200" viewBox="0 0 200 200" fill="none" xmlns="http://www.w3.org/2000/svg">
<g clip-path="url(#clip0_2282_1930)">
<path d="M85.2142 86.9118C84.8282 86.3999 84.3391 85.9747 83.7783 85.6637C83.2177 85.3528 82.598 85.1629 81.9593 85.1066C81.5058 85.1171 81.0607 85.2309 80.6577 85.4395C80.2548 85.648 79.9049 85.9457 79.6344 86.31C79.265 86.775 78.9964 87.3119 78.8458 87.8864C78.6951 88.4609 78.6656 89.0604 78.7591 89.647C79.0327 91.2881 79.5387 94.2694 79.6755 95.1173C79.0648 95.5794 78.5642 96.171 78.2094 96.8497C77.8548 97.5283 77.6548 98.2772 77.6241 99.0423C77.6807 99.6801 77.8736 100.298 78.1898 100.855C78.5059 101.412 78.9379 101.894 79.4566 102.27C80.3592 102.967 81.2209 104.485 80.9473 105.265C80.8106 105.675 80.373 105.867 79.5798 105.867C79.4114 105.88 79.2422 105.88 79.0737 105.867C76.0104 105.552 74.0957 99.4662 73.6991 98.0713C74.482 97.6851 75.1687 97.1291 75.7094 96.4438C75.9361 96.0882 76.0829 95.6876 76.1396 95.2696C76.1962 94.8517 76.1615 94.4265 76.0377 94.0232C76.0377 93.8591 75.4633 91.0282 75.4633 91.0282C75.3265 90.3171 75.1625 89.5102 74.9983 88.6623L74.8752 87.9785C77.46 86.3784 80.6054 84.4774 82.985 83.1782L83.4637 82.9047L83.0261 82.5765C82.252 82.0622 81.3262 81.8259 80.4003 81.9064L84.7355 78.7609L84.1885 78.5011C81.4534 77.1335 78.7181 79.4447 78.7181 79.5405L75.8052 81.9337C75.9046 81.0418 75.8209 80.139 75.559 79.2806L75.2171 78.2276L74.8752 79.2943C74.5518 80.2259 74.1774 81.1389 73.7538 82.0295C73.453 80.402 73.2068 79.0891 73.1111 78.5148C73.0373 78.0519 72.8493 77.6148 72.564 77.2429C72.3883 77.0148 72.1863 76.8083 71.9623 76.6275C71.394 76.1893 70.7495 75.86 70.0614 75.6565C69.1052 75.3557 68.1097 75.199 67.1073 75.1915C66.6698 75.1412 66.2265 75.2012 65.818 75.366C65.4096 75.5308 65.0488 75.7952 64.7687 76.1352C64.6183 76.3129 64.4816 76.354 64.1123 76.354H61.8284C61.5532 76.3309 61.2762 76.3652 61.0149 76.4546C60.7537 76.5441 60.5138 76.6868 60.3105 76.8737C60.1061 77.088 59.989 77.3708 59.9822 77.6669L59.7224 80.8123H60.1053C60.1053 80.8123 62.6627 80.9217 62.6627 82.0842V82.2346C61.951 81.8301 61.1425 81.6268 60.3241 81.6465C59.3257 81.6465 58.6966 81.4688 58.5052 81.1542C58.3852 80.9463 58.322 80.7105 58.322 80.4704C58.322 80.2304 58.3852 79.9945 58.5052 79.7866C58.5052 79.7866 57.3154 80.5661 57.8214 81.5645C58.1633 82.1252 58.9291 82.3987 60.2421 82.4124C60.9746 82.3777 61.7002 82.5686 62.3208 82.9594C62.1815 83.0299 62.0247 83.0584 61.8694 83.0415H61.4729H61.131H60.5976C60.442 83.0335 60.2895 83.0876 60.1737 83.1919C60.0385 83.3873 59.9846 83.6276 60.0232 83.862V83.9851C60.0232 84.7783 61.3908 85.2707 62.2387 85.5031C62.0612 85.7906 61.8113 86.0265 61.5139 86.187C59.9375 86.8136 58.6045 87.9308 57.712 89.3734C57.0674 88.9426 56.401 88.5455 55.7153 88.1836C54.2552 87.2624 52.5138 86.8938 50.8057 87.1442C48.5628 87.8417 47.373 88.5939 47.0584 89.5376C47.0045 89.6146 46.9587 89.6972 46.9218 89.7837H41.1916C41.2056 89.5886 41.1776 89.3927 41.1094 89.2093C40.7949 88.2656 39.6051 87.5135 37.3623 86.816C35.6647 86.5683 33.9343 86.9318 32.48 87.8417C31.7944 88.2036 31.1279 88.6007 30.4833 89.0315C29.5991 87.5817 28.2634 86.4622 26.6814 85.845C26.3841 85.6845 26.1341 85.4488 25.9566 85.1612C26.8319 84.9288 28.1858 84.4364 28.1858 83.6432V83.5201C28.1858 83.2193 28.1857 83.0141 28.0217 82.85C27.9647 82.7977 27.8978 82.7574 27.825 82.7316C27.7522 82.7057 27.6749 82.6948 27.5977 82.6996H26.2302C26.0749 82.7165 25.9181 82.688 25.7788 82.6175C26.3994 82.2267 27.125 82.0358 27.8575 82.0705C29.2251 82.0705 29.9363 81.7833 30.2781 81.2226C30.7842 80.2242 29.5944 79.4447 29.5944 79.4447C29.725 79.6466 29.8001 79.8793 29.8121 80.1193C29.8241 80.3594 29.7726 80.5985 29.6628 80.8123C29.4713 81.1269 28.8422 81.3046 27.8439 81.3046C27.0295 81.2825 26.2249 81.486 25.5189 81.8927C25.5115 81.8428 25.5115 81.7921 25.5189 81.7423C25.5189 80.5798 28.4592 80.3747 28.4592 80.3747L28.1721 77.4754C28.1678 77.354 28.1447 77.2341 28.1037 77.1198C28.0509 76.9564 27.9621 76.8068 27.8439 76.6822C27.6557 76.4945 27.4314 76.3468 27.1846 76.2481C26.9378 76.1494 26.6736 76.1017 26.4079 76.1078H24.1104C23.7274 76.1078 23.5907 76.1078 23.4403 75.889C23.1631 75.5492 22.8048 75.2847 22.3985 75.1197C21.9922 74.9548 21.5509 74.8949 21.1153 74.9454C20.113 74.9518 19.1172 75.1085 18.1614 75.4103C17.1606 75.6732 16.2695 76.248 15.6176 77.0514C15.3367 77.4244 15.1534 77.8615 15.0843 78.3233C14.9475 79.1165 14.5372 81.291 14.0585 83.7937L7.22063 77.6669C6.88786 77.3792 6.45633 77.2321 6.01714 77.2566C5.74827 77.2814 5.48761 77.3624 5.25202 77.4943C5.01644 77.6262 4.81118 77.8061 4.64956 78.0224C4.47935 78.2059 4.34704 78.4211 4.2602 78.6558C4.17338 78.8905 4.13373 79.14 4.14355 79.39C4.1938 79.921 4.44888 80.4115 4.8547 80.7576L13.1696 88.5528C12.6226 91.2881 12.1713 93.6813 12.1303 93.9138C12.0065 94.317 11.9717 94.7422 12.0284 95.1602C12.0851 95.5782 12.2318 95.9788 12.4585 96.3344C12.9797 97.0188 13.6421 97.5831 14.4005 97.9892C14.0039 99.3569 12.0892 105.47 9.03952 105.784C8.87108 105.797 8.70194 105.797 8.53351 105.784C7.78133 105.784 7.34371 105.593 7.16592 105.183C6.89241 104.403 7.75398 102.885 8.65659 102.188C9.1753 101.812 9.60735 101.33 9.92351 100.773C10.2396 100.216 10.4326 99.5981 10.4891 98.9602C10.4584 98.195 10.2584 97.4462 9.90378 96.7676C9.54908 96.089 9.04842 95.4973 8.43778 95.0352C8.57454 94.242 9.08054 91.2607 9.35406 89.5648C9.45108 88.9784 9.42327 88.3781 9.27245 87.803C9.12163 87.2281 8.85119 86.6913 8.4788 86.228C8.2091 85.8629 7.85928 85.5646 7.45623 85.356C7.05318 85.1474 6.60765 85.034 6.1539 85.0245C5.51525 85.0809 4.89557 85.2707 4.3349 85.5817C3.77422 85.8926 3.28506 86.3178 2.89904 86.8297C-0.123327 90.2213 -0.178031 91.2607 0.0407828 91.753C0.0986718 91.8731 0.187429 91.9756 0.297968 92.0501C0.408506 92.1246 0.536853 92.1684 0.669873 92.177C1.27511 92.2825 1.88809 92.3374 2.50245 92.3411C3.09922 92.4087 3.70355 92.335 4.26659 92.1259C4.82964 91.917 5.33561 91.5784 5.74363 91.1376C6.01719 90.6817 6.17735 90.1668 6.21067 89.636C6.24399 89.1053 6.14948 88.5744 5.93509 88.0879C5.7573 87.6366 5.83935 87.4998 5.83935 87.4998C6.09165 87.5561 6.31225 87.7081 6.45477 87.9237C6.74739 88.3083 6.94665 88.7554 7.03684 89.2302C7.12702 89.7048 7.10567 90.1939 6.97446 90.659C6.52315 92.6009 4.02047 103.077 3.99311 103.186C3.96576 103.295 3.99311 103.419 3.89739 103.747C3.89345 103.792 3.89345 103.838 3.89739 103.884C3.7075 105.173 4.01023 106.486 4.74528 107.562C5.66157 108.738 7.24797 109.176 9.46347 108.93L8.97113 112.527C8.71121 113.175 8.30991 113.757 7.7965 114.23C7.28308 114.703 6.67052 115.056 6.00348 115.262C5.63037 115.362 5.285 115.546 4.99354 115.799C4.70208 116.053 4.47219 116.37 4.32133 116.725C4.20624 117.307 4.20992 117.906 4.33212 118.487C4.45432 119.067 4.69254 119.617 5.03248 120.103C5.84367 121.316 6.72499 122.48 7.67193 123.59L7.89074 123.85L8.15059 123.659C8.52523 123.395 8.82268 123.037 9.01216 122.619L9.2173 122.934C8.9766 123.442 8.9233 124.018 9.06687 124.561C9.15925 124.749 9.28965 124.915 9.44977 125.049C9.60988 125.183 9.79618 125.283 9.99683 125.341H13.1559H13.2517C13.5871 125.065 13.8108 124.676 13.8808 124.247H14.0995C14.2839 124.266 14.4703 124.244 14.645 124.182C14.8197 124.12 14.9784 124.02 15.1094 123.889C15.2406 123.758 15.3407 123.599 15.4026 123.425C15.4645 123.25 15.4865 123.064 15.4672 122.879C15.4393 122.269 15.1972 121.688 14.7834 121.238C14.7404 121.181 14.6897 121.131 14.633 121.088L14.3184 120.801C14.281 120.489 14.1283 120.202 13.8906 119.997C13.6527 119.792 13.3467 119.684 13.0329 119.693C12.7189 119.705 12.4092 119.77 12.1166 119.884L11.7611 120.007L10.5985 116.479C12.0643 116.2 13.4134 115.49 14.4732 114.44C15.533 113.39 16.2553 112.048 16.5476 110.585C16.5476 110.484 16.5749 110.375 16.6296 110.256C16.6296 110.051 16.739 109.791 16.7938 109.518C16.8484 109.244 16.9442 108.916 16.9852 108.711H17.2861C17.6869 108.662 18.0937 108.7 18.4784 108.823C18.8632 108.946 19.2168 109.15 19.5152 109.422C19.6334 109.61 19.7038 109.825 19.7205 110.046C19.7371 110.268 19.6995 110.49 19.611 110.694C19.0694 111.893 18.2083 112.92 17.122 113.662C16.1373 114.482 15.2894 115.194 15.2211 116.041C15.21 116.25 15.2419 116.458 15.3148 116.653C15.3877 116.848 15.5002 117.027 15.645 117.176C17.0468 118.686 18.5502 120.098 20.1443 121.402L20.3905 121.594L20.623 121.389C20.9218 121.107 21.1673 120.773 21.3478 120.404L21.553 120.678C21.458 120.972 21.4248 121.284 21.4554 121.592C21.486 121.9 21.5798 122.199 21.7308 122.469C21.9142 122.702 22.1529 122.885 22.4251 123.002C22.6974 123.119 22.9947 123.166 23.2898 123.139H26.025C26.4489 123.139 26.6677 122.496 26.6541 121.854C27.3926 121.772 28.0217 121.443 28.0217 120.732C28.0162 120.691 28.0162 120.65 28.0217 120.609C28.0217 119.105 27.5567 118.271 26.4763 118.12C26.3833 117.884 26.2216 117.68 26.012 117.536C25.8023 117.393 25.5544 117.315 25.3002 117.313C24.797 117.353 24.3188 117.549 23.9326 117.874L23.8232 117.737L22.0453 115.371C23.1257 114.701 26.2574 112.54 26.2574 109.901C26.2574 107.262 24.3702 105.798 20.4862 105.798H19.8025C22.4145 104.8 25.9976 103.145 26.6404 101.381H27.1464C27.0187 101.865 26.9978 102.372 27.0852 102.866C27.1726 103.359 27.3661 103.828 27.6524 104.239L26.3668 105.607L28.2815 107.111L29.649 105.552C29.7999 105.549 29.9485 105.517 30.0867 105.456V110.516C29.9964 113.54 30.9637 116.499 32.8219 118.886C35.2562 121.813 39.1402 123.303 44.337 123.303C49.5338 123.303 53.2947 121.731 55.7153 118.64C57.4622 116.265 58.38 113.382 58.3274 110.434V105.566C58.4411 105.611 58.561 105.639 58.683 105.648C59.0369 105.639 59.378 105.514 59.654 105.292L59.8318 105.155L60.2421 104.8C60.5593 104.511 60.8232 104.168 61.0216 103.788C61.3623 103.042 61.4347 102.201 61.2267 101.408H61.7327C62.3345 103.172 65.9312 104.827 68.5707 105.826H67.9006C64.0029 105.826 62.1156 107.193 62.1156 109.928C62.1156 112.663 65.2474 114.77 66.3278 115.399L64.55 117.765L64.4406 117.901C64.0543 117.576 63.5761 117.38 63.073 117.341C62.8187 117.342 62.5708 117.42 62.3612 117.564C62.1515 117.707 61.9898 117.911 61.8968 118.147C60.8164 118.298 60.2967 119.132 60.3651 120.636V120.76C60.3651 121.471 61.0352 121.799 61.7327 121.881C61.7327 122.524 61.9378 123.167 62.3755 123.167H65.1107C65.4058 123.194 65.703 123.147 65.9753 123.029C66.2476 122.912 66.4863 122.729 66.6698 122.496C66.8207 122.226 66.9144 121.927 66.945 121.619C66.9756 121.311 66.9424 121 66.8475 120.705L67.0526 120.431C67.2313 120.805 67.4823 121.14 67.7912 121.416L68.0236 121.621L68.2561 121.43C69.7915 120.097 71.2353 118.662 72.5777 117.135C72.7253 116.988 72.8396 116.81 72.9127 116.614C72.9858 116.418 73.0161 116.209 73.0017 116C73.0017 115.152 72.0854 114.441 71.1144 113.621C70.0244 112.879 69.1587 111.853 68.6117 110.653C68.5231 110.449 68.4855 110.227 68.5022 110.005C68.5188 109.784 68.5893 109.569 68.7074 109.381C69.0079 109.108 69.3639 108.903 69.7511 108.78C70.1381 108.658 70.5472 108.62 70.9503 108.67H71.2374C71.2374 108.875 71.3606 109.176 71.4289 109.477C71.4973 109.778 71.552 110.01 71.593 110.215C71.6341 110.421 71.593 110.448 71.6751 110.544C71.9682 112.009 72.6926 113.352 73.755 114.403C74.8175 115.453 76.1696 116.162 77.6377 116.438L76.4753 119.966L76.1334 119.843C75.8413 119.727 75.5313 119.663 75.2171 119.652C74.9041 119.646 74.5999 119.756 74.3626 119.96C74.1254 120.164 73.972 120.449 73.9316 120.76L73.617 121.047C73.5645 121.09 73.5184 121.141 73.4803 121.197C73.0792 121.671 72.861 122.272 72.8649 122.893C72.8455 123.077 72.8676 123.264 72.9295 123.438C72.9914 123.613 73.0916 123.772 73.2226 123.903C73.3537 124.034 73.5124 124.134 73.687 124.196C73.8618 124.258 74.0481 124.28 74.2325 124.261H74.3692C74.4308 124.689 74.6503 125.079 74.9846 125.355H75.0804H78.2532C78.4581 125.282 78.6442 125.164 78.7979 125.01C78.9518 124.857 79.0693 124.671 79.1421 124.466C79.2857 123.923 79.2324 123.346 78.9917 122.838L79.1968 122.524C79.3927 122.937 79.6888 123.294 80.0584 123.563L80.3319 123.755L80.537 123.495C81.484 122.385 82.3653 121.22 83.1765 120.007C83.5188 119.522 83.7595 118.973 83.884 118.393C84.0085 117.812 84.0145 117.212 83.9014 116.629C83.7473 116.273 83.5148 115.957 83.2212 115.703C82.9274 115.45 82.5803 115.266 82.2055 115.166C81.5383 114.963 80.9257 114.612 80.4141 114.138C79.9024 113.664 79.5049 113.081 79.2516 112.431L78.7045 108.93C80.92 109.231 82.4927 108.793 83.4089 107.562C84.1392 106.49 84.428 105.177 84.2158 103.897C84.2198 103.852 84.2198 103.806 84.2158 103.76C84.2158 103.432 84.1202 103.227 84.1202 103.2C84.1202 103.172 81.5901 92.6146 81.1387 90.6726C81.0108 90.2073 80.991 89.7189 81.0811 89.2447C81.1712 88.7706 81.3686 88.3234 81.6584 87.9375C81.804 87.7247 82.0233 87.5736 82.2739 87.5135C82.3001 87.7146 82.2667 87.9191 82.1781 88.1016C81.9638 88.5882 81.8693 89.1191 81.9026 89.6497C81.9359 90.1804 82.096 90.6953 82.3697 91.1513C82.7776 91.592 83.2836 91.9306 83.8466 92.1397C84.4098 92.3487 85.014 92.4224 85.6108 92.3547C86.2252 92.351 86.8381 92.2961 87.4434 92.1907C87.5767 92.1835 87.7057 92.1403 87.8165 92.0656C87.9273 91.991 88.0157 91.8877 88.0725 91.7667C88.2913 91.3427 88.2366 90.3034 85.2142 86.9118ZM75.3949 94.1052C75.4808 94.4069 75.5033 94.7229 75.4609 95.0336C75.4185 95.3443 75.3123 95.6429 75.1487 95.9105C74.6122 96.5577 73.9336 97.0724 73.1657 97.4148C72.7751 97.5996 72.3731 97.7595 71.9623 97.8935C71.0553 98.1539 70.087 98.1013 69.2137 97.744C68.3403 97.3868 67.6127 96.7456 67.1483 95.9241L66.738 95.2814C66.738 95.2814 67.3535 94.6933 68.1057 93.9822L68.8032 95.0352C69.3264 95.7446 70.1026 96.2255 70.9708 96.3784C71.8389 96.5311 72.7326 96.344 73.4666 95.8557C72.7677 96.0729 72.0189 96.07 71.3218 95.8475C70.6246 95.6248 70.0127 95.1933 69.5689 94.6113C69.1998 94.0642 68.9672 93.7223 68.7758 93.4078C69.2134 93.0251 69.6699 92.6646 70.1434 92.3274C70.318 92.6591 70.5591 92.9514 70.8515 93.186C71.1438 93.4207 71.4814 93.5927 71.843 93.6915C72.2046 93.7902 72.5828 93.8135 72.9538 93.7601C73.3249 93.7066 73.681 93.5774 74 93.3805C73.3856 93.475 72.7569 93.3805 72.1976 93.1094C71.6382 92.8383 71.1746 92.4033 70.8682 91.8624C71.1333 91.7045 71.4126 91.5717 71.7025 91.4658C72.6391 91.0719 73.6578 90.9123 74.6701 91.0008C75.1487 92.8198 75.3813 94.0642 75.3949 94.1052ZM71.511 90.0025L74.2461 88.2794L74.4103 89.1273C74.506 89.6606 74.6154 90.1803 74.6974 90.659C73.7005 90.2293 72.6239 90.0148 71.5383 90.0299L71.511 90.0025ZM75.6411 82.9457L79.2242 80.0054C79.7871 79.5334 80.4442 79.1868 81.1517 78.9887C81.8591 78.7906 82.6007 78.7456 83.3269 78.8567L78.3763 82.4261C78.1458 82.5459 77.9221 82.6784 77.7061 82.8227L74.971 84.6416C75.2448 84.0976 75.4692 83.53 75.6411 82.9457ZM73.7538 83.5612L74.0137 83.0825C74.4286 82.2954 74.803 81.4874 75.1351 80.6619C75.1728 82.0019 74.8817 83.3307 74.2871 84.5321L74.1231 84.874C74.1231 84.874 74.1231 84.9698 74.0547 85.0108C73.9974 85.1284 73.9335 85.2425 73.8632 85.3527V85.4347V85.5169L72.605 87.363L74.3829 85.9954L74.5196 85.8998C74.9573 85.5852 75.8872 84.9151 78.1438 83.4654C78.6943 83.0272 79.3481 82.7379 80.0427 82.6254C80.7372 82.5128 81.449 82.5807 82.1098 82.8227C79.8807 84.0672 77.1181 85.7356 74.7795 87.1852L74.1505 87.5819L72.482 88.6212H72.3862L72.2221 88.717L72.017 88.8537L69.993 90.1255L69.8288 90.2213L69.1314 90.6726L68.1057 91.3291L70.0614 90.8914C70.5565 90.7912 71.0605 90.7408 71.5657 90.741L71.2101 90.8914C69.4179 91.9486 67.7719 93.2359 66.3141 94.7207L63.9071 96.9089L60.0779 97.3328L68.4339 89.8384L69.993 88.4161L70.2664 88.1426L70.5673 87.8554C71.6856 86.7248 72.6553 85.4565 73.453 84.0808C73.5486 83.8894 73.6444 83.7253 73.7264 83.5612H73.7538ZM67.08 75.7249H67.8458C67.6348 75.8252 67.4446 75.9644 67.2851 76.1352H65.521C65.9585 75.8041 66.5081 75.6569 67.0526 75.7249H67.08ZM65.9859 78.7746C65.8486 78.6104 65.7588 78.4118 65.7261 78.2002V77.8994H65.4252C65.4252 77.8994 63.8525 77.8994 63.5516 77.2156C63.5516 77.2156 63.4559 77.8036 63.5516 77.9267C62.9909 77.9267 62.7447 77.831 62.7447 79.0891C62.7447 80.3473 64.3038 80.2653 64.3038 80.2653C64.3038 80.2653 63.3602 79.9234 63.3602 79.1712C63.3602 78.419 63.5243 78.6242 63.9345 78.6242H65.138C65.2259 78.9438 65.4143 79.2268 65.6753 79.4312C65.9363 79.6356 66.2562 79.7506 66.5876 79.7593C66.8914 79.7908 67.1983 79.7503 67.4835 79.641C67.7685 79.5317 68.0239 79.3567 68.2287 79.1302C68.3791 78.9661 68.4339 78.925 68.5843 78.925H72.0443C72.0281 79.2152 71.9517 79.4989 71.8199 79.7579C71.6879 80.0169 71.5036 80.2456 71.2784 80.4294C70.3046 80.9587 69.1681 81.105 68.092 80.8397C68.1975 81.2911 68.4357 81.7007 68.7758 82.0158C69.0994 82.2014 69.3815 82.4512 69.6049 82.7499C69.8283 83.0486 69.9883 83.3898 70.075 83.7526C70.2958 84.4355 70.692 85.0486 71.2238 85.5305C71.2238 85.5305 70.9776 84.327 70.6767 83.2876C70.4704 82.651 70.0743 82.0927 69.5417 81.6876C70.3192 81.6865 71.0779 81.4479 71.7161 81.0038C72.1887 80.6383 72.5218 80.1218 72.6598 79.5405C72.8239 80.3884 73.0427 81.5918 73.3025 82.9457C72.4696 84.5355 71.41 85.9958 70.157 87.281L61.2814 95.3772C61.1337 94.5199 60.857 93.6899 60.4609 92.9154C60.1521 92.2986 60.0229 91.6073 60.0882 90.9205C60.1535 90.2337 60.4106 89.5792 60.8301 89.0315C60.4837 89.2367 60.1817 89.5089 59.942 89.8323C59.7022 90.1557 59.5295 90.5238 59.4339 90.9149C59.3383 91.306 59.3219 91.7123 59.3855 92.1099C59.4491 92.5075 59.5916 92.8883 59.8044 93.23C60.7344 95.213 60.5839 95.9652 60.5566 95.9652L58.7924 97.4558H58.3001V89.688C58.3001 89.4692 58.9291 87.9785 61.9105 86.5425C62.3796 86.2896 62.7539 85.8913 62.9772 85.4074L63.5653 85.5305L64.3448 85.6263C64.3448 85.8587 64.0986 86.2826 63.2918 86.8434C61.3087 88.211 61.9242 89.1409 62.5807 90.5769L62.7994 91.0692C62.9407 91.3644 63.0418 91.6772 63.1003 91.9992C63.369 91.4592 63.4133 90.8348 63.2234 90.2623C62.4575 88.6623 62.3071 88.375 63.6883 87.4451C64.3484 87.087 64.84 86.4822 65.0559 85.763C65.0559 85.763 65.0559 85.763 65.0559 85.6673C65.583 85.6807 66.1076 85.5925 66.6014 85.4074C66.2452 86.2589 65.7559 87.0483 65.1517 87.7459C64.9822 87.9385 64.8534 88.1632 64.7731 88.4068C64.6928 88.6504 64.6626 88.9077 64.6843 89.1632C64.706 89.4187 64.7792 89.6673 64.8995 89.8937C65.0198 90.1202 65.1846 90.3201 65.3842 90.4812C65.1208 90.1425 64.9967 89.716 65.0374 89.289C65.078 88.8619 65.2804 88.4665 65.603 88.1836C66.8695 87.0119 67.6462 85.4046 67.7774 83.6842V83.7526C67.9842 84.2612 67.9842 84.8304 67.7774 85.3391C67.6367 85.7997 67.6591 86.2947 67.8411 86.7407C68.0229 87.1867 68.3531 87.5562 68.7758 87.7871C68.573 87.4519 68.4416 87.0785 68.3898 86.6902C68.338 86.3019 68.367 85.9071 68.4749 85.5305C68.5993 85.1756 68.6526 84.7996 68.6315 84.4242C68.6104 84.0487 68.5153 83.681 68.3519 83.3424C68.2617 83.201 68.1436 83.0796 68.0049 82.9855C67.8661 82.8915 67.7096 82.8267 67.545 82.7953H67.2305L66.8202 84.1629C66.5192 85.0245 64.9329 84.9971 63.7567 84.8193C63.499 84.7823 63.2434 84.7321 62.9909 84.6689H62.7174C61.9633 84.5689 61.2549 84.2504 60.6797 83.7526V83.5338H61.0762H61.3909H61.8421C62.8131 83.5338 63.2918 83.0005 63.2918 81.8927C63.2918 80.3884 61.2677 80.0191 60.4061 79.9234L60.5976 78.843C60.8164 78.0224 61.9652 77.5848 61.9652 77.5848H60.7618C60.7531 77.5032 60.7621 77.4207 60.788 77.3428C60.814 77.265 60.8563 77.1936 60.9122 77.1335H60.9942H61.0762H61.172C61.3719 77.1093 61.5739 77.1093 61.7737 77.1335H66.738C66.3962 77.5438 66.6834 78.4054 65.9585 78.843L65.9859 78.7746ZM69.8972 76.1762C70.2827 76.3011 70.6539 76.4661 71.005 76.6685C71.6373 76.9954 72.125 77.5464 72.3726 78.2139H68.557C68.3919 78.2137 68.2288 78.2505 68.0798 78.3215C67.9307 78.3925 67.7993 78.4959 67.6954 78.6242C67.5862 78.7488 67.4517 78.8487 67.3007 78.9171C67.1498 78.9855 66.9859 79.0209 66.8202 79.0208C67.0885 78.6848 67.2631 78.2837 67.3261 77.8583C67.3602 77.57 67.4567 77.2926 67.6089 77.0454C67.7612 76.7982 67.9655 76.5872 68.2077 76.427C68.4499 76.2669 68.724 76.1615 69.0111 76.1182C69.2981 76.0748 69.5913 76.0946 69.8699 76.1762H69.8972ZM47.7286 89.4828C47.9611 88.799 49.0962 88.1152 51.0108 87.5409C52.3784 87.1306 54.2793 87.9375 55.7017 88.717C56.3216 89.0557 56.924 89.4255 57.5068 89.8247H54.1563C53.9498 89.6589 53.7575 89.4759 53.5819 89.2777C53.5705 89.4832 53.529 89.6859 53.4588 89.8794C53.3768 90.1325 53.2667 90.3756 53.1306 90.6042C53.0086 90.8015 52.8715 90.989 52.7203 91.1649C52.544 91.3205 52.3399 91.4411 52.1185 91.5205C51.8648 91.4922 51.6308 91.3703 51.4621 91.1787L51.298 91.0145C51.1909 90.8861 51.0948 90.7489 51.0108 90.6042C50.951 90.4928 50.9197 90.3683 50.9197 90.2418C50.9197 90.1153 50.951 89.9908 51.0108 89.8794V89.811C51.5716 89.1546 52.0502 88.6623 52.0502 88.6623C51.4438 88.8843 50.9062 89.2616 50.4912 89.7564L50.3954 89.8794C50.3125 89.9787 50.2533 90.0955 50.2225 90.2212C50.1917 90.3469 50.19 90.4779 50.2176 90.6042C50.3292 90.9235 50.5116 91.2133 50.751 91.4521C50.6834 91.5416 50.5866 91.6045 50.4774 91.6299C50.4201 91.6404 50.3611 91.6385 50.3045 91.6243C50.2479 91.6102 50.195 91.5841 50.1492 91.5479L49.2056 90.6042C49.1327 90.5106 49.0941 90.3947 49.0962 90.276C49.0917 90.1436 49.1199 90.0121 49.1782 89.8931C49.2851 89.6592 49.4557 89.4601 49.6706 89.3187L50.6552 88.5939C50.0675 88.7548 49.5024 88.9892 48.9731 89.2914C48.746 89.4275 48.5759 89.6412 48.4945 89.8931C48.4348 90.131 48.4348 90.38 48.4945 90.618C48.4775 90.6991 48.4775 90.7829 48.4945 90.8641C48.0158 90.8641 47.797 90.1119 47.7833 89.8931C47.7248 89.7648 47.7057 89.622 47.7286 89.4828ZM32.4663 88.7033C33.8339 87.9237 35.8169 87.1306 37.1435 87.5409C39.0991 88.1426 40.2068 88.799 40.4257 89.4828C40.4465 89.5958 40.4465 89.7117 40.4257 89.8247C40.4257 90.0435 40.1795 90.8504 39.7009 90.7957C39.7411 90.7186 39.7687 90.6354 39.7829 90.5496C39.842 90.3115 39.842 90.0627 39.7829 89.8247C39.7017 89.5767 39.5375 89.3641 39.3179 89.223C38.7834 88.9219 38.2138 88.6878 37.6221 88.5255L38.6205 89.2503C38.8303 89.3936 38.996 89.5925 39.0991 89.8247C39.1575 89.9437 39.1857 90.0752 39.1812 90.2077C39.1833 90.3264 39.1447 90.4422 39.0718 90.5358L38.1281 91.4795C38.0824 91.5157 38.0294 91.5418 37.9729 91.5559C37.9163 91.5701 37.8573 91.572 37.8 91.5616C37.6908 91.5361 37.5939 91.4732 37.5264 91.3837C37.7658 91.1449 37.9481 90.8551 38.0598 90.5358C38.0863 90.4104 38.0854 90.2806 38.0571 90.1554C38.0287 90.0304 37.9737 89.9128 37.8956 89.811L37.7862 89.688C37.3712 89.1932 36.8336 88.8159 36.2272 88.5939C36.2272 88.5939 36.7058 89.0862 37.2665 89.7427V89.811C37.3187 89.9275 37.3399 90.0554 37.3278 90.1825C37.3159 90.3095 37.2712 90.4312 37.1981 90.5358C37.1142 90.6805 37.0181 90.8178 36.911 90.9461L36.7468 91.1103C36.5782 91.3019 36.3442 91.4238 36.0905 91.4521C35.8729 91.3736 35.673 91.2528 35.5024 91.0966C35.1591 90.7294 34.9022 90.2902 34.7502 89.811C34.68 89.6176 34.6385 89.4148 34.6271 89.2093C34.4573 89.4084 34.2697 89.5915 34.0664 89.7564H30.6474C31.2358 89.3753 31.8429 89.0239 32.4663 88.7033ZM21.1153 75.7249C21.6633 75.6675 22.2121 75.8243 22.647 76.1625H20.9375C20.7732 75.9913 20.5784 75.8522 20.3632 75.7522L21.1153 75.7249ZM16.5613 77.0925C17.0674 76.6669 17.6532 76.3461 18.2844 76.1488C18.5703 76.018 18.8845 75.9613 19.198 75.9838C19.5116 76.0063 19.8145 76.1073 20.0787 76.2776C20.343 76.4479 20.5602 76.6819 20.7103 76.9581C20.8604 77.2344 20.9385 77.5439 20.9375 77.8583C20.9992 78.2866 21.1791 78.6892 21.4572 79.0208C21.2912 79.0227 21.1268 78.9882 20.9756 78.9197C20.8243 78.8511 20.69 78.7503 20.582 78.6242C20.4761 78.498 20.3444 78.3961 20.1958 78.3253C20.0471 78.2545 19.885 78.2165 19.7204 78.2139H15.8912C16.0145 77.7966 16.2456 77.4193 16.5613 77.1198V77.0925ZM15.5629 79.5131C15.7096 80.0906 16.041 80.6045 16.5065 80.9764C17.1448 81.4206 17.9035 81.6592 18.6811 81.6602C18.1483 82.0654 17.7523 82.6237 17.5459 83.2603C17.245 84.2997 16.9988 85.4485 16.9988 85.5031C17.5308 85.0212 17.9268 84.4082 18.1476 83.7253C18.2422 83.3565 18.4127 83.0116 18.6481 82.7125C18.8837 82.4135 19.1789 82.1668 19.5152 81.9884C19.8477 81.6695 20.0806 81.261 20.1854 80.8123C19.1092 81.0777 17.9728 80.9313 16.9988 80.402C16.7738 80.2182 16.5893 79.9895 16.4575 79.7305C16.3257 79.4715 16.2492 79.1879 16.233 78.8977H19.7067C19.8435 78.8977 19.8981 78.8977 20.0486 79.1028C20.2534 79.3293 20.5087 79.5043 20.7939 79.6137C21.079 79.723 21.386 79.7635 21.6898 79.7319C22.0218 79.7198 22.3417 79.6037 22.6042 79.4001C22.8667 79.1964 23.0587 78.9154 23.1531 78.5968H24.3429C24.7531 78.5968 24.9172 78.4464 24.9172 79.1439C24.9172 79.8413 23.9872 80.2243 23.9736 80.2379C23.96 80.2516 25.5327 80.2379 25.5327 79.0618C25.5327 77.8857 25.2864 77.9267 24.7257 77.8994C24.8352 77.7763 24.7257 77.1882 24.7257 77.1882C24.4249 77.8583 22.8384 77.872 22.8384 77.872H22.5376V78.1729C22.5049 78.3844 22.415 78.583 22.2778 78.7473C21.7581 78.4327 21.7718 78.1455 21.6624 77.6669C21.6624 77.5711 21.553 77.2976 21.4846 77.0925C21.4592 77.0124 21.4272 76.9347 21.3888 76.86H26.3395C26.6892 76.8182 27.0426 76.9005 27.3378 77.0925C27.4281 77.2256 27.4758 77.383 27.4746 77.5438H26.2848C26.2848 77.5438 27.3652 77.9814 27.6524 78.802L27.7345 79.8687C26.8729 79.9644 24.8625 80.4567 24.8625 81.838C24.8625 82.8363 25.3275 83.4791 26.2302 83.4791H26.6814H26.9959H27.4472V83.6979C26.872 84.1957 26.1637 84.5142 25.4095 84.6142H25.1498C24.4375 84.7838 23.7073 84.8664 22.9752 84.8604C22.2367 84.8604 21.6076 84.6279 21.3888 84.1082L20.9923 82.7406H20.6777C20.5119 82.7688 20.3541 82.8322 20.2149 82.9266C20.0757 83.021 19.9584 83.1441 19.8709 83.2876C19.7006 83.6242 19.6018 83.9923 19.5806 84.3689C19.5593 84.7454 19.6163 85.1223 19.7477 85.4757C19.8553 85.8531 19.8829 86.2487 19.8287 86.6373C19.7746 87.0258 19.6399 87.3988 19.4332 87.7323C19.8577 87.5034 20.1895 87.1341 20.3717 86.6875C20.5538 86.2409 20.575 85.7448 20.4316 85.2843C20.2218 84.7763 20.2218 84.2059 20.4316 83.6979V83.6295C20.5663 85.3519 21.3481 86.9594 22.6196 88.1289C22.9432 88.4118 23.145 88.8086 23.1832 89.2366C23.2215 89.6645 23.0931 90.0908 22.8248 90.4265C23.027 90.2676 23.1945 90.0689 23.3172 89.8429C23.4399 89.6169 23.515 89.3682 23.538 89.112C23.5611 88.8558 23.5316 88.5977 23.4513 88.3534C23.371 88.1091 23.2415 87.8837 23.071 87.6913C22.4621 86.9971 21.9723 86.2069 21.6214 85.3527C21.8418 85.4407 22.0711 85.5048 22.3051 85.5441H23.0163H23.1667C23.1611 85.5758 23.1611 85.6083 23.1667 85.6399C23.2723 85.9968 23.4475 86.3291 23.6822 86.6178C23.9169 86.9065 24.2065 87.1458 24.5343 87.322C25.9019 88.252 25.7651 88.5392 24.9992 90.1393C24.818 90.714 24.867 91.3368 25.136 91.8761C25.1959 91.5561 25.2923 91.2441 25.4232 90.9461L25.6557 90.4538C26.3532 89.0862 26.9139 88.0332 24.9446 86.7203C24.124 86.1596 23.9052 85.7356 23.8778 85.5031L24.5617 85.4211C24.7668 85.4211 24.9309 85.4211 25.1086 85.3391C25.3647 85.8042 25.7557 86.181 26.2302 86.4194C29.1977 87.7871 29.7995 89.346 29.8679 89.5648V97.4696L29.2799 97.3875L26.8865 95.2814C27.0398 94.5221 27.2927 93.7864 27.6387 93.0932C28.0243 92.4623 28.2002 91.7255 28.1412 90.9886C28.0822 90.2515 27.7915 89.5521 27.3105 88.9905C27.5219 89.624 27.6019 90.294 27.5454 90.9595C27.4889 91.6249 27.2973 92.2719 26.9823 92.8608C26.7287 93.5022 26.5364 94.1661 26.4079 94.8437L18.2024 87.5955L14.6466 84.3817C15.0159 82.4671 15.3577 80.6892 15.5629 79.5405V79.5131ZM5.26497 80.2106C5.01476 79.9974 4.8497 79.7013 4.79999 79.3763C4.79269 79.2126 4.81928 79.0491 4.87811 78.8962C4.93695 78.7432 5.02675 78.604 5.14189 78.4874C5.35261 78.211 5.66067 78.0252 6.00348 77.9677C6.2549 77.9567 6.50056 78.0451 6.68726 78.2139L17.4775 87.7871L19.5016 89.5922L20.1854 90.2077L21.7444 91.5752L25.4779 94.9121L28.1037 97.2507L23.8505 96.7857C23.0201 96.5854 22.2679 96.1427 21.6898 95.5139L5.26497 80.2106ZM12.9919 95.9105C12.8317 95.6492 12.7261 95.3582 12.6815 95.0549C12.6368 94.7518 12.654 94.4427 12.732 94.1462C12.732 94.1462 13.1696 91.9172 13.703 89.1956L16.9716 92.2591C16.6459 92.7071 16.2029 93.0566 15.6913 93.2689C15.1797 93.4812 14.6194 93.5482 14.0723 93.4625C14.631 93.8193 15.303 93.9539 15.9559 93.84C16.6089 93.7261 17.1957 93.3719 17.6007 92.8471L18.9682 94.0916L18.5579 94.6933C18.1172 95.2793 17.5062 95.7147 16.8084 95.94C16.1108 96.1652 15.3605 96.1692 14.6604 95.9515C15.3938 96.4375 16.2864 96.622 17.1525 96.4667C18.0185 96.3112 18.7913 95.828 19.3102 95.1173L19.611 94.6933L20.9785 96.0609C20.511 96.871 19.7855 97.5012 18.9179 97.8507C18.0503 98.2002 17.0906 98.249 16.192 97.9892C15.7749 97.8602 15.3681 97.7002 14.9748 97.5106C14.2015 97.1525 13.5224 96.6186 12.9919 95.9515V95.9105ZM7.7403 90.782C7.87963 90.2195 7.89178 89.633 7.77585 89.0652C7.65993 88.4975 7.41886 87.9627 7.07019 87.4998C6.93246 87.3115 6.75648 87.1545 6.55378 87.039C6.35108 86.9235 6.12626 86.8522 5.89406 86.8297C5.77672 86.8262 5.66036 86.852 5.55537 86.9044C5.45037 86.957 5.36 87.0346 5.29232 87.1306C5.19161 87.3249 5.13904 87.5407 5.13904 87.7597C5.13904 87.9786 5.19161 88.1943 5.29232 88.3888C5.46515 88.7673 5.54653 89.1811 5.5299 89.5969C5.51326 90.0125 5.39909 90.4186 5.1966 90.782C4.84799 91.1191 4.42985 91.3757 3.97152 91.534C3.51318 91.6923 3.02577 91.7484 2.54347 91.6983C1.96979 91.6967 1.39751 91.6417 0.833982 91.5342H0.738251C0.738251 91.5342 0.396354 90.8641 3.47343 87.4314C3.79805 86.9967 4.20814 86.6329 4.67851 86.3624C5.14887 86.092 5.66957 85.9206 6.20861 85.8587C6.55385 85.8702 6.89199 85.9599 7.19757 86.121C7.50315 86.282 7.76821 86.5104 7.9728 86.7887C8.27803 87.1687 8.50023 87.6084 8.62508 88.0795C8.74992 88.5506 8.77464 89.0426 8.69762 89.5238C8.38307 91.4111 7.75398 95.131 7.75398 95.131V95.3361C7.45259 96.8019 6.816 98.1781 5.89406 99.3569L5.64789 99.6714C6.40007 96.4302 7.46679 91.9992 7.7403 90.823V90.782ZM12.4312 120.554C12.6253 120.467 12.8339 120.416 13.0465 120.404C13.1515 120.397 13.2559 120.422 13.3463 120.476C13.4366 120.53 13.5085 120.609 13.5526 120.705C13.0134 120.686 12.4744 120.746 11.9525 120.883V120.746L12.4312 120.554ZM25.3002 118.038C25.3796 118.039 25.458 118.057 25.5291 118.093C25.6003 118.128 25.6623 118.18 25.7105 118.243C25.4839 118.278 25.2601 118.328 25.0403 118.394L24.3839 118.558V118.476C24.6293 118.251 24.9324 118.1 25.2591 118.038H25.3002ZM20.4452 106.537C23.9326 106.537 25.5053 107.562 25.5053 109.874C25.5053 112.609 21.4025 114.934 21.2931 114.961L20.9375 115.166L23.5086 118.585L24.0966 119.378L25.2318 119.091C25.7063 118.908 26.2225 118.86 26.7225 118.954C27.2558 119.228 27.3242 119.884 27.2968 120.582C27.2968 120.582 27.2968 120.705 27.2968 120.746C27.2968 121.006 26.8319 121.129 26.4216 121.156C26.3414 120.871 26.1544 120.629 25.8996 120.478C25.6449 120.328 25.342 120.282 25.054 120.349C25.8745 120.896 25.9429 121.361 25.9156 121.813C25.8882 122.264 25.9155 122.428 25.6557 122.428H23.2214C23.043 122.45 22.8619 122.429 22.6931 122.367C22.5243 122.305 22.3726 122.204 22.2505 122.072C22.1586 121.856 22.1114 121.624 22.1114 121.389C22.1114 121.154 22.1586 120.921 22.2505 120.705V120.527L18.4622 116.288L20.4042 119.378C20.5119 119.576 20.554 119.804 20.5246 120.027C20.4951 120.251 20.3955 120.459 20.2401 120.623C18.786 119.408 17.4153 118.097 16.1373 116.698C16.0556 116.62 15.9905 116.527 15.9458 116.424C15.9012 116.32 15.8779 116.209 15.8774 116.096C15.8774 115.535 16.698 114.893 17.5185 114.209C18.7257 113.387 19.6743 112.239 20.2538 110.899C20.3785 110.586 20.4263 110.247 20.393 109.912C20.3596 109.576 20.2462 109.254 20.0623 108.971C19.6932 108.611 19.2496 108.336 18.7629 108.166C18.2762 107.996 17.758 107.935 17.245 107.986H16.9716C16.9716 107.644 16.9716 107.207 16.9716 106.742C18.1104 106.602 19.2568 106.533 20.4042 106.537H20.4452ZM17.1083 105.976C17.1083 105.251 17.1904 104.608 17.2177 104.143L16.3561 108.082V108.315C16.192 109.067 15.8774 110.462 15.8774 110.462C15.5985 111.87 14.878 113.153 13.8207 114.124C12.7633 115.096 11.4239 115.705 9.99683 115.864H9.5592L11.132 120.65L11.4465 121.731L11.8021 121.621C12.5679 121.389 13.8261 121.211 14.1679 121.621C14.4845 121.98 14.6594 122.442 14.6604 122.92C14.6604 123.235 14.6604 123.522 14.0175 123.522H13.8945C13.6756 122.524 12.3764 122.619 12.3764 122.619C12.562 122.703 12.7267 122.826 12.8584 122.981C12.9903 123.136 13.0858 123.318 13.1382 123.515C13.1907 123.712 13.1985 123.917 13.1614 124.117C13.1243 124.317 13.043 124.506 12.9235 124.671H10.1883C10.0944 124.632 10.0096 124.575 9.93898 124.502C9.86839 124.429 9.81359 124.342 9.77801 124.247C9.68938 123.821 9.76251 123.377 9.98315 123.002L10.0789 122.811L8.98481 121.129L6.67359 117.464L8.3694 121.484C8.45079 121.708 8.46164 121.951 8.40051 122.181C8.33936 122.411 8.20917 122.616 8.02751 122.77C7.18426 121.78 6.40324 120.739 5.68892 119.652C5.39247 119.268 5.17968 118.826 5.06426 118.355C4.94885 117.884 4.93337 117.394 5.01881 116.917C5.13428 116.662 5.30646 116.437 5.52216 116.26C5.73787 116.082 5.99139 115.956 6.26331 115.891C7.0435 115.65 7.75831 115.234 8.35321 114.675C8.94812 114.115 9.40738 113.427 9.69596 112.663L10.3387 108.014L9.8464 108.109C7.6856 108.492 6.1539 108.109 5.34702 107.138C4.72287 106.151 4.4934 104.964 4.70426 103.815C4.95584 102.374 5.5569 101.017 6.45477 99.8628C7.35746 98.7028 8.0052 97.3653 8.35572 95.9379C8.7984 96.3182 9.15889 96.7848 9.41519 97.3092C9.67149 97.8335 9.81821 98.4046 9.8464 98.9876C9.79521 99.528 9.62975 100.051 9.36097 100.523C9.09218 100.994 8.72621 101.403 8.28734 101.723C7.30268 102.475 6.12655 104.253 6.55051 105.511C6.71462 106.017 7.20695 106.605 8.56086 106.605H9.13524C12.6089 106.236 14.6056 100.054 15.0979 98.3995L15.6586 98.6183C15.5629 98.9602 15.4261 99.4389 15.3988 99.5893C15.3104 99.901 15.2927 100.229 15.3471 100.548C15.4016 100.867 15.5267 101.171 15.7134 101.436C16.2453 102.021 16.9769 102.387 17.7647 102.461H23.6727L22.9752 101.518H25.8061C24.7531 103.282 18.9819 105.429 17.0672 105.976H17.1083ZM28.049 106.222L27.2694 105.607L27.9943 104.8C28.2342 105.023 28.4902 105.229 28.7602 105.415L28.049 106.222ZM29.485 105.019C28.8751 104.709 28.3636 104.235 28.0079 103.651V103.555C27.8135 103.196 27.6928 102.802 27.6529 102.396C27.613 101.989 27.6546 101.579 27.7755 101.189L27.9807 100.683H22.3051L21.6214 100.013L22.1137 101.176L22.2915 101.627H19.8025L18.4348 99.7671L19.0503 101.627H17.7784C17.204 101.571 16.6693 101.309 16.2741 100.888C16.148 100.707 16.0643 100.5 16.0287 100.283C15.9933 100.065 16.007 99.842 16.0689 99.6303C16.0689 99.5073 16.2193 99.0833 16.3287 98.714C16.6633 98.7694 17.0018 98.7968 17.3408 98.796C18.1859 98.8182 19.0215 98.6128 19.7601 98.2014C20.4987 97.79 21.1132 97.1878 21.5392 96.4576C22.159 97.0508 22.9385 97.45 23.7822 97.6062L28.9516 98.1807H29.1431L29.9226 98.2901C30.6196 98.4613 31.2518 98.832 31.7415 99.3569C32.3984 99.8611 32.9669 100.471 33.4236 101.162C33.4757 101.288 33.5036 101.422 33.5057 101.559C33.4968 101.674 33.4642 101.785 33.41 101.887L33.1364 101.559C32.5522 100.97 31.9211 100.431 31.2491 99.9448C31.2491 99.9448 34.4904 103.049 32.48 104.376C32.2485 104.568 31.9601 104.679 31.6594 104.69C31.412 104.691 31.1695 104.62 30.962 104.485C31.0514 104.297 31.1202 104.1 31.1671 103.897C31.5911 102.448 30.0046 100.888 30.0046 100.888C30.0514 100.977 30.0925 101.068 30.1277 101.162C30.9483 102.653 30.5107 105.484 29.4986 105.019H29.485ZM32.3022 98.9055C31.9528 98.5821 31.5726 98.2935 31.1671 98.0439H33.068L32.3022 98.9055ZM33.8475 98.2627L34.4904 98.8372L33.4647 100.027L32.8355 99.3569L33.8475 98.2627ZM34.4356 106.29L32.8629 104.923C33.0635 104.769 33.2388 104.584 33.3826 104.376L34.9417 105.743L34.4356 106.29ZM36.1451 105.538C36.3499 105.784 36.4619 106.094 36.4619 106.414C36.4619 106.733 36.3499 107.043 36.1451 107.289C36.0397 107.423 35.9046 107.532 35.7504 107.605C35.5961 107.679 35.427 107.715 35.2562 107.713C34.9166 107.693 34.5854 107.599 34.2852 107.439L36.1451 105.538ZM33.41 107.726H30.6748V106.947H33.8065L33.9433 106.81L33.2458 107.562L33.41 107.726ZM30.6748 106.222V105.484H32.3432L33.2458 106.195L30.6748 106.222ZM44.2413 122.633C42.2116 122.665 40.1895 122.375 38.2513 121.772H50.0125C48.1336 122.392 46.165 122.697 44.1865 122.674L44.2413 122.633ZM51.7082 121.033H36.5007C36.0746 120.814 35.6634 120.568 35.2699 120.295H52.9118C52.531 120.585 52.1286 120.845 51.7082 121.074V121.033ZM53.8417 119.57H34.3262C34.0529 119.324 33.7927 119.064 33.5467 118.79H54.6075C54.3714 119.081 54.1154 119.355 53.8417 119.611V119.57ZM55.2093 118.065H32.945C32.7672 117.819 32.5894 117.559 32.4389 117.313H55.6879C55.5512 117.6 55.3871 117.86 55.1956 118.106L55.2093 118.065ZM57.5206 110.557C57.5339 112.86 56.9497 115.126 55.8247 117.135L55.7427 117.272L55.1272 116.616H32.0286C31.9056 116.37 31.7825 116.123 31.6868 115.877H54.4298L53.7597 115.153H31.3995C31.3175 114.893 31.2355 114.633 31.1671 114.387H53.0485L52.3647 113.648H30.9893C30.9893 113.388 30.8936 113.142 30.8526 112.896H51.6536L50.9698 112.157H30.7568C30.7568 111.911 30.7568 111.665 30.7568 111.419H50.2723L49.5885 110.694H30.6748V109.928H48.8773L48.1936 109.19H30.6748V108.451H47.4961L46.8123 107.726H36.7742C36.9805 107.488 37.1217 107.201 37.1845 106.892H46.1012L45.4174 106.195H37.2119C37.2194 106.254 37.2194 106.314 37.2119 106.373C37.1857 106.043 37.0927 105.722 36.9383 105.429H44.7336L44.0361 104.69H36.4186L36.1588 104.458L35.516 105.128L34.1484 103.938H43.3796L42.6959 103.2H33.8475C33.842 103.231 33.842 103.264 33.8475 103.295C33.8906 103.051 33.8906 102.801 33.8475 102.557L33.9296 102.461H42.0121L41.3283 101.736H34.2032C34.21 101.686 34.21 101.636 34.2032 101.586C34.2145 101.343 34.1725 101.1 34.0801 100.875V100.971H40.4941L39.8103 100.246H34.2032L34.8459 99.4935H39.1812L38.4973 98.7688H35.557L34.6955 97.9892H37.7862L37.1025 97.2507H30.6748V96.6216H36.405L35.7212 95.8969H30.6748V95.1446H35.0237L34.34 94.4061H30.6748V93.6403H33.6151L32.9313 92.9018H30.6748V92.1496H32.2338L31.5501 91.4248H30.6748V90.6042H34.2442C34.3895 91.0165 34.6393 91.3839 34.969 91.671C35.1015 91.8375 35.2671 91.9745 35.4555 92.0734C35.6439 92.1723 35.8509 92.2308 36.0631 92.2453C36.3831 92.2379 36.6932 92.1329 36.952 91.9445C37.1224 92.1507 37.3593 92.2909 37.6221 92.3411H37.8136C38.0764 92.3323 38.3299 92.2415 38.5384 92.0812L39.2085 91.4111C39.3854 91.5042 39.583 91.5513 39.7829 91.5479C39.9752 91.5284 40.1612 91.4683 40.3285 91.3716C40.4959 91.2749 40.6409 91.1439 40.7539 90.9872C40.8461 90.8691 40.9242 90.7405 40.9864 90.6042H47.1406C47.2079 90.7378 47.2856 90.8658 47.373 90.9872C47.4861 91.1439 47.6311 91.2749 47.7984 91.3716C47.9658 91.4683 48.1518 91.5284 48.344 91.5479C48.5439 91.5513 48.7415 91.5042 48.9184 91.4111L49.5885 92.0812C49.797 92.2415 50.0506 92.3323 50.3134 92.3411H50.5048C50.7717 92.2917 51.0133 92.1516 51.1886 91.9445C51.3338 92.0609 51.5013 92.1465 51.6808 92.1959C51.8602 92.2453 52.0478 92.2577 52.2322 92.2321C52.4165 92.2065 52.5938 92.1435 52.753 92.0471C52.9121 91.9505 53.05 91.8226 53.1579 91.671C53.4876 91.3839 53.7373 91.0165 53.8828 90.6042H57.4795V97.8251C56.8698 98.1108 56.3109 98.4942 55.8247 98.9602C55.2284 99.4618 54.6874 100.026 54.211 100.642C54.0029 100.947 53.9019 101.313 53.9238 101.682C53.9096 101.786 53.9096 101.892 53.9238 101.996L51.8314 104.266V108.93L55.4828 105.183C55.6641 105.273 55.8515 105.351 56.0435 105.415H56.4264C56.7815 105.411 57.1296 105.317 57.4384 105.142L57.5206 110.557ZM54.4025 103.719C54.5249 104.09 54.7254 104.431 54.9905 104.718L52.6109 107.193V104.54L54.3751 102.598C54.2915 102.958 54.2961 103.334 54.3887 103.692L54.4025 103.719ZM61.9652 100.724H60.1737L60.3787 101.23C60.5221 101.619 60.585 102.033 60.5639 102.446C60.5428 102.86 60.4379 103.265 60.2557 103.637V103.747C59.9001 104.331 59.3886 104.805 58.7787 105.114C58.7143 105.152 58.6412 105.171 58.5667 105.171C58.4923 105.171 58.4192 105.152 58.3548 105.114C57.671 104.745 57.4658 102.53 58.1633 101.285C58.1986 101.192 58.2398 101.1 58.2864 101.012C58.039 101.261 57.8189 101.536 57.63 101.832C57.3955 102.14 57.2292 102.495 57.142 102.872C57.0548 103.249 57.0486 103.64 57.1239 104.02C57.1773 104.221 57.2459 104.418 57.329 104.608C57.1215 104.743 56.8791 104.814 56.6316 104.814C56.331 104.802 56.0425 104.691 55.8111 104.499C53.8144 103.131 57.0419 100.068 57.0419 100.068C56.3701 100.554 55.7388 101.093 55.1546 101.682L54.8811 102.01C54.833 101.906 54.8008 101.795 54.7854 101.682C54.7874 101.546 54.8153 101.411 54.8674 101.285C55.297 100.555 55.8473 99.903 56.4948 99.3569C56.8179 99.0453 57.1813 98.7785 57.5752 98.5636C57.7998 98.4351 58.0451 98.3472 58.3001 98.3037L59.0795 98.1943H59.2301L64.1944 97.6474H64.3722C65.2165 97.4933 65.9966 97.0937 66.615 96.4986C67.0411 97.2288 67.6556 97.8311 68.3942 98.2424C69.1328 98.6538 69.9683 98.8593 70.8135 98.8372C71.1526 98.8379 71.4911 98.8104 71.8255 98.755C71.9349 99.1243 72.058 99.5483 72.0854 99.6714C72.1455 99.8825 72.1596 100.104 72.1265 100.321C72.0935 100.538 72.0141 100.746 71.8939 100.93C71.4944 101.352 70.9548 101.614 70.3759 101.668H69.104L69.7194 99.8082L68.3519 101.668H65.9175L66.0953 101.217L66.5876 100.054L65.9039 100.724H61.9652ZM62.9499 118.079C63.3141 118.125 63.6567 118.277 63.9345 118.517L63.8661 118.599L63.2098 118.435C62.9942 118.371 62.775 118.321 62.5533 118.284C62.5877 118.22 62.6364 118.164 62.6957 118.122C62.7549 118.079 62.8232 118.05 62.8952 118.038L62.9499 118.079ZM71.046 108.055C70.5329 108.001 70.0142 108.062 69.5272 108.232C69.0402 108.402 68.5968 108.678 68.2287 109.039C68.0426 109.321 67.9267 109.643 67.8911 109.978C67.8553 110.314 67.9009 110.653 68.0236 110.968C68.6031 112.308 69.5517 113.456 70.7588 114.277C71.5793 114.961 72.3588 115.645 72.3999 116.164C72.3996 116.389 72.3113 116.605 72.1537 116.766C70.8757 118.165 69.505 119.476 68.051 120.691C67.8894 120.532 67.7847 120.324 67.7526 120.099C67.7205 119.874 67.7629 119.645 67.8732 119.447L69.8151 116.356L66.0269 120.595L66.0953 120.773C66.1871 120.99 66.2344 121.222 66.2344 121.457C66.2344 121.692 66.1871 121.925 66.0953 122.141C65.9732 122.273 65.8215 122.374 65.6527 122.436C65.4839 122.497 65.3028 122.518 65.1243 122.496H62.7857C62.5259 122.496 62.5533 122.332 62.5123 121.881C62.4712 121.43 62.5123 120.965 63.3738 120.418C63.0858 120.35 62.7829 120.396 62.5281 120.547C62.2734 120.697 62.0864 120.94 62.0062 121.225C61.5959 121.225 61.131 121.074 61.131 120.814V120.65C61.131 119.953 61.131 119.283 61.6917 119.023C62.1917 118.929 62.7078 118.976 63.1824 119.159L64.3174 119.447L64.9055 118.654L67.4766 115.235L67.121 115.029C67.121 115.029 62.9225 112.691 62.9225 109.942C62.9225 107.631 64.4816 106.605 67.9826 106.605C69.1077 106.613 70.2313 106.691 71.3468 106.838C71.3468 107.303 71.3468 107.74 71.3468 108.082L71.046 108.055ZM75.1487 120.445C75.3656 120.458 75.5784 120.509 75.7778 120.595L76.2975 120.787V120.924C75.7758 120.786 75.2366 120.726 74.6974 120.746C74.7285 120.657 74.7831 120.578 74.8553 120.518C74.9275 120.458 75.0148 120.419 75.1077 120.404L75.1487 120.445ZM82.8893 107.152C82.0825 108.178 80.5508 108.52 78.3763 108.123L77.8976 108.027L78.5404 112.677C78.8249 113.441 79.2812 114.129 79.874 114.689C80.4667 115.249 81.1803 115.665 81.9593 115.905C82.2313 115.969 82.4848 116.095 82.7005 116.273C82.9162 116.451 83.0883 116.676 83.2039 116.93C83.2893 117.408 83.2738 117.898 83.1583 118.369C83.043 118.84 82.8302 119.282 82.5337 119.666C81.8197 120.749 81.0434 121.79 80.2088 122.784C80.0232 122.633 79.8891 122.428 79.8254 122.198C79.7617 121.967 79.7714 121.723 79.8533 121.498L81.549 117.477L79.2378 121.143L78.1438 122.825L78.2532 123.016C78.4678 123.393 78.5406 123.835 78.4583 124.261C78.422 124.357 78.3653 124.445 78.2923 124.518C78.2191 124.592 78.1312 124.648 78.0344 124.685H75.2991C75.1797 124.52 75.0984 124.331 75.0613 124.131C75.0241 123.931 75.032 123.725 75.0844 123.529C75.1368 123.332 75.2324 123.15 75.3642 122.995C75.496 122.84 75.6607 122.716 75.8462 122.633C75.8462 122.633 74.4786 122.537 74.3282 123.536H74.2051C73.6444 123.536 73.5624 123.249 73.5624 122.934C73.5632 122.456 73.7381 121.994 74.0547 121.635C74.3966 121.266 75.6548 121.443 76.4343 121.635L76.7762 121.744L77.0908 120.664L78.6635 115.877H78.2258C76.8202 115.696 75.5072 115.077 74.4737 114.107C73.4402 113.137 72.7384 111.867 72.4682 110.475C72.4682 110.475 72.1401 109.108 71.9759 108.328V108.096L71.1144 104.157C71.1144 104.581 71.1144 105.265 71.2238 105.99C69.3228 105.443 63.5379 103.254 62.5533 101.422H65.3705L64.673 102.366H70.5673C71.3503 102.288 72.0764 101.923 72.605 101.34C72.7906 101.074 72.916 100.772 72.9727 100.453C73.0295 100.134 73.0159 99.8067 72.9333 99.4935C72.9333 99.3431 72.7555 98.8644 72.6598 98.5226L73.2205 98.3037C73.7128 99.9722 75.7095 106.154 79.1831 106.509H79.7712C81.1387 106.509 81.6038 105.921 81.7679 105.415C82.2055 104.157 81.0157 102.379 80.0447 101.627C79.6021 101.31 79.2326 100.902 78.9613 100.43C78.6899 99.9584 78.5231 99.4337 78.472 98.8918C78.5003 98.3076 78.6484 97.7352 78.9072 97.2106C79.166 96.6859 79.53 96.2202 79.9763 95.8421C80.3314 97.2653 80.9736 98.601 81.8636 99.7671C82.7969 100.9 83.4023 102.267 83.6141 103.719C83.8159 104.907 83.5407 106.126 82.8482 107.111L82.8893 107.152ZM87.457 91.5752H87.375C86.8066 91.6811 86.23 91.7359 85.6519 91.7394C85.1696 91.7894 84.6821 91.7333 84.2238 91.575C83.7655 91.4168 83.3473 91.1601 82.9987 90.823C82.7962 90.4596 82.6821 90.0536 82.6654 89.6379C82.6487 89.2221 82.7302 88.8083 82.903 88.4298C83.0037 88.2353 83.0562 88.0196 83.0562 87.8007C83.0562 87.5817 83.0037 87.366 82.903 87.1716C82.8316 87.0764 82.7385 86.9994 82.6315 86.9471C82.5245 86.8947 82.4066 86.8686 82.2875 86.8707C82.0568 86.8916 81.8334 86.9623 81.6327 87.0781C81.432 87.1937 81.2588 87.3517 81.1251 87.5409C80.7706 88.0007 80.5248 88.5349 80.4064 89.1034C80.2879 89.6719 80.3 90.2599 80.4414 90.823C80.7285 91.9992 81.8089 96.4302 82.5611 99.6987C82.4868 99.588 82.4045 99.4829 82.3149 99.3841C81.3872 98.1813 80.7591 96.775 80.4824 95.2814V95.0762C80.4824 95.0762 79.8396 91.3565 79.525 89.4692C79.448 88.9879 79.4728 88.4958 79.5975 88.0247C79.7224 87.5536 79.9446 87.1139 80.2499 86.7339C80.4545 86.4556 80.7196 86.2274 81.0251 86.0662C81.3307 85.9051 81.6688 85.8155 82.0141 85.804C82.5531 85.8658 83.0738 86.0373 83.5442 86.3078C84.0145 86.5782 84.4246 86.942 84.7492 87.3768C87.7716 90.8641 87.4298 91.5342 87.416 91.5342L87.457 91.5752Z" fill="white"/>
<path d="M116.3 75V125.396Z" fill="white"/>
<path d="M116.3 75V125.396" stroke="white" stroke-width="0.252525" stroke-miterlimit="10"/>
<path d="M130.755 100.218L128.758 102.584V106.263H127.924V94.5836H128.758V101.422L134.338 94.5836H135.296L131.193 99.5343L135.582 106.263H134.679L130.755 100.218Z" fill="white"/>
<path d="M141.764 105.648C140.894 105.949 140.002 106.182 139.096 106.345C138.767 106.374 138.436 106.333 138.123 106.227C137.81 106.12 137.523 105.949 137.28 105.725C137.037 105.501 136.843 105.229 136.71 104.926C136.578 104.623 136.51 104.296 136.512 103.966C136.469 103.638 136.501 103.304 136.605 102.99C136.709 102.676 136.882 102.39 137.112 102.152C137.343 101.914 137.624 101.731 137.934 101.616C138.244 101.502 138.576 101.459 138.905 101.49H141.723V100.218C141.723 99.0561 141.216 98.5638 139.807 98.5638C138.968 98.6198 138.149 98.8479 137.401 99.2339L137.1 98.6184C137.955 98.1917 138.883 97.9318 139.836 97.8525C141.572 97.8525 142.461 98.2492 142.461 100.205V105.415L142.693 106.181L142.064 106.318L141.764 105.648ZM139.165 102.092C137.592 102.092 137.209 102.762 137.209 103.856C137.209 104.95 137.647 105.662 139.384 105.662C140.181 105.497 140.963 105.268 141.723 104.978V102.092H139.165Z" fill="white"/>
<path d="M145.565 98.6183C146.595 98.2228 147.67 97.9609 148.766 97.8388C149.833 97.8388 150.79 98.4952 150.79 100.574V106.236H149.997V101.326C149.997 99.8627 149.915 98.5909 148.451 98.5909C147.467 98.6827 146.509 98.9514 145.621 99.3842V106.222H144.827V99.0012L144.54 98.0712L145.293 97.8388L145.565 98.6183Z" fill="white"/>
<path d="M153.593 104.499V98.6727H152.608V97.989H153.593V96.6214L153.976 95.4042H154.4V97.989H156.492V98.6591H154.413V104.225C154.413 105.196 154.769 105.593 155.781 105.593C156.315 105.544 156.839 105.406 157.327 105.183L157.504 105.839C156.882 106.098 156.222 106.255 155.549 106.304C155.296 106.341 155.039 106.322 154.795 106.246C154.551 106.171 154.327 106.042 154.14 105.869C153.952 105.696 153.805 105.483 153.71 105.246C153.616 105.009 153.576 104.753 153.593 104.499Z" fill="white"/>
<path d="M161.717 97.8525C164.178 97.8525 164.876 99.2201 164.876 102.092C164.876 104.964 164.178 106.318 161.717 106.318C159.255 106.318 158.544 104.95 158.544 102.092C158.544 99.2339 159.255 97.8525 161.717 97.8525ZM161.717 98.509C159.748 98.509 159.406 99.7398 159.406 102.078C159.406 104.417 159.748 105.662 161.717 105.662C163.686 105.662 164.028 104.403 164.028 102.078C164.028 99.7535 163.686 98.509 161.717 98.509Z" fill="white"/>
<path d="M167.611 98.6183C168.64 98.2211 169.716 97.9591 170.812 97.8388C171.878 97.8388 172.822 98.4952 172.822 100.574V106.236H172.042V101.326C172.042 99.8627 171.96 98.5909 170.497 98.5909C169.509 98.6826 168.545 98.9513 167.652 99.3842V106.222H166.872V99.0012L166.571 98.0712L167.324 97.8388L167.611 98.6183Z" fill="white"/>
<path d="M174.422 105.483L174.696 104.827C175.54 105.285 176.472 105.56 177.431 105.634C179.126 105.634 179.797 104.909 179.797 103.842C179.797 103.117 178.894 102.734 178.264 102.475L176.842 101.969C175.474 101.504 174.736 100.916 174.736 99.8898C174.736 98.5223 175.612 97.8112 177.225 97.8112C178.267 97.8467 179.293 98.0787 180.248 98.495L179.974 99.1241C179.161 98.7368 178.276 98.5227 177.375 98.495C176.214 98.495 175.57 98.8916 175.57 99.7942C175.57 100.396 176.104 100.861 176.938 101.162C177.335 101.326 177.8 101.476 178.182 101.627C179.865 102.242 180.631 102.557 180.631 103.801C180.631 105.046 179.865 106.29 177.499 106.29C176.428 106.242 175.378 105.967 174.422 105.483Z" fill="white"/>
<path d="M186.074 98.7004C185.667 98.6848 185.26 98.7404 184.871 98.8644C184.247 99.1094 183.671 99.456 183.162 99.8902V106.263H182.382V99.2201L181.972 98.1397L182.669 97.8935L183.162 98.9602C183.746 98.5573 184.381 98.2311 185.048 97.9892C185.401 97.9004 185.765 97.8591 186.129 97.8661L186.074 98.7004Z" fill="white"/>
<path d="M192.174 105.648C191.308 105.947 190.421 106.181 189.52 106.345C189.191 106.374 188.859 106.333 188.544 106.227C188.231 106.12 187.943 105.95 187.699 105.726C187.454 105.502 187.26 105.23 187.126 104.927C186.992 104.624 186.922 104.297 186.922 103.966C186.88 103.638 186.911 103.304 187.015 102.99C187.119 102.676 187.293 102.39 187.522 102.152C187.752 101.914 188.033 101.731 188.343 101.616C188.653 101.502 188.986 101.459 189.315 101.49H192.146V100.218C192.146 99.0561 191.626 98.5638 190.218 98.5638C189.379 98.6213 188.56 98.8493 187.811 99.2339L187.51 98.6184C188.366 98.1935 189.294 97.9338 190.245 97.8525C191.982 97.8525 192.871 98.2492 192.871 100.205V105.415L193.104 106.181L192.475 106.318L192.174 105.648ZM189.589 102.092C188.002 102.092 187.633 102.762 187.633 103.856C187.633 104.95 188.057 105.662 189.794 105.662C190.595 105.496 191.382 105.267 192.146 104.978V102.092H189.589Z" fill="white"/>
<path d="M195.798 104.499V98.6727H194.813V97.989H195.798V96.6214L196.181 95.4042H196.604V97.989H198.724V98.6591H196.618V104.225C196.618 105.196 196.988 105.593 197.986 105.593C198.52 105.544 199.043 105.406 199.531 105.183L199.709 105.839C199.091 106.097 198.435 106.254 197.767 106.304C197.513 106.344 197.254 106.326 197.009 106.251C196.762 106.177 196.537 106.048 196.348 105.875C196.158 105.702 196.011 105.488 195.916 105.25C195.82 105.011 195.78 104.755 195.798 104.499Z" fill="white"/>
<path d="M127.938 124.548L133.914 114.4H128.649V113.73H134.94V114.4L128.8 124.725H135.062V125.409H127.938V124.548Z" fill="white"/>
<path d="M141.531 124.807C140.758 125.142 139.945 125.377 139.111 125.505C137.566 125.505 136.513 124.876 136.513 122.988V117.135H137.306V122.414C137.306 124.575 138.059 124.889 139.111 124.889C139.938 124.73 140.742 124.468 141.504 124.11V117.135H142.284V124.602L142.516 125.368L141.874 125.505L141.531 124.807ZM137.265 114.906H138.154V115.767H137.265V114.906ZM140.615 114.906H141.504V115.767H140.615V114.906Z" fill="white"/>
<path d="M148.411 117.847C148.003 117.832 147.595 117.888 147.207 118.011C146.587 118.253 146.014 118.6 145.511 119.037V125.41H144.718V118.366L144.308 117.286L145.019 117.04L145.511 118.107C146.082 117.702 146.703 117.371 147.357 117.122C147.711 117.033 148.073 116.992 148.438 116.999L148.411 117.847Z" fill="white"/>
<path d="M149.764 113.73H150.544V114.551H149.764V113.73ZM149.764 117.067H150.544V125.409H149.764V117.067Z" fill="white"/>
<path d="M152.486 121.239C152.486 118.394 153.238 116.999 155.549 116.999C156.505 117.06 157.436 117.321 158.285 117.765L157.998 118.421C157.265 117.981 156.431 117.736 155.577 117.71C153.608 117.71 153.266 118.886 153.266 121.252C153.266 123.618 153.608 124.767 155.577 124.767C156.54 124.746 157.482 124.477 158.312 123.987L158.586 124.63C157.675 125.123 156.666 125.408 155.631 125.464C153.184 125.464 152.486 124.042 152.486 121.239Z" fill="white"/>
<path d="M165.491 120.472C165.491 119.009 165.41 117.737 163.946 117.737C162.963 117.833 162.005 118.101 161.115 118.53V125.368H160.322V113.73H161.115V117.764C162.125 117.368 163.182 117.106 164.26 116.985C165.327 116.985 166.284 117.641 166.284 119.72V125.382H165.491V120.472Z" fill="white"/>
</g>
<defs>
<clipPath id="clip0_2282_1930">
<rect width="200" height="50.5051" fill="white" transform="translate(0 75)"/>
</clipPath>
</defs>
</svg>
