<svg width="200" height="200" viewBox="0 0 200 200" fill="none" xmlns="http://www.w3.org/2000/svg">
<g clip-path="url(#clip0_1886_10679)">
<path d="M27.3524 109.793H27.219L20.5476 82.1792H0V129.141H13.6095V98.9887H13.7429L21.881 129.141H32.6905L40.8286 98.9887H40.9619V129.141H54.7048V82.1792H34.1571L27.3524 109.793Z" fill="white"/>
<path d="M147.834 98.4554H134.224V82.1792H119.814V129.141H134.224V110.465H147.834V129.141H162.243V82.1792H147.834V98.4554Z" fill="white"/>
<path d="M184.124 116.998V82.1792H169.714V129.141H200V116.998H184.124Z" fill="white"/>
<path d="M79.7381 79.4839C80.2023 79.4782 80.6545 79.3354 81.0377 79.0733C81.4208 78.8112 81.7179 78.4416 81.8914 78.011C82.0649 77.5804 82.1072 77.1081 82.0128 76.6536C81.9185 76.199 81.6917 75.7826 81.3612 75.4566C81.0306 75.1307 80.611 74.9098 80.1552 74.8219C79.6993 74.7339 79.2277 74.7829 78.7996 74.9624C78.3715 75.142 78.0061 75.4443 77.7494 75.8311C77.4928 76.2179 77.3563 76.672 77.3572 77.1363C77.3659 77.7619 77.6207 78.359 78.0662 78.7983C78.5118 79.2377 79.1124 79.4839 79.7381 79.4839Z" fill="white"/>
<path d="M102.571 82.3029C100.657 81.478 98.6138 80.9945 96.5332 80.8743C94.4999 80.8743 92.1332 81.8743 89.7903 82.3457C91.8999 81.4314 95.2713 79.3791 97.0903 76.3267C100.009 71.4267 98.9951 65.4695 98.2856 65.0552C97.576 64.641 91.6999 66.5362 88.7618 71.4362C87.8406 73.013 87.2387 74.7556 86.9903 76.5648C85.1284 71.0695 81.7522 69.0457 81.7522 69.0457C80.7999 68.4695 80.4332 68.7267 80.238 68.8695C79.7295 69.2941 79.3405 69.8439 79.1094 70.4648C79.0687 70.5663 79.0502 70.6753 79.0551 70.7845C79.0601 70.8938 79.0883 71.0007 79.138 71.0981C79.1984 71.1918 79.2799 71.2701 79.3761 71.3267C81.3656 72.4119 83.0211 74.0197 84.164 75.9766C85.307 77.9336 85.894 80.1654 85.8618 82.4314C82.7665 82.0743 81.238 81.0029 78.6046 80.8933C76.4532 80.922 74.3309 81.3954 72.3713 82.2838C63.9713 86.5124 58.5713 95.0505 58.5713 105.246C58.5713 115.522 63.7713 124.241 72.6237 128.308C72.6237 128.308 77.6808 130.755 81.7856 129.417C82.1452 129.312 82.511 129.23 82.8808 129.17C84.1475 129.008 85.5284 129.17 85.4618 130.441C85.4237 130.979 85.657 131.341 86.0475 131.417C86.5468 131.496 87.0515 131.536 87.557 131.536C88.0198 131.538 88.4818 131.5 88.938 131.422C89.4141 131.341 89.5427 130.841 89.5237 130.441C89.4665 129.279 90.5951 129.012 91.9046 129.141C92.5481 129.247 93.1843 129.393 93.8094 129.579C97.9284 130.498 102.452 128.27 102.638 128.184C111.09 124.25 116.447 115.479 116.447 105.241C116.447 95.0029 111.095 86.3457 102.571 82.3029ZM87.2999 121.027C76.9475 121.027 72.257 113.203 72.257 105.789C72.257 98.7362 77.9713 90.5505 87.2999 90.5505C89.3254 90.519 91.3371 90.8892 93.2188 91.6397C95.1005 92.3902 96.8147 93.5061 98.2626 94.923C99.7105 96.3399 100.863 98.0296 101.654 99.8946C102.445 101.76 102.859 103.763 102.871 105.789C102.857 112.508 97.3046 121.027 87.2999 121.027Z" fill="white"/>
</g>
<defs>
<clipPath id="clip0_1886_10679">
<rect width="200" height="200" fill="white"/>
</clipPath>
</defs>
</svg>
