<svg width="200" height="200" viewBox="0 0 200 200" fill="none" xmlns="http://www.w3.org/2000/svg">
<g clip-path="url(#clip0_1886_10683)">
<g clip-path="url(#clip1_1886_10683)">
<path d="M71.657 130.19C70.9494 129.641 70.0897 129.324 69.1951 129.281L68.638 129.248H67.6856C67.0523 129.248 66.4285 129.295 65.8094 129.295C65.3761 129.295 64.938 129.295 64.5046 129.248C64.5285 129.929 64.5523 130.614 64.5665 131.295C64.5904 132.095 64.6046 132.89 64.6046 133.676C64.6046 134.462 64.6046 135.205 64.5808 135.976C64.5808 136.657 64.5285 137.343 64.4666 138.014C64.9142 138.014 65.3475 137.99 65.7856 138.014L67.3523 138.067C67.7237 138.067 68.0951 138.067 68.4713 138.043C69.0491 138.012 69.6205 137.906 70.1713 137.729C70.7876 137.51 71.3484 137.159 71.8142 136.7C72.2269 136.272 72.549 135.765 72.7609 135.209C72.9728 134.654 73.0703 134.061 73.0475 133.467C73.0758 132.851 72.9655 132.237 72.7248 131.67C72.4842 131.103 72.1193 130.598 71.657 130.19ZM70.7618 136.319C70.4705 136.658 70.1127 136.934 69.7105 137.128C69.3082 137.323 68.8703 137.434 68.4237 137.452C68.1761 137.452 67.9475 137.476 67.6904 137.476C67.4332 137.476 67.2142 137.476 66.9713 137.476C66.6094 137.476 66.238 137.443 65.8618 137.405C65.838 137.181 65.8237 136.957 65.8142 136.733C65.8142 136.348 65.8142 135.948 65.8142 135.562C65.8142 134.681 65.8142 133.809 65.8142 132.938C65.8142 131.919 65.8142 130.914 65.8666 129.895L67.9427 129.843C68.535 129.842 69.123 129.944 69.6808 130.143C70.1419 130.339 70.5488 130.644 70.8671 131.031C71.1854 131.418 71.4057 131.876 71.5094 132.367C71.6069 132.749 71.6533 133.143 71.6475 133.538C71.6765 134.539 71.3641 135.519 70.7618 136.319Z" fill="white"/>
<path d="M79.6857 137.329C79.3143 137.329 78.9524 137.367 78.581 137.376C77.7857 137.4 77 137.4 76.2 137.4V133.733C76.4524 133.733 76.7095 133.695 76.9714 133.695C77.2334 133.695 77.4476 133.695 77.681 133.695C78.0191 133.695 78.3429 133.695 78.6619 133.733C78.8663 133.746 79.0697 133.77 79.2714 133.805C79.2336 133.537 79.2417 133.265 79.2953 133C79.0143 133.024 78.7143 133.071 78.4286 133.086C78.2286 133.086 78.0429 133.086 77.8429 133.086C77.3095 133.086 76.7619 133.086 76.2286 133.086V129.952H77.6572C78.2905 129.952 78.9238 130.014 79.5619 130.076C79.5082 129.806 79.5297 129.526 79.6238 129.267C78.6715 129.314 77.7191 129.381 76.7667 129.381C76.1572 129.381 75.5381 129.343 74.9238 129.305C75.0022 129.818 75.0325 130.338 75.0143 130.857C75.0143 131.357 75.0381 131.843 75.0381 132.324C75.0381 133.248 75.0381 134.152 75.0143 135.062C75.0143 135.419 75.0143 135.781 75.0143 136.143C75.0143 136.429 75.0143 136.729 75.0143 137.014C75.0143 137.3 74.9667 137.686 74.9381 138.019C75.5762 138.019 76.1953 137.981 76.8429 137.981C77.8286 137.981 78.7953 138.019 79.7667 138.071C79.7373 137.935 79.7213 137.796 79.7191 137.657C79.6997 137.549 79.6886 137.439 79.6857 137.329Z" fill="white"/>
<path d="M84.9047 129.295C84.7285 129.295 84.5523 129.295 84.3666 129.257C83.7952 129.257 83.238 129.295 82.6666 129.295C82.2285 129.295 81.7809 129.295 81.3475 129.257L81.4237 130.562C81.4571 131.514 81.4571 132.467 81.4571 133.419C81.4571 134.372 81.4571 135.186 81.4571 136.067C81.4571 136.729 81.3952 137.386 81.3333 138.048C81.5752 138.003 81.8205 137.977 82.0666 137.972C82.313 137.979 82.5584 138.008 82.7999 138.057C82.7999 137.848 82.7618 137.634 82.738 137.424C82.7094 137.062 82.7094 136.691 82.7094 136.329C82.7094 135.595 82.7094 134.848 82.7094 134.114C82.9713 134.114 83.2428 134.143 83.5047 134.143C84.4482 134.177 85.3789 133.916 86.1666 133.395C86.4523 133.173 86.6836 132.889 86.8429 132.564C87.0021 132.238 87.0852 131.881 87.0856 131.519C87.0959 131.085 86.9801 130.656 86.7523 130.286C86.5514 129.98 86.2771 129.729 85.9544 129.556C85.6317 129.383 85.2708 129.293 84.9047 129.295ZM85.2523 132.9C84.7523 133.524 84.1047 133.61 82.6666 133.572V129.819C83.8856 129.767 84.419 129.781 84.9523 130.105C85.1953 130.264 85.3923 130.484 85.5235 130.743C85.6548 131.002 85.7156 131.291 85.6999 131.581C85.6992 132.06 85.5364 132.525 85.238 132.9H85.2523Z" fill="white"/>
<path d="M94.8477 129.281L94.9239 129.952C94.9619 130.905 95.0096 131.857 95.0096 132.809C95.0096 133.457 94.9858 134.09 94.9715 134.714C94.9611 135.111 94.8938 135.503 94.7715 135.881C94.5911 136.395 94.249 136.836 93.7966 137.139C93.3442 137.442 92.8057 137.59 92.2619 137.562C91.7472 137.604 91.2331 137.472 90.8017 137.188C90.3702 136.904 90.0461 136.484 89.881 135.995C89.7421 135.518 89.6637 135.025 89.6477 134.528C89.6477 133.576 89.6096 132.586 89.6477 131.628C89.6477 130.857 89.7096 130.076 89.7715 129.305C89.5381 129.305 89.2953 129.328 89.0762 129.328C88.8572 129.328 88.5667 129.305 88.3191 129.29C88.3429 129.838 88.381 130.386 88.3905 130.947C88.4 131.509 88.3905 131.952 88.3905 132.462C88.3905 133.286 88.3905 134.105 88.3905 134.924C88.3808 135.456 88.4746 135.985 88.6667 136.481C88.7765 136.739 88.9277 136.977 89.1143 137.186C90.0667 138.233 91.6858 138.243 92.0096 138.243C93.4381 138.243 94.1858 137.833 94.6858 137.4C95.2339 136.889 95.5845 136.201 95.6762 135.457C95.7143 135.224 95.7286 134.981 95.7524 134.752C95.7524 134.366 95.7524 133.966 95.7762 133.581C95.7762 132.786 95.7762 131.976 95.8286 131.2C95.8524 130.566 95.9143 129.947 95.9762 129.324C95.7905 129.324 95.6048 129.347 95.4191 129.347C95.2272 129.34 95.0361 129.318 94.8477 129.281Z" fill="white"/>
<path d="M99.281 135.19C99.281 134.343 99.2524 133.495 99.2524 132.652C99.2524 132.176 99.2524 131.733 99.2524 131.262C99.2524 130.614 99.3143 129.952 99.3524 129.295C99.1121 129.323 98.8705 129.339 98.6286 129.343C98.3829 129.342 98.1376 129.321 97.8953 129.281C97.9238 129.557 97.9476 129.843 97.9572 130.128C98.0096 130.838 98.0191 131.557 98.0191 132.29C98.0191 132.766 98.0191 133.243 98.0191 133.686C98.0191 134.443 98.0191 135.2 98.0191 135.957C98.0191 136.714 97.981 137.386 97.9334 138.062C98.1806 138.022 98.4305 138.001 98.681 138C98.9286 138 99.1572 138.024 99.4238 138.047C99.3857 137.686 99.3524 137.328 99.3238 136.952C99.281 136.371 99.281 135.786 99.281 135.19Z" fill="white"/>
<path d="M103.676 132.676C103.242 132.541 102.854 132.287 102.557 131.943C102.375 131.708 102.275 131.42 102.271 131.124C102.277 130.921 102.324 130.722 102.41 130.539C102.496 130.355 102.619 130.191 102.77 130.057C102.922 129.923 103.1 129.822 103.293 129.76C103.485 129.697 103.689 129.675 103.89 129.695C104.164 129.674 104.438 129.719 104.69 129.825C104.943 129.931 105.166 130.095 105.343 130.305C105.462 130.455 105.571 130.614 105.667 130.781H105.829C105.9 130.42 106.017 130.07 106.176 129.738C105.775 129.493 105.333 129.32 104.871 129.228C104.633 129.195 104.393 129.179 104.152 129.181C102.943 129.181 102.333 129.514 101.938 129.886C101.695 130.109 101.5 130.38 101.368 130.683C101.235 130.985 101.166 131.312 101.167 131.643C101.163 132.01 101.256 132.372 101.436 132.693C101.617 133.013 101.879 133.28 102.195 133.466C102.666 133.728 103.159 133.949 103.667 134.128C104.126 134.256 104.556 134.471 104.933 134.762C105.1 134.904 105.234 135.082 105.325 135.282C105.415 135.482 105.46 135.699 105.457 135.919C105.465 136.157 105.422 136.394 105.331 136.614C105.241 136.835 105.105 137.033 104.932 137.197C104.759 137.362 104.554 137.487 104.329 137.567C104.105 137.646 103.866 137.677 103.629 137.657C103.354 137.662 103.08 137.62 102.819 137.533C102.397 137.41 102.026 137.152 101.762 136.8C101.652 136.662 101.552 136.514 101.438 136.352H101.29C101.272 136.738 101.183 137.117 101.029 137.471C101.635 137.885 102.341 138.13 103.073 138.181C103.806 138.231 104.538 138.085 105.195 137.757C105.607 137.517 105.95 137.174 106.192 136.763C106.434 136.352 106.566 135.886 106.576 135.409C106.591 134.795 106.363 134.2 105.943 133.752C105.381 133.209 104.362 132.962 103.676 132.676Z" fill="white"/>
<path d="M114.31 129.381L114.157 129.281C113.972 129.433 113.772 129.557 113.586 129.695L112.952 130.081L111.138 130.976L110.186 131.347L110.786 131.905C110.995 131.757 111.21 131.619 111.419 131.486C111.943 131.147 112.486 130.838 113.048 130.533C113.048 131.128 113.048 131.728 113.086 132.309C113.086 133.333 113.057 134.352 113.057 135.371C113.113 136.25 113.081 137.132 112.962 138.005C113.048 138.005 113.357 137.943 113.643 137.943C113.869 137.948 114.093 137.974 114.314 138.019C114.291 137.395 114.276 136.762 114.267 136.143C114.267 135.19 114.238 134.238 114.238 133.286C114.238 132.505 114.238 131.733 114.238 130.962C114.248 130.428 114.286 129.905 114.31 129.381Z" fill="white"/>
<path d="M120.6 133.248C120.448 133.2 120.276 133.148 120.124 133.114C120.427 133.033 120.71 132.89 120.955 132.696C121.201 132.501 121.404 132.257 121.552 131.981C121.661 131.743 121.719 131.485 121.724 131.224C121.727 130.972 121.677 130.722 121.576 130.49C121.482 130.267 121.341 130.067 121.162 129.905C120.611 129.501 119.939 129.299 119.257 129.333C117.976 129.333 117.352 129.809 117.052 130.314C116.854 130.614 116.746 130.964 116.743 131.324C116.744 131.591 116.805 131.854 116.919 132.095C117.063 132.377 117.274 132.618 117.534 132.798C117.794 132.977 118.095 133.089 118.41 133.124C118.07 133.228 117.741 133.365 117.429 133.533C117.078 133.743 116.792 134.044 116.599 134.403C116.406 134.763 116.314 135.168 116.333 135.576C116.311 136.12 116.473 136.655 116.793 137.094C117.113 137.534 117.571 137.853 118.095 138C118.455 138.105 118.83 138.155 119.205 138.148C119.646 138.167 120.087 138.092 120.498 137.927C120.908 137.763 121.279 137.514 121.586 137.195C121.993 136.702 122.217 136.083 122.219 135.443C122.221 135.097 122.149 134.755 122.01 134.438C121.887 134.141 121.695 133.879 121.449 133.671C121.204 133.464 120.913 133.319 120.6 133.248ZM117.938 131.286C117.976 130.367 118.371 130.005 118.748 129.857C118.901 129.805 119.062 129.774 119.224 129.767C119.503 129.763 119.774 129.862 119.986 130.043C120.159 130.23 120.293 130.451 120.379 130.691C120.466 130.931 120.503 131.187 120.489 131.442C120.475 131.697 120.409 131.946 120.297 132.176C120.184 132.405 120.026 132.609 119.833 132.776C119.64 132.895 119.418 132.959 119.19 132.962C118.905 132.965 118.629 132.859 118.419 132.667C118.24 132.488 118.103 132.271 118.02 132.031C117.937 131.792 117.909 131.537 117.938 131.286ZM120.1 137.438C119.858 137.6 119.572 137.686 119.281 137.686C118.913 137.686 118.557 137.56 118.271 137.329C118.125 137.2 117.999 137.049 117.9 136.881C117.677 136.42 117.573 135.911 117.6 135.4C117.6 135.214 117.629 134.105 118.386 133.633C118.663 133.469 118.982 133.388 119.305 133.4C119.513 133.393 119.721 133.431 119.914 133.509C120.101 133.599 120.264 133.731 120.39 133.895C120.752 134.34 120.934 134.904 120.9 135.476C120.932 135.843 120.876 136.213 120.737 136.554C120.598 136.895 120.38 137.198 120.1 137.438Z" fill="white"/>
<path d="M129.138 134.805H127.933C127.933 134.081 127.933 133.376 127.933 132.638C127.933 131.571 127.957 130.514 127.981 129.443C127.812 129.466 127.642 129.478 127.471 129.481C127.324 129.481 127.171 129.481 127.024 129.457L123.019 135.314V135.662H126.829V136.614C126.829 137.091 126.795 137.567 126.767 138.071C126.965 138.042 127.166 138.024 127.367 138.019C127.571 138.023 127.774 138.04 127.976 138.071C127.976 137.695 127.938 137.31 127.924 136.929C127.91 136.548 127.924 136.095 127.924 135.671H128.595C128.784 135.666 128.972 135.705 129.143 135.786C129.112 135.617 129.095 135.447 129.09 135.276C129.093 135.118 129.109 134.96 129.138 134.805ZM126.89 134.829H124.005C124.529 134.043 125.048 133.248 125.586 132.448C126.005 131.838 126.443 131.243 126.89 130.643V134.829Z" fill="white"/>
<path d="M133.862 133.024C133.548 132.908 133.216 132.85 132.881 132.852C132.348 132.876 131.824 132.988 131.329 133.185V130.476L132.819 130.424C133.538 130.424 134.248 130.424 134.967 130.462C134.967 130.3 134.933 130.1 134.933 129.938C134.935 129.755 134.956 129.573 134.995 129.395C134.01 129.457 133.029 129.519 132.033 129.519C131.557 129.519 131.038 129.49 130.557 129.457L130.667 130.3C130.705 130.933 130.757 131.581 130.757 132.205C130.757 132.752 130.719 133.285 130.69 133.833L130.876 133.933C131.256 133.621 131.728 133.442 132.219 133.424C132.588 133.423 132.948 133.534 133.253 133.742C133.557 133.951 133.791 134.246 133.924 134.59C134.023 134.849 134.073 135.123 134.071 135.4C134.071 135.738 133.976 137.019 132.89 137.49C132.631 137.598 132.352 137.653 132.071 137.652C131.561 137.653 131.068 137.463 130.69 137.119C130.533 136.959 130.388 136.787 130.257 136.605L130.171 136.671C130.203 136.996 130.151 137.324 130.019 137.624C130.626 138.003 131.333 138.189 132.048 138.157C132.367 138.166 132.687 138.137 133 138.071C133.672 137.951 134.282 137.6 134.723 137.078C135.164 136.557 135.408 135.897 135.414 135.214C135.421 134.732 135.274 134.259 134.995 133.866C134.716 133.472 134.319 133.177 133.862 133.024Z" fill="white"/>
<path d="M22.319 122.381C22.2523 121.871 22.1666 121.362 22.1047 120.852C21.9952 120.033 21.8952 119.195 21.7809 118.376C21.719 117.843 21.6332 117.309 21.5713 116.771C21.5332 116.424 21.5094 116.066 21.4856 115.719H21.0094C20.6475 116.424 20.2999 117.147 19.9285 117.857C19.5571 118.566 19.1809 119.286 18.8094 120.005C18.5094 120.576 18.2237 121.162 17.9142 121.719C17.7523 122.019 17.5761 122.295 17.4047 122.581C17.019 121.919 16.6237 121.247 16.2475 120.576C15.8237 119.819 15.4142 119.062 14.9904 118.29C14.719 117.781 14.419 117.271 14.1475 116.747C13.9713 116.414 13.7999 116.052 13.6475 115.705C13.4898 115.729 13.3291 115.729 13.1713 115.705C12.8713 118.143 12.5856 120.59 12.1666 122.99C12.0666 123.524 11.9666 124.033 11.8523 124.566C12.0086 124.532 12.1684 124.516 12.3285 124.519C12.5219 124.522 12.714 124.551 12.8999 124.605C12.9332 123.933 12.9618 123.252 13.0237 122.581C13.0856 121.909 13.1475 121.152 13.2332 120.466C13.3094 119.671 13.3952 118.876 13.4809 118.086C13.9285 118.905 14.3904 119.738 14.8523 120.557C15.2332 121.252 15.6475 121.962 16.0047 122.671C16.3618 123.381 16.6285 123.962 16.9142 124.624H17.2856C17.3856 124.347 17.4856 124.076 17.5952 123.814C17.7047 123.552 17.8475 123.281 17.9809 123.009C18.8047 121.328 19.6761 119.647 20.5428 117.971C20.719 119.266 20.8904 120.557 21.019 121.852C21.1047 122.771 21.1666 123.681 21.2142 124.6C21.4445 124.552 21.679 124.526 21.9142 124.524C22.1907 124.53 22.4656 124.568 22.7332 124.638C22.6713 124.338 22.5952 124.038 22.5475 123.738C22.4285 123.262 22.3809 122.805 22.319 122.381Z" fill="white"/>
<path d="M30.3334 121.795C30.0477 121.138 29.7525 120.49 29.4525 119.819C29.1906 119.238 28.9429 118.629 28.6715 118.043C28.4715 117.619 28.2572 117.209 28.0715 116.8C27.8858 116.39 27.7858 116.114 27.662 115.767H27.0763C26.881 116.276 26.6668 116.776 26.4429 117.271C26.1429 117.957 25.8334 118.629 25.5382 119.314C25.1239 120.243 24.7287 121.176 24.3191 122.109C23.9334 122.929 23.5334 123.752 23.1382 124.557C23.3858 124.533 23.5477 124.524 23.6572 124.524C23.8415 124.525 24.025 124.546 24.2049 124.586C24.5127 123.449 24.8994 122.335 25.362 121.252C25.9715 121.229 26.5668 121.205 27.1763 121.205C27.6858 121.205 28.1953 121.205 28.7049 121.205C29.2251 122.281 29.6629 123.395 30.0144 124.538C30.2756 124.479 30.5419 124.446 30.8096 124.438C31.0845 124.445 31.3583 124.474 31.6287 124.524C31.4191 124.129 31.2049 123.729 31.0049 123.305C30.7715 122.857 30.5572 122.319 30.3334 121.795ZM25.6239 120.614C25.862 120.043 26.1001 119.486 26.3334 118.914C26.5668 118.343 26.8096 117.929 27.0287 117.448L28.4572 120.614H25.6239Z" fill="white"/>
<path d="M33.8905 121.724C33.8905 120.876 33.8619 120.033 33.8619 119.186C33.8619 118.709 33.8619 118.266 33.8619 117.795C33.8619 117.147 33.9238 116.486 33.9619 115.828C33.7233 115.858 33.4833 115.875 33.2429 115.881C32.9973 115.877 32.7522 115.857 32.5095 115.819C32.5095 116.09 32.5571 116.376 32.5714 116.662C32.619 117.371 32.6333 118.09 32.6333 118.824C32.6333 119.3 32.6333 119.776 32.6333 120.219C32.6333 120.976 32.6333 121.733 32.6333 122.495C32.6333 123.257 32.6 123.895 32.5476 124.595C32.7948 124.555 33.0448 124.534 33.2952 124.533C33.5429 124.533 33.7714 124.557 34.0381 124.581C34.0048 124.224 33.9667 123.862 33.9429 123.486C33.8905 122.905 33.8905 122.319 33.8905 121.724Z" fill="white"/>
<path d="M33.5904 113.195H32.9333L31.3047 115.172H31.7618L33.2047 114L34.6618 115.157H35.0428L33.5904 113.195Z" fill="white"/>
<path d="M40.7856 115.891C40.3094 115.891 39.8666 115.929 39.4047 115.929C38.8094 115.929 38.2142 115.929 37.6142 115.929C37.138 115.929 36.6951 115.929 36.238 115.9C35.7808 115.872 35.3666 115.838 34.9285 115.805C34.9687 115.96 34.9895 116.12 34.9904 116.281C34.9904 116.391 34.9904 116.567 34.957 116.676L36.1713 116.576C36.7189 116.553 37.257 116.553 37.8047 116.553C37.8047 117.772 37.8047 118.976 37.8047 120.195C37.8047 121.653 37.7523 123.105 37.7047 124.548C37.9193 124.518 38.1356 124.502 38.3523 124.5C38.6142 124.501 38.8755 124.525 39.1332 124.572C39.1332 124.095 39.0713 123.591 39.0618 123.095C39.0237 122.334 39.0332 121.562 39.0618 120.805C39.0904 120.048 39.0618 119.276 39.0618 118.519C39.0618 117.857 39.0904 117.214 39.0999 116.553C39.538 116.553 39.9713 116.553 40.3951 116.553C40.8746 116.534 41.3545 116.576 41.8237 116.676C41.7872 116.538 41.7664 116.396 41.7618 116.253C41.7687 116.089 41.8025 115.929 41.8618 115.776C41.5094 115.829 41.1475 115.867 40.7856 115.891Z" fill="white"/>
<path d="M45.9191 120.228C46.6084 120.161 47.2618 119.889 47.7953 119.448C48.2198 119.04 48.4691 118.483 48.4905 117.895C48.4836 117.475 48.3491 117.066 48.1048 116.724C47.9067 116.467 47.6529 116.259 47.3625 116.114C47.0722 115.97 46.7529 115.893 46.4286 115.89C46.281 115.89 46.1191 115.867 45.9525 115.867H43.5715L42.7905 115.805C42.8144 116.176 42.8382 116.562 42.8667 116.948C42.9001 117.643 42.9001 118.343 42.9001 119.038V120.119C42.9001 120.89 42.9001 121.648 42.8667 122.405C42.8334 123.162 42.7905 123.833 42.7144 124.581C42.9525 124.557 43.1905 124.533 43.4239 124.533C43.6775 124.534 43.9306 124.555 44.181 124.595C44.181 124.286 44.1334 123.971 44.1191 123.643C44.1048 123.314 44.1191 122.919 44.1191 122.548C44.1191 121.814 44.1191 121.067 44.1191 120.333L44.4048 120.281C45.0286 121.052 45.6477 121.824 46.2477 122.609C46.7239 123.252 47.2001 123.914 47.6763 124.586C47.9555 124.546 48.2371 124.525 48.5191 124.524C48.8191 124.524 49.1048 124.562 49.4001 124.586V124.448C48.8144 123.79 48.2334 123.119 47.6858 122.433C47.1382 121.748 46.4905 120.976 45.9191 120.228ZM44.0905 119.919C44.0905 119.386 44.0905 118.852 44.0905 118.328C44.0905 117.681 44.1144 117.048 44.1382 116.424C44.4477 116.4 44.7477 116.376 45.0572 116.376C45.3631 116.371 45.6685 116.403 45.9667 116.471C46.3218 116.548 46.6374 116.75 46.856 117.04C47.0745 117.331 47.1814 117.69 47.1572 118.052C47.1675 118.43 47.0545 118.8 46.8354 119.108C46.6164 119.416 46.3031 119.643 45.9429 119.757C45.3376 119.907 44.7127 119.961 44.0905 119.919Z" fill="white"/>
<path d="M55.3238 123.862C54.9524 123.862 54.5905 123.895 54.219 123.909C53.419 123.933 52.6381 123.933 51.8381 123.933V120.266C52.0857 120.243 52.3476 120.228 52.6095 120.228C52.8714 120.228 53.0857 120.228 53.319 120.228C53.6524 120.228 53.9762 120.228 54.3 120.266C54.5043 120.279 54.7078 120.303 54.9095 120.338C54.8673 120.071 54.8754 119.798 54.9333 119.533C54.6476 119.533 54.3476 119.605 54.0619 119.619C53.8667 119.619 53.6762 119.619 53.4809 119.619C52.9428 119.619 52.3952 119.619 51.8619 119.619V116.486H53.2905C53.9238 116.486 54.5619 116.547 55.1952 116.609C55.1393 116.339 55.1607 116.058 55.2571 115.8C54.3047 115.852 53.3524 115.914 52.4 115.914C51.7905 115.914 51.1667 115.876 50.5571 115.838C50.6345 116.352 50.6632 116.871 50.6428 117.39C50.6428 117.866 50.6714 118.376 50.6714 118.862C50.6714 119.781 50.6714 120.686 50.6428 121.595C50.6428 121.957 50.6428 122.314 50.6428 122.676C50.6428 122.962 50.6428 123.262 50.6428 123.547C50.6428 123.833 50.5905 124.219 50.5667 124.552C51.2 124.528 51.8238 124.514 52.4714 124.514C53.4524 124.514 54.4238 124.552 55.3952 124.605C55.3652 124.47 55.3476 124.333 55.3428 124.195C55.3257 124.085 55.3193 123.973 55.3238 123.862Z" fill="white"/>
<path d="M67.0429 123.776C67.0434 123.476 67.09 123.177 67.181 122.891L67.0048 122.791C66.483 123.338 65.8259 123.737 65.1 123.948C64.7795 124.03 64.4499 124.072 64.119 124.072C63.5599 124.101 63.0028 123.984 62.5021 123.734C62.0013 123.484 61.574 123.108 61.2619 122.643C60.786 121.843 60.5451 120.926 60.5667 119.995C60.532 119.43 60.6181 118.864 60.8192 118.334C61.0204 117.804 61.332 117.324 61.7333 116.924C62.3183 116.385 63.0907 116.096 63.8857 116.119C64.6947 116.076 65.4911 116.332 66.1238 116.838C66.3434 117.02 66.543 117.224 66.719 117.448H66.8667C66.8927 117.031 66.981 116.62 67.1286 116.229C66.1436 115.803 65.0824 115.583 64.0095 115.581C62.2429 115.581 60.4286 116.229 59.5952 117.91C59.2729 118.598 59.1102 119.35 59.119 120.11C59.0748 121.174 59.3938 122.222 60.0238 123.081C60.5857 123.791 61.7429 124.695 63.8333 124.695C64.686 124.711 65.5325 124.549 66.319 124.219C66.619 124.048 66.9809 123.81 67.0429 123.776Z" fill="white"/>
<path d="M74.6429 124.571C74.8769 124.527 75.1142 124.501 75.3524 124.495C75.6081 124.498 75.8631 124.523 76.1143 124.571C76.0857 124.195 76.0476 123.824 76.0381 123.452C75.9857 122.719 75.9762 121.986 75.9762 121.238C75.9762 120.405 75.9762 119.586 76.0143 118.752C76.0143 118.152 76.0143 117.543 76.0381 116.948C76.0501 116.56 76.0835 116.174 76.1381 115.791C75.886 115.83 75.6313 115.851 75.3762 115.852C75.1286 115.852 74.9 115.852 74.6714 115.819C74.6953 116.229 74.7191 116.638 74.7334 117.048C74.7714 117.867 74.7572 118.691 74.7572 119.51C73.9476 119.533 73.1381 119.548 72.3333 119.548C71.5286 119.548 70.6429 119.524 69.7953 119.495C69.7953 118.924 69.7953 118.367 69.7953 117.795C69.7953 117.148 69.8619 116.5 69.9238 115.852C69.6857 115.852 69.4476 115.891 69.2381 115.891C68.9766 115.883 68.7158 115.859 68.4572 115.819C68.4905 116.214 68.5429 116.624 68.5524 117.024C68.5619 117.424 68.581 117.833 68.581 118.229V120.552C68.581 121.338 68.581 122.119 68.5524 122.891C68.5286 123.452 68.4905 124.01 68.4429 124.571C68.6765 124.524 68.914 124.498 69.1524 124.495C69.3984 124.502 69.6436 124.527 69.8857 124.571C69.8476 123.971 69.8095 123.376 69.7953 122.781C69.7953 121.933 69.7953 121.091 69.7953 120.243C70.6667 120.243 71.5476 120.205 72.4191 120.243C73.2048 120.243 73.9714 120.281 74.7429 120.305V123.314C74.7538 123.736 74.7203 124.157 74.6429 124.571Z" fill="white"/>
<path d="M86.2572 116.876C84.9762 115.719 83.2238 115.681 82.6905 115.681C82.0132 115.648 81.3365 115.758 80.7047 116.004C80.0729 116.25 79.5001 116.627 79.0238 117.11C78.2755 117.915 77.8736 118.982 77.9048 120.081C77.8462 121.205 78.1945 122.312 78.8857 123.2C79.0915 123.458 79.3337 123.684 79.6048 123.872C80.5156 124.501 81.6082 124.814 82.7143 124.762C83.9921 124.816 85.239 124.36 86.181 123.495C86.6398 123.064 87 122.539 87.2367 121.955C87.4734 121.371 87.5811 120.744 87.5524 120.114C87.5524 118.305 86.8286 117.395 86.2572 116.876ZM85.2381 123.114C84.9342 123.475 84.5549 123.764 84.127 123.961C83.6992 124.159 83.2332 124.26 82.7619 124.257C82.2446 124.263 81.7333 124.146 81.2704 123.915C80.8075 123.684 80.4063 123.346 80.1 122.929C79.5791 122.161 79.3187 121.246 79.3572 120.319C79.3191 118.938 79.6048 117.705 80.7476 116.838C81.2911 116.413 81.9625 116.185 82.6524 116.191C82.9219 116.197 83.1907 116.221 83.4572 116.262C83.9005 116.331 84.3241 116.493 84.7 116.738C84.9562 116.929 85.1838 117.155 85.3762 117.41C85.9046 118.175 86.1733 119.09 86.1429 120.019C86.1191 121.686 85.6857 122.557 85.2381 123.114Z" fill="white"/>
<path d="M94.9809 123.948C94.6587 124.03 94.3276 124.072 93.9951 124.072C93.44 124.097 92.8877 123.978 92.3915 123.728C91.8953 123.478 91.4718 123.104 91.1618 122.643C90.6901 121.844 90.4525 120.928 90.4761 120C90.4414 119.435 90.5275 118.868 90.7286 118.339C90.9298 117.809 91.2414 117.329 91.6428 116.929C92.2275 116.39 93.0001 116.101 93.7951 116.124C94.6041 116.081 95.4005 116.337 96.0332 116.843C96.2528 117.024 96.4524 117.229 96.6285 117.453H96.7809C96.8029 117.035 96.8897 116.624 97.038 116.234C96.0531 115.808 94.9918 115.588 93.9189 115.586C92.1523 115.586 90.338 116.234 89.5047 117.915C89.1824 118.603 89.0196 119.355 89.0285 120.115C88.9842 121.179 89.3033 122.227 89.9332 123.086C90.4951 123.795 91.6523 124.7 93.7428 124.7C94.5954 124.716 95.4419 124.553 96.2285 124.224C96.5142 124.086 96.8761 123.848 96.938 123.815C96.9385 123.514 96.9851 123.215 97.0761 122.929L96.8999 122.829C96.3697 123.364 95.7078 123.75 94.9809 123.948Z" fill="white"/>
<path d="M106.348 116.876C105.067 115.719 103.314 115.681 102.781 115.681C102.104 115.648 101.427 115.758 100.795 116.004C100.163 116.25 99.5905 116.627 99.1142 117.11C98.3659 117.915 97.964 118.982 97.9952 120.081C97.9388 121.205 98.2868 122.311 98.9761 123.2C99.1819 123.458 99.4241 123.684 99.6952 123.872C100.606 124.502 101.698 124.817 102.805 124.767C104.084 124.821 105.332 124.365 106.276 123.5C106.733 123.068 107.092 122.542 107.328 121.959C107.564 121.375 107.671 120.748 107.643 120.119C107.643 118.305 106.919 117.395 106.348 116.876ZM105.305 123.114C104.983 123.488 104.581 123.784 104.129 123.982C103.677 124.179 103.186 124.272 102.693 124.254C102.201 124.237 101.718 124.108 101.281 123.879C100.845 123.649 100.466 123.325 100.171 122.929C99.646 122.163 99.3836 121.247 99.4238 120.319C99.3857 118.938 99.6714 117.705 100.814 116.838C101.358 116.414 102.029 116.186 102.719 116.191C102.99 116.197 103.26 116.221 103.529 116.262C103.971 116.333 104.395 116.495 104.771 116.738C105.025 116.93 105.251 117.156 105.443 117.41C105.971 118.175 106.24 119.09 106.209 120.019C106.19 121.686 105.776 122.557 105.305 123.114Z" fill="white"/>
<path d="M110.805 123.886C110.781 122.852 110.767 121.833 110.767 120.791V118.948C110.767 118.438 110.767 117.929 110.767 117.419C110.769 116.875 110.803 116.331 110.867 115.791C110.624 115.832 110.379 115.858 110.133 115.867C109.857 115.867 109.462 115.819 109.433 115.819C109.471 117.248 109.524 118.714 109.524 120.167C109.524 120.791 109.524 121.41 109.495 122.033C109.495 122.533 109.495 123.029 109.495 123.524C109.495 123.886 109.443 124.248 109.405 124.61C110.205 124.557 110.986 124.51 111.786 124.51C112.586 124.51 113.491 124.543 114.348 124.581C114.316 124.301 114.316 124.018 114.348 123.738C113.172 123.881 111.988 123.93 110.805 123.886Z" fill="white"/>
<path d="M122.519 123.362C122.286 122.852 122.076 122.319 121.852 121.795C121.567 121.138 121.267 120.49 120.967 119.819C120.705 119.238 120.457 118.629 120.186 118.043C119.986 117.619 119.776 117.209 119.59 116.8C119.405 116.39 119.3 116.114 119.176 115.767H118.595C118.395 116.276 118.181 116.776 117.957 117.271C117.662 117.957 117.352 118.629 117.052 119.314C116.643 120.243 116.243 121.176 115.833 122.109C115.448 122.929 115.052 123.752 114.652 124.557C114.9 124.533 115.062 124.524 115.176 124.524C115.36 124.525 115.544 124.546 115.724 124.586C116.027 123.448 116.412 122.334 116.876 121.252C117.486 121.229 118.086 121.205 118.69 121.205C119.205 121.205 119.714 121.205 120.224 121.205C120.743 122.281 121.179 123.395 121.529 124.538C121.79 124.479 122.056 124.446 122.324 124.438C122.599 124.445 122.873 124.473 123.143 124.524C122.933 124.186 122.724 123.809 122.519 123.362ZM117.143 120.614C117.381 120.043 117.619 119.486 117.852 118.914C118.086 118.343 118.329 117.929 118.548 117.448L119.976 120.614H117.143Z" fill="white"/>
<path d="M127.705 115.891C127.229 115.891 126.786 115.929 126.324 115.929C125.729 115.929 125.129 115.929 124.533 115.929C124.057 115.929 123.614 115.929 123.152 115.9C122.691 115.872 122.286 115.838 121.848 115.805C121.888 115.96 121.909 116.12 121.91 116.281C121.91 116.391 121.91 116.567 121.876 116.676L123.091 116.576C123.638 116.553 124.171 116.553 124.719 116.553C124.719 117.772 124.748 118.976 124.748 120.195C124.748 121.653 124.695 123.105 124.648 124.548C124.861 124.518 125.075 124.502 125.291 124.5C125.554 124.501 125.817 124.525 126.076 124.572C126.048 124.095 126.014 123.591 126 123.095C125.962 122.334 125.976 121.562 126 120.805C126.024 120.048 126 119.276 126 118.519C126 117.857 126.024 117.214 126.038 116.553C126.471 116.553 126.905 116.553 127.329 116.553C127.808 116.535 128.288 116.576 128.757 116.676C128.721 116.538 128.7 116.396 128.695 116.253C128.702 116.089 128.736 115.929 128.795 115.776C128.424 115.829 128.067 115.867 127.705 115.891Z" fill="white"/>
<path d="M129.776 122.495C129.776 123.2 129.738 123.895 129.691 124.595C129.938 124.555 130.188 124.534 130.438 124.533C130.686 124.533 130.914 124.557 131.181 124.581C131.148 124.224 131.11 123.862 131.081 123.486C131.048 122.905 131.048 122.319 131.048 121.724C131.048 120.876 131.019 120.033 131.019 119.186C131.019 118.709 131.019 118.266 131.019 117.795C131.043 117.147 131.081 116.49 131.119 115.828C130.879 115.858 130.637 115.876 130.395 115.881C130.151 115.877 129.908 115.857 129.667 115.819C129.691 116.09 129.714 116.376 129.724 116.662C129.776 117.371 129.786 118.09 129.786 118.824C129.786 119.3 129.786 119.776 129.786 120.219C129.791 120.976 129.791 121.733 129.776 122.495Z" fill="white"/>
<path d="M138.352 123.862C137.981 123.862 137.619 123.895 137.248 123.909C136.452 123.933 135.671 123.933 134.867 123.933V120.266C135.114 120.243 135.376 120.228 135.638 120.228C135.9 120.228 136.114 120.228 136.348 120.228C136.681 120.228 137.005 120.228 137.329 120.266C137.533 120.279 137.736 120.303 137.938 120.338C137.896 120.071 137.904 119.798 137.962 119.533C137.676 119.533 137.381 119.605 137.09 119.619C136.895 119.619 136.71 119.619 136.51 119.619C135.976 119.619 135.429 119.619 134.89 119.619V116.486H136.319C136.957 116.486 137.59 116.547 138.224 116.609C138.168 116.339 138.189 116.058 138.286 115.8C137.333 115.852 136.381 115.914 135.429 115.914C134.819 115.914 134.195 115.876 133.586 115.838C133.664 116.351 133.694 116.871 133.676 117.39C133.676 117.866 133.7 118.376 133.7 118.862C133.7 119.781 133.7 120.686 133.676 121.595C133.676 121.957 133.676 122.314 133.676 122.676C133.676 122.962 133.676 123.262 133.676 123.547C133.676 123.833 133.629 124.219 133.6 124.552C134.238 124.528 134.857 124.514 135.505 124.514C136.49 124.514 137.457 124.552 138.429 124.605C138.398 124.47 138.381 124.333 138.376 124.195C138.36 124.085 138.352 123.973 138.352 123.862Z" fill="white"/>
<path d="M143.086 120.228C143.775 120.16 144.428 119.888 144.962 119.448C145.382 119.037 145.631 118.482 145.657 117.895C145.65 117.475 145.516 117.066 145.271 116.724C145.073 116.468 144.819 116.26 144.529 116.115C144.238 115.971 143.919 115.894 143.595 115.89C143.443 115.89 143.281 115.867 143.119 115.867H140.738L139.952 115.805C139.981 116.176 140.005 116.562 140.028 116.948C140.067 117.643 140.067 118.343 140.067 119.038V120.119C140.067 120.89 140.067 121.648 140.028 122.405C139.99 123.162 139.952 123.833 139.881 124.581C140.116 124.553 140.353 124.537 140.59 124.533C140.844 124.534 141.097 124.555 141.348 124.595C141.324 124.286 141.295 123.971 141.286 123.643C141.276 123.314 141.286 122.919 141.286 122.548C141.286 121.814 141.286 121.067 141.286 120.333L141.571 120.281C142.19 121.052 142.814 121.824 143.409 122.609C143.886 123.252 144.362 123.914 144.814 124.586C145.095 124.546 145.378 124.525 145.662 124.524C145.957 124.524 146.248 124.562 146.543 124.586V124.448C145.957 123.79 145.371 123.119 144.824 122.433C144.276 121.748 143.657 120.976 143.086 120.228ZM141.257 119.919C141.257 119.386 141.257 118.852 141.257 118.328C141.257 117.681 141.281 117.048 141.305 116.424C141.619 116.4 141.919 116.376 142.228 116.376C142.533 116.371 142.837 116.403 143.133 116.471C143.489 116.547 143.806 116.749 144.025 117.039C144.245 117.329 144.352 117.689 144.328 118.052C144.338 118.43 144.225 118.801 144.005 119.109C143.785 119.417 143.47 119.644 143.109 119.757C142.504 119.907 141.879 119.962 141.257 119.919Z" fill="white"/>
<path d="M152.567 119.21C152.124 119.081 151.729 118.826 151.429 118.476C151.243 118.244 151.14 117.955 151.138 117.657C151.144 117.455 151.191 117.256 151.277 117.072C151.363 116.889 151.485 116.725 151.637 116.591C151.789 116.457 151.967 116.356 152.159 116.293C152.352 116.231 152.556 116.209 152.757 116.229C153.03 116.208 153.304 116.253 153.557 116.359C153.809 116.464 154.033 116.629 154.21 116.838C154.33 116.988 154.438 117.148 154.533 117.314H154.695C154.769 116.954 154.886 116.604 155.043 116.272C154.641 116.026 154.2 115.854 153.738 115.762C153.5 115.729 153.26 115.713 153.019 115.714C151.81 115.714 151.205 116.048 150.805 116.419C150.561 116.643 150.367 116.914 150.234 117.217C150.101 117.519 150.033 117.846 150.033 118.176C150.03 118.545 150.124 118.908 150.305 119.229C150.486 119.55 150.749 119.818 151.067 120.005C151.537 120.263 152.027 120.483 152.533 120.662C152.993 120.789 153.423 121.004 153.8 121.295C153.968 121.437 154.102 121.615 154.192 121.815C154.283 122.015 154.328 122.233 154.324 122.453C154.331 122.691 154.288 122.928 154.198 123.148C154.108 123.368 153.972 123.567 153.799 123.731C153.626 123.895 153.421 124.021 153.196 124.1C152.972 124.179 152.733 124.21 152.495 124.191C152.22 124.196 151.947 124.154 151.686 124.067C151.264 123.942 150.893 123.685 150.629 123.334C150.519 123.195 150.419 123.048 150.305 122.886H150.157C150.141 123.272 150.052 123.652 149.895 124.005C150.57 124.515 151.403 124.771 152.248 124.729C152.881 124.748 153.507 124.596 154.062 124.291C154.475 124.051 154.819 123.709 155.061 123.298C155.303 122.887 155.434 122.42 155.443 121.943C155.458 121.329 155.23 120.734 154.81 120.286C154.286 119.748 153.248 119.495 152.567 119.21Z" fill="white"/>
<path d="M163.629 115.819L163.705 116.491C163.743 117.443 163.791 118.395 163.791 119.348C163.791 119.995 163.791 120.629 163.752 121.252C163.742 121.649 163.675 122.042 163.552 122.419C163.372 122.933 163.03 123.374 162.578 123.677C162.125 123.98 161.587 124.129 161.043 124.1C160.528 124.142 160.014 124.011 159.583 123.727C159.151 123.443 158.827 123.023 158.662 122.533C158.523 122.056 158.445 121.563 158.429 121.067C158.429 120.114 158.391 119.124 158.429 118.167C158.429 117.4 158.491 116.614 158.552 115.843C158.319 115.843 158.076 115.843 157.857 115.843C157.638 115.843 157.348 115.843 157.1 115.81C157.124 116.357 157.157 116.9 157.172 117.462C157.186 118.024 157.172 118.467 157.172 118.976C157.172 119.8 157.172 120.619 157.172 121.438C157.162 121.97 157.256 122.499 157.448 122.995C157.557 123.253 157.709 123.491 157.895 123.7C158.848 124.748 160.467 124.757 160.791 124.757C162.219 124.757 162.967 124.348 163.462 123.914C164.013 123.406 164.365 122.72 164.457 121.976C164.495 121.738 164.51 121.5 164.533 121.267C164.533 120.881 164.533 120.481 164.557 120.095C164.557 119.3 164.557 118.495 164.61 117.714C164.61 117.081 164.695 116.462 164.757 115.838C164.572 115.838 164.386 115.838 164.2 115.838C164.009 115.844 163.819 115.838 163.629 115.819Z" fill="white"/>
<path d="M167.995 121.724C167.995 120.876 167.971 120.033 167.971 119.186C167.971 118.709 167.971 118.266 167.971 117.795C167.995 117.147 168.033 116.49 168.071 115.828C167.831 115.858 167.59 115.876 167.348 115.881C167.102 115.877 166.857 115.857 166.614 115.819C166.643 116.09 166.667 116.376 166.676 116.662C166.729 117.371 166.738 118.09 166.738 118.824C166.738 119.3 166.738 119.776 166.738 120.219C166.738 120.976 166.738 121.733 166.738 122.495C166.738 123.257 166.7 123.895 166.652 124.595C166.898 124.555 167.146 124.534 167.395 124.533C167.648 124.533 167.895 124.557 168.143 124.581C168.105 124.224 168.067 123.862 168.043 123.486C167.995 122.905 167.995 122.319 167.995 121.724Z" fill="white"/>
<path d="M172.333 119.21C171.899 119.075 171.511 118.821 171.214 118.476C171.033 118.242 170.932 117.954 170.929 117.657C170.934 117.455 170.98 117.256 171.065 117.073C171.151 116.889 171.273 116.725 171.424 116.591C171.576 116.457 171.754 116.356 171.946 116.293C172.138 116.231 172.342 116.209 172.543 116.229C172.817 116.209 173.091 116.254 173.344 116.36C173.597 116.465 173.822 116.629 174 116.838C174.119 116.99 174.227 117.149 174.324 117.314H174.486C174.558 116.954 174.674 116.603 174.833 116.272C174.431 116.027 173.99 115.855 173.529 115.762C173.289 115.729 173.047 115.713 172.805 115.714C171.6 115.714 170.991 116.048 170.595 116.419C170.352 116.643 170.158 116.914 170.025 117.217C169.892 117.519 169.824 117.846 169.824 118.176C169.82 118.545 169.914 118.907 170.094 119.228C170.275 119.549 170.536 119.817 170.852 120.005C171.324 120.263 171.817 120.483 172.324 120.662C172.783 120.789 173.213 121.004 173.591 121.295C173.757 121.438 173.89 121.616 173.98 121.816C174.069 122.016 174.114 122.233 174.11 122.453C174.118 122.69 174.076 122.927 173.986 123.148C173.896 123.368 173.76 123.567 173.588 123.731C173.416 123.895 173.21 124.021 172.986 124.1C172.762 124.18 172.523 124.21 172.286 124.191C172.011 124.196 171.737 124.154 171.476 124.067C171.054 123.943 170.683 123.686 170.419 123.334C170.305 123.195 170.21 123.048 170.095 122.886H169.948C169.927 123.271 169.838 123.65 169.686 124.005C170.291 124.422 170.997 124.669 171.73 124.719C172.463 124.769 173.196 124.621 173.852 124.291C174.265 124.051 174.609 123.71 174.851 123.298C175.093 122.887 175.225 122.42 175.233 121.943C175.241 121.638 175.189 121.335 175.079 121.051C174.97 120.767 174.805 120.507 174.595 120.286C174.038 119.748 173.019 119.495 172.333 119.21Z" fill="white"/>
<path d="M178.748 119.21C178.31 119.076 177.919 118.822 177.619 118.476C177.437 118.242 177.337 117.954 177.333 117.657C177.338 117.455 177.385 117.256 177.47 117.073C177.556 116.889 177.678 116.725 177.829 116.591C177.981 116.457 178.158 116.356 178.351 116.293C178.543 116.231 178.746 116.209 178.948 116.229C179.221 116.209 179.496 116.254 179.749 116.36C180.002 116.465 180.227 116.629 180.405 116.838C180.523 116.99 180.632 117.149 180.729 117.314H180.891C180.962 116.954 181.079 116.603 181.238 116.272C180.836 116.027 180.395 115.855 179.933 115.762C179.694 115.729 179.452 115.713 179.21 115.714C178.005 115.714 177.395 116.048 177 116.419C176.757 116.643 176.562 116.914 176.43 117.217C176.297 117.519 176.228 117.846 176.229 118.176C176.225 118.545 176.318 118.907 176.499 119.228C176.679 119.549 176.941 119.817 177.257 120.005C177.728 120.263 178.218 120.482 178.724 120.662C179.185 120.789 179.616 121.004 179.995 121.295C180.162 121.438 180.296 121.616 180.386 121.816C180.477 122.016 180.522 122.233 180.519 122.453C180.527 122.691 180.484 122.928 180.393 123.148C180.303 123.368 180.167 123.567 179.994 123.731C179.822 123.895 179.616 124.021 179.391 124.1C179.167 124.179 178.928 124.21 178.691 124.191C178.416 124.196 178.142 124.154 177.881 124.067C177.459 123.943 177.088 123.686 176.824 123.334C176.71 123.195 176.614 123.048 176.5 122.886H176.352C176.332 123.271 176.243 123.65 176.091 124.005C176.696 124.422 177.402 124.669 178.135 124.719C178.868 124.769 179.601 124.621 180.257 124.291C180.67 124.051 181.013 123.71 181.255 123.298C181.496 122.887 181.626 122.42 181.633 121.943C181.642 121.639 181.591 121.336 181.482 121.051C181.373 120.767 181.209 120.507 181 120.286C180.476 119.748 179.433 119.495 178.748 119.21Z" fill="white"/>
<path d="M188.133 123.862C187.762 123.862 187.4 123.895 187.028 123.909C186.233 123.933 185.448 123.933 184.648 123.933V120.266C184.895 120.243 185.157 120.228 185.419 120.228C185.681 120.228 185.895 120.228 186.128 120.228C186.462 120.228 186.786 120.228 187.109 120.266C187.314 120.279 187.517 120.303 187.719 120.338C187.669 120.072 187.669 119.799 187.719 119.533C187.433 119.533 187.138 119.605 186.848 119.619C186.652 119.619 186.467 119.619 186.267 119.619C185.728 119.619 185.186 119.619 184.648 119.619V116.486H186.076C186.709 116.486 187.343 116.547 187.981 116.609C187.925 116.339 187.946 116.058 188.043 115.8C187.09 115.852 186.138 115.914 185.186 115.914C184.576 115.914 183.952 115.876 183.343 115.838C183.42 116.352 183.449 116.871 183.428 117.39C183.428 117.866 183.457 118.376 183.457 118.862C183.457 119.781 183.457 120.686 183.428 121.595C183.428 121.957 183.428 122.314 183.428 122.676C183.428 122.962 183.428 123.262 183.428 123.547C183.428 123.833 183.376 124.219 183.352 124.552C183.986 124.528 184.609 124.514 185.257 124.514C186.238 124.514 187.209 124.552 188.181 124.605C188.151 124.47 188.133 124.333 188.128 124.195C188.119 124.084 188.121 123.972 188.133 123.862Z" fill="white"/>
<path d="M200 105.872H0V108.072H200V105.872Z" fill="white"/>
<path d="M141.248 80.5382C141.556 80.4049 141.895 80.3556 142.228 80.3954C143.193 80.5935 144.138 80.8771 145.052 81.243C145.086 81.243 145.148 81.3049 145.133 81.3478C145.081 81.5478 143.852 81.2525 143.8 81.5763C143.807 81.6634 143.846 81.7447 143.909 81.8049C144.576 82.424 146.528 81.9573 147.428 81.9668C147.712 82.0116 147.969 82.1611 148.148 82.3859C148.7 81.662 149.443 82.3287 149.971 82.2668L150.067 82.1716C150.105 82.0049 149.9 81.9192 149.957 81.7382C150.167 81.0811 151.386 81.4716 151.79 81.5668C151.957 81.6049 152.152 81.4621 152.305 81.4144C152.838 81.2573 154.09 81.4478 153.733 82.0859C153.419 82.6478 152.595 82.4144 152.195 82.6954C152.195 82.7573 152.195 82.8573 152.143 82.9049C152.09 82.9525 150.714 83.2001 150.519 83.3811C150.448 83.4478 150.543 83.524 150.495 83.5763C150.233 83.862 149.148 84.2525 149.067 84.8144C149.067 84.8906 149.167 84.8859 149.167 84.9573C148.964 85.4069 148.856 85.8929 148.848 86.3859C148.848 86.4525 149.181 86.5382 149.271 86.5859C149.233 86.7001 149.314 86.7001 149.271 86.8144L148.552 86.8716C147.977 86.9158 147.405 87.0034 146.843 87.1335C146.614 87.1859 146.367 87.2906 146.143 87.324H146.024C145.55 87.2265 145.085 87.0912 144.633 86.9192C144.362 86.8287 144.428 86.5335 144.324 86.324C144.406 86.1769 144.46 86.0152 144.481 85.8478C144.557 85.8109 144.624 85.7578 144.678 85.6921C144.732 85.6265 144.77 85.5499 144.791 85.4678C144.812 85.3857 144.815 85.3 144.799 85.2167C144.783 85.1335 144.749 85.0547 144.7 84.9859C144.676 84.9525 144.648 84.9097 144.595 84.9287C144.595 85.1192 144.595 85.2954 144.348 85.3192C143.948 84.7954 143.519 85.3525 143.424 85.7716C143.343 85.6219 143.284 85.4616 143.248 85.2954C143.248 85.043 143.338 84.7478 143.081 84.5621C143.024 84.5196 142.958 84.4921 142.888 84.4821C142.818 84.4721 142.747 84.4799 142.681 84.5049C142.843 84.6335 142.981 84.8049 142.838 85.0144C142.095 85.1668 142.062 85.724 142.548 86.1954C142.651 86.3612 142.714 86.5486 142.733 86.743C142.6 86.6977 142.456 86.6977 142.324 86.743C141.805 86.5573 141.414 87.0573 141.624 87.1001C141.833 87.143 141.9 86.9859 142.043 87.1382C141.938 87.9097 142.643 88.0906 143.19 87.6811C143.302 87.6807 143.413 87.7103 143.509 87.7668C143.79 88.3906 142.9 88.4906 143.362 89.1335C143.824 89.7763 144.433 88.9287 144.424 89.7859C145.071 89.3478 144.038 89.143 144.376 88.143C144.771 87.924 145.195 88.5859 145.281 88.8906C146.543 88.8478 145.933 89.2525 145.938 89.6906C146.148 89.6478 147.067 89.6573 147.157 89.8763C147.248 90.0954 147.238 90.3954 147.352 90.6478L147.433 90.6763C147.59 90.5573 148.152 89.9906 148.319 90.3573C148.395 90.5192 149.271 90.7525 149.2 90.9001C148.614 92.0811 149.014 93.7811 148.99 95.0859C148.924 95.5589 148.734 96.0059 148.438 96.3811C147.552 96.9049 147.419 95.5763 147.209 95.3144C147.109 95.1954 146.643 95.0525 146.648 95.2287C146.8 95.2906 147 95.4906 146.914 95.6763C146.438 95.7811 146.538 96.362 146.733 96.6573C146.585 96.6286 146.436 96.6095 146.286 96.6001C145.928 96.3573 145.533 96.4192 145.4 96.8716C145.478 96.8194 145.57 96.7915 145.664 96.7915C145.758 96.7915 145.85 96.8194 145.928 96.8716C145.838 98.3811 146.943 97.2382 147.357 97.6192C147.214 97.7335 147.205 97.862 147.114 97.9954C146.895 98.3001 146.638 98.5287 147.057 98.8716C147.057 98.6621 147.057 98.4573 147.314 98.3954C147.695 98.9287 148.267 98.3954 148.333 97.9192C149.676 97.2001 148.752 98.2097 149.586 98.4859C150.419 98.7621 150.467 97.5335 150.962 98.2478C151.019 98.2001 151.019 98.1144 151.028 98.043C151.052 97.6954 150.605 97.6621 150.362 97.6478C150.225 97.5507 150.074 97.4753 149.914 97.424C149.495 97.1859 150.019 95.8763 150.457 95.8906C150.457 95.6811 150.495 95.0954 150.857 95.2525C150.957 95.2954 151.033 95.5001 151.148 95.3906C151.281 94.8763 151.376 94.2287 151.986 94.743H152.119C152.309 92.2573 152.8 92.6049 153.19 94.7049C153.381 94.7382 153.562 94.7049 153.6 94.9525C153.618 95.3723 153.688 95.7883 153.809 96.1906C153.909 96.1906 154 96.1621 154.1 96.1621C154.328 96.6166 154.607 97.0432 154.933 97.4335C155.033 97.4954 155.186 97.3668 155.29 97.3668C155.571 97.6001 156.352 98.2525 156.719 98.2716C156.806 98.179 156.905 98.0989 157.014 98.0335C157.554 98.2895 158.134 98.4506 158.728 98.5097C158.824 98.4478 158.867 98.3382 158.943 98.2621C159.493 98.2763 160.042 98.2268 160.581 98.1144C160.771 98.0525 160.681 97.8049 160.867 97.7287C161.248 97.6351 161.601 97.4505 161.895 97.1906C161.924 97.1573 161.995 96.5335 162.462 96.3621C162.848 96.4716 163.414 96.7621 163.162 97.2573C163.109 96.7811 162.528 96.7287 162.438 97.0621C162.367 97.3144 162.648 97.443 162.681 97.6716C162.748 98.0716 162.286 98.2478 162.028 98.4573C162.046 98.4872 162.07 98.5126 162.099 98.5316C162.128 98.5506 162.161 98.5627 162.195 98.5668C164.219 99.043 164.576 96.9192 165.052 96.9287C165.1 96.9287 165.176 96.9668 165.195 96.8906C165.238 96.7335 164.843 96.4811 164.719 96.4668C164.343 96.424 164.219 96.7668 164.143 96.8001C164.105 95.9525 163.567 95.643 162.962 95.2049C163.057 94.8668 163.324 94.7287 163.438 94.4382C163.552 94.1478 163.233 94.043 163.162 93.8478C163.09 93.6525 163.409 93.043 163.376 92.7478C163.348 92.5382 163.128 92.5906 162.995 92.5287C162.619 92.3716 162.79 91.7954 162.733 91.4859C162.676 91.1763 162.286 91.3382 162.043 91.243C161.728 91.1144 161.695 90.724 161.424 90.562C161.238 90.4525 161.114 90.562 160.948 90.6668C160.657 90.8335 160.357 90.5716 160.081 90.5287C159.805 90.4859 159.762 90.6668 159.638 90.7954C159.438 90.9954 159.081 90.9192 158.881 91.1335C158.752 91.2716 158.8 91.443 158.719 91.5859C158.638 91.7287 158.381 91.8668 158.276 92.0621C158.128 92.3478 158.348 92.6335 158.324 92.924C158.298 93.1454 158.298 93.3692 158.324 93.5906C158.371 93.9097 158.595 94.0192 158.705 94.2811C158.779 94.4666 158.894 94.6328 159.042 94.7672C159.189 94.9017 159.365 95.0009 159.557 95.0573C159.721 95.2553 159.923 95.4174 160.152 95.5335C159.982 95.6566 159.784 95.7365 159.576 95.7664C159.368 95.7962 159.155 95.7751 158.957 95.7049C158.781 95.3335 158.171 95.5287 157.928 95.2001C157.881 95.1287 157.928 94.9478 157.928 94.8573C157.786 94.7287 157.309 94.2859 157.338 94.0811C157.367 93.8763 157.609 93.7716 157.576 93.524C157.302 93.2908 157.112 92.9749 157.033 92.624C157.248 92.4335 157.533 92.2811 157.628 91.9906C157.476 91.543 157.048 91.2478 156.967 90.7382C157.201 90.628 157.416 90.4818 157.605 90.3049C157.686 90.2192 157.9 90.043 157.8 89.9192C157.619 89.6811 156.557 89.0144 156.743 88.6287C157.124 88.4001 158.328 88.9478 158.648 89.1954C158.748 89.2668 158.914 89.5525 159.057 89.4192C159.34 89.0834 159.644 88.7654 159.967 88.4668C160.65 87.9594 161.502 87.7328 162.348 87.8335C162.609 88.0573 162.571 88.7382 163.357 88.3097C163.449 88.4824 163.504 88.672 163.519 88.8668C163.639 88.7403 163.711 88.5762 163.723 88.4026C163.735 88.2289 163.686 88.0564 163.586 87.9144C163.586 87.6478 163.471 87.5525 163.395 87.3335C163.048 86.324 164.043 83.9478 164.662 83.143C164.709 83.0859 164.786 82.9811 164.876 83.0049C165.352 83.143 165.324 83.162 165.719 82.8335C165.829 82.9507 165.909 83.0928 165.952 83.2478C165.999 83.1748 166.03 83.0927 166.043 83.0069C166.055 82.921 166.05 82.8335 166.026 82.7501C166.002 82.6667 165.96 82.5894 165.904 82.5233C165.848 82.4572 165.778 82.4038 165.7 82.3668C165.681 82.3044 165.65 82.2464 165.609 82.1964C165.567 82.1464 165.515 82.1056 165.457 82.0763C165.033 81.3213 164.792 80.4768 164.755 79.6115C164.718 78.7461 164.885 77.8841 165.243 77.0954C165.324 76.9001 165.486 76.743 165.509 76.524C165.514 76.452 165.502 76.3798 165.475 76.313C165.448 76.2462 165.406 76.1864 165.352 76.1382C165.398 76.0685 165.458 76.0097 165.529 75.966C165.599 75.9224 165.679 75.895 165.762 75.8859C165.698 75.8346 165.625 75.7975 165.546 75.7771C165.467 75.7566 165.385 75.7533 165.304 75.7673C165.224 75.7812 165.148 75.8122 165.081 75.8581C165.013 75.9041 164.956 75.9638 164.914 76.0335C164.595 76.1001 164.533 76.2382 164.438 76.5097C162.219 77.2001 160.509 78.0716 158.928 79.843C158.894 79.7966 158.85 79.7577 158.8 79.7287C158.75 79.6996 158.695 79.6809 158.638 79.6738C158.58 79.6667 158.522 79.6712 158.466 79.6872C158.411 79.7032 158.359 79.7303 158.314 79.7668C158.238 79.6192 158.343 79.462 158.405 79.3287C157.79 79.3287 157.962 80.6097 158.209 80.9287C158.105 81.343 157.486 84.1382 157.352 84.3192C156.756 84.9266 156.03 85.3906 155.228 85.6763C154.467 85.3382 156.114 84.3144 156.214 84.1621C156.314 84.0097 155.957 83.8811 156.162 83.6859C156.367 83.4906 156.605 83.3859 156.795 83.2097C156.881 83.1192 157.067 82.9478 156.976 82.8097C156.886 82.6716 156.609 82.5573 156.709 82.3906C156.809 82.224 157.281 81.6192 157.228 81.3335C157.176 81.0478 156.752 81.243 156.752 80.9859C156.728 80.6478 157.009 79.6763 156.657 79.4335C156.443 79.2811 156.133 79.8668 155.981 79.524C155.881 79.3097 155.69 78.2573 155.305 78.3478C155.119 78.3954 155.009 78.8906 154.681 78.824C154.505 78.6763 154.114 77.7001 153.819 77.9859C153.657 78.143 153.319 78.8097 153.009 78.7144C152.786 78.6478 152.757 77.9716 152.419 78.1621C152.167 78.3049 151.976 78.5716 151.709 78.7049C151.576 78.7668 151.519 78.6382 151.419 78.5811C151.214 78.4763 151.019 78.662 150.833 78.7335C150.319 78.943 150.062 78.6716 149.633 78.443C149.374 78.2673 149.08 78.1496 148.771 78.0978C148.462 78.0461 148.145 78.0615 147.843 78.143C147.219 78.2478 147.057 77.6954 146.271 78.6192C145.862 78.5859 145.452 78.562 145.043 78.524C144.838 78.5001 143.776 77.5716 143.438 78.5573C143.248 79.0906 143.79 79.2811 143.657 79.7335C143.786 80.0144 143.995 79.5763 144.324 79.7001C144.557 79.7859 144.467 80.043 144.576 80.2097H144.671C145.024 79.8478 145.333 79.9192 145.557 80.3335C145.705 80.6097 145.89 80.2001 146.109 80.2716C146.328 80.343 146.471 80.4525 146.667 80.5192C146.862 80.5859 147.533 80.3811 147.814 80.4573C147.848 80.4573 147.905 80.4859 147.895 80.5335C147.871 80.6668 146.467 80.9621 146.195 80.9763C144.552 81.0716 143.062 79.2763 141.433 79.0335C141.252 79.0335 141.038 78.9716 140.9 79.1144C142.048 79.462 141.248 80.2573 141.248 80.5382ZM142.857 85.343C142.943 85.343 142.833 85.7859 142.857 85.9335C142.352 86.2335 142.462 85.2382 142.857 85.343ZM142.305 87.3382C142.348 86.9192 142.952 87.2859 142.919 87.443C142.828 87.8478 142.276 87.5478 142.3 87.3382H142.305ZM160.476 95.7811C160.528 95.7001 160.648 95.7811 160.709 95.8097C161.058 95.9094 161.398 96.04 161.724 96.2001C161.552 96.5478 160.609 96.1192 160.476 95.7811ZM160.476 94.6097H160.567C160.755 94.9044 161.022 95.1404 161.338 95.2906L161.381 95.3906C160.924 95.5621 160.448 95.0525 160.476 94.6097ZM163.376 96.1049C163.528 96.219 163.644 96.3742 163.711 96.5523C163.778 96.7303 163.792 96.9237 163.752 97.1097C163.752 97.1763 163.671 97.2906 163.752 97.343H163.881C163.752 97.5093 163.59 97.6471 163.405 97.7478C163.405 97.324 163.709 96.9478 163.405 96.5192C163.014 95.9573 161.476 95.6144 161.457 95.0287C161.562 94.9906 161.6 95.0716 161.667 95.1287C162.171 95.5573 162.857 95.7144 163.376 96.1049ZM163.105 94.424C162.948 94.6658 162.753 94.8812 162.528 95.0621C162.412 95.0386 162.3 94.9933 162.2 94.9287C162.476 94.7183 162.781 94.5483 163.105 94.424ZM162.757 93.2859C162.786 93.243 162.895 93.0763 162.938 93.2049C162.848 93.7097 162.4 94.6335 161.886 94.7811C161.819 94.7547 161.754 94.7245 161.69 94.6906C161.648 94.6621 161.724 94.6097 161.743 94.5954C162.136 94.2042 162.476 93.764 162.757 93.2859ZM162.062 93.1906C162.12 92.831 162.198 92.475 162.295 92.124C162.314 92.1011 162.338 92.0831 162.366 92.0715C162.393 92.0599 162.423 92.055 162.452 92.0573C162.452 92.5763 162.505 93.3716 161.976 93.7049L161.89 93.6811C161.905 93.5097 162.014 93.3573 162.062 93.1906ZM161.748 92.6382C161.691 92.1562 161.561 91.6857 161.362 91.243C161.771 91.1859 162.114 92.4335 161.748 92.6382ZM161.105 94.4192C160.438 94.1906 159.295 93.1144 160.152 92.4573C160.895 91.9049 162.005 93.2097 161.105 94.4192ZM161.071 92.1097C160.933 92.043 160.919 91.9097 160.857 91.7906C160.677 91.4988 160.437 91.2488 160.152 91.0573C160.352 90.8478 161.2 91.2811 161.071 92.1097ZM160.271 92.1097C159.771 91.7573 159.7 91.6573 159.105 91.8001C159.048 91.4859 160.1 91.1287 160.271 92.1192V92.1097ZM159.319 94.3192C158.738 93.8811 159.028 92.9478 159.405 93.043C159.105 93.8335 159.386 93.9192 159.309 94.3287L159.319 94.3192ZM158.667 93.1478C158.343 92.5573 159.228 91.8525 159.695 92.2763C159.048 92.5525 159.048 92.6668 158.657 93.1573L158.667 93.1478ZM159.733 93.9478C159.799 94.3255 159.973 94.6761 160.233 94.9573C159.3 95.2382 159.586 93.4192 159.724 93.9573L159.733 93.9478ZM159.843 96.0859C159.853 96.0745 159.866 96.0654 159.881 96.0592C159.895 96.053 159.91 96.0498 159.926 96.0498C159.942 96.0498 159.957 96.053 159.971 96.0592C159.986 96.0654 159.999 96.0745 160.009 96.0859C160.362 96.3192 160.348 96.7144 161.205 97.0382C160.824 97.5763 159.524 96.4668 159.833 96.0954L159.843 96.0859ZM158.762 96.124L158.886 95.9668C158.971 95.9668 159.005 96.062 159.038 96.1287C159.281 96.6317 159.646 97.0656 160.1 97.3906C159.428 97.7478 158.676 96.8668 158.752 96.1335L158.762 96.124ZM157.681 95.5906C157.776 95.5906 157.828 95.6859 157.852 95.7621C157.948 96.3806 158.152 96.9772 158.457 97.524L158.381 97.6192C157.562 97.7716 157.143 95.6097 157.671 95.6001L157.681 95.5906ZM144.1 85.4763C144.228 85.4763 144.162 86.1811 143.795 86.0097C143.766 85.957 143.75 85.8976 143.751 85.8372C143.751 85.7769 143.766 85.7176 143.796 85.665C143.826 85.6124 143.868 85.5683 143.92 85.537C143.971 85.5056 144.03 85.488 144.09 85.4859L144.1 85.4763ZM143.624 88.4859L143.752 88.524C143.816 88.7206 143.893 88.913 143.981 89.1001C143.676 89.3668 143.333 88.6382 143.633 88.4954L143.624 88.4859ZM148.733 88.1954C148.528 88.1954 148.071 88.5668 147.781 88.6287L147.7 88.5906C147.762 88.362 147.995 88.2525 148.076 88.0335L148.019 87.9335C147.324 87.7097 146.771 88.5049 146.167 88.6382C146.105 88.6382 146.024 88.6382 145.99 88.5859C146.048 88.4954 146.2 88.3811 146.2 88.2763C145.376 87.9621 144.705 87.4763 143.852 87.7525C143.795 87.6525 143.957 87.5668 143.952 87.462C143.928 87.0859 143.524 87.1859 143.305 87.2049C143.305 87.0811 143.4 87.043 143.419 86.9382C143.325 86.8399 143.264 86.7153 143.243 86.5811C143.605 86.7621 143.914 87.1001 144.271 87.2621C144.835 87.4991 145.418 87.6855 146.014 87.8192C146.382 87.7846 146.745 87.7079 147.095 87.5906C147.772 87.4552 148.462 87.393 149.152 87.4049C149.133 87.622 149.133 87.8402 149.152 88.0573C149.214 88.0954 149.29 88.0573 149.352 88.0954C149.438 88.4001 149.452 88.8097 149.509 89.124C149.148 89.2763 149.276 88.1668 148.743 88.2049L148.733 88.1954ZM146.109 97.2097L146.148 97.0716C146.344 97.0988 146.536 97.1516 146.719 97.2287V97.3573C146.673 97.3947 146.619 97.4211 146.561 97.4345C146.503 97.4479 146.443 97.448 146.385 97.4347C146.327 97.4214 146.273 97.395 146.227 97.3577C146.181 97.3204 146.144 97.273 146.119 97.2192L146.109 97.2097ZM147.119 96.1478C147.171 96.2668 147.3 96.4192 147.252 96.5478C146.667 96.7335 146.805 95.4335 147.143 96.1573L147.119 96.1478ZM147.433 98.1621C147.433 98.1621 148.019 97.7478 147.981 98.0525C147.924 98.5716 147.262 98.3573 147.443 98.1716L147.433 98.1621ZM150.043 98.1621C150.043 98.524 149.295 98.2668 149.414 97.8716C149.49 97.8001 150 98.0954 150.052 98.1525L150.043 98.1621ZM153.943 94.1382L153.833 94.1763C153.76 94.0951 153.72 93.9901 153.719 93.8811C153.615 93.3125 153.689 92.7256 153.932 92.2011C154.175 91.6767 154.575 91.2404 155.076 90.9525C155.409 90.7668 155.986 90.4763 156.371 90.6621C154.981 91.9049 154.5 92.2478 153.952 94.1287L153.943 94.1382ZM157.014 94.8859C157.362 94.8478 156.914 95.5192 156.876 95.643C156.796 95.8852 156.765 96.1412 156.785 96.3956C156.806 96.65 156.877 96.8977 156.995 97.124C156.071 97.1716 155.809 95.0097 157.024 94.8763L157.014 94.8859ZM155.652 96.1906C154.871 95.3525 155.476 93.9001 156.452 93.6287C156.567 93.6001 156.738 93.5382 156.843 93.6287C156.086 94.4573 155.6 95.0763 155.652 96.1906ZM156.771 92.0668C155.819 92.8382 155.028 93.6716 154.795 94.8287C154.748 95.0668 154.728 95.3049 154.671 95.5573L154.519 95.5097C154.152 94.2192 154.871 91.824 156.771 92.043V92.0668ZM159.019 88.7335H158.928C158.9 88.7335 158.619 88.5906 158.562 88.5668C158.049 88.3082 157.483 88.1728 156.909 88.1716C156.751 88.1915 156.591 88.1915 156.433 88.1716V88.062C156.967 87.7573 158.362 88.1287 158.486 87.9478C158.609 87.7668 158.281 85.9192 158.581 85.3049L158.676 85.243C158.743 85.7192 158.738 86.243 158.809 86.7382C158.838 86.9192 158.943 88.1668 159.224 88.0287C159.505 87.8906 159.224 85.0382 159.409 84.4382C159.448 84.3335 159.49 84.2144 159.619 84.2049C159.619 84.643 159.709 87.1573 160.138 87.2621C160.152 87.2664 160.167 87.2679 160.182 87.2664C160.196 87.2649 160.21 87.2604 160.223 87.2533C160.236 87.2462 160.247 87.2366 160.257 87.225C160.266 87.2134 160.272 87.2001 160.276 87.1859C160.409 86.8001 160.138 84.8859 160.481 84.6906L160.581 84.7573C160.638 85.3335 160.633 86.7478 160.867 87.1906L160.986 87.224C161.076 87.1478 161.109 86.2954 161.195 86.0668H161.305C161.333 86.2382 161.357 86.9097 161.39 86.9859C161.543 87.4287 161.705 86.724 161.867 86.8049C161.955 86.8715 162.026 86.9589 162.074 87.0593C162.121 87.1597 162.143 87.2702 162.138 87.3811C160.59 87.5859 160.209 87.6478 159.019 88.6859V88.7335ZM156.919 87.3049L156.79 87.4192C156.119 87.2954 156.728 86.1382 156.881 86.6001C156.917 86.8188 156.93 87.0407 156.919 87.2621V87.3049ZM157.533 86.124C157.571 86.0811 157.705 86.0144 157.743 86.0954C157.924 86.4621 157.781 87.0144 157.971 87.443C157.271 87.6192 157.276 86.3525 157.533 86.0811V86.124ZM164.105 83.2668C163.532 84.1309 163.143 85.1033 162.962 86.124C162.898 86.5735 162.91 87.0304 162.995 87.4763C163.071 87.6335 163.252 87.7478 163.167 87.9525C163.147 87.9955 163.116 88.0319 163.076 88.0573C163.036 88.0826 162.99 88.0959 162.943 88.0954C162.709 88.0954 162.724 87.6859 162.676 87.5287C162.3 86.4607 161.781 85.4484 161.133 84.5192C160.933 84.1954 159.781 82.5144 159.809 82.2716C159.809 82.1478 160.071 81.4382 160.262 81.7287C160.219 82.0061 160.195 82.2861 160.19 82.5668C160.381 83.1716 160.933 81.7525 161.143 81.8954C161.19 81.9287 161.181 82.0097 161.167 82.0621C161.052 82.4906 160.743 82.8478 160.833 83.324C161.1 83.7478 161.467 82.2573 161.9 82.162C161.9 82.6763 161.343 83.3811 161.29 84.0668L161.362 84.1906C161.509 84.1906 162.224 82.5525 162.671 82.3525C162.624 82.9192 161.609 84.343 161.809 84.8668C161.914 84.943 161.981 84.8668 162.033 84.7859C162.319 84.243 162.867 83.0668 163.357 82.724C163.4 82.724 163.467 82.8097 163.443 82.8668C163.067 83.6763 162.49 84.4287 162.39 85.3668C162.39 85.4859 162.414 85.6192 162.557 85.6192C162.952 85.143 163.209 83.9144 163.9 83.2144C163.933 83.1811 164.081 83.0525 164.133 83.0859C164.186 83.1192 164.128 83.1763 164.105 83.2144V83.2668ZM165.005 82.1716C165.067 82.2954 165.695 82.7192 165.186 82.8335C165 82.8763 164.833 82.6335 164.709 82.5382C163.837 81.9513 162.884 81.4927 161.881 81.1763C161.676 81.1192 160.505 80.8859 160.49 80.7573C160.457 80.4716 160.843 80.7144 160.886 80.5192C160.928 80.324 160.933 80.2335 160.952 80.0954L161.052 80.0621C161.131 80.213 161.192 80.3728 161.233 80.5382C161.267 80.6097 161.328 80.7144 161.419 80.724C161.809 80.7621 161.367 79.6716 161.69 79.5811C161.75 80.0223 161.903 80.4459 162.138 80.824C162.567 81.1954 162 79.1525 162.438 79.0906L162.538 79.1621C162.538 79.4668 162.648 81.1144 163.014 81.143L163.109 81.0763C163.133 80.7811 162.89 78.624 163.39 78.6478C163.424 78.6954 163.438 80.0763 163.471 80.3192C163.512 80.6881 163.62 81.0464 163.79 81.3763C163.928 81.524 164.014 81.3763 164.014 81.224C164.038 80.2716 163.805 79.3192 164.157 78.3906C164.195 78.2954 164.257 78.1573 164.362 78.1287L164.452 78.2097C164.189 79.5378 164.383 80.9161 165.005 82.1192V82.1716ZM157.59 84.9335C157.905 84.6382 158.467 81.562 158.624 80.9192C158.086 80.3811 158.4 79.543 158.919 80.4954C160.401 78.7252 162.399 77.4617 164.633 76.8811C164.686 76.7382 164.748 76.5287 164.924 76.4906L165.057 76.5382C165.252 76.8382 164.767 77.1525 164.528 77.2144C162.425 77.7941 160.564 79.0345 159.219 80.7525C158.993 81.1066 158.85 81.507 158.8 81.924C158.7 82.4001 158.371 84.7478 157.848 85.1954C157.268 85.6571 156.627 86.0354 155.943 86.3192C155.852 86.3626 155.753 86.3854 155.652 86.3859V86.2859C156.19 85.7144 157.009 85.4382 157.59 84.8811V84.9335ZM155.843 89.3811C154.443 90.6382 153.938 90.9763 153.409 92.8573L153.3 92.8954C153.228 92.8142 153.189 92.7088 153.19 92.6001C153.086 92.0321 153.159 91.4455 153.401 90.9211C153.644 90.3967 154.042 89.9602 154.543 89.6716C154.881 89.4335 155.452 89.124 155.843 89.3287V89.3811ZM155.514 80.7716C155.541 80.5185 155.554 80.2642 155.552 80.0097C155.744 80.2175 155.87 80.4777 155.914 80.7573C156.205 82.3668 152.652 83.4716 152.652 83.4716C153.605 83.3763 155.205 83.0716 155.919 82.4335C156 83.3859 151.79 83.8954 151.338 84.4954C152.138 84.3811 152.943 84.3335 153.748 84.2906C152.886 84.7668 152.014 84.6763 151.171 85.4478L151.224 85.5335C151.374 85.4936 151.522 85.4443 151.667 85.3859C152.242 85.2281 152.836 85.148 153.433 85.1478C152.705 85.4763 151.938 85.7287 151.405 86.3573V86.443H151.509C151.895 86.1954 153.152 85.843 153.567 86.0382C152.897 86.2829 152.29 86.6732 151.79 87.1811C151.79 87.2478 151.857 87.2906 151.919 87.2621C152.57 86.9087 153.308 86.7438 154.048 86.7859C153.971 86.9811 152.052 87.843 152.276 88.1859C152.3 88.2192 152.367 88.2144 152.4 88.1859C153 87.8478 153.914 87.3954 154.628 87.624V87.7144C154.152 87.9335 153.095 88.4668 152.971 88.9906C153.448 88.9906 154.643 88.0621 155.19 88.5525C155.166 88.5849 155.139 88.6151 155.109 88.643C154.956 88.7407 154.797 88.8297 154.633 88.9097C153.95 89.308 153.404 89.904 153.067 90.6192C152.945 90.9282 152.85 91.2467 152.781 91.5716C152.519 91.4668 152.671 89.9573 152.714 89.6668L152.662 89.5668C152.4 89.5668 152.233 90.3287 152.186 90.5192C151.924 90.362 151.919 89.5382 151.881 89.243L151.795 89.1621C151.295 89.3811 151.619 91.1335 151.49 91.3859C151.352 91.3859 151.343 91.2001 151.195 91.2192C151.048 91.2382 150.943 91.4335 150.914 91.562C150.809 92.0382 151.014 92.5144 150.943 92.9906C150.943 93.024 150.9 93.1382 150.857 93.143C150.728 93.143 150.671 92.6287 150.438 92.4906C150.409 92.4906 150.328 92.4906 150.309 92.524C150.109 92.7716 150.219 93.5382 150.219 93.8525L150.148 93.9668C150.028 94.0001 149.995 93.7811 149.895 93.8668C149.828 94.0018 149.791 94.1495 149.786 94.3001C149.752 94.7287 149.743 95.1525 149.724 95.5859C149.724 95.6811 149.286 96.4001 149.224 96.5954C149.133 96.8668 149.309 97.1335 149.281 97.4097C149.071 97.4811 149.033 97.2763 148.895 97.2001C148.662 97.0716 147.881 97.5192 147.671 97.6097C147.6 97.4525 147.871 97.3573 147.671 97.2811C147.473 97.2149 147.271 97.1608 147.067 97.1192V97.0144C147.543 97.1192 148.3 97.3001 148.719 96.8954C148.99 96.4145 149.222 95.9129 149.414 95.3954C149.476 94.9906 149.452 94.5382 149.486 94.1287C149.567 93.1136 149.747 92.1088 150.024 91.1287C150.152 90.6525 150.371 90.1763 150.462 89.743C150.552 89.3097 150.514 88.7906 150.624 88.3144L150.819 87.4382L150.752 87.3287C150.481 87.3716 150.357 87.7525 150.224 87.9525C149.986 87.7763 150.295 86.6716 150.338 86.4001L150.243 86.3716C150.024 86.588 149.86 86.8543 149.767 87.1478C149.438 86.4144 149.852 86.1097 149.9 85.4716C149.8 85.4684 149.702 85.4967 149.619 85.5525C150.081 83.024 155.071 83.4859 155.514 80.7192V80.7716ZM154.019 81.1621C154.241 80.9436 154.384 80.6567 154.423 80.3476C154.463 80.0384 154.398 79.7249 154.238 79.4573C154.476 79.5232 154.681 79.6739 154.815 79.881C154.95 80.088 155.003 80.3371 154.967 80.5811C154.905 80.8906 154.014 81.8192 153.771 81.4716C153.719 81.3478 153.967 81.1668 154.019 81.1097V81.1621ZM153.119 80.9716C153.233 80.3335 153.767 80.0192 152.9 79.2192C154.286 79.3049 153.967 81.0811 153.119 80.9192V80.9716ZM152.59 80.8525L152.452 80.8906C152.371 80.724 152.452 80.5382 152.381 80.3668C152.222 79.9227 151.914 79.5474 151.509 79.3049C152.576 79.2811 153.119 80.1668 152.59 80.8001V80.8525ZM150.786 79.6335H150.895C151.1 79.724 151.848 80.3668 151.652 80.5859C151.457 80.8049 150.728 79.8287 150.786 79.5811V79.6335ZM150.905 80.5859C151.162 80.9573 150.238 80.8859 150.186 80.4525C150.133 80.0192 150.786 80.3859 150.905 80.5525V80.5859ZM147.467 81.062C147.841 81.0226 148.21 80.9493 148.571 80.843C148.728 80.7859 148.99 80.643 149.048 80.4668C149.048 80.3859 149.048 80.3335 148.976 80.3001C148.724 80.1668 147.686 80.1716 147.114 79.924C146.898 79.8052 146.672 79.7064 146.438 79.6287C146.276 79.6287 146.109 79.7954 145.962 79.6001C145.93 79.538 145.88 79.4867 145.819 79.4528C145.758 79.4189 145.689 79.4039 145.619 79.4097C145.262 79.4382 145.3 79.343 145.019 79.2097C144.852 79.1287 144.543 79.2382 144.462 79.2097C144.381 79.1811 144.462 78.9811 144.371 78.9097C144.336 78.8931 144.298 78.8846 144.259 78.8846C144.221 78.8846 144.182 78.8931 144.148 78.9097C144.033 78.9622 143.943 79.0557 143.895 79.1716H143.8C143.571 78.9763 143.852 78.6382 144.076 78.6001C144.39 78.5478 144.748 78.9049 145.028 79.0001C145.507 79.1104 145.995 79.1774 146.486 79.2001C146.771 79.1621 147.162 78.5859 147.914 78.7668C148.281 78.8573 149.567 79.9716 149.819 79.4001C150.128 79.2335 150.133 79.7716 149.819 80.0097C149.419 80.3287 149.148 80.2859 149.781 80.6621V80.8001C149.505 81.0287 149.071 80.7192 148.828 80.9811C148.681 81.1335 149.105 81.4573 148.757 81.4573C148.409 81.4573 148.128 80.9144 147.776 81.3621C147.59 81.5954 144.652 82.0954 144.319 81.8382C144.428 81.7382 144.581 81.7621 144.719 81.7573C145.714 81.6811 146.5 81.1716 147.467 81.0097V81.062Z" fill="white"/>
<path d="M142.957 73.4569C143.033 73.394 143.122 73.3483 143.217 73.3228C143.312 73.2973 143.412 73.2927 143.509 73.3093C144.064 73.6056 144.599 73.9347 145.114 74.295C145.358 74.4411 145.618 74.5563 145.89 74.6379C146.124 74.6984 146.37 74.7014 146.605 74.6466C146.841 74.5919 147.059 74.4811 147.243 74.3236L147.295 74.2331C147.728 74.6168 148.226 74.9185 148.767 75.1236C149.076 75.2263 149.395 75.295 149.719 75.3284V75.5379C151.29 75.5379 151.319 77.276 151.319 77.276H152.452V77.6188H154.533V77.2617H155.69C155.69 77.2617 155.767 75.5284 157.29 75.5236V75.3093C157.593 75.272 157.891 75.2051 158.181 75.1093C158.721 74.9043 159.22 74.6025 159.652 74.2188L159.705 74.3093C159.888 74.4672 160.107 74.5782 160.342 74.6329C160.578 74.6877 160.823 74.6845 161.057 74.6236C161.329 74.5411 161.589 74.426 161.833 74.2807C162.347 73.9215 162.881 73.5923 163.433 73.295C163.532 73.2789 163.633 73.2837 163.73 73.3091C163.827 73.3346 163.917 73.38 163.995 73.4426C164.033 73.4426 164.048 73.5569 164.105 73.5188C164.136 73.3729 164.136 73.222 164.105 73.076C164.052 72.7784 163.91 72.5039 163.697 72.2895C163.485 72.075 163.211 71.9307 162.914 71.876C162.878 71.6094 162.807 71.3485 162.705 71.0998C162.553 70.7761 162.289 70.5187 161.962 70.376C161.911 70.8181 161.77 71.2452 161.549 71.6316C161.328 72.0179 161.031 72.3554 160.676 72.6236C160.701 72.3046 160.678 71.9837 160.609 71.6712C160.552 71.5628 160.457 71.4784 160.343 71.4331C160.121 71.3253 159.878 71.2669 159.632 71.2619C159.385 71.257 159.14 71.3057 158.914 71.4045C158.729 71.5188 158.743 71.776 158.667 71.9617C158.576 72.258 158.415 72.5278 158.197 72.7477C157.978 72.9676 157.71 73.131 157.414 73.2236C157.462 72.8665 157.505 72.6379 157.505 72.6379C157.505 72.6379 155.905 72.8474 154.995 72.4569C154.995 72.4569 154.79 73.9998 153.509 74.0046C152.229 74.0093 152.014 72.4569 152.014 72.4569C151.109 72.8474 149.505 72.6379 149.505 72.6379C149.505 72.6379 149.552 72.876 149.6 73.2426C149.291 73.1571 149.008 72.9948 148.778 72.7709C148.549 72.547 148.379 72.2686 148.286 71.9617C148.209 71.776 148.224 71.5188 148.038 71.4045C147.812 71.3057 147.567 71.257 147.321 71.2619C147.074 71.2669 146.831 71.3253 146.609 71.4331C146.514 71.4855 146.381 71.5522 146.343 71.6712C146.274 71.9837 146.252 72.3046 146.276 72.6236C145.921 72.3554 145.624 72.0179 145.403 71.6316C145.182 71.2452 145.042 70.8181 144.99 70.376C144.662 70.5196 144.397 70.7765 144.243 71.0998C144.144 71.3495 144.075 71.61 144.038 71.876C143.74 71.9294 143.466 72.0733 143.253 72.288C143.04 72.5027 142.899 72.7779 142.848 73.076C142.816 73.222 142.816 73.3729 142.848 73.5188C142.895 73.5712 142.914 73.476 142.957 73.4569ZM162.295 71.276C162.449 71.5065 162.528 71.7796 162.519 72.0569C162.519 72.1712 162.49 72.2998 162.49 72.4093C162.552 72.4093 162.619 72.376 162.686 72.3807C162.855 72.3651 163.026 72.3952 163.18 72.4681C163.335 72.541 163.466 72.6539 163.562 72.795C163.519 72.795 163.452 72.7665 163.395 72.7665C163.16 72.8305 162.94 72.9406 162.748 73.0903C162.289 73.4937 161.78 73.8362 161.233 74.1093C161.181 74.0461 161.151 73.9675 161.148 73.8855C161.471 73.4712 161.981 73.2284 162.267 72.7665C162.281 72.7401 162.288 72.7107 162.288 72.6807C162.288 72.6508 162.281 72.6214 162.267 72.595C162.09 72.5045 161.014 73.576 160.914 73.3617C160.867 73.3086 160.839 73.2418 160.833 73.1712C161.506 72.7071 162.017 72.0446 162.295 71.276ZM157.271 74.5855C157.761 74.4911 158.224 74.2912 158.629 73.9998C158.738 73.9236 158.862 73.8141 158.809 73.6569C158.809 73.6093 158.719 73.6284 158.69 73.6569C158.269 73.9419 157.792 74.135 157.29 74.2236L157.333 73.8331C157.729 73.7403 158.098 73.5587 158.413 73.3021C158.728 73.0456 158.981 72.7207 159.152 72.3522C159.23 72.2 159.292 72.0405 159.338 71.876C159.361 71.8472 159.391 71.8244 159.425 71.8095C159.459 71.7946 159.496 71.788 159.533 71.7903C159.771 71.876 159.49 72.3807 159.395 72.6807C159.3 72.9807 158.962 73.2807 159.067 73.3807C159.305 73.4426 159.395 73.2522 159.505 73.1331C159.746 72.7745 159.93 72.381 160.052 71.9665C160.1 71.8903 160.248 71.8522 160.267 72.0522C160.218 72.3943 160.117 72.7269 159.967 73.0379C159.707 73.5474 159.322 73.9826 158.848 74.3025C158.374 74.6224 157.827 74.8165 157.257 74.8665L157.271 74.5855ZM154.667 74.8093C154.932 74.9136 155.224 74.9319 155.5 74.8617C155.185 74.6061 154.974 74.2433 154.909 73.8426C155.061 73.9304 155.229 73.9852 155.403 74.0032C155.577 74.0213 155.753 74.0023 155.919 73.9474C155.765 73.8426 155.64 73.7 155.557 73.5333C155.473 73.3666 155.434 73.1812 155.443 72.995C155.845 73.0802 156.256 73.1153 156.667 73.0998C156.558 73.7707 156.501 74.4488 156.495 75.1284C156.131 75.2512 155.814 75.4847 155.589 75.7963C155.363 76.1079 155.241 76.482 155.238 76.8665H154.548C154.54 76.1788 154.58 75.4915 154.667 74.8093ZM153.486 74.3331C153.637 74.3037 153.793 74.3217 153.934 74.3846C154.075 74.4475 154.192 74.5523 154.271 74.6847C154.35 74.817 154.386 74.9705 154.374 75.1241C154.362 75.2776 154.303 75.4238 154.205 75.5426C154.107 75.6614 153.975 75.7471 153.826 75.7879C153.678 75.8287 153.52 75.8226 153.376 75.7705C153.231 75.7184 153.105 75.6228 153.017 75.4968C152.928 75.3708 152.881 75.2205 152.881 75.0665C152.866 74.8895 152.921 74.7138 153.034 74.5768C153.147 74.4398 153.309 74.3524 153.486 74.3331ZM151.552 73.0045C151.56 73.1906 151.52 73.3756 151.437 73.5422C151.354 73.7088 151.23 73.8515 151.076 73.9569C151.242 74.0124 151.418 74.0317 151.592 74.0137C151.766 73.9956 151.935 73.9405 152.086 73.8522C152.025 74.2543 151.814 74.6183 151.495 74.8712C151.773 74.9412 152.066 74.9229 152.333 74.8188C152.424 75.5039 152.467 76.1945 152.462 76.8855H151.767C151.766 76.5012 151.644 76.1269 151.42 75.8151C151.195 75.5034 150.878 75.2699 150.514 75.1474C150.505 74.4678 150.447 73.7898 150.338 73.1188C150.746 73.1301 151.154 73.0917 151.552 73.0045ZM146.929 71.9426C147.05 72.3572 147.235 72.7507 147.476 73.1093C147.59 73.2284 147.676 73.4188 147.919 73.3569C148.019 73.2569 147.667 72.8807 147.586 72.6569C147.505 72.4331 147.209 71.8522 147.448 71.7665C147.485 71.7642 147.523 71.7708 147.558 71.7857C147.592 71.8005 147.623 71.8233 147.648 71.8522C147.689 72.018 147.752 72.178 147.833 72.3284C148.004 72.6973 148.256 73.0225 148.572 73.2792C148.887 73.5358 149.256 73.7171 149.652 73.8093L149.69 74.1998C149.189 74.1104 148.713 73.9174 148.29 73.6331C148.262 73.6331 148.186 73.6046 148.171 73.6331C148.124 73.7903 148.248 73.8998 148.352 73.976C148.757 74.2674 149.22 74.4673 149.709 74.5617V74.8188C149.14 74.7697 148.592 74.576 148.117 74.256C147.643 73.9361 147.259 73.5004 147 72.9903C146.847 72.6801 146.746 72.3472 146.7 72.0046C146.738 71.8284 146.881 71.8665 146.929 71.9426ZM144.286 72.3807C144.352 72.3807 144.424 72.4141 144.486 72.4093C144.486 72.2998 144.452 72.1712 144.452 72.0569C144.446 71.78 144.524 71.5076 144.676 71.276C144.957 72.0497 145.473 72.7159 146.152 73.1807C146.145 73.2518 146.115 73.3185 146.067 73.3712C145.971 73.5855 144.895 72.5141 144.714 72.6046C144.7 72.6309 144.693 72.6603 144.693 72.6903C144.693 72.7202 144.7 72.7496 144.714 72.776C145 73.2522 145.509 73.4807 145.833 73.895C145.828 73.9775 145.796 74.056 145.743 74.1188C145.196 73.8457 144.687 73.5032 144.229 73.0998C144.036 72.9501 143.816 72.84 143.581 72.776C143.529 72.776 143.457 72.8046 143.414 72.8046C143.508 72.6624 143.639 72.5481 143.792 72.4735C143.945 72.399 144.116 72.3669 144.286 72.3807Z" fill="white"/>
<path d="M149.357 79.6475H149.138C148.386 79.1094 147.709 78.6951 146.814 79.2237V79.357C146.976 79.4237 147.038 79.5951 147.157 79.7094C147.49 80.0237 149.062 80.1856 149.371 79.7809L149.357 79.6475ZM147.562 79.6475L147.114 79.3094L147.662 79.2428L147.562 79.6475ZM148.224 79.7904L148.309 79.3761L148.786 79.6809L148.224 79.7904Z" fill="white"/>
<path d="M150.529 65.1381C150.676 65.1344 150.822 65.1088 150.962 65.0619C151.162 65.1619 151.252 65.4429 151.362 65.6429L151.209 65.5667C150.99 65.4762 150.733 65.5095 150.505 65.3762C150.513 65.5397 150.548 65.7007 150.609 65.8524C150.767 66.2762 151.219 66.3619 151.59 66.5762C151.413 66.5647 151.238 66.536 151.067 66.4905C150.978 66.4487 150.888 66.4121 150.795 66.381C150.864 66.665 151.019 66.9209 151.238 67.1143C151.391 67.2233 151.564 67.3009 151.748 67.3429C151.775 67.3453 151.8 67.3556 151.821 67.3726C151.843 67.3895 151.858 67.4123 151.867 67.4381C151.686 67.3953 151.476 67.4381 151.3 67.4048C151.495 67.9524 152.138 68.2191 152.59 68.5048C152.58 68.5371 152.563 68.5668 152.54 68.5915C152.517 68.6163 152.489 68.6355 152.457 68.6476C152.329 68.6953 152.238 68.8572 152.086 68.8095C152.007 68.8009 151.927 68.8146 151.855 68.8491C151.784 68.8836 151.723 68.9376 151.681 69.0048C151.657 69.0472 151.643 69.094 151.638 69.1423C151.633 69.1906 151.638 69.2394 151.652 69.2857C151.48 69.5139 151.358 69.7768 151.297 70.0562C151.235 70.3356 151.235 70.6251 151.295 70.9048C151.364 71.1663 151.488 71.4099 151.66 71.6187C151.832 71.8275 152.047 71.9966 152.29 72.1143V72.4619C152.296 72.7858 152.418 73.0968 152.634 73.3382C152.85 73.5796 153.145 73.735 153.467 73.7762C153.8 73.7523 154.112 73.6037 154.34 73.3602C154.569 73.1166 154.697 72.7959 154.7 72.4619V72.1143C154.943 71.9966 155.158 71.8275 155.33 71.6187C155.502 71.4099 155.627 71.1663 155.695 70.9048C155.755 70.625 155.753 70.3359 155.692 70.0566C155.63 69.7774 155.51 69.5145 155.338 69.2857C155.353 69.2394 155.358 69.1906 155.353 69.1423C155.348 69.094 155.333 69.0472 155.309 69.0048C155.267 68.9376 155.207 68.8836 155.135 68.8491C155.064 68.8146 154.984 68.8009 154.905 68.8095C154.752 68.8572 154.662 68.6953 154.533 68.6476C154.502 68.6355 154.473 68.6163 154.45 68.5915C154.427 68.5668 154.41 68.5371 154.4 68.5048C154.852 68.2191 155.495 67.9524 155.686 67.4048C155.514 67.4334 155.305 67.4048 155.124 67.4381C155.131 67.4127 155.146 67.39 155.166 67.3731C155.187 67.3561 155.212 67.3456 155.238 67.3429C155.421 67.3009 155.594 67.2233 155.748 67.1143C155.967 66.9209 156.121 66.665 156.19 66.381C156.099 66.4122 156.01 66.4487 155.924 66.4905C155.751 66.5364 155.574 66.5651 155.395 66.5762C155.767 66.3619 156.224 66.2762 156.376 65.8524C156.44 65.7015 156.476 65.54 156.481 65.3762C156.271 65.5095 156.005 65.4762 155.781 65.5667L155.624 65.6429C155.738 65.4429 155.824 65.1667 156.029 65.0619C156.167 65.1091 156.311 65.1348 156.457 65.1381C156.611 65.1223 156.757 65.0615 156.876 64.9633C156.996 64.865 157.083 64.7337 157.129 64.5857C157.187 64.3369 157.173 64.0766 157.089 63.8354C157.005 63.5942 156.853 63.382 156.652 63.2238C156.341 62.9788 155.946 62.8659 155.552 62.9095C155.377 62.9442 155.204 62.9952 155.038 63.0619C154.971 62.6955 154.776 62.3646 154.489 62.1276C154.201 61.8906 153.839 61.7628 153.467 61.7667C152.243 61.7667 151.9 63.0619 151.9 63.0619C151.735 62.9957 151.565 62.9447 151.39 62.9095C150.997 62.8654 150.601 62.9783 150.29 63.2238C150.089 63.3816 149.937 63.5937 149.853 63.8351C149.769 64.0765 149.755 64.337 149.814 64.5857C149.862 64.7401 149.956 64.8759 150.084 64.9748C150.212 65.0736 150.367 65.1307 150.529 65.1381ZM153.095 73.2905L152.776 73.0048V72.2667L153.095 72.3762V73.2905ZM154.619 69.3381C154.657 69.3323 154.695 69.3395 154.728 69.3586C154.761 69.3776 154.786 69.4074 154.8 69.4429C154.767 69.581 154.614 69.6095 154.519 69.6714C154.706 69.8655 154.837 70.1065 154.898 70.3688C154.959 70.6312 154.948 70.9052 154.867 71.1619C154.837 71.2883 154.779 71.4061 154.696 71.506C154.614 71.606 154.509 71.6855 154.39 71.7381H154.267C154.445 71.2378 154.47 70.6955 154.338 70.181C154.299 70.0381 154.244 69.9006 154.171 69.7714C154.009 69.7714 153.843 69.8048 153.695 69.8286C153.833 70.5282 153.833 71.248 153.695 71.9476C153.563 71.9739 153.427 71.9739 153.295 71.9476C153.193 71.4208 153.168 70.8816 153.224 70.3476C153.224 70.181 153.286 70.0238 153.314 69.8714C153.205 69.8333 153.062 69.8429 152.943 69.8095C152.824 69.7762 152.781 69.7381 152.776 69.8429C152.525 70.4668 152.498 71.1584 152.7 71.8C152.633 71.8 152.581 71.7572 152.514 71.7381C152.109 71.5333 152.067 71.0429 152.09 70.6C152.126 70.2705 152.25 69.9565 152.448 69.6905C152.338 69.6286 152.19 69.6286 152.148 69.5C152.148 69.4429 152.148 69.3714 152.195 69.3524C152.343 69.3524 152.448 69.4286 152.576 69.4524C153.251 69.6421 153.97 69.6019 154.619 69.3381ZM154.795 64.3286C154.886 64.1118 155.042 63.9285 155.242 63.804C155.441 63.6795 155.675 63.6199 155.909 63.6334C156.07 63.6388 156.225 63.6933 156.353 63.7895C156.482 63.8857 156.578 64.019 156.629 64.1714C156.65 64.2525 156.646 64.338 156.618 64.417C156.59 64.4959 156.539 64.5646 156.471 64.6143C156.455 64.5618 156.445 64.5074 156.443 64.4524C156.411 64.3441 156.349 64.2467 156.265 64.1711C156.181 64.0955 156.078 64.0445 155.967 64.0238C155.812 64.0017 155.655 64.0273 155.515 64.097C155.376 64.1668 155.261 64.2775 155.186 64.4143C154.814 65.0334 154.862 65.8429 154.8 66.5429C154.714 66.9762 154.771 67.5619 154.324 67.7715C154.499 67.1006 154.57 66.4067 154.533 65.7143C154.511 65.2383 154.601 64.7638 154.795 64.3286ZM152.5 62.9C152.571 62.7401 152.68 62.6001 152.818 62.4922C152.956 62.3843 153.118 62.3117 153.29 62.281C153.482 62.2577 153.676 62.2825 153.856 62.3532C154.036 62.4239 154.195 62.5382 154.319 62.6857C154.452 62.8679 154.538 63.0808 154.567 63.3048C154.629 63.8619 154.3 64.3762 154.181 64.8905C154.076 65.425 154.008 65.9659 153.976 66.5095C153.952 66.8714 153.914 67.5953 153.919 67.9667C153.919 68.0143 153.919 68.0714 153.848 68.081C153.776 68.0905 153.771 68.0524 153.748 68.0143C153.622 67.0093 153.653 65.991 153.838 64.9953C153.99 64.518 154.111 64.0312 154.2 63.5381C154.219 63.3629 154.183 63.1862 154.098 63.032C154.013 62.8777 153.882 62.7535 153.724 62.6762C153.611 62.6285 153.488 62.6067 153.365 62.6125C153.242 62.6182 153.123 62.6514 153.014 62.7095C152.908 62.7704 152.821 62.8607 152.764 62.9697C152.708 63.0786 152.684 63.2016 152.695 63.3238C152.704 63.3728 152.719 63.4207 152.738 63.4667C152.821 63.3717 152.937 63.3107 153.062 63.2953C153.171 63.2966 153.276 63.3411 153.352 63.4191C153.471 63.6424 153.523 63.8956 153.5 64.1476C153.467 64.7905 153.319 65.4048 153.286 66.0524C153.247 66.7019 153.283 67.3536 153.39 67.9953C153.39 68.0238 153.39 68.081 153.329 68.081C153.267 68.081 153.224 68.0381 153.2 67.9857C153.118 67.7097 153.067 67.4254 153.048 67.1381C153.024 66.7619 153.005 66.0905 153.014 65.7095C153.098 65.1418 153.144 64.5691 153.152 63.9953C153.152 63.9568 153.144 63.9188 153.128 63.8836C153.112 63.8485 153.09 63.8168 153.062 63.7905C153.028 63.7587 152.986 63.7366 152.941 63.7265C152.896 63.7164 152.849 63.7188 152.805 63.7333C152.733 63.7619 152.714 63.8191 152.7 63.9143C152.571 63.7852 152.484 63.621 152.448 63.4422C152.412 63.2634 152.43 63.0781 152.5 62.9095V62.9ZM150.4 64.1619C150.452 64.0095 150.549 63.8764 150.678 63.7803C150.807 63.6843 150.963 63.6297 151.124 63.6238C151.359 63.6108 151.593 63.6705 151.793 63.7949C151.993 63.9193 152.15 64.1023 152.243 64.3191C152.435 64.7549 152.524 65.2289 152.505 65.7048C152.473 66.3971 152.543 67.0903 152.714 67.7619C152.276 67.5524 152.333 66.9667 152.238 66.5334C152.176 65.8238 152.238 65.0238 151.857 64.4048C151.781 64.2676 151.666 64.1567 151.525 64.087C151.385 64.0172 151.227 63.9919 151.071 64.0143C150.96 64.0334 150.856 64.0839 150.771 64.1597C150.687 64.2356 150.626 64.3337 150.595 64.4429C150.591 64.498 150.58 64.5524 150.562 64.6048C150.496 64.5556 150.446 64.4886 150.417 64.4118C150.389 64.335 150.383 64.2516 150.4 64.1714V64.1619Z" fill="white"/>
<path d="M78.8667 77.7093C77.5619 78.9236 77.1238 80.5665 77.8857 81.395C78.6476 82.2236 80.3286 81.8712 81.6333 80.676C82.9381 79.4807 83.3762 77.8188 82.5857 76.9903C81.7952 76.1617 80.1667 76.4903 78.8667 77.7093Z" fill="white"/>
<path d="M36.7714 97.9429C40.6809 98.7905 44.8952 98.1 48.4904 97.081C50.1963 97.5547 51.9277 97.9315 53.6761 98.2096C58.9142 98.7619 63.4904 96.9381 67.4333 93.7953C66.962 94.2341 66.6307 94.8023 66.4809 95.4286C66.2428 96.5 66.3619 97.081 66.919 97.7572C68.0476 98.9048 70.3142 98.4191 71.2333 98.0858H71.2761C73.6571 97.1334 77.2761 93.5334 77.2761 93.5334C77.2761 93.5334 77.4476 93.3286 77.5571 93.4715L73.9857 98.0191H78.6857C78.6857 98.0191 82.4666 93.2572 84.5428 91.3524C87.9904 87.9048 90.9761 85.4667 93.6142 84.3715C93.9714 84.2334 94.5666 83.8953 94.8333 84.2953C94.9045 84.3808 94.9436 84.4887 94.9436 84.6C94.9436 84.7114 94.9045 84.8192 94.8333 84.9048L89.2904 91.1429C89.2904 91.1429 86.4333 94.1048 86.1238 95.4286C85.8904 96.4953 86.0095 97.0762 86.5666 97.7572C87.6904 98.9048 89.9571 98.4191 90.8523 98.081C93.0443 97.1237 95.081 95.8445 96.8952 94.2857C96.8476 94.5381 96.819 94.8524 96.7857 95.1334C96.7523 96.281 97.1238 97.5858 98.1761 98.1381C100.733 99.2667 103.229 97.5238 105.224 96.1238C105.914 95.6477 106.59 95.0238 107.267 94.5667C107.04 95.3427 107.078 96.1722 107.376 96.9238C107.529 97.2575 107.756 97.5524 108.038 97.7865C108.321 98.0206 108.653 98.188 109.009 98.2762C112.576 98.8572 115.105 96.4048 117.714 94.3953H117.809C116.943 96.1191 117.1 97.3905 118.314 98.1C119.529 98.8096 121.171 98.4572 121.943 98.1572C124.533 97.3048 126.929 94.681 129.381 92.481L128.629 91.6953C128.629 91.6953 126.186 94.0762 124.69 95.2572C123.338 96.3286 122.062 97.3429 120.543 97.3667C120.402 97.3949 120.257 97.3733 120.131 97.3055C120.005 97.2377 119.906 97.1279 119.852 96.9953C119.824 96.8965 119.82 96.7922 119.842 96.6916C119.864 96.5911 119.91 96.4975 119.976 96.4191L131.195 82.0762H138.062L139.181 80.7667H132.2L140.69 69.7H135.976C135.819 69.8572 127.348 80.8334 127.348 80.8334H124.49L123.443 82.0858H126.357L118.909 91.5619C116.819 94.0619 114.305 96.181 111.386 97.0762C110.99 97.1524 110.248 97.3715 110.062 96.9715C110.034 96.8869 110.026 96.7973 110.037 96.7091C110.049 96.621 110.08 96.5365 110.129 96.4619L117.105 87.4619L130.795 69.7143H126.086L120.562 76.8572L114.848 84.1762L114.143 84.9953C114.178 84.5728 114.06 84.1516 113.809 83.8096C112.895 82.8572 111.39 83.0381 110.167 83.2143C105.623 84.1672 101.57 86.7123 98.7381 90.3905C98.2619 90.9905 97.7619 91.9381 97.2428 92.5191C95.542 94.2072 93.5783 95.608 91.4285 96.6667C90.9904 96.8048 90.3952 97.2953 89.9666 97.0048C89.9264 96.9704 89.8941 96.9277 89.872 96.8796C89.8498 96.8315 89.8384 96.7792 89.8384 96.7262C89.8384 96.6733 89.8498 96.621 89.872 96.5729C89.8941 96.5248 89.9264 96.4821 89.9666 96.4477L95.7666 89.7048L96.7523 88.4667C97.5238 87.3048 98.0428 85.6096 97.2285 84.2857C96.9207 83.8446 96.4912 83.5025 95.9923 83.3012C95.4934 83.1 94.9468 83.0483 94.419 83.1524C91.4809 83.7334 89.1047 85.6857 86.719 87.6334C87.7095 86.2477 88.7142 84.881 89.8285 83.4381H85.1761L81.7999 87.6191C80.4762 89.2294 79.0255 90.731 77.4619 92.1096C72.4666 96.6286 71.0952 97.1429 71.0952 97.1429C71.0952 97.1429 69.8047 97.8572 69.4285 97.1429C69.3851 97.0356 69.3741 96.918 69.3969 96.8045C69.4198 96.6911 69.4755 96.5869 69.5571 96.5048L79.7857 83.4953H74.8476L70.0857 89.5286C68.2514 91.8461 65.9149 93.717 63.2523 95C60.1714 96.5191 55.6619 96.5048 52.5238 95.1715C54.223 94.5381 55.8257 93.671 57.2857 92.5953C60.6571 90.1 62.3857 87.6429 64.6999 84.1096C66.7342 83.6433 68.7254 83.0061 70.6523 82.2048C75.319 80.0334 81.0571 75.2572 83.838 70.4191C84.4666 69.2381 85.219 67.6096 84.338 66.3048C84.1231 65.99 83.8358 65.7315 83.5002 65.5508C83.1646 65.3702 82.7906 65.2727 82.4095 65.2667C79.6904 65.1572 77.4428 66.4619 75.2666 67.7477C69.8619 71.2524 64.1904 78.1 60.2619 83.2715C57.119 83.1762 54.0714 82.8477 51.5428 81.2905C50.5565 80.7328 49.7583 79.8945 49.2496 78.8821C48.7409 77.8698 48.5446 76.729 48.6857 75.6048C49.0285 72.1334 52.6428 69.3667 55.7238 68.4619C59.4333 67.2048 63.9571 67.5096 67.6809 68.4286C67.7285 68.1953 67.7904 67.7238 67.7904 67.7238C65.151 66.7314 62.3479 66.2468 59.5285 66.2953C54.7666 66.581 50.0809 67.8191 47.238 72.0096C45.8904 74.1762 45.7333 77.2477 47.1 79.4715C49.9238 83.5238 55.019 84.0619 59.6857 84.2953C59.6857 84.2953 58.6428 85.6619 58.1904 86.3238L55.3333 89.8905C53.99 91.6378 52.4334 93.2103 50.7 94.5715C46.1904 93.181 40.538 91.4286 35.9857 93.6572C35.1333 94.081 34.2095 94.9429 34.2857 95.9953C34.5095 97.1429 35.7952 97.6619 36.7714 97.9429ZM99.5 96.5143C100.114 94.7429 101.438 93.3048 102.695 91.8286C104.977 89.1872 107.64 86.9002 110.595 85.0429C111.305 84.7429 112.39 84.0905 113 84.7905C113.529 85.7048 112.419 86.881 111.871 87.8096C109.2 91.281 105.709 95.0524 101.871 96.8905C101.214 97.1238 100.586 97.5286 99.8333 97.3048C99.7238 97.2103 99.6385 97.091 99.5847 96.9567C99.5308 96.8225 99.5099 96.6773 99.5238 96.5334L99.5 96.5143ZM79.6 67.1953C80.619 66.6619 81.9238 65.9238 83.0857 66.5953L83.3523 66.9143C83.6999 67.6048 83.319 68.3429 83.0857 68.9381C80.9523 73.1191 75.8571 77.9762 71.9047 80.1905C69.9053 81.3853 67.7431 82.2835 65.4857 82.8572C68.8619 77.8143 74.2095 70.4048 79.6 67.2143V67.1953ZM35.4857 95.4238C36.5999 94.3857 38.3142 94.4715 39.8047 94.6238C41.9844 94.9896 44.1144 95.6064 46.1523 96.4619C43.4319 97.2603 40.5832 97.5271 37.7619 97.2477C36.8809 97.0429 35.8142 97.0334 35.3428 96.1048C35.2867 95.9917 35.2702 95.8631 35.2962 95.7396C35.3221 95.616 35.3888 95.5048 35.4857 95.4238Z" fill="white"/>
</g>
</g>
<defs>
<clipPath id="clip0_1886_10683">
<rect width="200" height="200" fill="white"/>
</clipPath>
<clipPath id="clip1_1886_10683">
<rect width="200" height="200" fill="white"/>
</clipPath>
</defs>
</svg>
