<svg width="200" height="200" viewBox="0 0 200 200" fill="none" xmlns="http://www.w3.org/2000/svg">
<g clip-path="url(#clip0_2385_1652)">
<path d="M61.8956 81.1385C61.0269 80.8135 60.0734 80.6606 59.0497 80.6606C56.9557 80.6606 54.8936 81.7522 54.8936 84.7382C54.8936 89.1599 60.1074 88.1065 60.1074 90.6529C60.1074 91.857 58.8968 92.3752 57.9942 92.3752C57.0577 92.3752 56.1211 92.0503 55.3034 91.5512L55.0804 93.9638C56.257 94.2887 56.8368 94.4799 58.1301 94.4799C60.5321 94.4799 62.5943 93.3713 62.5943 90.4405C62.5943 85.9615 57.3805 86.9384 57.3805 84.6214C57.3805 83.1666 58.4381 82.7653 59.2557 82.7653C60.0904 82.7653 60.925 82.9755 61.6747 83.3408L61.8956 81.1385Z" fill="white"/>
<path d="M65.4665 91.2838C65.4665 93.2355 66.4541 94.48 68.2423 94.48C68.924 94.48 69.4528 94.4036 69.9307 94.2507L69.8627 92.2225C69.6227 92.3945 69.2319 92.4901 68.8221 92.4901C67.9534 92.4901 67.7496 91.7043 67.7496 90.8633V86.2675H69.7756V84.3922H67.7496V81.5974L65.4665 82.4214V84.3922H63.7803V86.2675H65.4665V91.2838Z" fill="white"/>
<path d="M71.5078 94.2516H73.8928V91.5714H71.5078V94.2516Z" fill="white"/>
<path d="M86.0519 81.2151C85.0304 80.8711 83.9388 80.6608 82.5605 80.6608C78.5232 80.6608 76.0342 83.2242 76.0342 87.8008C76.0342 92.3181 78.7101 94.48 82.5605 94.48C83.8368 94.48 85.1493 94.1742 86.4087 93.7919V86.5946H81.6048V88.6992H84.1278V92.1843C83.7179 92.299 83.2061 92.3754 82.5605 92.3754C80.0205 92.3754 78.5232 90.326 78.5232 87.6097C78.5232 84.8722 80.0566 82.7654 82.8323 82.7654C83.7859 82.7654 84.9794 82.9948 85.899 83.4748L86.0519 81.2151Z" fill="white"/>
<path fill-rule="evenodd" clip-rule="evenodd" d="M89.334 87.1109C90.1007 86.461 91.0713 86.0384 92.0418 86.0384C93.3883 86.0384 94.019 86.5757 94.019 88.1643H92.7575C91.8039 88.1643 90.6805 88.2598 89.8119 88.7377C88.9433 89.2176 88.3125 90.0778 88.3125 91.5516C88.3125 93.4269 89.8289 94.4803 91.3792 94.4803C92.4177 94.4803 93.5582 93.8686 94.087 92.777H94.121C94.1379 93.0829 94.1379 93.7348 94.2229 94.2509H96.2341C96.1831 93.4842 96.1491 92.7962 96.1321 92.0486C96.1152 91.3223 96.0982 90.5747 96.0982 89.5808V88.3172C96.0982 85.4076 94.9896 84.1631 92.3158 84.1631C91.3452 84.1631 90.1517 84.4498 89.2661 84.9107L89.334 87.1109ZM90.4915 91.3987C90.4915 89.8866 92.0078 89.6955 93.0315 89.6955H94.019C94.019 90.46 93.9171 91.1694 93.5412 91.7237C93.1844 92.261 92.6386 92.605 91.9399 92.605C91.1222 92.605 90.4915 92.2419 90.4915 91.3987Z" fill="white"/>
<path d="M98.5605 94.2516H100.844V79.895H98.5605V94.2516Z" fill="white"/>
<path d="M103.462 94.2516H105.745V79.895H103.462V94.2516Z" fill="white"/>
<path fill-rule="evenodd" clip-rule="evenodd" d="M109.929 88.355C110.031 87.034 110.679 86.038 111.957 86.038C113.234 86.038 113.746 87.1104 113.813 88.355H109.929ZM115.347 91.6085C114.495 92.1459 113.542 92.6046 112.433 92.6046C111.019 92.6046 110.031 91.7041 109.929 90.1156H115.995C115.995 86.6708 115.073 84.1627 111.819 84.1627C109.095 84.1627 107.748 86.5179 107.748 89.3701C107.748 92.6046 109.434 94.4799 112.331 94.4799C113.557 94.4799 114.512 94.2123 115.347 93.6962V91.6085Z" fill="white"/>
<path d="M117.998 94.2509H120.281V90.632C120.281 89.2176 120.281 86.6139 122.137 86.6139C122.545 86.6139 122.955 86.6904 123.161 86.8242V84.2396C122.921 84.1631 122.683 84.1631 122.462 84.1631C121.099 84.1631 120.162 85.7134 120.06 86.633H120.024V84.3925H117.998V94.2509Z" fill="white"/>
<path d="M55.623 119.389H58.592V111.671H58.6345L63.9545 119.389H67.8346L61.4952 110.599L67.5798 102.762H63.9333L58.592 109.908V102.762H55.623V119.389Z" fill="white"/>
<path fill-rule="evenodd" clip-rule="evenodd" d="M70.4626 110.503C71.4161 109.694 72.6245 109.17 73.8329 109.17C75.5086 109.17 76.2922 109.836 76.2922 111.814H74.7249C73.5356 111.814 72.1382 111.933 71.0572 112.527C69.9741 113.124 69.1904 114.197 69.1904 116.029C69.1904 118.365 71.0784 119.674 73.0068 119.674C74.3002 119.674 75.721 118.913 76.3772 117.554H76.4197C76.4409 117.936 76.4409 118.746 76.5471 119.389H79.0489C78.9852 118.436 78.9427 117.578 78.9214 116.649C78.9002 115.745 78.879 114.815 78.879 113.576V112.005C78.879 108.384 77.5007 106.836 74.1727 106.836C72.9643 106.836 71.4798 107.192 70.3776 107.764L70.4626 110.503ZM71.9046 115.84C71.9046 113.957 73.7905 113.719 75.0626 113.719H76.2922C76.2922 114.672 76.1648 115.554 75.6997 116.244C75.2537 116.911 74.5763 117.34 73.7055 117.34C72.6882 117.34 71.9046 116.887 71.9046 115.84Z" fill="white"/>
<path d="M82.0508 119.389H84.8924V113.385C84.8924 111.813 85.3362 109.312 87.3941 109.312C89.2163 109.312 89.2375 111.338 89.2375 112.837V119.389H92.0791V111.646C92.0791 108.883 90.9557 106.835 88.3689 106.835C86.8844 106.835 85.676 107.383 84.7862 108.787H84.7437V107.12H82.0508V119.389Z" fill="white"/>
<path d="M96.3112 115.697C96.3112 118.126 97.5408 119.674 99.7665 119.674C100.616 119.674 101.272 119.579 101.865 119.39L101.782 116.865C101.485 117.079 100.996 117.198 100.489 117.198C99.4076 117.198 99.1527 116.221 99.1527 115.172V109.455H101.676V107.121H99.1527V103.642L96.3112 104.666V107.121H94.2129V109.455H96.3112V115.697Z" fill="white"/>
<path fill-rule="evenodd" clip-rule="evenodd" d="M103.3 113.338C103.3 116.864 105.398 119.675 109.002 119.675C112.629 119.675 114.728 116.864 114.728 113.338C114.728 109.288 112.247 106.835 109.002 106.835C105.78 106.835 103.3 109.288 103.3 113.338ZM106.269 112.956C106.269 111.123 107.159 109.311 109.002 109.311C110.869 109.311 111.759 111.074 111.759 112.956C111.759 115.005 111.187 117.197 109.002 117.197C106.84 117.197 106.269 114.982 106.269 112.956Z" fill="white"/>
<path d="M117.327 119.389H120.167V113.385C120.167 111.813 120.613 109.312 122.671 109.312C124.493 109.312 124.514 111.338 124.514 112.837V119.389H127.355V111.646C127.355 108.883 126.232 106.835 123.645 106.835C122.161 106.835 120.952 107.383 120.063 108.787H120.02V107.12H117.327V119.389Z" fill="white"/>
<path fill-rule="evenodd" clip-rule="evenodd" d="M131.227 110.503C132.181 109.694 133.389 109.17 134.598 109.17C136.273 109.17 137.057 109.836 137.057 111.814H135.49C134.302 111.814 132.903 111.933 131.82 112.527C130.739 113.124 129.955 114.197 129.955 116.029C129.955 118.365 131.843 119.674 133.771 119.674C135.065 119.674 136.486 118.913 137.142 117.554H137.184C137.206 117.936 137.206 118.746 137.312 119.389H139.814C139.75 118.436 139.707 117.578 139.686 116.649C139.665 115.745 139.644 114.815 139.644 113.576V112.005C139.644 108.384 138.265 106.836 134.937 106.836C133.729 106.836 132.244 107.192 131.142 107.764L131.227 110.503ZM132.669 115.84C132.669 113.957 134.555 113.719 135.827 113.719H137.057C137.057 114.672 136.929 115.554 136.464 116.244C136.018 116.911 135.341 117.34 134.47 117.34C133.453 117.34 132.669 116.887 132.669 115.84Z" fill="white"/>
<path d="M142.879 119.388H145.72V101.521H142.879V119.388Z" fill="white"/>
<path fill-rule="evenodd" clip-rule="evenodd" d="M151.947 113.219C151.947 111.503 152.667 109.313 154.491 109.313C156.334 109.313 156.844 111.575 156.844 113.219C156.844 114.909 156.315 117.197 154.449 117.197C152.561 117.197 151.947 114.958 151.947 113.219ZM149.084 119.388H151.841V117.889H151.883C152.709 119.197 154.024 119.675 155.232 119.675C158.584 119.675 159.813 116.579 159.813 113.219C159.813 109.836 158.584 106.835 155.232 106.835C153.748 106.835 152.752 107.525 151.968 108.693H151.926V101.521H149.084V119.388Z" fill="white"/>
<path fill-rule="evenodd" clip-rule="evenodd" d="M162.984 110.503C163.938 109.694 165.146 109.17 166.354 109.17C168.03 109.17 168.814 109.836 168.814 111.814H167.244C166.057 111.814 164.66 111.933 163.577 112.527C162.496 113.124 161.712 114.197 161.712 116.029C161.712 118.365 163.598 119.674 165.528 119.674C166.822 119.674 168.242 118.913 168.899 117.554H168.941C168.962 117.936 168.962 118.746 169.069 119.389H171.57C171.507 118.436 171.464 117.578 171.443 116.649C171.422 115.745 171.4 114.815 171.4 113.576V112.005C171.4 108.384 170.022 106.836 166.694 106.836C165.486 106.836 164.001 107.192 162.899 107.764L162.984 110.503ZM164.426 115.84C164.426 113.957 166.312 113.719 167.584 113.719H168.814C168.814 114.672 168.686 115.554 168.221 116.244C167.775 116.911 167.098 117.34 166.227 117.34C165.21 117.34 164.426 116.887 164.426 115.84Z" fill="white"/>
<path d="M174.573 119.389H177.415V113.385C177.415 111.813 177.859 109.312 179.917 109.312C181.739 109.312 181.76 111.338 181.76 112.837V119.389H184.602V111.646C184.602 108.883 183.478 106.835 180.891 106.835C179.407 106.835 178.198 107.383 177.309 108.787H177.266V107.12H174.573V119.389Z" fill="white"/>
<path d="M187.964 119.389H190.803V113.434H190.846L194.494 119.389H198.098L193.52 112.599L197.589 107.12H194.24L190.846 112.028H190.803V101.522H187.964V119.389Z" fill="white"/>
<path d="M2.49219 81.9362H39.7088V118.921H2.49219V81.9362Z" stroke="white" stroke-width="1.20629" stroke-miterlimit="3.864"/>
<path d="M25.7552 99.8639L37.1512 84.0887L19.5836 84.1015L8.04102 99.8661L19.6855 116.788L37.5144 116.809L25.7552 99.8639Z" fill="white"/>
</g>
<defs>
<clipPath id="clip0_2385_1652">
<rect width="200" height="199.57" fill="white"/>
</clipPath>
</defs>
</svg>
