<svg width="200" height="200" viewBox="0 0 200 200" fill="none" xmlns="http://www.w3.org/2000/svg">
<g clip-path="url(#clip0_1886_10671)">
<g clip-path="url(#clip1_1886_10671)">
<path d="M194.698 88.8857C196.633 88.8858 198.316 88.9696 199.831 89.0537C200 89.0537 200 89.0545 200.084 89.1387C200.168 89.1387 200.168 89.3064 200.168 89.3906C200.337 91.2425 200.421 93.095 200.084 94.6943C199.832 97.135 199.326 99.1548 198.906 100.249C198.821 100.417 198.822 100.418 198.738 100.502C198.653 100.586 198.485 100.586 198.485 100.586L192.003 100.502C180.219 100.502 173.401 102.606 170.37 105.805C168.603 107.741 167.846 110.014 168.519 112.539C168.856 113.717 169.277 114.559 169.698 115.148C169.95 115.485 170.118 115.654 170.37 115.99C170.621 116.24 171.119 116.655 171.128 116.663C171.128 116.663 171.296 116.748 171.296 116.832C171.296 116.915 171.134 116.916 171.128 116.916C171.128 116.916 170.118 117 168.771 116.663C166.077 115.905 161.869 113.633 160.691 108.583C159.597 104.122 161.027 100.502 163.889 97.7246C170.034 91.7482 183.839 89.0541 194.698 88.8857ZM193.182 93.5147H190.573V95.7881H193.182V98.3975H195.454V95.7881H198.064V93.5147H195.454V90.9053H193.182V93.5147ZM172.896 67.084C174.748 66.9157 177.105 67.0004 178.536 67.2529C178.62 67.2529 178.704 67.2527 178.788 67.3369C178.788 67.4211 178.788 67.5057 178.703 67.5898C178.03 69.1893 176.936 72.2196 173.401 75.418C167.845 80.5525 161.196 81.8993 155.135 88.5488C153.031 90.8216 152.105 92.9265 151.684 94.3574C151.516 94.9465 151.431 95.199 151.263 95.7881C151.095 96.2931 150.926 96.8826 150.926 96.9668C150.842 97.0509 150.842 97.2182 150.758 97.2188C150.674 97.2188 150.589 97.135 150.589 96.9668C150.589 96.8826 150.337 96.2092 150.168 94.6943V94.3574C150.084 93.3473 150.085 92.0003 150.337 90.5693C150.59 88.8858 151.095 87.1181 152.105 85.4346C153.031 83.7512 154.377 82.0676 155.724 80.6367C157.323 78.9532 158.923 77.606 160.775 76.0908C162.038 75.0804 167.256 71.3773 168.182 68.0947C168.182 68.0106 168.182 68.01 168.266 67.9258C168.35 67.9258 168.435 67.8418 168.519 67.8418C169.613 67.5051 171.381 67.2523 172.896 67.084Z" fill="white"/>
<path d="M180.976 87.9595C189.141 87.0336 195.286 86.9494 199.579 87.4544H199.831V87.2019C199.411 84.9292 198.4 82.1514 197.222 80.047C196.969 79.542 196.549 78.8686 196.212 78.3635C196.128 78.1952 196.128 78.2794 196.044 78.1952C195.959 78.111 195.707 78.111 195.707 78.111C195.033 78.0268 193.434 77.9427 191.498 77.9427C188.131 77.8585 184.007 78.2794 179.377 79.2053C172.559 80.5521 166.666 82.8248 161.868 85.9393C156.734 89.3063 152.862 93.0942 151.431 99.1548C151.178 100.081 151.767 101.848 152.441 103.195C152.862 104.037 153.283 104.71 153.704 105.3L153.872 105.468C153.956 105.468 153.956 105.384 153.956 105.3C154.04 104.879 154.124 104.037 154.629 102.858C155.387 100.67 157.239 96.1245 165.067 92.4208C170.202 89.8113 175.757 88.6329 180.976 87.9595Z" fill="white"/>
<path d="M43.6027 100.671H38.2155C37.8788 100.671 37.8788 100.839 37.8788 101.176C37.8788 101.596 37.8788 101.596 38.3839 101.596C39.2256 101.596 40.1516 101.765 40.1516 102.775C40.1516 103.448 39.5623 104.879 39.1415 105.889C38.3839 107.657 37.0371 110.519 35.9428 112.96C35.2694 110.94 32.7442 103.448 32.7442 102.775C32.7442 101.849 33.4176 101.849 34.5118 101.765C34.9327 101.681 35.0169 101.681 35.0169 101.176C35.0169 100.839 35.0169 100.671 34.596 100.671H27.6095C27.2728 100.671 27.1886 100.839 27.1886 101.176C27.1886 101.428 27.1886 101.512 27.4411 101.596C28.1145 101.681 28.3671 101.765 28.7038 102.101C29.0405 102.522 29.5455 103.785 30.2189 105.553C29.4613 107.236 27.357 111.613 26.6835 112.96C25.4209 109.846 24.8317 108.246 24.2425 106.731C23.6532 105.132 23.064 103.448 23.064 102.775C23.064 102.101 23.4007 101.765 24.5792 101.681C25 101.681 25.0842 101.596 25.0842 101.176C25.0842 100.923 25.0842 100.671 24.9159 100.671H18.266C17.9293 100.671 17.8452 100.755 17.8452 101.091C17.8452 101.512 17.8452 101.512 18.3502 101.765C18.6869 101.933 19.0236 102.438 19.6128 103.617C21.0438 106.647 23.1482 112.371 24.495 116.075C24.7475 116.664 24.7475 116.748 24.9159 116.748L26.2627 116.58C26.5152 116.58 26.5152 116.58 26.6835 116.159C27.862 113.549 28.4512 112.371 30.9765 107.405C32.3233 111.108 33.3334 114.307 33.7543 115.906C34.0068 116.748 34.0068 116.832 34.2593 116.748L35.1852 116.664C35.5219 116.664 35.7745 116.495 35.9428 116.159C36.027 115.906 36.6162 114.644 36.8687 114.054C38.0472 111.445 39.5623 108.162 40.4883 106.394C41.4142 104.627 42.761 102.186 43.6027 101.765C43.8553 101.596 43.9394 101.512 43.9394 101.176C43.9394 100.839 43.8553 100.671 43.6027 100.671ZM10.5219 103.196C6.14483 101.26 4.37716 100.502 4.37716 97.7244C4.37716 95.1991 6.31318 93.5998 8.83844 93.5998C10.1852 93.5998 11.532 93.9365 12.458 94.6099C13.7206 95.4517 14.1415 96.6301 14.4782 97.7244C14.6465 98.3136 14.7307 98.3978 14.899 98.3978C15.2357 98.3978 15.7408 98.3136 15.7408 97.8927C15.7408 97.7244 15.6566 96.6301 15.5724 95.8725C15.4883 94.9466 15.5724 93.0106 15.5724 92.7581C15.5724 92.5055 15.5724 92.4214 15.3199 92.4214H14.9832C14.899 92.5055 14.7307 92.5897 14.6465 92.5897C14.5623 92.5897 13.7206 92.5055 12.7105 92.3372C11.7004 92.253 10.3536 92.1688 9.42766 92.1688C4.04046 92.1688 1.1785 94.9466 1.1785 98.7345C1.1785 99.9129 1.5152 101.428 2.77783 102.691C3.87211 103.785 4.96638 104.29 7.91251 105.637C11.7846 107.405 13.4681 108.246 13.4681 110.856C13.4681 113.465 11.3637 115.233 8.58591 115.233C6.56571 115.233 4.79803 114.644 3.45123 113.718C2.35696 112.792 1.68355 111.529 1.34685 110.014C1.26268 109.677 1.26268 109.425 1.01015 109.425C0.336754 109.425 0.0842285 109.846 0.0842285 110.182C0.0842285 111.192 0.420929 114.307 0.673454 115.906C0.757629 116.495 0.757629 116.58 1.1785 116.58C1.59938 116.58 1.59938 116.243 2.10443 116.243C2.69366 116.243 5.21891 116.832 8.24921 116.832C11.8687 116.832 13.6364 115.99 14.8149 115.149C16.0775 114.223 17.2559 112.455 17.2559 110.182C17.0876 106.058 13.5522 104.543 10.5219 103.196ZM53.1145 115.569C51.6835 115.485 50.926 115.401 50.7576 114.307C50.5893 113.465 50.5893 109.341 50.5893 108.162C50.5893 105.3 50.6734 103.617 50.6734 102.691C50.6734 102.101 50.7576 100.923 50.8418 100.418C50.8418 100.165 50.7576 100.081 50.5051 100.081C50.2526 100.081 49.9159 100.165 49.5792 100.334C48.6532 100.671 46.3805 101.849 45.6229 102.101C45.2862 102.27 45.1179 102.354 45.1179 102.775C45.1179 103.196 45.1179 103.196 45.7913 103.28C47.559 103.532 47.559 104.038 47.559 107.91C47.559 110.098 47.559 113.128 47.2223 114.139C46.9697 114.98 46.5489 115.233 45.2862 115.485C44.7812 115.569 44.697 115.654 44.697 116.075C44.697 116.411 44.7812 116.495 45.0337 116.495C45.7071 116.495 47.8115 116.411 49.3266 116.411C51.1785 116.411 52.862 116.495 53.3671 116.495C53.7038 116.495 53.7879 116.411 53.7879 115.99C53.7879 115.654 53.7037 115.569 53.1145 115.569ZM49.3266 95.115C50.3367 95.115 51.3468 94.1049 51.3468 93.0948C51.3468 92.1688 50.3367 91.1587 49.4108 91.1587C48.5691 91.1587 47.3906 92.1688 47.3906 93.1789C47.4748 94.1049 48.4849 95.115 49.3266 95.115ZM62.5421 107.405C59.6802 106.058 58.6701 105.384 58.6701 103.953C58.6701 103.28 59.0068 101.681 61.2795 101.681C63.7206 101.681 64.7307 103.448 65.1516 104.374C65.3199 104.795 65.4041 104.879 65.5724 104.879C66.2458 104.879 66.33 104.795 66.33 104.458C66.33 103.869 66.1617 102.186 66.0775 101.344C65.9933 100.755 65.9933 100.671 65.7408 100.671C65.5724 100.671 65.3199 100.755 65.2357 100.755C64.9832 100.755 63.3839 100.418 62.0371 100.418C57.1549 100.418 55.8923 103.196 55.8923 104.879C55.8923 107.573 58.165 108.667 60.2694 109.593C62.7105 110.772 64.0573 111.529 64.0573 113.128C64.0573 114.054 63.4681 115.654 61.1112 115.654C59.7644 115.654 57.2391 115.064 56.4815 112.202C56.3132 111.613 56.3132 111.529 56.0606 111.529C55.6398 111.529 55.3873 111.613 55.3873 111.866C55.3873 112.202 55.5556 113.549 55.5556 114.139V115.99C55.5556 116.327 55.6398 116.495 55.8923 116.495C56.0606 116.495 56.3132 116.411 56.3974 116.411C56.5657 116.411 56.8182 116.495 57.1549 116.495C57.8283 116.58 59.091 116.832 60.6903 116.832C62.8788 116.832 67.3401 116.159 67.3401 112.287C67.0876 109.509 64.5623 108.33 62.5421 107.405ZM76.5152 107.405C73.6532 106.058 72.6431 105.384 72.6431 103.953C72.6431 103.28 72.9798 101.681 75.2526 101.681C77.6936 101.681 78.7037 103.448 79.1246 104.374C79.293 104.795 79.3771 104.879 79.5455 104.879C80.2189 104.879 80.3031 104.795 80.3031 104.458C80.3031 103.869 80.1347 102.186 80.0505 101.344C79.9664 100.755 79.9664 100.671 79.7138 100.671C79.5455 100.671 79.293 100.755 79.2088 100.755C78.9563 100.755 77.3569 100.418 76.0101 100.418C71.128 100.418 69.8654 103.196 69.8654 104.879C69.8654 107.573 72.1381 108.667 74.2425 109.593C76.6835 110.772 78.0303 111.529 78.0303 113.128C78.0303 114.054 77.4411 115.654 75.0842 115.654C73.7374 115.654 71.2122 115.064 70.4546 112.202C70.1179 111.697 70.1179 111.613 69.8654 111.613C69.4445 111.613 69.192 111.697 69.192 111.95C69.192 112.287 69.3603 113.633 69.3603 114.223V116.075C69.3603 116.411 69.4445 116.58 69.697 116.58C69.8654 116.58 70.1179 116.495 70.2021 116.495C70.3704 116.495 70.6229 116.58 70.9596 116.58C71.633 116.664 72.8957 116.916 74.495 116.916C76.6835 116.916 81.1448 116.243 81.1448 112.371C81.0606 109.509 78.5354 108.33 76.5152 107.405ZM102.02 110.014C101.768 110.014 101.684 110.351 101.599 110.856C101.178 112.202 100.505 113.465 99.495 114.054C98.1482 114.812 95.6229 114.812 93.266 114.812C91.6667 114.812 91.0775 114.812 90.9091 113.886C90.6566 112.792 90.5724 108.751 90.5724 105.3C90.5724 102.859 90.5724 96.8826 90.9091 95.4517C91.1617 94.189 91.8351 93.8523 93.4344 93.684C94.1078 93.5998 94.1078 93.5998 94.1078 93.0106C94.1078 92.6739 93.9394 92.5897 93.6869 92.5897C92.761 92.5897 90.3199 92.7581 88.9731 92.7581C87.8788 92.7581 85.6903 92.5897 84.5118 92.5897C84.1751 92.5897 84.091 92.5897 84.091 93.1789C84.091 93.5156 84.1751 93.5156 85.0169 93.684C86.9529 94.0207 87.1213 94.6941 87.1213 97.2193V102.691C87.1213 105.805 87.1212 110.435 86.8687 112.792C86.7004 114.139 86.532 115.317 84.3435 115.569C83.7542 115.654 83.6701 115.654 83.6701 116.159C83.6701 116.495 83.7542 116.664 84.091 116.664C84.5118 116.664 86.027 116.495 92.5085 116.495C99.495 116.495 100.168 116.664 100.926 116.664C101.263 116.664 101.347 116.327 101.599 115.569C102.357 112.708 102.609 111.024 102.609 110.435C102.862 110.182 102.778 110.014 102.02 110.014ZM112.71 115.569C111.279 115.485 110.522 115.401 110.354 114.307C110.185 113.465 110.185 109.341 110.185 108.162C110.185 105.3 110.269 103.617 110.269 102.691C110.269 102.101 110.354 100.923 110.438 100.418C110.438 100.165 110.354 100.081 110.101 100.081C109.849 100.081 109.512 100.165 109.175 100.334C108.249 100.671 105.976 101.849 105.219 102.101C104.882 102.27 104.714 102.354 104.714 102.775C104.714 103.196 104.714 103.196 105.387 103.28C107.155 103.532 107.155 104.038 107.155 107.91C107.155 110.098 107.155 113.128 106.818 114.139C106.566 114.98 106.145 115.233 104.882 115.485C104.377 115.569 104.293 115.654 104.293 116.075C104.293 116.411 104.377 116.495 104.63 116.495C105.303 116.495 107.407 116.411 108.923 116.411C110.774 116.411 112.458 116.495 112.963 116.495C113.3 116.495 113.384 116.411 113.384 115.99C113.3 115.654 113.216 115.569 112.71 115.569ZM108.923 95.115C109.933 95.115 110.943 94.1049 110.943 93.0948C110.943 92.1688 109.933 91.1587 109.007 91.1587C108.165 91.1587 106.987 92.1688 106.987 93.1789C107.071 94.1049 108.081 95.115 108.923 95.115ZM125.758 100.755H120.539C120.539 94.8624 120.707 92.4214 124.747 92.4214C126.684 92.4214 127.525 93.0106 128.115 93.4315C128.535 93.7682 128.788 94.1049 129.04 94.1049C129.377 94.1049 131.061 93.3473 131.061 92.5055C131.061 91.4954 129.461 90.0645 126.599 90.0645C123.569 90.0645 120.875 91.8321 119.276 93.8523C117.593 96.0409 117.508 97.4719 117.508 100.755L115.488 101.681C115.32 101.765 115.32 101.849 115.32 102.27C115.32 102.607 115.32 102.607 115.572 102.607H117.508C117.508 105.3 117.508 110.351 117.424 112.792C117.34 114.896 117.088 115.233 115.488 115.485C115.067 115.569 114.983 115.569 114.983 116.075C114.983 116.327 114.983 116.58 115.236 116.58C115.825 116.58 117.424 116.495 118.687 116.495C120.455 116.495 123.232 116.58 123.737 116.58C124.411 116.58 124.495 116.495 124.495 115.99C124.495 115.569 124.495 115.485 123.99 115.485C121.465 115.485 120.791 115.149 120.707 113.044C120.707 110.772 120.623 106.058 120.623 102.607H125.758C126.263 102.607 126.263 102.438 126.263 101.681C126.094 100.839 126.094 100.755 125.758 100.755Z" fill="white"/>
<path d="M140.235 113.128C140.235 112.96 140.151 113.044 139.983 113.128C138.215 114.475 136.363 114.811 135.185 114.811C131.229 114.811 130.219 111.192 130.134 108.582C133.501 107.909 136.784 107.236 140.235 106.731C140.404 106.731 140.235 105.552 139.983 104.626C139.057 101.343 136.195 100.417 134.427 100.417C130.892 100.417 126.852 103.616 126.852 109.508C126.852 112.37 127.946 117 133.417 117C136.027 117 138.468 115.822 139.899 114.559C140.235 114.306 140.32 114.138 140.32 113.885C140.32 113.549 140.32 113.38 140.235 113.128ZM133.333 101.68C135.185 101.68 136.7 103.784 136.7 105.131C136.7 105.468 136.532 105.805 135.353 106.141C132.66 106.815 131.65 107.067 130.134 107.32C130.134 104.542 131.144 101.68 133.333 101.68Z" fill="white"/>
</g>
</g>
<defs>
<clipPath id="clip0_1886_10671">
<rect width="200" height="200" fill="white"/>
</clipPath>
<clipPath id="clip1_1886_10671">
<rect width="200.337" height="50" fill="white" transform="translate(0 67)"/>
</clipPath>
</defs>
</svg>
