<svg width="200" height="200" viewBox="0 0 200 200" fill="none" xmlns="http://www.w3.org/2000/svg">
<g clip-path="url(#clip0_1886_10668)">
<g clip-path="url(#clip1_1886_10668)">
<path d="M111.686 72.9761V75.0666H117.21V92.057C117.21 110.152 117.1 111.771 116.052 114.833C114.41 119.652 111.29 121.705 105.824 121.705C100.967 121.705 97.7286 119.99 96.0381 116.552C94.3572 113.043 94.1333 109.886 94.2095 90.2666L94.2857 75.1808L97.2333 75.1047L100.181 75.0332V72.938H81.9619V75.0332H87.4857V92.057C87.4857 102.533 87.5619 109.833 87.7095 111.028C88.6619 118.867 92.1572 122.714 99.5095 124.133C102.014 124.609 107.314 124.433 109.667 123.795C114.819 122.414 117.81 119.352 119.3 113.938C119.824 112.109 119.824 111.886 119.9 93.5904L119.971 75.0666H125.052V72.9761H111.686Z" fill="white"/>
<path d="M199.733 106.581C199.095 102.362 197.228 99.3764 193.905 97.1717C192.714 96.3907 188.081 94.0764 187.671 94.0764C187.262 94.0764 182.109 92.0193 180.576 91.2193C178.409 90.0955 177.243 89.0526 176.433 87.4098C175.795 86.1383 175.762 85.8431 175.762 83.6002C175.762 80.7431 176.171 79.3812 177.476 77.624C179.233 75.2717 183.638 73.8907 187.3 74.4907C191.814 75.2383 194.443 78.2621 195.548 83.9383L196.024 86.3621H198.19L198.119 85.1336C198.043 84.4574 197.967 81.9955 197.89 79.6431C197.819 77.2145 197.667 75.2383 197.519 75.0859C197.181 74.6764 194.157 73.4812 191.881 72.8479C189.452 72.1764 183.743 72.1002 181.405 72.7336C174.681 74.5288 170.8 79.5288 170.8 86.4764C170.8 91.8907 173.657 96.0336 179.462 98.9479C180.357 99.3955 182.671 100.405 184.652 101.186C191.262 103.838 192.605 104.734 193.909 107.424C194.657 108.953 194.657 109.029 194.657 112.238C194.657 115.095 194.586 115.676 194.133 116.834C192.643 120.567 189.728 122.324 185.024 122.324C177.928 122.324 173.824 118.438 172.814 110.71L172.552 108.657H170.381L170.457 110.334C170.495 111.286 170.605 114.181 170.681 116.834L171.281 119.781C171.538 119.895 171.952 122.1 172.548 122.357C175.362 123.494 178.335 124.188 181.362 124.415C187.857 124.891 191.967 123.776 195.4 120.643C198.052 118.176 199.319 115.491 199.843 111.195C200.081 109.663 200.044 108.101 199.733 106.581Z" fill="white"/>
<path d="M151.3 96.9856C150.443 96.8761 149.81 96.7237 149.919 96.6523C150.58 96.3755 151.27 96.1743 151.976 96.0523C153.806 95.6917 155.545 94.9679 157.09 93.9237C159.705 92.2428 161.01 90.3047 161.643 87.1285C162.223 84.2125 161.843 81.1873 160.562 78.5047C159.105 75.5904 156.343 73.838 152.348 73.1999C151.3 73.0523 146.524 72.938 139.352 72.938H128.038L128.114 73.8904L128.19 74.8428L131.024 74.9189L133.881 74.9951L133.81 98.3285L133.733 121.662L130.971 121.7L128.21 121.738L128.133 122.748L128.057 123.752L140.229 123.681C151.957 123.605 152.476 123.567 154.233 123.081C156.957 122.333 158.862 121.29 160.471 119.686C163.081 117.109 164.129 114.271 164.129 109.828C164.11 101.805 160.224 97.8808 151.3 96.9856ZM140.548 75.0808L143.724 75.0094C145.193 74.9557 146.664 74.9922 148.129 75.1189C152.348 75.7523 155.11 79.6761 155.148 85.1189C155.186 90.357 152.943 94.1666 149.138 95.3856C147.943 95.757 140.995 96.1332 140.733 95.7951C140.624 95.6856 140.548 90.9808 140.548 85.3428V75.0808ZM156.567 113.619C155.71 117.576 153.057 120.286 149.138 121.348C148.238 121.571 146.671 121.681 144.171 121.681H140.51V97.9951H144.505C148.79 97.9951 150.143 98.257 151.976 99.2999C153.81 100.343 155.31 102.252 156.195 104.605C156.938 106.548 157.143 111.1 156.567 113.605V113.619Z" fill="white"/>
<path d="M68.6333 119.524C68.1095 119.152 67.7333 118.743 67.8095 118.571C69.2381 115.509 69.2381 115.438 69.2381 112.414V109.524L68.2857 107.543C65.7857 102.505 60.6333 100.338 54.919 101.943C53.9667 102.205 52.0619 103.286 50.5476 104.448C50.4928 104.509 50.4182 104.55 50.3366 104.563C50.255 104.576 50.1713 104.561 50.1 104.519C49.9143 104.333 50.2905 103.567 51.0524 102.576L51.6524 101.833L50.9524 101.133C50 100.181 49.5238 100.233 48.6381 101.467C48.3875 101.834 48.1123 102.184 47.8143 102.514C47.7762 102.514 46.0238 101.133 43.9667 99.4523C41.9095 97.7713 39.6 95.9047 38.8905 95.3428C38.4135 95.0054 37.9744 94.6175 37.581 94.1856C37.581 94.0761 46.2476 87.0428 47.2191 86.3428C47.5524 86.0856 47.7381 86.1952 48.3 86.9047L48.9714 87.7618L48.1143 88.5094L47.2524 89.2571L47.8905 90.0809L48.5238 90.8999L49.381 90.1904C49.6676 89.9151 49.9875 89.6767 50.3333 89.4809C50.6214 89.732 50.873 90.0221 51.081 90.3428L51.7143 91.1999L50.819 91.9475L49.9238 92.6952L50.5571 93.5142L51.1952 94.338L53.5762 92.3571L55.9571 90.3761L54.8381 89.7428C54.2429 89.4047 53.081 88.7904 52.3 88.3142L50.8429 87.5285L51.5143 86.8951L52.1857 86.2618L54.5 87.5666C55.7714 88.2761 56.8524 88.8761 56.9286 88.8761C56.7932 87.9967 56.5682 87.1335 56.2571 86.2999L55.4714 83.7237L55.9952 83.2475C56.223 83.0451 56.4907 82.8926 56.781 82.7999C56.8905 82.7666 57.3381 83.9237 57.7857 85.3428C58.044 86.2455 58.3621 87.13 58.7381 87.9904C58.9952 88.1428 63.5 84.3713 63.4048 84.0713C63.2405 83.7625 63.0247 83.4839 62.7667 83.2475C62.1714 82.6142 62.2476 82.6142 60.6762 83.7713C60.4905 83.8856 60.1571 83.7332 59.6714 83.1761L58.9619 82.3904L59.8571 81.5713L60.7524 80.7475L60.081 79.9999L59.4095 79.219L58.5714 79.8475C58.2685 80.108 57.9282 80.3215 57.5619 80.4809C57.3381 80.4809 56.3714 79.2142 56.3714 78.9142C56.9782 78.2725 57.6394 77.6846 58.3476 77.1571C60.4762 75.4428 60.5524 75.3285 59.581 73.9475C59.1048 73.238 58.3857 72.938 57.9381 73.1999C57.7524 73.2761 56.0333 74.6951 54.0524 76.2999C43.1905 85.1856 36.9095 90.2666 36.6143 90.3761C36.319 90.4856 36.281 88.2856 36.281 76.2237V61.9618L35.5714 61.6999C35.0496 61.5323 34.4885 61.5323 33.9667 61.6999L33.0667 61.9237V67.2285H30.7667V64.9094H28.6762V67.2904H26.3619V64.9761H24.2857V68.1523C24.2857 70.5761 24.3619 71.2523 24.5857 71.1761C24.7333 71.0999 25.9286 70.6142 27.2333 70.0904C28.0377 69.7286 28.8612 69.4107 29.7 69.138C29.7762 69.138 29.8095 69.5475 29.8095 70.0332V70.9285L27.2333 71.9761L24.6571 73.019L27.2333 74.0285L29.8095 75.038V75.8952C29.8095 76.3713 29.7381 76.7523 29.6238 76.7523C29.05 76.5942 28.4883 76.3953 27.9429 76.1571C27.1238 75.819 25.9667 75.3332 25.3667 75.1094L24.2857 74.6571V81.0428H26.3762V78.7285H28.5714V81.0428H30.6619V78.7285H32.9762V84.6285C32.9762 87.8761 32.9 90.5285 32.8286 90.5285C32.6762 90.5285 30.8857 89.0713 23.4905 83.0571C9.85714 71.9332 10.9762 72.6809 9.78095 74.0952C8.82857 75.219 9 75.6285 11.1667 77.3094C11.868 77.8026 12.5174 78.3658 13.1048 78.9904C13.1429 79.2142 11.9476 80.5571 11.7238 80.5571C11.4021 80.4163 11.111 80.2141 10.8667 79.9618C10.0048 79.2142 9.91429 79.2142 9.22381 80.1094L8.66191 80.819L9.52381 81.5666C10 81.9761 10.381 82.3475 10.381 82.4618C10.2106 82.7968 9.98345 83.0997 9.70952 83.3571L9.04762 84.0666L8.22381 83.4333C7.93195 83.1582 7.58897 82.943 7.21429 82.7999C6.72105 83.1975 6.31431 83.6918 6.01905 84.2523C6.01905 84.4047 10.6905 88.1761 10.781 88.0618C11.1256 87.2064 11.426 86.3338 11.681 85.4475C12.1286 84.019 12.5762 82.8713 12.6857 82.8332C12.9966 82.8826 13.2845 83.0274 13.5095 83.2475L14.1048 83.6951L13.3238 86.1571C13.0209 86.9961 12.7837 87.8574 12.6143 88.7332C13.4157 88.3958 14.1895 87.9962 14.9286 87.538L17.1667 86.2713L17.8381 86.7475C18.2143 87.0094 18.5095 87.3047 18.5095 87.419C18.5095 87.5332 17.4286 88.2047 16.0857 88.9475C14.7429 89.6904 13.7048 90.3761 13.7333 90.4809C13.8048 90.7047 18.1 94.1761 18.3238 94.1761C18.5476 94.1761 19.4476 92.9809 19.4476 92.6809C19.4476 92.5333 19.1095 92.1618 18.6619 91.8618C17.8048 91.2666 17.8048 91.1142 18.7381 90.0333C19.2952 89.3618 19.4095 89.3618 20.2667 90.219L20.9857 90.9523L21.581 90.2428C22.381 89.3332 22.381 89.219 21.5095 88.5713C20.6381 87.9237 20.6095 87.4904 21.4333 86.7047L22.0667 86.1047L26.9238 90.0285C29.6095 92.1952 31.7762 94.0618 31.7762 94.2094C31.7762 94.3571 29.5381 96.2618 26.8095 98.4952L21.8429 102.528L20.8905 101.443C20.0333 100.438 19.8857 100.362 19.3238 100.586C18.9099 100.765 18.5586 101.064 18.3143 101.443C17.981 102.081 17.981 102.114 18.8381 103.162C20.1095 104.69 19.6238 104.914 17.7571 103.638C15.3762 102.033 13.9476 101.586 11.0905 101.548C9.14762 101.509 8.4381 101.619 7.31905 102.024C1.15714 104.3 -1.56667 111.133 1.12857 117.405L1.72857 118.833L0.857143 119.576C0.485073 119.829 0.18876 120.178 0 120.586C0.0681892 120.997 0.22319 121.39 0.454713 121.737C0.686235 122.085 0.988983 122.379 1.34286 122.6C1.98095 122.938 2.05238 122.9 2.8 122.267C3.07806 121.992 3.3999 121.765 3.75238 121.595C4.27637 121.849 4.77675 122.148 5.24762 122.49C7.01129 123.795 9.13992 124.513 11.3333 124.543C13.1619 124.619 13.8333 124.581 15.1429 124.171C16.8716 123.657 18.4439 122.718 19.7159 121.44C20.9879 120.161 21.9189 118.584 22.4238 116.852C22.8333 115.543 22.8714 114.833 22.7952 112.895C22.6857 110.838 22.5714 110.319 21.9381 108.938C21.4143 107.776 21.2667 107.29 21.4619 107.105C21.6571 106.919 21.9381 107.143 22.619 107.928C23.4762 108.938 23.5714 108.971 24.1857 108.786C24.6016 108.609 24.9538 108.31 25.1952 107.928C25.5667 107.29 25.5333 107.257 24.7857 106.357C24.4712 106.026 24.2095 105.649 24.0095 105.238C24.0095 105.128 24.3095 104.79 24.6429 104.528C24.9762 104.267 26.9952 102.624 29.0524 100.943C31.1095 99.2618 32.8619 97.8809 32.9333 97.8809C33.0048 97.8809 33.0476 100.533 33.0476 103.781V109.681L31.5905 109.757L30.1333 109.833V112.148L31.5143 112.257C33.3095 112.409 33.381 112.895 31.7 113.343C28.2286 114.238 24.981 117 23.8095 120.1C22.8973 122.368 22.7575 124.874 23.4116 127.23C24.0658 129.585 25.4774 131.66 27.4286 133.133C28.8899 134.182 30.5386 134.942 32.2857 135.371C33.0333 135.486 33.0333 135.524 33.0333 136.752C33.0333 137.981 33.0667 137.986 33.7762 138.209C34.7857 138.509 34.7286 138.509 35.6476 138.138C36.319 137.909 36.3571 137.838 36.3571 136.752C36.3571 135.448 36.319 135.524 38.7095 134.814C41.2095 134.105 44.2714 131.528 45.3762 129.176C47.0571 125.7 46.8333 121.333 44.8524 118.309C43.3563 115.893 40.991 114.141 38.2429 113.414C36.0429 112.781 35.8905 112.333 37.8714 112.224C39.3667 112.148 39.5905 111.962 39.5905 110.914C39.5905 109.867 39.3667 109.681 37.8714 109.609L36.4905 109.533L36.4143 103.671C36.3762 99.7142 36.4524 97.8475 36.6 97.8809C36.7476 97.9142 38.8429 99.5618 41.2333 101.543L45.6 105.09L45.1238 105.686C43.9667 107.143 43.9286 107.295 44.1714 107.776C44.4089 108.141 44.7371 108.438 45.1238 108.638C45.9095 109.086 45.7571 109.162 47.1762 107.367C47.5143 106.957 47.7 106.89 47.8857 107.067C48.0714 107.243 48 107.667 47.5524 108.676C46.4581 111.007 46.1942 113.642 46.8048 116.143C47.2724 118.167 48.3316 120.007 49.8476 121.428C51.9381 123.557 54.2571 124.524 57.4667 124.524C60.0389 124.594 62.5528 123.75 64.5619 122.143L65.6048 121.319L66.5571 122.143C67.3048 122.776 67.5667 122.924 67.9048 122.738C68.6119 122.291 69.1498 121.62 69.4333 120.833C69.5238 120.324 69.4143 120.1 68.6333 119.524ZM19.9 116.628C19.381 118.605 17.1762 120.7 14.7143 121.557C13.0403 122.081 11.2518 122.119 9.55714 121.667C8.60476 121.409 6.12381 120.024 6.12381 119.762C6.36838 119.425 6.65662 119.123 6.98095 118.862L7.84286 118.095L7.46667 117.271C7.20488 116.782 6.81897 116.37 6.34762 116.076C5.6381 115.743 5.6 115.743 4.91905 116.3C4.64173 116.557 4.31873 116.761 3.96667 116.9C3.62857 116.9 3.10952 115.519 2.84762 113.909C2.0619 109.171 5.79524 104.167 10.0524 104.167C12.4048 104.167 14.1238 105.624 14.1238 107.638C14.1226 108.533 13.7692 109.391 13.1401 110.027C12.511 110.664 11.6566 111.027 10.7619 111.038C10.0773 111.01 9.41564 110.783 8.85819 110.385C8.30074 109.986 7.87173 109.434 7.62381 108.795C7.56069 108.468 7.42027 108.161 7.21429 107.9C6.8544 108.128 6.51786 108.391 6.20952 108.686C5.42381 109.395 5.34762 109.505 5.57143 110.114C5.90434 111.002 6.46131 111.788 7.18813 112.396C7.91495 113.004 8.78687 113.414 9.71905 113.586L10.8762 113.733L10.7238 114.743C10.5 116.171 11.1 117.6 12.3667 118.776C12.7409 119.188 13.2009 119.513 13.7143 119.728C14.1815 119.565 14.612 119.311 14.981 118.981L15.9333 118.233L15.0381 117.786C14.4595 117.454 13.9873 116.964 13.6769 116.374C13.3666 115.784 13.2309 115.117 13.2857 114.452C13.5429 112.7 14.9286 111.595 16.7952 111.595C17.7476 111.595 17.9524 111.709 18.8476 112.605C19.3911 113.103 19.7795 113.748 19.9661 114.462C20.1527 115.175 20.1298 115.928 19.9 116.628ZM36.5667 119.69C38.319 117.038 42.3524 117.971 43.4714 121.257C43.6833 122.227 43.784 123.217 43.7714 124.209C43.82 125.303 43.6363 126.394 43.2324 127.411C42.8286 128.428 42.2138 129.347 41.4286 130.109C40.3476 131.267 38.0667 132.609 36.9476 132.719C36.3857 132.795 36.3524 132.719 36.2381 131.638C36.1238 130.557 36.0905 130.443 35.381 130.257C34.8935 130.11 34.3732 130.11 33.8857 130.257C33.2143 130.481 33.1381 130.595 33.0619 131.528C33.0348 131.943 32.9726 132.354 32.8762 132.757C32.6143 132.981 30.4524 132.124 29.2952 131.328C26.4381 129.352 25.0714 125.543 25.8952 122.033C26.7143 118.633 30.2286 116.952 32.3524 118.971C32.6887 119.296 32.9561 119.684 33.1388 120.114C33.3215 120.544 33.4157 121.007 33.4157 121.474C33.4157 121.941 33.3215 122.403 33.1388 122.833C32.9561 123.263 32.6887 123.652 32.3524 123.976C31.719 124.571 31.4952 124.648 30.2286 124.648C29.6118 124.673 28.9945 124.61 28.3952 124.462C28.0238 124.309 27.9857 124.424 27.9857 125.543V126.814L28.881 127.071C29.7378 127.366 30.658 127.424 31.5452 127.241C32.4324 127.057 33.254 126.638 33.9238 126.028C34.2025 125.757 34.5018 125.507 34.819 125.281C35.0824 125.461 35.31 125.689 35.4905 125.952C36.5 127.109 39 127.709 40.6429 127.109C41.3143 126.886 41.3524 126.814 41.3524 125.581C41.3524 124.462 41.3143 124.348 40.9429 124.495C39.8931 124.872 38.745 124.872 37.6952 124.495C37.3049 124.254 36.9659 123.939 36.6974 123.568C36.4289 123.196 36.2364 122.775 36.1307 122.329C36.025 121.882 36.0083 121.42 36.0814 120.967C36.1546 120.514 36.3162 120.081 36.5571 119.69H36.5667ZM66.0905 116.067L65.5714 117.186L64.6714 116.443C63.6667 115.619 63.2429 115.695 62.3571 116.814C61.6857 117.671 61.7619 118.271 62.619 119.019C63.3667 119.614 63.3667 119.652 62.9571 120.1C62.403 120.559 61.7855 120.936 61.1238 121.219C60.1307 121.68 59.0473 121.914 57.9524 121.905C56.262 122.067 54.5658 121.66 53.1333 120.748C50 118.919 48.6905 115.709 50.0714 113.319C51.081 111.6 52.7619 111.076 54.5524 112.009C55.7476 112.648 56.3095 113.728 56.1571 115.262C56.1334 115.841 55.9452 116.401 55.6146 116.876C55.284 117.352 54.8247 117.724 54.2905 117.948L53.6571 118.209L54.5524 118.957C54.9173 119.295 55.351 119.55 55.8238 119.705C56.3776 119.43 56.8725 119.05 57.281 118.586C58.5476 117.314 59.0333 116.009 58.8095 114.514L58.6619 113.562L59.6143 113.524C60.447 113.462 61.2495 113.185 61.9431 112.72C62.6368 112.255 63.1978 111.618 63.5714 110.871C64.2048 109.676 64.1333 109.443 63.1619 108.633C62.1143 107.776 61.9286 107.738 61.9286 108.486C61.8222 109.002 61.5769 109.479 61.219 109.867C59.8381 111.433 57.8857 111.509 56.3667 109.976C55.1714 108.781 55.019 107.809 55.7286 106.357C56.7381 104.3 59.0619 103.667 61.781 104.676C63.3095 105.233 65.0286 106.99 66 109.005C66.5571 110.2 66.6333 110.576 66.6333 112.667C66.6143 114.538 66.5048 115.133 66.0905 116.067Z" fill="white"/>
</g>
</g>
<defs>
<clipPath id="clip0_1886_10668">
<rect width="200" height="200" fill="white"/>
</clipPath>
<clipPath id="clip1_1886_10668">
<rect width="200" height="200" fill="white"/>
</clipPath>
</defs>
</svg>
