<svg width="200" height="200" viewBox="0 0 200 200" fill="none" xmlns="http://www.w3.org/2000/svg">
<g clip-path="url(#clip0_1886_10665)">
<path d="M132.085 38.7625C122.425 33.76 111.558 31 100 31C88.4425 31 77.575 33.76 67.915 38.7625C46.0075 50.32 31 73.435 31 100C31 126.565 46.0075 149.68 68.0875 161.238C77.575 166.068 88.4425 169 100 169C111.558 169 122.253 166.068 131.912 161.065C153.993 149.68 169 126.565 169 100C169 73.435 153.993 50.32 132.085 38.7625ZM37.9 100C37.9 77.4025 49.975 57.7375 68.0875 46.6975C76.885 41.35 87.0625 38.245 98.275 37.9L90.5125 94.3075L68.0875 111.73L45.3175 129.497C40.66 120.7 37.9 110.695 37.9 100ZM132.085 153.13C122.597 158.823 111.73 162.1 100 162.1C88.27 162.1 77.23 158.823 67.915 153.13C59.4625 148.128 52.5625 141.228 47.3875 132.948L67.915 124.495L100 111.385L132.085 124.323L152.785 132.775C147.61 141.228 140.365 148.128 132.085 153.13ZM132.085 111.73L109.833 94.48L101.897 37.9C112.765 38.245 123.115 41.35 131.912 46.6975C150.025 57.565 162.1 77.4025 162.1 100C162.1 110.695 159.512 120.7 154.682 129.497L132.085 111.73Z" fill="white"/>
</g>
<defs>
<clipPath id="clip0_1886_10665">
<rect width="138" height="138" fill="white" transform="translate(31 31)"/>
</clipPath>
</defs>
</svg>
