<svg width="200" height="200" viewBox="0 0 200 200" fill="none" xmlns="http://www.w3.org/2000/svg">
<g clip-path="url(#clip0_1886_10691)">
<path d="M71.061 110.336L114.234 85.6411" stroke="white" stroke-width="4.25"/>
<path d="M114.234 110.336L71.061 85.6411" stroke="white" stroke-width="4.25"/>
<path d="M4.6731 111.407V84.5693L26.9882 111.407V84.5693" stroke="white" stroke-width="4.25"/>
<path d="M125.23 110.871V84.9551H147.353C160.386 84.9551 160.386 103.262 147.353 103.262H125.359" stroke="white" stroke-width="4.25"/>
<path d="M77.835 78.3098C71.597 72.5006 54.298 73.058 46.9239 84.4192C39.8928 95.2659 48.3387 103.84 54.5981 103.669C58.0922 103.583 58.2851 99.7675 55.1769 98.6528C52.0686 97.5381 39.8285 96.059 36.7417 107.206C33.6549 118.353 45.3805 126.477 56.8703 123.24C60.8575 122.125 62.2508 120.003 62.2508 120.003" stroke="white" stroke-width="4.25"/>
<path d="M160.557 76.8735C192.39 85.1479 196.913 108.663 185.809 118.996C172.69 131.236 149.689 124.248 146.302 108.513C142.915 92.865 153.483 81.0322 196.27 78.8885" stroke="white" stroke-width="4.25"/>
</g>
<defs>
<clipPath id="clip0_1886_10691">
<rect width="200" height="200" fill="white"/>
</clipPath>
</defs>
</svg>
