<svg width="200" height="200" viewBox="0 0 200 200" fill="none" xmlns="http://www.w3.org/2000/svg">
<g clip-path="url(#clip0_1886_10684)">
<g clip-path="url(#clip1_1886_10684)">
<path d="M5.156 87.0001V109.294H16.042V110.4H0V87.0001H5.156ZM119.712 110.4H113.58L105.908 99.0441H103.558V110.4H98.4V87.0001H106.93C115.498 87.0001 117.364 90.4401 117.364 93.0921C117.364 96.4041 113.736 99.0401 107.564 99.0441C108.684 100.076 110.32 100.55 112.518 100.55L119.712 110.4ZM112.216 93.0921C112.216 90.9401 111.288 88.1061 106.154 88.1061H103.554V97.9381C103.554 97.9381 104.458 98.0301 106.13 98.0301C112.4 98.0301 112.216 93.3561 112.216 93.0921ZM194.844 87.0001V97.9361H183.364V87.0001H178.2V110.4H183.356V99.0441H194.836V110.4H200V87.0001H194.844ZM33.75 102.4H23.846L20.932 110.4H19.388L28.2 87.0001H33.242L42.042 110.4H36.588L33.75 102.4ZM24.226 101.292H33.366L28.872 88.5381L24.226 101.292ZM137.122 102.4H127.218L124.304 110.4H122.76L131.56 87.0001H136.602L145.402 110.4H139.96L137.122 102.4ZM127.6 101.288H136.74L132.246 88.5381L127.6 101.288ZM90.826 99.0441V97.9381H80.74V88.1061H91.918V87.0001H75.584V110.4H92.144V109.294H80.744V99.0441H90.826ZM22.568 86.6001C22.1602 86.6001 21.7615 86.721 21.4224 86.9476C21.0833 87.1742 20.819 87.4962 20.663 87.873C20.5069 88.2498 20.4661 88.6644 20.5456 89.0644C20.6252 89.4644 20.8216 89.8318 21.1099 90.1202C21.3983 90.4085 21.7657 90.6049 22.1657 90.6845C22.5657 90.764 22.9803 90.7232 23.3571 90.5671C23.7339 90.4111 24.0559 90.1468 24.2825 89.8077C24.5091 89.4686 24.63 89.0699 24.63 88.6621C24.6295 88.1154 24.4121 87.5912 24.0255 87.2046C23.6389 86.818 23.1147 86.6006 22.568 86.6001ZM38.866 86.6001C38.4582 86.6001 38.0595 86.721 37.7204 86.9476C37.3813 87.1742 37.117 87.4962 36.961 87.873C36.8049 88.2498 36.7641 88.6644 36.8436 89.0644C36.9232 89.4644 37.1196 89.8318 37.4079 90.1202C37.6963 90.4085 38.0637 90.6049 38.4637 90.6845C38.8637 90.764 39.2783 90.7232 39.6551 90.5671C40.0319 90.4111 40.3539 90.1468 40.5805 89.8077C40.8071 89.4686 40.928 89.0699 40.928 88.6621C40.928 88.1152 40.7108 87.5907 40.3241 87.204C39.9374 86.8173 39.4129 86.6001 38.866 86.6001ZM47.546 110.4H56.346C64.816 110.4 69.896 105 69.896 98.2261C69.902 91.5821 64.972 87.0001 54.658 87.0001H47.546V110.4ZM52.702 109.294V88.1061H54.434C60.868 88.1061 64.37 91.1901 64.37 98.4221C64.37 105.328 61.208 109.294 56.09 109.294H52.702ZM171.544 92.5301C170.226 89.8141 166.876 86.6001 160.892 86.6001C153.778 86.6001 148.17 91.1241 148.17 98.9461C148.17 107.03 154.192 110.8 161.042 110.8C167.628 110.8 171.054 107.324 172.296 104.378L167.214 103.266C166.952 106.342 164.882 109.694 161.042 109.694C157.128 109.694 153.778 106.342 153.778 98.3241C153.778 91.0581 157.014 87.6681 160.892 87.6681C164.806 87.6681 166.292 91.2041 166.624 94.2201L171.544 92.5301ZM59 129.508L60.106 128.988C60.276 129.788 60.86 130.4 61.906 130.4C62.788 130.4 63.416 130 63.416 129.264C63.416 128.414 62.586 128.18 61.63 127.882C60.492 127.52 59.186 127.082 59.186 125.606C59.186 124.29 60.228 123.46 61.704 123.46C62.916 123.46 63.968 124.024 64.304 125.128L63.284 125.618C63.1985 125.269 62.9932 124.96 62.7038 124.746C62.4144 124.533 62.0592 124.427 61.7 124.448C60.946 124.448 60.362 124.82 60.362 125.512C60.362 126.362 61.232 126.574 62.21 126.882C63.528 127.308 64.592 127.85 64.592 129.21C64.592 130.624 63.434 131.4 61.87 131.4C60.306 131.4 59.33 130.6 59 129.508ZM74.956 123.63L73.246 129.55H73.224L71.46 123.63H70.482L68.738 129.572H68.716L66.984 123.63H65.836L68.132 131.23H69.238L70.97 125.278H71L72.7 131.23H73.8L76.096 123.63H74.956ZM78.03 131.23H79.146V123.63H78.03V131.23ZM80.934 123.63V124.66H83.4V131.23H84.516V124.66H86.982V123.63H80.934ZM88.684 123.63V124.65H92.6L88.56 130.316V131.23H94.098V130.21H89.864L93.946 124.544V123.63H88.684ZM96.296 123.63V131.23H101.334V130.21H97.412V127.84H100.888V126.85H97.412V124.65H101.344V123.63H96.296ZM104.918 127.254V124.618H106.682C107.002 124.618 108.096 124.618 108.096 125.872C108.096 126.956 107.278 127.254 106.438 127.254H104.918ZM103.8 131.23H104.916V128.2H106.128L108.094 131.24H109.422V131.2L107.32 128.042C108.192 127.842 109.286 127.276 109.286 125.778C109.286 124.428 108.394 123.63 106.788 123.63H103.8V131.23ZM111.656 123.63V131.23H116.44V130.166H112.774V123.63H111.656ZM119.736 128.23H122.18L120.96 124.82L119.736 128.23ZM121.682 123.63L124.434 131.23H123.254L122.542 129.264H119.366L118.674 131.23H117.516L120.258 123.63H121.682ZM131.324 123.63V129.55L127.6 123.63H126.378V131.23H127.484V125.288H127.494L131.226 131.23H132.438V123.63H131.324ZM136.15 130.21V124.65H137.532C139.064 124.65 139.85 125.702 139.85 127.436C139.85 129.136 139.084 130.21 137.532 130.21H136.15ZM135.034 131.23H137.47C139.744 131.23 140.998 129.7 140.998 127.414C140.998 125.256 139.882 123.63 137.47 123.63H135.036L135.034 131.23Z" fill="white"/>
</g>
</g>
<defs>
<clipPath id="clip0_1886_10684">
<rect width="200" height="200" fill="white"/>
</clipPath>
<clipPath id="clip1_1886_10684">
<rect width="200" height="44.8" fill="white" transform="translate(0 86.6001)"/>
</clipPath>
</defs>
</svg>
