<svg width="200" height="200" viewBox="0 0 200 200" fill="none" xmlns="http://www.w3.org/2000/svg">
<g clip-path="url(#clip0_1886_10686)">
<g clip-path="url(#clip1_1886_10686)">
<path d="M191.629 120.829L196.867 128.652C197.295 129.3 197.848 129.856 198.495 130.286C198.957 130.576 199.477 130.761 200.019 130.829V131.805H191.305V130.829C191.752 130.775 192.19 130.665 192.61 130.5C193.152 130.286 193.262 129.633 192.824 129.071L189.348 123.857L185.324 129.181C184.567 130.052 185.324 130.705 186.195 130.814V131.79H179.781V130.814C180.334 130.741 180.864 130.546 181.334 130.245C181.804 129.944 182.202 129.543 182.5 129.071L187.933 121.79L183.043 114.619C182.714 114.047 182.238 113.575 181.664 113.25C181.091 112.925 180.44 112.759 179.781 112.771V111.79H188.695V112.771C187.824 112.876 186.314 113.205 186.957 114.4L190 118.967L193.476 114.4C194.238 113.529 193.695 112.876 192.5 112.771V111.79H198.914V112.771C198.096 112.906 197.338 113.284 196.738 113.857M162.61 121.476C162.61 125.605 163.914 130.171 168.043 130.171C172.281 130.171 173.371 125.605 173.281 121.367C173.171 117.343 172.41 113.105 168.043 113.105C163.476 113.105 162.61 117.452 162.61 121.476ZM177.61 121.8C177.5 127.129 173.914 132.233 168.152 132.233C162.281 132.233 158.476 127.562 158.371 121.69C158.262 116.257 162.067 111.038 168.043 111.038C174.019 111.038 177.719 116.367 177.61 121.8ZM152.281 131.69H151.524L138.805 116.929V129.1C138.818 129.376 138.905 129.644 139.059 129.874C139.213 130.104 139.426 130.287 139.676 130.405C140.122 130.637 140.606 130.785 141.105 130.843V131.819H134.238V130.843C134.617 130.8 134.985 130.689 135.324 130.514C135.647 130.43 135.936 130.247 136.151 129.991C136.366 129.735 136.496 129.419 136.524 129.086V114.633C136.086 113.652 134.89 112.676 133.805 112.676V111.695H139.043L150.238 124.848V114.414C150.238 113.329 148.81 112.676 147.952 112.676V111.695H154.762V112.676C153.333 112.786 152.262 113.11 152.262 114.305V131.695L152.281 131.69ZM126.524 129.081C126.524 129.733 126.848 130.062 127.5 130.386C127.917 130.58 128.355 130.727 128.805 130.824V131.8H120.543V130.824C121.059 130.707 121.567 130.56 122.067 130.386C122.61 130.062 123.043 129.843 123.043 129.081V114.286C123.043 113.2 121.614 112.767 120.543 112.657V111.676H128.805V112.657C127.61 112.871 126.524 113.09 126.524 114.395V129.067V129.081ZM105.762 113.648C105.543 113.648 104.781 113.757 103.586 113.867V122.438H107.067C109.567 122.219 110.652 120.914 110.652 117.871C110.762 114.062 108.476 113.633 105.762 113.633M116.524 131.676H111.524L107.176 124.176H103.695V129.067C103.695 129.829 104.238 130.495 106.195 130.7L106.305 131.676H97.8238V130.7C98.349 130.697 98.8678 130.585 99.3476 130.371C99.6349 130.259 99.8815 130.062 100.056 129.807C100.23 129.553 100.323 129.251 100.324 128.943V114.633C100.324 113.329 98.8952 112.786 97.6095 112.676V111.695H107.281C110.652 111.695 114.781 113.981 114.781 117.786C114.781 119.738 113.914 122.676 110.652 123.652L114.024 129.086C114.292 129.541 114.672 129.92 115.128 130.187C115.584 130.453 116.1 130.599 116.629 130.61L116.524 131.676ZM78.4762 121.567C78.3714 125.7 79.781 130.267 83.8048 130.267C88.0429 130.267 89.1286 125.7 89.0429 121.462C88.9333 117.438 88.281 113.2 83.8048 113.2C79.3286 113.2 78.5667 117.438 78.4762 121.567ZM93.4762 121.895C93.3714 127.219 89.781 132.329 84.0238 132.329C78.1524 132.329 74.3476 127.657 74.2381 121.786C74.1286 116.352 77.9333 111.133 83.9143 111.133C89.8952 111.133 93.5857 116.371 93.4762 121.895ZM65.1095 113.762V129C65.1234 129.363 65.26 129.711 65.4969 129.987C65.7338 130.263 66.0572 130.45 66.4143 130.519C66.8767 130.682 67.3559 130.792 67.8429 130.848V131.824H59.3667V130.848C59.8514 130.779 60.3293 130.669 60.7952 130.519C61.1182 130.421 61.3997 130.218 61.596 129.944C61.7923 129.669 61.8925 129.337 61.881 129L61.7714 113.89H59.0476C57.4143 113.89 56.981 114.543 56.6667 115.319C56.4552 115.912 56.3457 116.537 56.3429 117.167H55.1476V111.905H71.7762V117.143H70.581C70.498 116.442 70.353 115.751 70.1476 115.076C69.9959 114.745 69.7503 114.466 69.4414 114.273C69.1324 114.08 68.7737 113.982 68.4095 113.99H65.1476L65.1095 113.762ZM51.5238 111.695L51.6286 117.133H50.5429C50.219 116.262 50 115.176 49.4571 114.524C48.6952 113.543 47.719 113.219 46.0857 113.219C40.8476 113.219 40.4333 118.457 40.4333 121.695C40.4333 125.067 41.0857 130.39 46.5238 130.267C48.1524 130.267 50.6524 129.286 52.3905 127.114L52.6095 126.895L53.6952 127.767L53.5857 127.871C52.8056 129.236 51.6844 130.374 50.3321 131.174C48.9798 131.975 47.4427 132.41 45.8714 132.438C39.4571 132.438 36.1952 126.676 36.1952 122.005C36.1952 118.09 38.5762 111.462 44.7667 111.462C46.7457 111.415 48.7001 111.909 50.419 112.89L50.6381 112.024H51.5095L51.5238 111.695ZM30.0952 129.086C30.0952 129.738 30.419 130.067 31.0714 130.39C31.4887 130.585 31.9263 130.731 32.3762 130.829V131.805H24.1286V130.829C24.5667 130.719 25.3238 130.5 25.6524 130.39C26.1952 130.067 26.6286 129.848 26.6286 129.086V114.286C26.6286 113.2 25.2 112.767 24.1286 112.657V111.676H32.381V112.657C31.1857 112.871 30.1 113.09 30.1 114.395L30.0952 129.086ZM11.181 126.805L15.7619 114.286C16.0857 113.414 15.7619 112.857 14.1286 112.657V111.567H20.9762V112.657C19.781 112.767 18.8048 112.981 18.2619 114.505L11.5238 132.457H10L2.38095 114.414C2.19861 113.932 1.87249 113.517 1.44667 113.225C1.02085 112.934 0.515875 112.781 0 112.786V111.695H8.04286V112.786C6.61429 112.89 6.41429 113.652 6.52381 114.086L11.1952 126.805H11.181Z" fill="white"/>
<path d="M99.9999 95.6095C105.652 89.738 111.195 86.1523 118.805 83.3285C117.271 78.5103 116.469 73.4894 116.424 68.4333C116.456 63.1549 117.3 57.9128 118.924 52.8904C117.729 52.238 115.229 51.0428 112.619 49.6333C109.357 47.8904 106.533 46.6952 105.119 46.3714C103.052 45.9333 101.309 46.5856 100.357 48.219L100.033 48.5428L99.8142 48.1094C99.3089 47.3469 98.5797 46.7598 97.7269 46.429C96.8741 46.0981 95.9397 46.0397 95.0523 46.2618C93.6237 46.5856 90.8142 47.7856 87.6618 49.5237C84.9428 50.9523 82.5523 52.238 81.3571 52.7856C82.8889 57.8622 83.6906 63.1309 83.738 68.4333C83.738 73.1095 82.8666 77.8904 81.238 83.3285C90.6523 86.8047 95.7618 91.2618 99.9999 95.6095ZM89.8904 51.9047C92.0666 50.819 94.3476 49.7285 95.5428 49.5237C97.8237 49.0856 99.5666 50.9523 99.8904 52.0237L99.9999 52.238L100.109 52.0237C100.324 50.9333 102.176 49.0856 104.457 49.5237C105.652 49.738 107.933 50.8285 110.109 51.9047C112.286 52.9809 114.348 54.0761 115.219 54.5142C113.9 58.6978 113.24 63.0611 113.262 67.4475H110V65.1666H102.933V58.0952H96.7428V65.1618H89.6761V67.4428H86.6285C86.6496 63.0567 85.991 58.6939 84.6761 54.5095C85.6523 54.0856 87.719 52.9999 89.8904 51.9047ZM86.6285 69.0761H89.6761V71.3618H96.738V78.4237H102.929V71.3714H110V69.0856H113.262C113.262 69.3047 113.371 71.6952 113.695 74.1952C114.023 76.6924 114.532 79.1624 115.219 81.5856C109.457 83.5428 104.238 87.3475 99.9809 91.3714C95.7428 87.3475 90.5238 83.5428 84.7428 81.5856C85.8834 77.5124 86.5167 73.314 86.6285 69.0856V69.0761Z" fill="white"/>
</g>
</g>
<defs>
<clipPath id="clip0_1886_10686">
<rect width="200" height="200" fill="white"/>
</clipPath>
<clipPath id="clip1_1886_10686">
<rect width="200" height="200" fill="white"/>
</clipPath>
</defs>
</svg>
