<svg width="200" height="200" viewBox="0 0 200 200" fill="none" xmlns="http://www.w3.org/2000/svg">
<g clip-path="url(#clip0_1886_10677)">
<g clip-path="url(#clip1_1886_10677)">
<path d="M82.0195 73V127H0V73H82.0195ZM19.4004 86.9316C12.8621 86.9316 9.66428 89.7758 9.66406 94.3115C9.66406 98.4154 11.8914 100.828 15.7354 101.836L18.6816 102.592C21.0884 103.24 22.1307 103.924 22.1309 105.436C22.1309 107.668 20.6215 108.064 16.957 108.064C15.3045 108.064 12.3948 107.812 11.3887 107.74C10.3469 107.668 10.0597 107.776 9.91602 108.676L9.44824 111.736C9.37656 112.348 9.66418 112.564 10.167 112.636C11.3166 112.78 14.2271 112.996 17.0293 112.996C23.352 112.996 27.9502 110.944 27.9502 105.04C27.9502 101.584 26.4415 98.992 21.1963 97.624L18.25 96.8682C16.2744 96.3642 15.3409 95.716 15.3408 94.2402C15.3408 92.1522 17.2449 91.792 19.0771 91.792C21.5556 91.792 24.034 92.0081 25.04 92.0801C26.0819 92.1521 26.37 92.0436 26.5137 91.1436L26.9805 88.1562C27.0523 87.5442 26.7647 87.3279 26.2617 87.2559C25.148 87.1119 22.5975 86.9317 19.4004 86.9316ZM32.4053 87.1836C31.615 87.1836 31.3633 87.4719 31.3633 88.2637V111.7C31.3633 112.492 31.615 112.78 32.4053 112.78H36.0693C36.8596 112.78 37.1113 112.492 37.1113 111.7V91.9355H40.8838C43.2549 91.9356 44.4043 92.8002 44.4043 95.0322C44.4042 97.048 43.5063 97.6958 42.5723 98.0918C41.4226 98.5598 41.0272 98.0564 40.668 99.5684L40.2734 101.26C40.1657 101.728 40.0938 101.98 40.0938 102.124C40.0938 102.52 40.2011 102.844 40.4883 103.312L45.2305 111.844C45.6257 112.528 45.9497 112.816 46.8838 112.816H51.2305C51.7694 112.816 52.4515 112.456 51.8408 111.448L45.9854 101.8C47.9253 100.576 50.1172 98.8119 50.1172 94.96C50.1172 89.992 47.3505 87.1836 41.2432 87.1836H32.4053ZM56.4756 87.1836C55.6854 87.1836 55.4337 87.4719 55.4336 88.2637V111.7C55.4336 112.492 55.6853 112.78 56.4756 112.78H60.1396C60.93 112.78 61.1464 112.492 61.1465 111.7V102.484H70.5947C71.3849 102.484 71.6367 102.196 71.6367 101.404V98.5957C71.6367 97.804 71.3849 97.5157 70.5947 97.5156H61.1465V92.1162H71.5645C72.3548 92.1162 72.6064 91.828 72.6064 91.0361V88.2637C72.6064 87.4719 72.3547 87.1836 71.5645 87.1836H56.4756Z" fill="white"/>
<path d="M107.131 87.2202V98.7042H108.532V92.3682C108.568 92.3682 108.64 92.3322 108.748 92.2602C108.856 92.1882 108.999 92.1522 109.179 92.0802C109.359 92.0082 109.574 91.9362 109.826 91.9002C110.077 91.8642 110.365 91.8282 110.652 91.8282C111.227 91.8282 111.586 91.9722 111.802 92.2602C111.981 92.5482 112.089 92.9082 112.089 93.4122V98.7402H113.49V92.9802C113.49 92.1162 113.275 91.5042 112.843 91.1082C112.412 90.7122 111.766 90.5322 110.975 90.5322C110.652 90.5322 110.329 90.5682 110.041 90.6042C109.754 90.6762 109.502 90.7122 109.287 90.7842C109.071 90.8562 108.892 90.9282 108.748 91.0002C108.604 91.0722 108.532 91.1082 108.496 91.1442V87.2202H107.131ZM185.809 87.2202V90.7842C185.773 90.7842 185.737 90.7482 185.63 90.7122C185.522 90.6762 185.378 90.6402 185.198 90.6402C185.019 90.6042 184.839 90.5682 184.66 90.5682C184.444 90.5322 184.228 90.5322 184.013 90.5322C182.791 90.5322 181.929 90.8922 181.318 91.5402C180.708 92.2242 180.42 93.3042 180.42 94.7442C180.42 96.1842 180.708 97.2642 181.282 97.9122C181.857 98.5602 182.684 98.9202 183.725 98.9202C184.013 98.9202 184.3 98.8842 184.552 98.8122C184.803 98.7402 185.019 98.6682 185.198 98.5962C185.378 98.5242 185.522 98.4522 185.665 98.3442C185.773 98.2722 185.881 98.2002 185.917 98.1642L186.025 98.7042H187.174V87.2202H185.809ZM135.764 87.6522V89.2362H137.345V87.6522H135.764ZM189.402 87.6522V89.2362H190.947V87.6522H189.402ZM95.096 87.7962C93.8386 87.7962 92.9045 88.0482 92.3297 88.5882C91.7549 89.1282 91.4675 89.8842 91.4675 90.8202C91.4675 91.6482 91.6831 92.3322 92.0782 92.8002C92.4734 93.3042 93.0842 93.6282 93.8745 93.8082L95.096 94.0962C95.4194 94.1682 95.6708 94.2402 95.8864 94.3122C96.102 94.3842 96.3175 94.4922 96.4612 94.6362C96.6049 94.7802 96.7127 94.9242 96.7846 95.1402C96.8564 95.3202 96.8923 95.5722 96.8923 95.8602C96.8923 96.1842 96.8564 96.4722 96.7486 96.6882C96.6768 96.9042 96.5331 97.1202 96.3175 97.2282C96.102 97.3722 95.8505 97.4802 95.5271 97.5162C95.2038 97.5882 94.8086 97.5882 94.3416 97.5882C94.126 97.5882 93.8745 97.5882 93.5512 97.5522C93.2638 97.5162 92.9405 97.4802 92.689 97.4442C92.4016 97.4082 92.1501 97.3722 91.9345 97.3362C91.719 97.3002 91.5753 97.2642 91.5034 97.2282L91.252 98.4522C91.2879 98.4522 91.3597 98.4882 91.5394 98.5242C91.719 98.5602 91.9346 98.5962 92.222 98.6682C92.5094 98.7402 92.8686 98.7762 93.2638 98.8122C93.659 98.8482 94.0901 98.8842 94.5931 98.8842C95.1679 98.8842 95.6709 98.8122 96.1379 98.7042C96.6049 98.5962 97.0001 98.4162 97.3234 98.1642C97.6468 97.9122 97.8983 97.5882 98.0779 97.1922C98.2575 96.7962 98.3653 96.3282 98.3653 95.7522C98.3653 94.9602 98.1857 94.3122 97.7905 93.8082C97.3953 93.3042 96.7486 92.9442 95.8146 92.7282L94.4494 92.4402C93.9464 92.3322 93.5153 92.1522 93.2638 91.9002C92.9764 91.6482 92.8327 91.2522 92.8327 90.7122C92.8327 90.3522 92.9045 90.1002 93.0123 89.8842C93.1201 89.6682 93.2638 89.4882 93.4794 89.3802C93.659 89.2722 93.9105 89.1642 94.162 89.1282C94.4134 89.0922 94.7008 89.0562 95.0242 89.0562C95.3475 89.0562 95.6349 89.0562 95.9583 89.0922C96.2816 89.1282 96.5331 89.1642 96.7846 89.2002C97.036 89.2362 97.2516 89.2722 97.4312 89.3082C97.6109 89.3442 97.7186 89.3802 97.7905 89.3802L98.006 88.1922C97.9342 88.1562 97.8264 88.1562 97.6109 88.0842C97.4312 88.0482 97.2157 87.9762 96.9283 87.9402C96.6768 87.9042 96.3894 87.8682 96.066 87.8322C95.7786 87.8322 95.4553 87.7962 95.096 87.7962ZM163.93 88.0482V98.7402H165.403V89.2722H167.271C168.062 89.2722 168.637 89.4162 168.924 89.6682C169.211 89.9562 169.391 90.3882 169.391 91.0002C169.391 91.3962 169.319 91.6842 169.175 91.9002C169.032 92.1162 168.852 92.2962 168.601 92.4402C168.349 92.5842 168.026 92.6562 167.667 92.7282C167.307 92.7642 166.912 92.8002 166.445 92.8362L166.194 93.8802L169.786 98.6682H171.618L167.882 93.7722C168.241 93.7362 168.601 93.6282 168.96 93.5202C169.319 93.4122 169.642 93.2682 169.93 93.0522C170.217 92.8362 170.433 92.5842 170.612 92.2242C170.792 91.9002 170.864 91.4682 170.864 90.9282C170.864 89.9922 170.612 89.3082 170.11 88.7682C169.607 88.2282 168.78 87.9762 167.631 87.9762H163.93V88.0482ZM130.627 90.4962C129.477 90.4962 128.615 90.8202 128.04 91.5042C127.465 92.1882 127.178 93.2322 127.178 94.6722C127.178 95.4282 127.25 96.1122 127.394 96.6162C127.537 97.1562 127.753 97.5882 128.076 97.9122C128.364 98.2362 128.759 98.4882 129.226 98.6322C129.693 98.7762 130.232 98.8482 130.842 98.8482C131.202 98.8482 131.525 98.8122 131.812 98.7762C132.1 98.7402 132.387 98.7042 132.603 98.6682C132.854 98.6322 133.034 98.5962 133.178 98.5602C133.321 98.5242 133.429 98.4882 133.465 98.4882L133.573 97.2642C133.537 97.2642 133.429 97.3002 133.285 97.3362C133.106 97.3722 132.926 97.4082 132.675 97.4442C132.459 97.4802 132.208 97.5162 131.956 97.5162C131.705 97.5522 131.417 97.5522 131.166 97.5522C130.735 97.5522 130.375 97.5162 130.088 97.4802C129.765 97.4082 129.477 97.3002 129.298 97.1202C129.082 96.9402 128.902 96.7242 128.795 96.4002C128.687 96.1122 128.615 95.6802 128.579 95.1762H133.968V94.3122C133.968 92.9082 133.681 91.9362 133.106 91.3242C132.603 90.8202 131.741 90.4962 130.627 90.4962ZM149.919 90.4962C148.769 90.4962 147.907 90.8202 147.332 91.5042C146.758 92.1882 146.47 93.2322 146.47 94.6722C146.47 95.4282 146.542 96.1122 146.722 96.6162C146.865 97.1562 147.081 97.5882 147.404 97.9122C147.692 98.2362 148.087 98.4882 148.554 98.6322C149.021 98.7762 149.56 98.8482 150.171 98.8482C150.53 98.8482 150.817 98.8122 151.141 98.7762C151.428 98.7402 151.715 98.7042 151.931 98.6682C152.182 98.6322 152.362 98.5962 152.506 98.5602C152.649 98.5242 152.757 98.4882 152.793 98.4882L152.901 97.2642C152.865 97.2642 152.757 97.3002 152.614 97.3362C152.434 97.3722 152.254 97.4082 152.039 97.4442C151.823 97.4802 151.572 97.5162 151.32 97.5162C151.069 97.5522 150.781 97.5522 150.53 97.5522C150.099 97.5522 149.739 97.5162 149.416 97.4802C149.093 97.4082 148.841 97.3002 148.626 97.1202C148.41 96.9402 148.231 96.7242 148.123 96.4002C148.015 96.1122 147.943 95.6802 147.907 95.1762H153.296V94.3122C153.296 92.9082 153.009 91.9362 152.47 91.3242C151.895 90.8202 151.069 90.4962 149.919 90.4962ZM175.786 90.4962C175.462 90.4962 175.103 90.5322 174.78 90.5682C174.457 90.6042 174.169 90.6402 173.918 90.7122C173.666 90.7482 173.451 90.8202 173.307 90.8562C173.127 90.8922 173.02 90.9282 173.02 90.9282L172.948 92.0802C172.984 92.0802 173.091 92.0442 173.235 92.0082C173.379 91.9722 173.558 91.9362 173.774 91.9002C173.99 91.8642 174.241 91.8282 174.492 91.7922C174.744 91.7562 175.031 91.7202 175.283 91.7202C175.714 91.7202 176.037 91.7562 176.289 91.8282C176.54 91.9002 176.756 92.0082 176.9 92.1162C177.043 92.2602 177.151 92.4042 177.187 92.6202C177.223 92.8002 177.259 93.0162 177.259 93.2682V93.8802C177.223 93.8802 177.187 93.8802 177.043 93.8442C176.9 93.8082 176.756 93.8082 176.576 93.7722C176.397 93.7362 176.181 93.7362 175.93 93.7002C175.714 93.6642 175.498 93.6642 175.283 93.6642C174.313 93.6642 173.558 93.8802 173.055 94.2762C172.552 94.6722 172.337 95.3562 172.337 96.3282C172.337 96.8322 172.409 97.2282 172.552 97.5522C172.696 97.8762 172.876 98.1282 173.127 98.3082C173.379 98.4882 173.63 98.6322 173.954 98.7042C174.277 98.7762 174.6 98.8122 174.924 98.8122C175.283 98.8122 175.57 98.7762 175.858 98.7402C176.145 98.6682 176.361 98.5962 176.576 98.5242C176.792 98.4522 176.935 98.3802 177.079 98.2722C177.223 98.2002 177.331 98.1282 177.367 98.0922L177.474 98.6322H178.588V93.0522C178.588 92.1522 178.337 91.5042 177.834 91.1082C177.402 90.7122 176.684 90.4962 175.786 90.4962ZM196.407 90.4962C195.833 90.4962 195.365 90.5682 194.898 90.7122C194.431 90.8562 194.072 91.0722 193.749 91.3962C193.425 91.7202 193.21 92.1522 193.03 92.6922C192.851 93.2322 192.779 93.9162 192.779 94.7082C192.779 95.5002 192.851 96.1482 193.03 96.6882C193.174 97.2282 193.425 97.6602 193.749 97.9842C194.072 98.3082 194.431 98.5602 194.898 98.7042C195.33 98.8482 195.833 98.9202 196.407 98.9202C196.982 98.9202 197.485 98.8482 197.916 98.7042C198.347 98.5602 198.743 98.3082 199.066 97.9842C199.389 97.6602 199.605 97.2282 199.784 96.6882C199.964 96.1482 200.036 95.5002 200.036 94.7082C200.036 93.9162 199.964 93.2322 199.784 92.6922C199.605 92.1522 199.389 91.7202 199.066 91.3962C198.743 91.0722 198.383 90.8562 197.916 90.7122C197.449 90.5682 196.946 90.4962 196.407 90.4962ZM158.398 90.5322C158.182 90.5322 157.931 90.5682 157.715 90.6042C157.499 90.6762 157.284 90.7482 157.104 90.8562C156.925 90.9642 156.781 91.0362 156.637 91.1442C156.494 91.2522 156.386 91.3242 156.314 91.3962L156.242 90.6762H155.092V98.6682H156.494V92.4042C156.529 92.3682 156.565 92.3322 156.673 92.2602C156.781 92.1882 156.925 92.1162 157.068 92.0442C157.248 91.9722 157.428 91.9002 157.643 91.8642C157.859 91.7922 158.074 91.7922 158.326 91.7922C158.577 91.7922 158.793 91.7922 158.972 91.8282C159.116 91.8642 159.224 91.9002 159.296 91.9002L159.547 90.6402C159.511 90.6042 159.368 90.5682 159.188 90.5322C158.972 90.5682 158.721 90.5322 158.398 90.5322ZM103.539 90.5682C102.892 90.5682 102.353 90.6402 101.886 90.7842C101.419 90.9282 101.06 91.1802 100.736 91.5042C100.449 91.8282 100.198 92.2602 100.054 92.8002C99.9101 93.3402 99.8383 93.9522 99.8383 94.7082C99.8383 95.4642 99.9101 96.1122 100.054 96.6162C100.198 97.1562 100.413 97.5882 100.736 97.9122C101.024 98.2362 101.419 98.4882 101.85 98.6322C102.317 98.7762 102.856 98.8482 103.467 98.8482C104.113 98.8482 104.58 98.8122 104.904 98.7402C105.227 98.6682 105.407 98.6322 105.479 98.6322L105.586 97.4082C105.55 97.4082 105.479 97.4082 105.371 97.4442C105.263 97.4802 105.119 97.4802 104.976 97.5162C104.832 97.5522 104.652 97.5522 104.437 97.5882C104.257 97.6242 104.078 97.6242 103.898 97.6242C103.467 97.6242 103.072 97.5882 102.748 97.5162C102.425 97.4442 102.138 97.3362 101.922 97.1202C101.706 96.9042 101.527 96.6162 101.419 96.2562C101.311 95.8602 101.275 95.3562 101.275 94.7442C101.275 94.0962 101.311 93.5922 101.419 93.2322C101.527 92.8362 101.67 92.5482 101.886 92.3682C102.066 92.1522 102.317 92.0442 102.605 91.9722C102.892 91.9002 103.179 91.9002 103.503 91.9002C103.718 91.9002 103.934 91.9002 104.149 91.9362C104.365 91.9722 104.545 92.0082 104.724 92.0442C104.904 92.0802 105.012 92.1162 105.119 92.1522C105.227 92.1882 105.299 92.2242 105.335 92.2242L105.622 91.0722C105.586 91.0722 105.515 91.0362 105.407 91.0002C105.299 90.9642 105.155 90.9282 104.976 90.8562C104.796 90.8202 104.58 90.7842 104.329 90.7482C104.149 90.6042 103.862 90.5682 103.539 90.5682ZM114.712 90.7122L117.226 98.7042H118.771L120.496 92.5842L122.184 98.7042H123.729L126.208 90.7122H124.735L122.975 97.2642L121.178 90.7122H119.777L117.981 97.1202L116.221 90.7122H114.712ZM135.836 90.7122V98.7042H137.237V90.7122H135.836ZM139.069 90.7122V91.8642H143.776L138.926 97.6602V98.7402H145.464L145.644 97.5882H140.578L145.428 91.7922L145.321 90.7122H139.069ZM189.51 90.7122V98.7042H190.911V90.7122H189.51ZM130.627 91.6482C130.986 91.6482 131.274 91.6842 131.525 91.7562C131.776 91.8282 131.956 91.9722 132.136 92.1522C132.279 92.3322 132.423 92.5842 132.495 92.9082C132.567 93.2322 132.603 93.6282 132.603 94.0602H128.651C128.651 93.5922 128.723 93.2322 128.795 92.9082C128.866 92.5842 129.01 92.3322 129.154 92.1522C129.298 91.9722 129.513 91.8282 129.765 91.7202C129.98 91.7202 130.268 91.6482 130.627 91.6482ZM149.919 91.6482C150.278 91.6482 150.566 91.6842 150.817 91.7562C151.069 91.8282 151.248 91.9722 151.428 92.1522C151.572 92.3322 151.715 92.5842 151.787 92.9082C151.859 93.2322 151.895 93.6282 151.895 94.0602H147.943C147.943 93.5922 148.015 93.2322 148.087 92.9082C148.159 92.5842 148.302 92.3322 148.446 92.1522C148.59 91.9722 148.805 91.8282 149.057 91.7202C149.272 91.7202 149.596 91.6482 149.919 91.6482ZM196.407 91.7202C196.767 91.7202 197.09 91.7562 197.377 91.8642C197.665 91.9722 197.88 92.1162 198.06 92.3322C198.24 92.5482 198.383 92.8722 198.455 93.2682C198.527 93.6642 198.563 94.1322 198.563 94.7442C198.563 95.3562 198.527 95.8242 198.455 96.1842C198.383 96.5802 198.24 96.8682 198.06 97.0842C197.88 97.3002 197.665 97.4802 197.377 97.5522C197.09 97.6602 196.767 97.6962 196.407 97.6962C196.012 97.6962 195.725 97.6602 195.437 97.5522C195.186 97.4442 194.934 97.3002 194.791 97.0842C194.611 96.8682 194.467 96.5442 194.395 96.1842C194.324 95.7882 194.288 95.3202 194.288 94.7442C194.288 94.1682 194.324 93.6642 194.395 93.2682C194.467 92.8722 194.611 92.5842 194.791 92.3322C194.97 92.1162 195.186 91.9362 195.437 91.8642C195.689 91.7562 196.012 91.7202 196.407 91.7202ZM184.049 91.7562C184.516 91.7562 184.911 91.7922 185.234 91.8282C185.558 91.9002 185.737 91.9362 185.773 91.9362V97.1922C185.737 97.2282 185.701 97.2282 185.594 97.3002C185.486 97.3362 185.378 97.4082 185.198 97.4442C185.055 97.4802 184.839 97.5522 184.66 97.5882C184.444 97.6242 184.228 97.6602 184.013 97.6602C183.654 97.6602 183.33 97.6242 183.079 97.5162C182.827 97.4082 182.576 97.2642 182.432 97.0482C182.252 96.8322 182.145 96.5442 182.037 96.1482C181.965 95.7882 181.893 95.2842 181.893 94.7082C181.893 94.1322 181.929 93.6642 182.037 93.2682C182.109 92.8722 182.252 92.5842 182.432 92.3322C182.612 92.1162 182.827 91.9362 183.115 91.8642C183.366 91.7922 183.69 91.7562 184.049 91.7562ZM175.462 94.8522C175.678 94.8522 175.894 94.8522 176.109 94.8882C176.325 94.9242 176.504 94.9242 176.648 94.9242C176.828 94.9242 176.935 94.9602 177.079 94.9602C177.187 94.9602 177.259 94.9962 177.259 94.9962V97.3002C177.223 97.3362 177.151 97.3722 177.043 97.4082C176.935 97.4442 176.792 97.5162 176.612 97.5522C176.432 97.5882 176.253 97.6602 176.037 97.6962C175.822 97.7322 175.606 97.7322 175.391 97.7322C175.139 97.7322 174.924 97.7322 174.708 97.6962C174.492 97.6602 174.313 97.5882 174.169 97.5162C174.025 97.4082 173.882 97.2642 173.81 97.0842C173.738 96.9042 173.702 96.6882 173.702 96.4002C173.702 95.7882 173.846 95.3562 174.133 95.1762C174.385 94.9242 174.852 94.8522 175.462 94.8522ZM113.742 101.296V104.86C113.706 104.86 113.67 104.824 113.526 104.788C113.418 104.752 113.275 104.752 113.131 104.716C112.987 104.68 112.772 104.644 112.592 104.644C112.376 104.608 112.161 104.608 111.945 104.608C110.76 104.608 109.826 104.932 109.251 105.616C108.64 106.3 108.353 107.38 108.353 108.82C108.353 110.26 108.64 111.304 109.215 111.988C109.79 112.636 110.616 112.996 111.658 112.996C111.945 112.996 112.233 112.96 112.484 112.924C112.736 112.852 112.951 112.78 113.131 112.708C113.311 112.636 113.49 112.528 113.598 112.456C113.706 112.384 113.778 112.312 113.849 112.312L113.993 112.816H115.143V101.296H113.742ZM166.158 101.296V112.78H167.559V106.444C167.595 106.444 167.667 106.408 167.774 106.336C167.882 106.264 168.026 106.192 168.205 106.12C168.385 106.048 168.601 105.976 168.852 105.94C169.104 105.904 169.391 105.868 169.678 105.868C170.253 105.868 170.612 106.012 170.828 106.3C171.008 106.588 171.115 106.984 171.115 107.452V112.78H172.517V107.02C172.517 106.192 172.301 105.58 171.87 105.184C171.439 104.788 170.792 104.608 170.002 104.608C169.678 104.608 169.355 104.644 169.068 104.68C168.78 104.716 168.529 104.788 168.313 104.86C168.098 104.932 167.918 105.004 167.774 105.076C167.631 105.148 167.559 105.184 167.523 105.184V101.296H166.158ZM120.711 102.124V112.78H122.184V107.848H126.495V106.552H122.184V103.384H126.926V102.088H120.711V102.124ZM104.042 104.608C103.718 104.608 103.395 104.644 103.072 104.716C102.784 104.788 102.497 104.86 102.281 104.932C102.03 105.004 101.85 105.112 101.67 105.184C101.527 105.256 101.419 105.328 101.347 105.364L101.275 104.788H100.126V112.78H101.527V106.444C101.563 106.444 101.635 106.408 101.742 106.336C101.85 106.264 101.994 106.192 102.173 106.12C102.353 106.048 102.569 105.976 102.82 105.94C103.072 105.904 103.359 105.868 103.646 105.868C104.221 105.868 104.58 106.012 104.796 106.3C104.976 106.588 105.083 106.984 105.083 107.452V112.78H106.485V107.02C106.485 106.192 106.269 105.58 105.838 105.184C105.443 104.788 104.832 104.608 104.042 104.608ZM131.345 104.608C130.196 104.608 129.333 104.932 128.759 105.616C128.184 106.3 127.896 107.344 127.896 108.82C127.896 109.576 127.968 110.224 128.148 110.764C128.292 111.304 128.543 111.736 128.831 112.06C129.154 112.384 129.513 112.636 129.98 112.78C130.447 112.924 130.986 112.996 131.597 112.996C131.956 112.996 132.244 112.996 132.567 112.96C132.854 112.924 133.142 112.888 133.357 112.852C133.573 112.816 133.788 112.78 133.932 112.744C134.076 112.708 134.184 112.672 134.219 112.672L134.327 111.448C134.291 111.448 134.184 111.484 134.04 111.52C133.86 111.556 133.681 111.592 133.465 111.628C133.249 111.664 132.998 111.7 132.746 111.736C132.495 111.772 132.244 111.772 131.956 111.772C131.561 111.772 131.166 111.736 130.842 111.7C130.519 111.628 130.268 111.52 130.052 111.34C129.836 111.16 129.693 110.908 129.549 110.62C129.441 110.296 129.369 109.9 129.334 109.432H134.722V108.568C134.722 107.164 134.435 106.192 133.896 105.616C133.321 104.896 132.459 104.608 131.345 104.608ZM146.111 104.608C145.788 104.608 145.464 104.644 145.141 104.716C144.854 104.788 144.566 104.86 144.351 104.932C144.099 105.004 143.919 105.112 143.74 105.184C143.596 105.256 143.488 105.328 143.416 105.364L143.345 104.788H142.195V112.78H143.596V106.444C143.632 106.444 143.704 106.408 143.812 106.336C143.919 106.264 144.063 106.192 144.243 106.12C144.422 106.048 144.638 105.976 144.889 105.94C145.141 105.904 145.428 105.868 145.716 105.868C146.291 105.868 146.65 106.012 146.865 106.3C147.045 106.588 147.153 106.984 147.153 107.452V112.78H148.554V107.02C148.554 106.192 148.338 105.58 147.907 105.184C147.476 104.788 146.901 104.608 146.111 104.608ZM153.045 104.608C152.182 104.644 151.536 104.86 151.105 105.256C150.638 105.688 150.386 106.264 150.386 106.948C150.386 107.596 150.566 108.136 150.925 108.496C151.284 108.856 151.751 109.108 152.326 109.216L153.26 109.396C153.835 109.504 154.23 109.648 154.482 109.828C154.697 110.008 154.841 110.296 154.841 110.692C154.841 111.16 154.697 111.448 154.374 111.592C154.087 111.736 153.584 111.808 152.865 111.808C152.614 111.808 152.362 111.808 152.111 111.772C151.859 111.736 151.608 111.736 151.356 111.7C151.141 111.664 150.925 111.664 150.745 111.628C150.566 111.592 150.458 111.592 150.422 111.592L150.242 112.708C150.278 112.708 150.386 112.744 150.53 112.78C150.674 112.816 150.889 112.852 151.141 112.888C151.392 112.924 151.644 112.96 151.967 112.996C152.29 113.032 152.614 113.032 152.973 113.032C153.979 113.032 154.769 112.852 155.344 112.456C155.919 112.06 156.206 111.448 156.206 110.584C156.206 109.972 156.062 109.432 155.739 109.072C155.416 108.676 154.877 108.424 154.087 108.28L153.081 108.064C152.829 108.028 152.614 107.992 152.434 107.92C152.254 107.848 152.111 107.776 152.039 107.704C151.931 107.596 151.859 107.524 151.823 107.38C151.787 107.236 151.751 107.092 151.751 106.912C151.751 106.696 151.787 106.516 151.859 106.372C151.931 106.228 152.075 106.12 152.218 106.048C152.362 105.976 152.542 105.904 152.757 105.904C152.973 105.868 153.188 105.868 153.404 105.868C153.619 105.868 153.835 105.868 154.087 105.904C154.338 105.94 154.554 105.94 154.769 105.976C154.985 106.012 155.164 106.012 155.308 106.048C155.452 106.084 155.559 106.12 155.595 106.12L155.811 105.004C155.775 105.004 155.667 104.968 155.524 104.932C155.38 104.896 155.2 104.86 154.985 104.824C154.769 104.788 154.518 104.752 154.266 104.752C154.015 104.716 153.727 104.716 153.44 104.716C153.332 104.608 153.188 104.572 153.045 104.608ZM160.984 104.608C159.835 104.608 158.972 104.932 158.398 105.616C157.823 106.3 157.535 107.344 157.535 108.82C157.535 109.576 157.607 110.224 157.787 110.764C157.931 111.304 158.182 111.736 158.469 112.06C158.757 112.384 159.152 112.636 159.619 112.78C160.086 112.924 160.625 112.996 161.236 112.996C161.595 112.996 161.918 112.996 162.206 112.96C162.493 112.924 162.781 112.888 162.996 112.852C163.212 112.816 163.427 112.78 163.571 112.744C163.715 112.708 163.822 112.672 163.858 112.672L163.966 111.448C163.93 111.448 163.858 111.484 163.679 111.52C163.499 111.556 163.319 111.592 163.068 111.628C162.852 111.664 162.601 111.7 162.349 111.736C162.098 111.772 161.811 111.772 161.559 111.772C161.128 111.772 160.769 111.736 160.445 111.7C160.122 111.628 159.871 111.52 159.655 111.34C159.439 111.16 159.296 110.908 159.152 110.62C159.044 110.296 158.972 109.9 158.937 109.432H164.325V108.568C164.325 107.164 164.038 106.192 163.499 105.616C162.96 104.896 162.098 104.608 160.984 104.608ZM177.87 104.608C176.72 104.608 175.858 104.932 175.283 105.616C174.708 106.3 174.421 107.344 174.421 108.82C174.421 109.576 174.492 110.224 174.636 110.764C174.78 111.304 175.031 111.736 175.319 112.06C175.606 112.384 176.001 112.636 176.468 112.78C176.935 112.924 177.474 112.996 178.085 112.996C178.444 112.996 178.768 112.996 179.055 112.96C179.342 112.924 179.63 112.888 179.845 112.852C180.097 112.816 180.277 112.78 180.42 112.744C180.564 112.708 180.672 112.672 180.708 112.672L180.815 111.448C180.78 111.448 180.672 111.484 180.528 111.52C180.348 111.556 180.169 111.592 179.953 111.628C179.738 111.664 179.486 111.7 179.199 111.736C178.947 111.772 178.696 111.772 178.408 111.772C178.013 111.772 177.618 111.736 177.331 111.7C177.007 111.628 176.756 111.52 176.54 111.34C176.325 111.16 176.145 110.908 176.037 110.62C175.93 110.296 175.858 109.9 175.822 109.432H181.211V108.568C181.211 107.164 180.923 106.192 180.384 105.616C179.81 104.896 178.983 104.608 177.87 104.608ZM186.959 104.608C186.635 104.608 186.312 104.644 185.989 104.716C185.701 104.788 185.414 104.86 185.198 104.932C184.947 105.004 184.767 105.112 184.588 105.184C184.444 105.256 184.3 105.328 184.264 105.364L184.192 104.788H183.043V112.78H184.444V106.444C184.48 106.444 184.552 106.408 184.66 106.336C184.767 106.264 184.911 106.192 185.091 106.12C185.27 106.048 185.486 105.976 185.737 105.94C185.989 105.904 186.276 105.868 186.564 105.868C187.138 105.868 187.498 106.012 187.713 106.3C187.893 106.588 188.001 106.984 188.001 107.452V112.78H189.402V107.02C189.402 106.192 189.186 105.58 188.755 105.184C188.36 104.788 187.749 104.608 186.959 104.608ZM139.824 104.608C139.572 104.608 139.357 104.644 139.141 104.716C138.926 104.788 138.746 104.86 138.531 104.932C138.351 105.004 138.171 105.112 138.064 105.22C137.92 105.328 137.812 105.4 137.74 105.472L137.668 104.752H136.519V112.744H137.92V106.516C137.956 106.48 137.992 106.444 138.099 106.372C138.207 106.3 138.351 106.228 138.495 106.156C138.674 106.084 138.854 106.012 139.069 105.976C139.285 105.904 139.501 105.904 139.752 105.904C140.004 105.904 140.219 105.94 140.363 105.976C140.506 106.012 140.614 106.048 140.65 106.048L140.902 104.788C140.866 104.752 140.722 104.716 140.542 104.68C140.399 104.644 140.147 104.608 139.824 104.608ZM91.4675 104.788V110.476C91.4675 111.34 91.6831 111.988 92.1142 112.384C92.5453 112.78 93.156 112.96 93.9464 112.96C94.3057 112.96 94.629 112.924 94.9164 112.852C95.2038 112.78 95.4912 112.708 95.7068 112.6C95.9583 112.528 96.1379 112.42 96.2816 112.348C96.4253 112.276 96.5331 112.204 96.569 112.168L96.6768 112.744H97.8264V104.788H96.4253V111.124C96.3894 111.16 96.3175 111.196 96.2097 111.232C96.102 111.304 95.9583 111.34 95.7786 111.412C95.599 111.484 95.3834 111.556 95.132 111.592C94.8805 111.628 94.5931 111.664 94.3057 111.664C93.7308 111.664 93.3357 111.52 93.156 111.268C92.9764 110.98 92.8686 110.62 92.8686 110.116V104.788H91.4675ZM131.345 105.76C131.705 105.76 131.992 105.796 132.244 105.868C132.495 105.94 132.711 106.084 132.854 106.264C132.998 106.444 133.142 106.696 133.214 107.02C133.285 107.344 133.321 107.74 133.321 108.172H129.369C129.369 107.704 129.441 107.344 129.513 107.02C129.585 106.696 129.729 106.444 129.872 106.264C130.016 106.084 130.232 105.94 130.483 105.832C130.699 105.796 131.022 105.76 131.345 105.76ZM160.984 105.76C161.344 105.76 161.631 105.796 161.882 105.868C162.134 105.94 162.349 106.084 162.493 106.264C162.637 106.444 162.781 106.696 162.852 107.02C162.924 107.344 162.96 107.74 162.96 108.172H159.008C159.008 107.704 159.08 107.344 159.152 107.02C159.224 106.696 159.368 106.444 159.511 106.264C159.655 106.084 159.871 105.94 160.122 105.832C160.338 105.796 160.661 105.76 160.984 105.76ZM177.87 105.76C178.229 105.76 178.516 105.796 178.768 105.868C179.019 105.94 179.199 106.084 179.378 106.264C179.522 106.444 179.666 106.696 179.738 107.02C179.81 107.344 179.845 107.74 179.845 108.172H175.894C175.894 107.704 175.93 107.344 176.037 107.02C176.109 106.696 176.253 106.444 176.397 106.264C176.54 106.084 176.756 105.94 177.007 105.832C177.223 105.796 177.51 105.76 177.87 105.76ZM111.73 105.832H112.017C112.484 105.832 112.879 105.868 113.203 105.904C113.562 105.976 113.706 105.976 113.742 106.012V111.268C113.706 111.304 113.634 111.34 113.526 111.376C113.418 111.412 113.311 111.484 113.131 111.52C112.987 111.556 112.772 111.628 112.592 111.664C112.376 111.7 112.161 111.736 111.945 111.736C111.586 111.736 111.263 111.7 110.975 111.592C110.724 111.484 110.508 111.34 110.329 111.124C110.149 110.908 110.005 110.584 109.933 110.224C109.862 109.864 109.826 109.36 109.826 108.82C109.826 108.244 109.862 107.776 109.933 107.38C110.005 106.984 110.149 106.696 110.329 106.444C110.508 106.228 110.724 106.048 111.011 105.94C111.227 105.904 111.478 105.832 111.73 105.832Z" fill="white"/>
</g>
</g>
<defs>
<clipPath id="clip0_1886_10677">
<rect width="200" height="200" fill="white"/>
</clipPath>
<clipPath id="clip1_1886_10677">
<rect width="200" height="54" fill="white" transform="translate(0 73)"/>
</clipPath>
</defs>
</svg>
