<svg width="200" height="200" viewBox="0 0 200 200" fill="none" xmlns="http://www.w3.org/2000/svg">
<g clip-path="url(#clip0_2579_112)">
<path d="M0.460185 70.2262C3.26446 70.1913 6.13446 70.2181 8.94156 70.217C11.4103 70.216 14.437 70.0957 16.8075 70.5779C18.6768 71.0269 20.8349 71.9573 22.2641 73.2064C26.4181 76.8367 26.6217 83.8756 22.9645 87.9309C20.6572 90.4895 16.8279 91.7891 13.4158 91.9536C12.7636 92.0808 10.9044 92.044 10.1444 92.0436L4.3926 92.0364C4.47634 93.1672 4.4239 94.8974 4.42446 96.0717L4.44527 103.62C3.0967 103.616 1.74812 103.625 0.399738 103.648C0.303136 101.601 0.363422 99.125 0.362886 97.0489L0.361479 85.3006C0.361489 83.8392 0.215709 70.892 0.460185 70.2262ZM19.1103 86.281C20.6445 84.8364 21.4342 83.4702 21.4732 81.3343C21.5317 79.4642 21.1498 77.7786 19.8286 76.3877C17.8423 74.2966 15.3049 73.9763 12.603 73.8673C9.91924 73.7591 7.04296 74.021 4.39969 73.8494C4.51063 78.0898 4.37331 82.3721 4.42612 86.6165C4.43355 87.2126 4.44684 87.8456 4.42818 88.4394C7.9388 88.4195 11.512 88.6146 14.9881 88.1323C16.549 87.9157 17.8326 87.1355 19.1103 86.281Z" fill="white"/>
<path d="M130.717 70.2257C133.492 70.1435 136.63 70.2354 139.448 70.218C142.653 70.315 145.639 69.9583 148.82 70.588C156.455 72.0991 159.813 80.3303 154.911 86.5417C153.686 88.0949 150.145 89.9942 148.083 90.0945C149.378 91.4665 152.066 95.2558 153.288 96.8851C154.638 98.686 157.083 101.732 158.218 103.558C157.009 103.661 154.78 103.633 153.572 103.579C152.439 102.389 151.371 100.832 150.383 99.4955L146.224 93.9096L143.429 90.167C142.863 89.4216 142.013 88.3793 141.57 87.6017L141.423 87.3567C141.442 87.2134 141.446 87.1021 141.657 87.1036C145.034 87.1225 148.594 87.4697 151.266 84.9327C153.633 82.6852 153.79 78.4657 151.482 76.1284C148.851 73.4628 144.523 73.8525 141.068 73.8612C138.849 73.8777 136.629 73.8782 134.408 73.8626C134.433 75.0183 134.427 76.1987 134.419 77.3558C134.366 86.0937 134.507 94.8509 134.405 103.587L130.703 103.642C130.526 97.8167 130.681 91.2441 130.679 85.3626L130.677 75.9051C130.676 74.0937 130.63 72.0112 130.717 70.2257Z" fill="white"/>
<path d="M71.1107 70.273C72.3756 70.139 74.5611 70.2347 75.8799 70.2602C75.1417 71.0119 72.8533 74.2121 72.0946 75.1994C69.21 78.953 66.4008 82.8171 63.4992 86.5608C66.0718 90.4058 69.3411 94.1636 72.0366 97.9621C73.3238 99.7763 74.8778 101.861 76.2864 103.577C75.9299 103.57 75.4618 103.598 75.0966 103.612C73.9357 103.632 72.7746 103.626 71.614 103.592C70.68 102.649 69.0609 100.312 68.2077 99.1448L64.3852 94.0097C63.3134 92.5529 62.122 90.8518 60.9819 89.4769C60.301 90.5254 59.27 91.8268 58.5021 92.85L54.6706 97.986C53.6028 99.4121 51.4989 102.5 50.3871 103.554C48.878 103.667 47.4145 103.545 45.9248 103.644C46.3539 102.9 48.2193 100.496 48.829 99.6918C51.1118 96.7075 53.3741 93.7078 55.6159 90.6927C56.4717 89.5473 57.9557 87.7531 58.6448 86.5978C57.6943 85.2066 56.4431 83.6917 55.4143 82.31L46.4992 70.4343L46.5839 70.247C47.838 70.2187 49.8875 70.1406 51.0969 70.3013C53.1543 73.267 55.5961 76.2532 57.7439 79.1808C58.9104 80.7708 60.1263 82.216 61.1659 83.9108C61.9864 82.5376 63.1086 81.0913 64.0755 79.8026C65.5907 77.8044 67.0863 75.7913 68.5622 73.7639C69.4285 72.594 70.3228 71.5018 71.1107 70.273Z" fill="white"/>
<path d="M180.588 69.9768C181.809 69.9596 183.03 69.9628 184.251 69.9863L194.944 93.5839C196.445 96.9186 198.003 100.205 199.435 103.58C198.156 103.658 196.578 103.616 195.277 103.615C194.84 102.909 194.489 101.932 194.143 101.148L192.192 96.7512C189.857 91.3786 187.471 86.028 185.036 80.6999C184.328 79.1709 183.869 77.7836 183.069 76.2461C182.854 75.8599 182.576 75.1805 182.388 74.7574C182.013 75.7054 181.466 76.7481 181.034 77.6908L178.964 82.3081L174.678 91.8717C172.961 95.6541 171.366 99.947 169.46 103.597C168.122 103.603 166.75 103.594 165.416 103.643C166.667 100.645 168.063 97.7707 169.392 94.8177L180.588 69.9768Z" fill="white"/>
<path d="M100.199 70.3516C101.002 70.215 101.335 70.2284 101.271 71.231C101.242 71.6968 101.246 72.1571 101.256 72.6241C97.6487 72.6759 94.1852 74.0444 91.5165 76.472C88.7332 79.0385 87.078 82.602 86.912 86.385C86.7576 90.2349 88.1664 93.9836 90.8181 96.7784C97.559 104.024 109.676 102.075 113.958 93.3161C115.072 91.0381 115.347 89.3284 115.43 86.8339L117.912 86.7803C117.804 88.0028 117.735 89.081 117.501 90.2887C117.074 93.084 115.406 96.1689 113.495 98.2249C110.369 101.571 106.431 103.402 101.85 103.579C86.94 104.157 78.8629 86.5449 89.0001 75.5511C91.9174 72.4303 95.9331 70.5659 100.199 70.3516Z" fill="white"/>
<path d="M33.9441 70.2235C35.1618 70.1867 36.7637 70.2066 37.9622 70.2687C37.8011 72.9577 37.9024 76.5623 37.9014 79.3303L37.9007 95.5282C37.903 97.7618 38.0502 101.574 37.8861 103.605C36.5889 103.657 35.1744 103.631 33.8682 103.631C33.7884 101.103 33.8352 98.3584 33.8352 95.8123L33.8309 82.6357C33.8302 81.0051 33.6907 70.96 33.9441 70.2235Z" fill="white"/>
<path d="M99.9788 74.716C100.136 74.6994 100.385 74.6963 100.551 74.6904C103.92 74.5592 107.2 75.7849 109.657 78.0929C112.039 80.317 113.324 83.2881 113.433 86.5347C113.562 89.7946 112.384 92.971 110.159 95.357C107.698 97.9749 104.635 99.1249 101.094 99.2308C101.081 98.4209 101.071 97.6645 101.098 96.8541C105.743 96.4288 108.469 94.763 110.413 90.4544C110.955 89.2456 111.067 87.3961 110.992 86.0628C110.801 82.6966 108.298 79.2232 105.19 77.9536C103.926 77.4373 102.175 76.9496 100.817 77.0532C98.0213 77.2404 95.4168 78.5412 93.5873 80.6644C92.2558 82.2372 91.1677 84.9037 91.3368 86.9845L88.9569 86.9821C88.8986 84.2939 89.7591 81.6663 91.3961 79.5336C93.5192 76.756 96.5443 75.1794 99.9788 74.716Z" fill="white"/>
<path d="M102.302 122.326C104.758 122.818 106.667 121.541 108.341 124.25C108.444 125.658 108.688 126.173 107.478 127.08C109.903 127.98 110.196 130.354 108.937 132.4C107.43 134.205 104.447 133.544 102.301 133.675C102.124 131.242 102.301 128.637 102.242 126.183C102.21 124.946 102.224 123.555 102.302 122.326ZM103.771 131.862C104.778 131.875 106.516 132.044 107.268 131.471C107.829 130.63 108.075 129.467 107.073 128.847C106.151 128.276 104.802 128.419 103.749 128.426C103.78 129.571 103.786 130.716 103.771 131.862ZM103.714 126.686C104.792 126.694 105.217 126.804 106.188 126.334C107.213 124.131 105.372 124.135 103.759 124.162C103.778 125.11 103.808 125.748 103.714 126.686Z" fill="white"/>
<path d="M29.8971 122.412C31.8926 122.445 34.5939 122.033 36.1128 123.335C36.7792 123.909 37.1847 124.728 37.2368 125.606C37.3299 127.001 36.5091 128.23 35.3241 128.908C34.5656 129.343 33.8634 129.337 33.0185 129.386C32.5599 129.393 32.0691 129.379 31.6078 129.375C31.647 130.777 31.6213 132.269 31.6207 133.678L29.8919 133.634C29.7661 130.903 29.8901 128.095 29.8411 125.356C29.824 124.395 29.8302 123.367 29.8971 122.412ZM31.6175 127.642C32.5698 127.613 33.9632 127.67 34.764 127.151C35.4771 126.241 35.4918 125.773 34.9302 124.769C33.7846 123.965 33.0173 124.137 31.6136 124.162C31.6197 125.183 31.6746 126.657 31.6175 127.642Z" fill="white"/>
<path d="M49.9696 122.386C50.5039 122.419 51.1936 122.404 51.74 122.408C51.6533 123.45 51.7041 125.173 51.7026 126.277L51.7045 133.67L50.3569 133.658C50.2476 133.663 50.1708 133.628 50.062 133.597C49.8067 133.134 49.9255 129.254 49.9333 128.421L44.2483 128.424C44.3323 129.988 44.2743 132.07 44.2737 133.672C43.7241 133.65 43.089 133.666 42.5323 133.668C42.4134 130.879 42.528 128.033 42.4873 125.238C42.4738 124.312 42.4801 123.309 42.5624 122.39C43.0713 122.421 43.7637 122.404 44.2871 122.407C44.2779 123.367 44.3328 125.737 44.2125 126.572L49.9395 126.561C49.9295 125.187 49.8968 123.752 49.9696 122.386Z" fill="white"/>
<path d="M168.205 122.405L169.935 122.408C169.832 126.039 169.909 130.012 169.909 133.668L168.562 133.664C168.45 133.663 168.381 133.622 168.272 133.581C168.022 133.078 168.138 129.287 168.146 128.422L162.451 128.424C162.544 129.94 162.481 132.105 162.48 133.67C161.957 133.673 161.377 133.646 160.85 133.634C160.801 132.303 160.613 122.94 161.044 122.428L162.491 122.402C162.486 123.425 162.549 125.694 162.413 126.57L168.153 126.559C168.135 125.375 168.078 123.534 168.205 122.405Z" fill="white"/>
<path d="M146.671 122.373C146.914 122.405 147.171 122.415 147.417 122.416C150.128 122.424 152.88 122.486 155.587 122.384C155.566 123.016 155.604 123.531 155.648 124.157L151.942 124.163C152.006 126.129 151.959 128.331 151.96 130.314L151.956 133.671C151.409 133.68 150.768 133.649 150.214 133.635C150.132 130.89 150.065 126.875 150.19 124.165C149.027 124.172 147.865 124.168 146.702 124.152C146.617 123.427 146.622 123.102 146.671 122.373Z" fill="white"/>
<path d="M73.2263 122.442C75.7454 122.318 78.5995 122.485 81.2263 122.386L81.2778 124.162L77.8276 124.164C77.8744 126.407 77.8387 128.772 77.8407 131.024L77.835 133.664C77.3149 133.689 76.6348 133.65 76.1022 133.634C76.012 130.765 75.9832 127.025 76.0759 124.165C74.925 124.18 73.7377 124.159 72.5838 124.153C72.5507 123.713 72.4628 123.077 72.5951 122.678C72.834 122.4 72.7486 122.483 73.2263 122.442Z" fill="white"/>
<path d="M99.0522 66H103.27C103.51 66.085 104.283 66.1628 104.587 66.2098C112.744 67.468 119.752 73.9031 121.597 81.9149C122.932 87.4988 121.975 93.3849 118.939 98.2577C113.268 107.291 101.153 110.709 91.472 105.634C91.1799 105.481 90.878 105.278 90.5969 105.101C90.9788 104.439 91.362 103.678 91.7222 102.995C92.2523 103.274 92.8148 103.624 93.3492 103.868C102.537 107.962 113.319 104.407 117.837 95.2636C125.045 80.6771 111.417 64.4083 95.8169 69.1313C91.9816 70.2924 88.7551 72.5244 86.3327 75.7262C85.8328 76.3869 85.3362 77.0232 84.9594 77.7716C84.2845 77.3521 83.6124 76.9278 82.9434 76.4987C83.05 76.2793 83.1191 76.1811 83.2387 75.9839C86.1123 71.244 90.5451 68.0942 95.835 66.5673C96.6645 66.3279 98.0847 66.2067 99.0522 66Z" fill="white"/>
<path d="M136.689 134C134.571 133.358 133.287 132.861 132.161 130.802C130.635 128.011 131.719 124.245 134.528 122.789C135.933 122.075 137.563 121.95 139.06 122.443C142.046 123.419 143.809 126.76 142.832 129.735C141.999 132.275 140.227 133.329 137.806 134H136.689ZM137.666 132.016C142.903 131.192 141.598 123.682 137.029 123.888C131.747 125.065 132.522 132.113 137.666 132.016Z" fill="white"/>
<path d="M90.3344 134C88.1869 133.432 86.8418 132.961 85.6678 130.92C84.158 128.293 85.0569 124.415 87.739 122.931C90.6496 121.321 94.1528 122.229 95.7936 125.17C96.5551 126.542 96.7383 128.161 96.3027 129.668C95.5348 132.361 93.507 133.456 90.9604 134H90.3344ZM90.9494 132.022C94.9197 131.707 95.8476 126.268 92.4223 124.407C91.9542 124.153 91.1738 123.86 90.6369 123.878C88.107 124.399 86.4204 126.275 86.9763 128.942C87.1813 129.95 87.7831 130.833 88.6459 131.392C89.3904 131.876 90.0689 132.023 90.9494 132.022Z" fill="white"/>
<path d="M62.6285 134C61.4192 133.678 60.2684 133.37 59.3006 132.524C56.3902 129.981 56.7709 124.804 60.177 122.883C61.5467 122.126 63.1601 121.941 64.6653 122.37C67.977 123.322 69.4976 126.649 68.5513 129.87C68.1186 131.295 67.1374 132.49 65.8235 133.192C65.0673 133.602 64.3831 133.785 63.5575 134H62.6285ZM63.1981 132.022C66.7509 131.995 67.9092 127.316 65.6577 125.028C65.1123 124.473 63.8256 123.843 63.0581 123.878C57.7536 124.777 58.2037 131.815 63.1981 132.022Z" fill="white"/>
<path d="M119.977 134C118.034 133.407 116.403 132.79 115.437 130.855C113.058 126.097 117.182 120.784 122.354 122.439C123.758 122.873 124.924 123.864 125.58 125.18C127.033 128.057 126.035 131.933 123.042 133.308C122.298 133.65 121.717 133.809 120.926 134H119.977ZM121.041 132.011C124.542 131.578 125.381 126.641 122.687 124.691C122.023 124.21 121.09 123.841 120.268 123.885C119.188 124.169 117.807 124.784 117.306 125.835C115.781 129.035 117.461 132.11 121.041 132.011Z" fill="white"/>
</g>
<defs>
<clipPath id="clip0_2579_112">
<rect width="199.75" height="68" fill="white" transform="translate(0 66)"/>
</clipPath>
</defs>
</svg>
