<svg width="200" height="200" viewBox="0 0 200 200" fill="none" xmlns="http://www.w3.org/2000/svg">
<path d="M200 144V69H186.879V56H146.879V69H120.212V56H80.2118V69H53.5452V56H13.5452V69H-0.000488281V144H200Z" fill="white"/>
<path d="M34.0234 120.711L38.1634 91.2889C38.2079 90.8444 38.6085 90.4444 39.0537 90.4444H48.3129C52.6309 90.4444 55.7915 93.7778 55.7915 97.6889C55.7915 101.778 52.5864 104.933 50.3606 105.911C52.1858 106.622 54.5006 108.622 54.5006 112.089C54.5006 117.467 50.4942 121.556 44.4846 121.556H34.6466C34.2015 121.556 33.9344 121.156 34.0234 120.711ZM42.2143 103.511H45.4194C47.7787 103.511 49.5593 101.422 49.5593 98.8889C49.5593 97.0667 48.491 95.7333 46.9329 95.7333H43.3272L42.2143 103.511ZM40.3891 116.311H44.2175C46.5323 116.311 48.4019 114.267 48.4019 111.778C48.4019 109.867 46.8884 108.4 45.2413 108.4H41.5465L40.3891 116.311Z" fill="black"/>
<path d="M59.6285 120.711L63.7685 91.2889C63.813 90.8444 64.2136 90.4444 64.6143 90.4444H76.3664C80.7289 90.4444 83.8895 94.1778 83.8895 98.7556C83.8895 104.178 81.0405 107.689 76.8116 109.022L80.4618 120.4C80.6399 120.978 80.3728 121.556 79.7051 121.556H75.4761C75.0309 121.556 74.6303 121.378 74.4967 120.844L71.2471 109.378H67.0181L65.4156 120.711C65.3711 121.156 64.9704 121.556 64.5698 121.556H60.2518C59.8066 121.556 59.5395 121.156 59.6285 120.711ZM67.7304 104.622H73.2948C76.0993 104.622 77.969 102.267 77.969 99.4667C77.969 97.4667 76.7225 95.7778 75.0754 95.7778H68.9768L67.7304 104.622Z" fill="black"/>
<path d="M87.4073 120.711L91.5473 91.2889C91.5918 90.8444 91.9924 90.4444 92.3931 90.4444H102.008C109.042 90.4444 114.072 96.7556 114.072 103.956C114.072 113.6 106.994 121.556 97.6459 121.556H87.986C87.5854 121.556 87.3183 121.156 87.4073 120.711ZM93.8175 116.133H97.9575C103.388 116.133 107.884 111.022 107.884 104.356C107.884 99.5111 105.124 95.8222 100.851 95.8222H96.6665L93.8175 116.133Z" fill="black"/>
<path d="M117.705 108.178C117.705 97.7333 125.006 90 134.31 90C138.316 90 141.299 91.5556 143.569 94.2222C143.836 94.5778 143.791 95.1111 143.391 95.4667L141.032 97.7778C140.497 98.1778 139.963 98.1778 139.562 97.7778C138.405 96.6667 136.758 95.5556 133.998 95.5556C128.656 95.5556 124.027 101.067 124.027 107.422C124.027 112.133 127.009 116.222 130.926 116.222C133.019 116.222 134.621 115.689 135.467 115.156L136.001 111.244H133.152C132.707 111.244 132.44 110.889 132.485 110.444L132.974 106.978C133.063 106.489 133.419 106.133 133.865 106.133H141.744C142.144 106.133 142.411 106.533 142.367 106.978L140.898 117.644C140.809 118.356 140.497 118.756 140.186 119.022C139.741 119.378 136.224 122 130.214 122C122.958 122 117.705 115.822 117.705 108.178Z" fill="black"/>
<path d="M146.877 120.711L151.017 91.2889C151.062 90.8444 151.462 90.4444 151.863 90.4444H168.334C168.779 90.4444 169.046 90.8444 169.002 91.2889L168.467 94.9333C168.423 95.3778 168.022 95.7778 167.577 95.7778H156.181L155.157 103.067H164.594C164.995 103.067 165.307 103.467 165.262 103.911L164.728 107.6C164.639 108.089 164.238 108.444 163.838 108.444H154.4L153.288 116.222H164.728C165.173 116.222 165.396 116.622 165.351 117.067L164.862 120.711C164.817 121.156 164.416 121.556 163.971 121.556H147.501C147.055 121.556 146.788 121.156 146.877 120.711Z" fill="black"/>
</svg>
