<svg width="200" height="200" viewBox="0 0 200 200" fill="none" xmlns="http://www.w3.org/2000/svg">
<g clip-path="url(#clip0_1157_17482)">
<g clip-path="url(#clip1_1157_17482)">
<path d="M104.842 105.121C106.654 105.121 107.578 104.495 107.578 103.168C107.578 101.768 106.691 101.179 104.695 101.179H101.626V105.121H104.842ZM104.695 98.8211C106.247 98.8211 107.171 98.1947 107.171 97.1632C107.171 95.9842 106.358 95.4316 104.658 95.4316H101.589V98.8211H104.695ZM105.138 93C108.354 93 110.166 94.3632 110.166 96.7211C110.166 98.0105 109.537 98.9684 108.133 99.7421C109.944 100.405 110.72 101.547 110.72 103.463C110.72 106.042 108.687 107.663 105.471 107.663H98.4838V93H105.138ZM90.3507 105.121C92.1622 105.121 93.0864 104.495 93.0864 103.168C93.0864 101.768 92.1991 101.179 90.2028 101.179H87.2084V105.121H90.3507ZM90.2398 98.8211C91.7925 98.8211 92.7167 98.1947 92.7167 97.1632C92.7167 95.9842 91.9034 95.4316 90.2028 95.4316H87.2084V98.8211H90.2398ZM90.6834 93C93.8997 93 95.7111 94.3632 95.7111 96.7211C95.7111 98.0105 95.0827 98.9684 93.6779 99.7421C95.4893 100.405 96.2657 101.547 96.2657 103.463C96.2657 106.042 94.2324 107.663 91.0161 107.663H84.103V93H90.6834ZM78.4099 97.3105C78.225 95.8369 77.3378 95.1369 75.5633 95.1369C74.0476 95.1369 73.0864 95.8 73.0864 96.8316C73.0864 97.7158 73.6779 98.2316 74.8978 98.4526L77.5226 98.8947C80.3322 99.3737 81.8479 100.884 81.8479 103.132C81.8479 106.005 79.5189 107.847 75.8221 107.847C71.9034 107.847 69.6483 105.968 69.6113 102.653H72.7167C72.9015 104.568 73.8627 105.379 75.933 105.379C77.5226 105.379 78.6686 104.532 78.6686 103.389C78.6686 102.468 78.0402 101.916 76.8572 101.695L74.4542 101.253C71.3858 100.663 69.981 99.3737 69.981 97.0158C69.981 94.3263 72.1252 92.6316 75.6372 92.6316C79.0753 92.6316 81.2195 94.3632 81.2934 97.2737H78.4099V97.3105ZM148.133 95.6158V99.0421H154.713V101.584H148.133V107.589H145.064V93H155.378V95.6158H148.133ZM135.231 95.6158V99.0421H141.737V101.584H135.231V107.589H132.162V93H142.402V95.6158H135.231ZM130.018 102.468C129.796 105.821 127.319 107.921 123.659 107.921C119.519 107.921 116.783 104.937 116.783 100.332C116.783 95.7632 119.593 92.6684 123.696 92.6684C127.245 92.6684 129.611 94.6211 129.87 97.7158H126.802C126.432 96.0579 125.397 95.2474 123.696 95.2474C121.367 95.2474 119.852 97.2369 119.852 100.295C119.852 103.353 121.33 105.342 123.622 105.342C125.508 105.342 126.58 104.421 126.913 102.432H130.018V102.468ZM196.229 97.3105C196.044 95.8369 195.194 95.1369 193.382 95.1369C191.866 95.1369 190.905 95.8 190.905 96.8316C190.905 97.7158 191.497 98.2316 192.717 98.4526L195.341 98.8947C198.151 99.3737 199.667 100.884 199.667 103.132C199.667 106.005 197.338 107.847 193.641 107.847C189.722 107.847 187.504 105.968 187.43 102.653H190.536C190.72 104.568 191.682 105.379 193.752 105.379C195.378 105.379 196.487 104.532 196.487 103.389C196.487 102.468 195.859 101.916 194.676 101.695L192.273 101.253C189.205 100.663 187.8 99.3737 187.8 97.0158C187.8 94.3263 189.944 92.6316 193.456 92.6316C196.894 92.6316 199.038 94.3632 199.149 97.2737H196.229V97.3105ZM178.484 95.6158V99.0421H185.027V101.584H178.484V107.589H175.415V93H185.693V95.6158H178.484ZM165.434 95.6158V99.0421H172.014V101.584H165.434V107.589H162.365V93H172.68V95.6158H165.434Z" fill="white"/>
<mask id="mask0_1157_17482" style="mask-type:luminance" maskUnits="userSpaceOnUse" x="0" y="89" width="201" height="23">
<path d="M0 111.937H200.148V89.5H0V111.937Z" fill="white"/>
</mask>
<g mask="url(#mask0_1157_17482)">
<path d="M62.8467 89.5V110.39H0V89.5H62.8467ZM31.4229 99.9629L38.4102 106.89H42.4766L37.0049 101.548H43.7705V106.89H46.9863V101.548H53.7891L48.3174 106.89H52.3838L59.334 99.9629L52.3838 93H48.3174L53.7891 98.3418H46.9863V93H43.7705V98.3418H37.0049L42.4766 93H38.4102L31.4229 99.9629Z" fill="white"/>
</g>
</g>
</g>
<defs>
<clipPath id="clip0_1157_17482">
<rect width="200" height="200" fill="white"/>
</clipPath>
<clipPath id="clip1_1157_17482">
<rect width="200" height="21" fill="white" transform="translate(0 89.5)"/>
</clipPath>
</defs>
</svg>
