<svg width="200" height="200" viewBox="0 0 200 200" fill="none" xmlns="http://www.w3.org/2000/svg">
<g clip-path="url(#clip0_1886_10663)">
<path d="M0 107.058V104.803H7.68163V107.667C7.66948 108.038 7.73718 108.408 7.88018 108.751C8.02317 109.094 8.23812 109.402 8.51051 109.655C8.78289 109.908 9.10636 110.099 9.45906 110.216C9.81176 110.333 10.1855 110.373 10.5549 110.333C11.185 110.412 11.8216 110.25 12.3369 109.879C12.8522 109.508 13.2082 108.956 13.3333 108.333C13.539 107.611 13.5216 106.843 13.2833 106.13C11.7933 102.293 1.63499 100.552 0.346665 94.5549C0.0835864 93.2361 0.0671987 91.8798 0.298332 90.555C1.08999 85.7417 5.20331 84 10.3066 84C14.3699 84 19.9732 84.975 19.9732 91.43V93.5316H12.8333V91.6866C12.8604 91.3288 12.8097 90.9693 12.6847 90.633C12.5597 90.2966 12.3634 89.9912 12.1093 89.7379C11.8552 89.4845 11.5492 89.2892 11.2124 89.1653C10.8756 89.0413 10.516 88.9918 10.1583 89.02C9.54888 88.9593 8.93914 89.132 8.45201 89.5031C7.96488 89.8743 7.63657 90.4163 7.5333 91.02C7.45324 91.5308 7.4702 92.0521 7.5833 92.5566C8.41663 95.9883 19.2782 97.8349 20.4666 104.035C20.7641 105.643 20.7805 107.29 20.5149 108.903C19.8199 113.822 15.5599 115.667 10.4066 115.667C4.99998 115.667 0 113.667 0 107.058ZM93.0612 106.955V104.702H100.643V107.52C100.625 107.889 100.686 108.257 100.824 108.6C100.962 108.942 101.172 109.251 101.441 109.504C101.709 109.758 102.03 109.95 102.38 110.068C102.729 110.185 103.101 110.226 103.468 110.187C104.091 110.274 104.724 110.122 105.239 109.76C105.754 109.399 106.113 108.856 106.243 108.24C106.448 107.534 106.431 106.782 106.194 106.087C104.756 102.297 94.6945 100.555 93.4096 94.5583C93.1466 93.258 93.1296 91.9199 93.3596 90.6133C94.1529 85.8483 98.2662 84.1133 103.27 84.1133C107.284 84.1133 112.834 85.1383 112.834 91.4916V93.5416H105.748V91.7383C105.776 91.3845 105.728 91.0288 105.606 90.6953C105.485 90.3618 105.293 90.0583 105.044 89.8053C104.796 89.5524 104.495 89.356 104.163 89.2294C103.832 89.1028 103.477 89.049 103.123 89.0716C102.525 89.0012 101.923 89.1645 101.443 89.5272C100.963 89.89 100.642 90.4242 100.546 91.0183C100.465 91.529 100.482 92.0504 100.595 92.555C101.386 95.9899 112.139 97.7833 113.333 103.932C113.63 105.522 113.646 107.152 113.381 108.748C112.688 113.668 108.476 115.462 103.373 115.462C98.0179 115.462 93.0612 113.463 93.0612 106.955ZM120.216 108.033C120.146 107.386 120.13 106.734 120.166 106.083V84.8717H127.401V106.75C127.392 107.127 127.408 107.504 127.449 107.878C127.596 108.49 127.945 109.035 128.44 109.425C128.934 109.815 129.546 110.027 130.175 110.027C130.805 110.027 131.416 109.815 131.911 109.425C132.405 109.035 132.754 108.49 132.901 107.878C132.944 107.504 132.961 107.127 132.951 106.75V84.8717H140.186V106.083C140.186 106.648 140.136 107.723 140.136 108.032C139.636 113.563 135.428 115.365 130.176 115.365C124.924 115.365 120.713 113.565 120.216 108.032V108.033ZM179.781 107.725C179.708 107.079 179.675 106.429 179.682 105.778V93.3333C179.682 92.82 179.731 91.8983 179.781 91.385C180.424 85.8533 184.736 84.11 189.841 84.11C194.896 84.11 199.354 85.8517 199.851 91.385C199.91 92.0326 199.926 92.6835 199.899 93.3333V94.3066H192.666V92.6666C192.667 92.2883 192.634 91.9107 192.567 91.5383C192.392 90.9176 192.019 90.3711 191.504 89.982C190.99 89.5928 190.362 89.3822 189.717 89.3822C189.072 89.3822 188.445 89.5928 187.931 89.982C187.416 90.3711 187.043 90.9176 186.867 91.5383C186.784 91.9938 186.751 92.4572 186.769 92.92V106.448C186.761 106.825 186.777 107.202 186.819 107.577C186.982 108.237 187.377 108.818 187.931 109.213C188.485 109.607 189.163 109.79 189.841 109.728C190.507 109.792 191.174 109.608 191.713 109.211C192.253 108.814 192.627 108.232 192.764 107.577C192.831 107.204 192.848 106.825 192.814 106.448V102.138H189.891V97.8333H199.999V105.775C200.006 106.425 199.973 107.075 199.899 107.722C199.399 113.102 194.899 114.998 189.839 114.998C184.779 114.998 180.276 113.103 179.781 107.725ZM78.948 114.437L78.7413 87.075L73.7863 114.437H66.5514L61.6447 87.075L61.448 114.437H54.3114L54.9047 84.9233H66.5514L70.1663 107.98L73.7863 84.9233H85.4313L86.0746 114.437H78.948ZM40.8898 114.437L37.0182 87.075L33.0515 114.437H25.3232L30.5732 84.9233H43.3098L48.5631 114.437H40.8898ZM161.998 114.13L154.806 89.5866L155.203 114.13H148.166V84.9233H158.771L165.511 108.698L165.113 84.9233H172.198V114.13H161.998Z" fill="white"/>
</g>
<defs>
<clipPath id="clip0_1886_10663">
<rect width="200" height="200" fill="white"/>
</clipPath>
</defs>
</svg>
