<svg width="200" height="199" viewBox="0 0 200 199" fill="none" xmlns="http://www.w3.org/2000/svg">
<g clip-path="url(#clip0_1886_10662)">
<path d="M131.867 94.3103C130.594 93.8263 129.248 93.562 127.886 93.529C126.371 93.529 125.167 93.9457 125.167 95.3C125.167 98.5296 133.595 96.5502 133.595 103.218C133.595 107.749 129.876 109.468 125.743 109.468C123.861 109.463 121.99 109.18 120.19 108.63L120.505 104.676C122.127 105.223 123.818 105.542 125.529 105.623C127.152 105.623 128.462 105.15 128.462 103.696C128.462 100.206 120.029 102.446 120.029 95.7783C120.029 91.6112 123.538 89.8922 127.467 89.8922C129.266 89.8661 131.055 90.1497 132.757 90.7304L131.867 94.3103ZM116.471 94.3103C115.197 93.8312 113.852 93.5672 112.49 93.529C110.971 93.529 109.767 93.9457 109.767 95.3C109.767 98.5296 118.2 96.5502 118.2 103.218C118.2 107.749 114.481 109.468 110.348 109.468C108.432 109.455 106.527 109.173 104.69 108.63L105.057 104.676C106.699 105.221 108.409 105.54 110.138 105.623C111.705 105.623 113.019 105.15 113.019 103.696C113.019 100.206 104.586 102.446 104.586 95.7783C104.586 91.6112 108.143 89.8922 112.019 89.8922C113.835 89.8671 115.642 90.1506 117.362 90.7304L116.471 94.3103ZM194.186 89.8827C197.852 89.8827 200 91.8621 200 96.1335V109.047H195.129V97.1232C195.129 95.1959 194.552 93.8936 192.51 93.8936C190.467 93.8936 188.633 95.7168 188.633 98.9463V109.052H183.81V97.1232C183.81 95.3048 183.233 93.8984 181.138 93.8984C178.938 93.8984 177.262 95.8778 177.262 99.1594V109.052H172.295V90.2568C175.538 89.8401 176.743 91.2039 176.9 93.278C177.48 92.2289 178.339 91.3583 179.383 90.7613C180.427 90.1642 181.615 89.8636 182.819 89.8922C186.224 89.8922 187.581 91.7864 188.057 93.5385C188.848 91.6443 190.995 89.8922 194.186 89.8922V89.8827ZM94.7619 90.2568C93.7143 95.8304 90.9905 104.629 89.2619 109.056H84.1048L80.4762 96.4981H80.4286L76.8143 109.047H71.6952C70.0714 104.676 67.0857 95.6126 66.1952 90.2474H71.0667L74.2857 103.166H74.3381L78.1476 90.2474H83.019L86.7238 103.042H86.7762L90.0238 90.2568H94.7619ZM63.3333 94.3198C62.0623 93.8362 60.7176 93.5719 59.3571 93.5385C57.8381 93.5385 56.6857 93.9552 56.6857 95.3095C56.6857 98.5391 65.0619 96.5597 65.0619 103.227C65.0619 107.759 61.3429 109.478 57.2048 109.478C55.3225 109.472 53.4515 109.19 51.6524 108.64L51.9667 104.686C53.6089 105.23 55.3185 105.549 57.0476 105.633C58.6714 105.633 59.981 105.159 59.981 103.705C59.981 100.215 51.5476 102.455 51.5476 95.7878C51.5476 91.6206 55.0571 89.9017 58.9857 89.9017C60.7773 89.8796 62.5597 90.1598 64.2571 90.7304L63.3333 94.3198ZM160.324 109.473C154.929 109.473 151.214 106.556 151.214 100.002C151.214 94.1162 155.19 89.8969 160.9 89.8969C166.243 89.8969 169.7 92.866 169.7 99.273C169.643 105.429 165.929 109.483 160.324 109.483V109.473ZM160.476 93.9978C158.276 93.9978 156.233 95.6126 156.233 99.7277C156.233 103.322 157.595 105.301 160.424 105.301C162.833 105.301 164.667 103.374 164.667 99.5714C164.667 95.9251 163.357 93.9978 160.476 93.9978ZM96.9905 109.047H101.862V90.2568C99.6095 90.0485 96.9905 90.6736 96.9905 94.2156V109.047ZM99.6619 87.8891C100.061 87.8998 100.459 87.8313 100.832 87.6875C101.205 87.5436 101.545 87.3274 101.832 87.0515C102.12 86.7755 102.35 86.4453 102.508 86.0802C102.665 85.715 102.749 85.3223 102.752 84.9248C102.764 84.3272 102.596 83.7397 102.272 83.2367C101.947 82.7337 101.48 82.3377 100.929 82.0989C100.378 81.86 99.7679 81.7891 99.1764 81.895C98.5849 82.001 98.0383 82.279 97.6057 82.6939C97.1731 83.1089 96.8739 83.6421 96.7462 84.2261C96.6184 84.8101 96.6677 85.4187 96.8878 85.9749C97.1079 86.5311 97.489 87.0098 97.9828 87.3505C98.4766 87.6913 99.061 87.8787 99.6619 87.8891ZM144.857 109.397C139.252 109.397 135.586 106.585 135.586 99.9739C135.586 94.3482 138.729 89.9727 145.586 89.9727C147.153 89.9859 148.708 90.2498 150.19 90.7541L149.143 94.7129C148.052 94.2798 146.889 94.0534 145.714 94.0452C142.205 94.0452 140.738 96.3371 140.738 99.775C140.738 103.09 142.048 105.344 145.5 105.344C146.813 105.322 148.108 105.039 149.31 104.51L149.886 108.365C148.99 108.943 147.005 109.412 144.857 109.412V109.397Z" fill="white"/>
<path d="M38.2333 100.201C37.9714 99.8887 37.7095 99.6282 37.4476 99.3157H33.4667C33.519 99.2115 33.519 99.1073 33.5714 99.0031H18.9095V100.514H33.0476C33.0476 100.5 33.0531 100.487 33.063 100.477C33.0728 100.467 33.0861 100.462 33.1 100.462C33.1524 100.357 33.1524 100.305 33.2048 100.201H38.2333Z" fill="white"/>
<path d="M40.3762 103.27C40.2755 103.051 40.1543 102.841 40.0143 102.645C39.9739 102.551 39.921 102.464 39.8571 102.384H32.2095L32.381 102.095H18.9095V103.606H31.6857L31.8429 103.293L40.3762 103.27Z" fill="white"/>
<path d="M41.7381 106.357C41.6333 106.045 41.5333 105.784 41.4238 105.472H30.7429L30.9 105.159H18.9048V106.618H30.1143V106.566L30.2714 106.305H41.7381V106.357Z" fill="white"/>
<path d="M42.2095 109.412C42.2182 109.115 42.2007 108.819 42.1571 108.526H29.0476C29.0987 108.411 29.1696 108.305 29.2571 108.213H18.9095V109.724H28.3333V109.672L28.4905 109.412H42.2095Z" fill="white"/>
<path d="M18.0952 71.6041C17.3974 71.6422 16.709 71.7826 16.0524 72.0208C15.7248 72.1355 15.4064 72.2748 15.1 72.4375H18.8667V71.6561C18.6126 71.608 18.3536 71.5905 18.0952 71.6041Z" fill="white"/>
<path d="M13.3571 74.6773C13.312 74.9703 13.2945 75.2667 13.3048 75.5629H18.9048V74.6773H13.3571Z" fill="white"/>
<path d="M30.4286 124.825C31.0375 124.562 31.632 124.266 32.2095 123.94H18.9048V124.825H30.4286Z" fill="white"/>
<path d="M18.9048 127.018V127.851C20.6338 127.697 22.3494 127.418 24.0381 127.018H18.9048Z" fill="white"/>
<path d="M26.2381 112.797L26.4476 112.485H41.8476C41.8952 112.172 41.9524 111.912 42 111.599H27.0762L27.1286 111.495L27.2857 111.287H18.9095V112.04H18.8571L18.7 111.992C18.6274 111.989 18.5561 111.971 18.4905 111.94C16.3381 111.263 15.9762 109.383 15.5524 107.356C15.4029 106.304 15.0812 105.284 14.6 104.335C13.9714 103.241 12.7667 102.408 11.6143 101.627C9.9381 100.481 8.15714 99.2588 8.15714 97.0948C8.15714 94.7507 9.78095 94.1257 11.4571 93.5006C12.5524 93.0839 13.6571 92.6672 14.3857 91.7295C14.8838 91.0089 15.2721 90.219 15.5381 89.3855C16.119 87.8228 16.6381 86.3643 18.8381 86.0707C18.822 85.855 18.7688 85.6436 18.681 85.4457C18.621 85.3291 18.5685 85.2089 18.5238 85.0858H20.7762L20.8857 85.19L21.5095 85.7629L22.381 86.4685L22.6429 86.6769H18.8571V88.1875H24.4619L24.981 88.6042L25.2429 88.8125L26.4 89.7596H18.9095V91.2039H28.3905L28.6 91.4123C28.7571 91.5165 29.4905 92.1415 30.3238 92.8329H18.8952V94.2961H32.1571C32.2095 94.3482 32.3143 94.4003 32.3667 94.4524C32.9952 95.0254 33.6238 95.5463 33.9905 95.873H18.9095V97.3315H34.0429C34.0952 97.2274 34.0952 97.1232 34.1524 97.019H35.3048C34.9905 96.7585 34.6762 96.446 34.3524 96.1335C34.5662 95.1708 34.7252 94.1969 34.8286 93.2165C34.9501 92.0047 34.9676 90.7849 34.881 89.5702C34.7542 87.8055 34.309 86.078 33.5667 84.4702C32.9372 83.0693 32.0506 81.7975 30.9524 80.7197L30.5857 80.4593C29.9712 79.8949 29.3048 79.3891 28.5952 78.9487C27.8961 78.5051 27.1601 78.1217 26.3952 77.8027C25.127 77.2895 23.7815 76.9902 22.4143 76.9172C21.1766 76.808 19.935 77.0791 18.8571 77.6938H13.9286C13.881 77.5944 13.8286 77.4381 13.7714 77.3339C13.7116 77.2157 13.6591 77.0939 13.6143 76.9693L11.8905 78.3899L11.3143 78.8066C10.1095 79.6921 8.85238 80.6297 7.64762 81.5674C6.65238 82.3487 5.74286 83.078 4.97619 83.8072C4.12443 84.5389 3.33595 85.3404 2.61905 86.2033C0.995238 88.1164 0.157143 89.9396 0 91.81V92.8518C0.000762216 93.222 0.0536571 93.5902 0.157143 93.9457C0.433461 95.2296 0.987563 96.4383 1.78095 97.4878C2.68499 98.6289 3.70288 99.676 4.81905 100.613L5.39524 101.087L6.02381 101.608C7.12381 102.555 8.22381 103.478 9.27143 104.449C9.63333 104.761 9.94762 105.126 10.2667 105.443C9.97672 105.723 9.71367 106.029 9.48095 106.357H11.0524C11.6587 107.048 12.2172 107.779 12.7238 108.545H8.38095C8.28642 108.834 8.21633 109.13 8.17143 109.431H13.2524C13.4619 109.79 13.619 110.103 13.8286 110.472C14.0381 110.842 14.1429 111.254 14.3048 111.618H8.11429C8.16667 111.931 8.21905 112.191 8.27143 112.504H14.6143C14.819 113.233 15.0333 113.962 15.1905 114.692H9.21905C9.21905 114.744 9.27143 114.796 9.27143 114.848C9.42857 115.108 9.58095 115.369 9.74762 115.577H15.3952L15.8714 117.471L15.9762 117.784H11.6905L11.7952 117.888C12.1095 118.148 12.3714 118.404 12.7476 118.669H16.2857C16.3952 118.873 16.4429 119.143 16.5524 119.29C16.6571 119.555 16.9714 120.284 17.2286 120.852H16.2333C16.6815 121.08 17.1445 121.278 17.619 121.444C17.793 121.849 18.0625 122.207 18.4048 122.486C18.5812 122.604 18.7758 122.692 18.981 122.746V121.984L19.2952 121.672H35.6095C35.8851 121.464 36.1476 121.239 36.3952 120.999C36.5 120.947 36.5524 120.843 36.6571 120.791H19.9524L20.2143 120.478H18.9048V118.916H21.5762C21.6475 118.799 21.7358 118.694 21.8381 118.603H38.8095C39.0527 118.323 39.2785 118.029 39.4857 117.722H22.519C22.6238 117.618 22.6762 117.514 22.781 117.41H18.9048V115.828H23.9857C24.0905 115.724 24.1429 115.62 24.2476 115.515H40.8C40.9571 115.203 41.0619 114.943 41.219 114.63H24.8762L25.0857 114.317H18.8952V112.759H26.2381V112.802V112.797ZM17.8048 83.5846C17.6492 83.295 17.4758 83.015 17.2857 82.7465C17.0762 82.4339 16.8667 82.0741 16.7095 81.861L16.6 81.7568H18.8524V83.5799H17.8048V83.5846ZM18.9048 78.6361V80.8239H16.0238L15.7619 80.4593L15.7095 80.3551L14.819 79.0529C14.7143 78.8966 14.6143 78.7924 14.5048 78.6361H18.9048Z" fill="white"/>
</g>
<defs>
<clipPath id="clip0_1886_10662">
<rect width="200" height="198.887" fill="white"/>
</clipPath>
</defs>
</svg>
