<svg width="200" height="200" viewBox="0 0 200 200" fill="none" xmlns="http://www.w3.org/2000/svg">
<g clip-path="url(#clip0_1119_866)">
<g clip-path="url(#clip1_1119_866)">
<path d="M18.5562 126.935V96.9072H27.247V126.935H18.5562Z" fill="white"/>
<path d="M51.7596 126.935V105.932C51.7596 103.815 50.8125 101.754 47.3027 101.754C45.5757 101.754 44.6287 102.032 43.6259 102.367V126.935H34.9351V98.5784C37.9434 97.2414 42.1774 96.35 47.5256 96.35C57.0521 96.35 60.4504 100.417 60.4504 105.876V126.935H51.7596Z" fill="white"/>
<path d="M81.6715 126.935H72.4793L63.2871 96.9072H72.4793L77.4932 118.746L82.73 96.9072H90.8637L81.6715 126.935Z" fill="white"/>
<path d="M100.618 115.18C101.286 119.358 103.459 121.531 107.86 121.531C111.37 121.531 114.044 120.751 115.659 119.915L117.609 125.319C115.269 126.489 111.927 127.492 106.857 127.492C97.665 127.492 92.3726 121.42 92.3726 111.838C92.3726 102.255 97.2751 96.35 105.91 96.35C114.545 96.35 119.058 102.255 118.612 112.617L100.618 115.18ZM110.529 108.941C110.474 103.815 108.747 101.475 105.571 101.475C102.006 101.475 99.8331 104.539 100.056 110.5L110.529 108.941Z" fill="white"/>
<path d="M140.112 126.935V105.932C140.112 103.815 139.165 101.754 135.655 101.754C133.928 101.754 132.981 102.032 131.978 102.367V126.935H123.287V98.5784C126.295 97.2414 130.529 96.35 135.878 96.35C145.404 96.35 148.802 100.417 148.802 105.876V126.935H140.112Z" fill="white"/>
<path d="M190.474 110.835L199.109 96.9071H191.031L186.351 105.709L181.95 96.9071H163.231V88.3278L154.541 90.5562V118.411C154.541 123.202 157.66 127.381 164.736 127.381C166.964 127.381 168.747 126.879 169.582 126.545V121.197C168.58 121.42 168.078 121.531 167.075 121.531C164.401 121.531 163.231 120.194 163.231 117.743V102.534H176.091L181.281 111.448L171.866 126.935H180.669L185.627 117.186L190.418 126.935H200L190.474 110.835Z" fill="white"/>
<path d="M18.5562 72H0V90.5562H18.5562V72Z" fill="white"/>
</g>
</g>
<defs>
<clipPath id="clip0_1119_866">
<rect width="200" height="200" fill="white"/>
</clipPath>
<clipPath id="clip1_1119_866">
<rect width="200" height="55.4921" fill="white" transform="translate(0 72)"/>
</clipPath>
</defs>
</svg>
