<svg width="200" height="200" viewBox="0 0 200 200" fill="none" xmlns="http://www.w3.org/2000/svg">
<g clip-path="url(#clip0_1886_10687)">
<g clip-path="url(#clip1_1886_10687)">
<path d="M65.4429 78.3618C60.8883 78.3618 56.4359 79.7124 52.6489 82.2428C48.8619 84.7732 45.9102 88.3698 44.1673 92.5777C42.4243 96.7857 41.9682 101.416 42.8568 105.883C43.7454 110.35 45.9386 114.453 49.1592 117.674C52.3798 120.895 56.4831 123.088 60.9502 123.976C65.4173 124.865 70.0476 124.409 74.2555 122.666C78.4635 120.923 82.06 117.971 84.5905 114.184C87.1209 110.397 88.4715 105.945 88.4715 101.39C88.4715 98.3662 87.8758 95.3717 86.7185 92.5777C85.5612 89.7838 83.8649 87.2451 81.7266 85.1067C79.5882 82.9683 77.0495 81.2721 74.2555 80.1148C71.4616 78.9575 68.467 78.3618 65.4429 78.3618ZM65.4429 109.219C63.8945 109.219 62.381 108.76 61.0936 107.9C59.8062 107.039 58.8028 105.817 58.2102 104.386C57.6177 102.956 57.4627 101.382 57.7647 99.8631C58.0668 98.3445 58.8124 96.9496 59.9073 95.8548C61.0021 94.7599 62.397 94.0143 63.9156 93.7122C65.4342 93.4102 67.0083 93.5652 68.4388 94.1577C69.8692 94.7503 71.0919 95.7537 71.9521 97.0411C72.8123 98.3285 73.2715 99.842 73.2715 101.39C73.2715 103.467 72.4467 105.458 70.9785 106.926C69.5104 108.394 67.5192 109.219 65.4429 109.219Z" fill="white"/>
<path d="M116.024 78.3618C111.469 78.3609 107.016 79.7107 103.229 82.2405C99.4409 84.7704 96.4885 88.3666 94.7448 92.5744C93.0011 96.7823 92.5444 101.413 93.4324 105.88C94.3204 110.348 96.5133 114.451 99.7337 117.672C102.954 120.893 107.057 123.087 111.525 123.976C115.992 124.865 120.622 124.409 124.831 122.666C129.039 120.924 132.636 117.972 135.166 114.185C137.697 110.398 139.048 105.945 139.048 101.39C139.046 95.284 136.62 89.4281 132.303 85.1098C127.986 80.7915 122.13 78.3643 116.024 78.3618ZM116.024 109.219C114.475 109.219 112.962 108.76 111.674 107.9C110.387 107.039 109.384 105.817 108.791 104.386C108.199 102.956 108.044 101.382 108.346 99.8631C108.648 98.3445 109.393 96.9496 110.488 95.8548C111.583 94.7599 112.978 94.0143 114.497 93.7122C116.015 93.4102 117.589 93.5652 119.02 94.1577C120.45 94.7503 121.673 95.7537 122.533 97.0411C123.393 98.3285 123.852 99.842 123.852 101.39C123.851 103.466 123.026 105.457 121.558 106.925C120.09 108.393 118.1 109.218 116.024 109.219Z" fill="white"/>
<path d="M41.0714 122.5V109.838L25.0333 109.881L43.3714 80.0903H3.8381V93.5237H19.0857L0 122.5H41.0714Z" fill="white"/>
<path d="M198.829 80.0859H186.176V107.538H198.829V80.0859Z" fill="white"/>
<path d="M200 116.981C200 115.504 199.562 114.06 198.741 112.832C197.921 111.604 196.754 110.647 195.39 110.082C194.025 109.517 192.523 109.369 191.075 109.658C189.626 109.946 188.296 110.658 187.252 111.703C186.208 112.747 185.497 114.078 185.21 115.527C184.922 116.976 185.071 118.477 185.636 119.841C186.202 121.206 187.16 122.372 188.389 123.191C189.617 124.011 191.061 124.448 192.538 124.447C194.518 124.446 196.416 123.659 197.815 122.259C199.214 120.859 200 118.96 200 116.981Z" fill="white"/>
<path d="M172.162 117.814C171.997 117.832 171.83 117.813 171.673 117.758C171.516 117.703 171.374 117.613 171.256 117.496C171.139 117.379 171.049 117.236 170.994 117.079C170.939 116.923 170.92 116.756 170.938 116.591C170.938 113.257 179.581 94.4191 179.581 89.881C179.581 85.9525 177.224 82.8096 172.948 82.8096C163.524 82.8096 156.362 97.9096 152.948 104.11H152.771L166.386 58.1953L152.076 58.7191L151.814 60.5572C154.195 60.8191 156 61.3429 156 62.9096C156 64.2191 154.952 67.362 154.343 69.5429L139.086 122.529H147.376C151.043 109.786 163 87.5239 169.019 87.5239C170.676 87.5239 171.033 88.3096 171.033 90.3191C171.033 93.2001 162.562 114.129 162.386 118.772C162.3 121.652 163.786 123.748 166.671 123.748C173.748 123.748 178.548 114.41 182.124 109.348L180.552 107.948C178.971 109.786 174.605 117.814 172.162 117.814Z" fill="white"/>
<path d="M1.42853 133.086V135.681H3.76186C4.01141 135.679 4.25955 135.643 4.49996 135.576L4.54757 135.615C4.26544 135.946 4.00763 136.298 3.77615 136.667L0.680908 141.667H9.04757V139.015H6.43805C6.19996 139.015 5.96186 139.038 5.70948 139.062L5.67615 139.015L9.40948 133.086H1.42853Z" fill="white"/>
<path d="M42.8999 132.3C43.0883 132.3 43.2724 132.244 43.429 132.139C43.5856 132.035 43.7077 131.886 43.7798 131.712C43.8519 131.538 43.8707 131.346 43.834 131.162C43.7972 130.977 43.7065 130.807 43.5733 130.674C43.4401 130.541 43.2704 130.45 43.0857 130.413C42.9009 130.377 42.7095 130.395 42.5354 130.468C42.3614 130.54 42.2127 130.662 42.108 130.818C42.0034 130.975 41.9475 131.159 41.9475 131.347C41.9475 131.6 42.0479 131.842 42.2265 132.021C42.4051 132.199 42.6473 132.3 42.8999 132.3Z" fill="white"/>
<path d="M45.119 137.867C45.119 138.538 45.119 139.129 44.2666 139.129C43.4142 139.129 43.4142 138.538 43.4142 137.867V133.105H40.2952V138.181C40.2952 140.681 41.8666 141.824 44.2666 141.824C46.6666 141.824 48.238 140.681 48.238 138.181V133.086H45.119V137.867Z" fill="white"/>
<path d="M45.6667 132.3C45.8551 132.3 46.0392 132.244 46.1958 132.139C46.3525 132.035 46.4745 131.886 46.5466 131.712C46.6187 131.538 46.6376 131.346 46.6008 131.162C46.5641 130.977 46.4734 130.807 46.3402 130.674C46.207 130.541 46.0373 130.45 45.8525 130.413C45.6678 130.377 45.4763 130.395 45.3023 130.468C45.1283 130.54 44.9795 130.662 44.8749 130.818C44.7702 130.975 44.7144 131.159 44.7144 131.347C44.7144 131.6 44.8147 131.842 44.9933 132.021C45.1719 132.199 45.4141 132.3 45.6667 132.3Z" fill="white"/>
<path d="M85.4904 138.367V138.295C86.6523 137.915 87.1523 137.367 87.1523 136.067C87.1523 133.905 85.5142 133.086 83.5809 133.086H79.8142V141.657H82.8571V138.905H82.9142L84.2856 141.667H87.8809L86.0142 138.881C85.8698 138.681 85.6927 138.508 85.4904 138.367ZM83.0761 136.886H82.8571V135.429H83.0952C83.6333 135.429 84.0952 135.51 84.0952 136.172C84.0952 136.834 83.5904 136.886 83.0761 136.886Z" fill="white"/>
<path d="M121.771 133.086H118.652V141.662H121.771V133.086Z" fill="white"/>
<path d="M157.976 135.714C158.673 135.761 159.326 136.069 159.805 136.576L159.714 133.31C159.041 133.082 158.335 132.964 157.624 132.962C157.032 132.958 156.446 133.072 155.898 133.297C155.351 133.523 154.854 133.855 154.437 134.274C154.019 134.693 153.689 135.192 153.466 135.74C153.243 136.288 153.132 136.875 153.138 137.467C153.13 138.041 153.237 138.611 153.453 139.143C153.669 139.674 153.99 140.158 154.396 140.563C154.803 140.969 155.286 141.288 155.819 141.503C156.351 141.718 156.921 141.824 157.495 141.814C158.249 141.821 158.998 141.706 159.714 141.472L159.805 138.262C159.577 138.509 159.301 138.706 158.994 138.843C158.687 138.98 158.355 139.053 158.019 139.057C157.567 139.065 157.131 138.893 156.805 138.58C156.479 138.267 156.291 137.838 156.281 137.386C156.282 137.165 156.327 136.946 156.413 136.742C156.499 136.538 156.624 136.354 156.782 136.198C156.939 136.043 157.126 135.92 157.331 135.837C157.536 135.754 157.755 135.713 157.976 135.714Z" fill="white"/>
<path d="M195.819 135.976H193.905V133.09H190.905V141.667H193.905V138.686H195.819V141.667H198.824V133.09H195.819V135.976Z" fill="white"/>
</g>
</g>
<defs>
<clipPath id="clip0_1886_10687">
<rect width="200" height="200" fill="white"/>
</clipPath>
<clipPath id="clip1_1886_10687">
<rect width="200" height="200" fill="white"/>
</clipPath>
</defs>
</svg>
