<svg width="200" height="200" viewBox="0 0 200 200" fill="none" xmlns="http://www.w3.org/2000/svg">
<g clip-path="url(#clip0_3098_4)">
<path d="M0 0V200H200V0H0ZM38.1758 172.375C37.8257 174.915 36.794 177.314 35.1898 179.317C33.3261 181.515 30.7666 183.014 27.9338 183.565C24.8963 184.213 21.7348 183.955 18.8433 182.823C16.4552 181.852 14.4338 180.156 13.065 177.975C11.4738 175.263 10.6991 172.151 10.8331 169.011C10.7207 165.665 11.6927 162.372 13.6051 159.62C14.8083 158.075 16.342 156.817 18.0944 155.938C19.8468 155.059 21.7738 154.58 23.735 154.538C26.9793 154.311 30.207 155.169 32.907 156.977C35.1816 158.615 36.8452 160.96 37.6357 163.645C38.4489 166.481 38.6332 169.46 38.1758 172.375ZM59.0166 161.592C56.9287 161.486 54.8427 161.833 52.9019 162.608C52.0056 163.007 51.2976 163.735 50.9248 164.641C50.9248 170.81 50.9248 176.99 50.9248 183.159H43.4344C43.4344 173.869 43.4344 164.573 43.4344 155.27C45.7681 155.27 48.0917 155.27 50.4255 155.27C50.4255 156.347 50.4255 157.425 50.4255 158.502C51.47 157.244 52.7963 156.248 54.2973 155.595C55.7984 154.942 57.4324 154.649 59.0675 154.741L59.0166 161.592ZM79.0828 183.108C78.8688 182.295 78.665 181.492 78.451 180.689C76.5346 181.954 74.3763 182.808 72.1121 183.2C69.833 183.685 67.4607 183.487 65.2943 182.63C64.3756 182.21 63.5549 181.604 62.8846 180.85C62.2142 180.095 61.709 179.21 61.4013 178.25C61.0055 177.069 60.8653 175.818 60.9901 174.58C61.1148 173.341 61.5016 172.143 62.1248 171.064C63.3981 169.244 65.1915 167.849 67.2713 167.06C70.8669 165.675 74.6412 164.806 78.4815 164.478C78.4815 163.34 78.6854 162.018 77.8701 161.083C76.7083 159.762 74.7618 159.681 73.1312 159.823C72.0038 159.934 70.9104 160.271 69.916 160.812C68.9215 161.353 68.0464 162.088 67.3427 162.974C65.6815 162.029 64.0102 161.094 62.3592 160.128C63.9055 157.93 66.1323 156.298 68.6981 155.483C71.5728 154.63 74.6036 154.435 77.5643 154.914C80.1271 155.176 82.4911 156.409 84.1682 158.36C85.2972 159.936 85.805 161.871 85.5949 163.797C85.5949 170.251 85.5949 176.695 85.5949 183.108H79.0828ZM116.382 183.108H109.014V164.437C109.083 163.181 108.724 161.938 107.995 160.911C107.542 160.52 107.005 160.239 106.424 160.091C105.844 159.943 105.238 159.931 104.652 160.057C102.407 160.482 100.331 161.54 98.6701 163.106V183.078H91.3631C91.3631 174.052 91.3631 165.02 91.3631 155.981L97.4777 155.138C97.6713 156.225 97.9159 157.313 98.1299 158.41C100.216 156.743 102.634 155.537 105.223 154.873C107.583 154.356 110.045 154.576 112.275 155.504C113.084 155.883 113.809 156.42 114.406 157.083C115.003 157.747 115.46 158.523 115.75 159.366C116.179 160.626 116.403 161.948 116.413 163.279L116.382 183.108ZM147.373 182.773C147.373 185.486 146.731 188.373 144.805 190.406C142.655 192.662 139.475 193.526 136.459 193.821C132.983 194.156 129.325 193.963 126.166 192.235C125.153 191.704 124.268 190.959 123.575 190.051C122.881 189.143 122.395 188.095 122.15 186.98L129.417 185.812C129.562 186.55 129.975 187.209 130.578 187.661C131.927 188.381 133.459 188.686 134.981 188.535C135.703 188.57 136.425 188.455 137.102 188.2C137.779 187.945 138.396 187.554 138.915 187.052C139.87 185.77 140.346 184.195 140.26 182.6C140.26 181.431 140.26 180.252 140.26 179.083C139.585 180.326 138.603 181.375 137.406 182.132C135.561 183.032 133.486 183.351 131.455 183.047C130.069 182.911 128.725 182.502 127.5 181.842C126.275 181.183 125.195 180.286 124.321 179.205C122.304 176.404 121.273 173.017 121.386 169.57C121.182 165.803 122.22 162.073 124.341 158.949C125.199 157.752 126.304 156.752 127.582 156.017C128.86 155.282 130.282 154.83 131.75 154.691C133.657 154.531 135.576 154.799 137.366 155.473C138.756 155.972 139.911 156.968 140.606 158.268C140.79 157.252 140.994 156.235 141.146 155.219C143.185 155.158 145.304 155.219 147.383 155.219L147.373 182.773ZM177.518 170.282H159.011C158.939 172.177 159.394 174.055 160.326 175.709C160.753 176.347 161.31 176.887 161.962 177.294C162.614 177.7 163.345 177.964 164.107 178.067C165.691 178.35 167.324 178.141 168.785 177.467C170.028 176.777 171.079 175.788 171.842 174.591L177.253 177.589C176.389 179.025 175.234 180.264 173.862 181.228C172.489 182.193 170.93 182.861 169.284 183.189C165.938 183.995 162.428 183.797 159.195 182.62C156.701 181.602 154.665 179.712 153.468 177.305C152.05 174.197 151.484 170.771 151.827 167.375C151.944 164.237 153.046 161.216 154.976 158.736C156.917 156.493 159.644 155.075 162.599 154.772C165.896 154.261 169.268 154.9 172.148 156.581C174.403 158.093 176.046 160.355 176.785 162.964C177.484 165.319 177.733 167.784 177.518 170.231V170.282ZM180.484 145.98H177.58C177.58 148.636 177.58 151.289 177.58 153.938H176.02C176.02 151.276 176.02 148.623 176.02 145.97H173.157C173.157 145.543 173.157 145.116 173.157 144.689C175.592 144.689 178.028 144.689 180.474 144.689L180.484 145.98ZM192.459 153.857H190.899C190.899 151.326 190.899 148.775 190.899 146.265C189.88 148.785 188.861 151.347 187.893 153.857H186.874C185.855 151.337 184.927 148.775 183.888 146.295C183.888 148.826 183.888 151.377 183.888 153.857H182.329C182.329 150.788 182.329 147.711 182.329 144.628H184.713C185.61 146.946 186.527 149.243 187.424 151.56C188.321 149.25 189.214 146.942 190.104 144.639C190.889 144.639 191.684 144.639 192.479 144.639C192.459 147.759 192.479 150.808 192.459 153.857Z" fill="white"/>
<path d="M164.27 159.6C162.92 159.658 161.647 160.242 160.723 161.226C159.745 162.421 159.184 163.902 159.123 165.444H170.333C170.373 163.923 169.875 162.437 168.927 161.246C168.326 160.639 167.594 160.175 166.788 159.89C165.981 159.605 165.12 159.505 164.27 159.6Z" fill="white"/>
<path d="M138.14 161.429C137.521 160.805 136.758 160.341 135.918 160.077C135.078 159.813 134.186 159.758 133.32 159.915C132.236 160.117 131.256 160.688 130.548 161.531C129.597 162.749 129.01 164.212 128.856 165.748C128.658 167.471 128.658 169.21 128.856 170.932C128.926 172.674 129.566 174.345 130.68 175.689C131.151 176.16 131.717 176.527 132.341 176.763C132.965 177 133.632 177.101 134.298 177.061C135.011 177.092 135.723 176.979 136.391 176.727C137.058 176.475 137.667 176.091 138.181 175.597C139.226 174.415 139.883 172.944 140.066 171.379C140.291 169.924 140.372 168.45 140.311 166.978C140.269 164.931 139.5 162.964 138.14 161.429Z" fill="white"/>
<path d="M28.6165 162.059C27.8931 161.49 27.0555 161.083 26.1604 160.866C25.2654 160.648 24.3339 160.625 23.4292 160.799C22.6752 160.899 21.9507 161.156 21.3028 161.553C20.6549 161.951 20.0982 162.48 19.6687 163.106C18.6575 164.78 18.1351 166.702 18.1605 168.655C18.0075 170.827 18.4515 172.998 19.4445 174.936C19.824 175.587 20.3354 176.152 20.9461 176.595C21.5567 177.038 22.2532 177.349 22.991 177.508C23.9045 177.726 24.8535 177.753 25.778 177.587C26.7024 177.421 27.5822 177.065 28.3617 176.542C29.6627 175.439 30.5233 173.906 30.7872 172.223C31.1472 170.355 31.1713 168.438 30.8585 166.562C30.6536 164.848 29.8616 163.258 28.6165 162.059Z" fill="white"/>
<path d="M71.7041 170.434C70.5022 170.867 69.4704 171.672 68.7589 172.731C68.3339 173.457 68.145 174.296 68.218 175.133C68.291 175.97 68.6223 176.765 69.1665 177.406C69.4633 177.716 69.821 177.962 70.2173 178.128C70.6135 178.294 71.0399 178.377 71.4697 178.372C74.027 178.274 76.4552 177.227 78.2773 175.435C78.2773 173.26 78.2773 171.085 78.2773 168.91C76.0282 169.125 73.8177 169.637 71.7041 170.434Z" fill="white"/>
</g>
<defs>
<clipPath id="clip0_3098_4">
<rect width="200" height="200" fill="white"/>
</clipPath>
</defs>
</svg>
