<svg width="200" height="200" viewBox="0 0 200 200" fill="none" xmlns="http://www.w3.org/2000/svg">
<g clip-path="url(#clip0_2287_2068)">
<path d="M104.667 102.302H116.212V95.7377H104.667V91.7839H117.081V85.4136L97.4747 85.4091V113.539H117.28V106.735H104.667V102.302Z" fill="white"/>
<path d="M145.322 85.4091H136.714L132.769 92.239L129.074 85.4091H120.344L128.415 99.1854L120.099 113.539H129.115L132.794 106.682L136.58 113.539H145.532L137.199 99.1141L145.322 85.4091Z" fill="white"/>
<path d="M169.492 95.2606V94.0543C169.535 89.8604 166.605 85.4091 160.093 85.4091H148.323V113.539H155.738V104.193H160.254C167.019 104.193 169.492 99.2154 169.492 95.2606ZM155.738 97.3884V91.6454H160.15C162.054 91.6509 162.875 93.1382 162.875 94.0543V94.8259C162.875 95.9331 161.785 97.3815 160.118 97.3884H155.738Z" fill="white"/>
<path d="M15.7512 98.7416C18.417 97.1709 18.8395 94.5925 18.8395 93.123V92.663C18.8395 91.453 18.4483 85.4142 10.7353 85.4142H0.5V113.544H10.9453C17.6603 113.544 19.4358 108.703 19.4358 106.143V105.182C19.4358 103.73 19.0595 100.353 15.7512 98.7416ZM3.55358 88.2508L10.6534 88.2371C14.06 88.2371 15.7864 89.7395 15.7864 92.7012V93.0471C15.7864 96.9444 12.3718 97.3657 10.9041 97.3657H3.55358V88.2508ZM16.3817 106.027C16.3817 110.232 12.5213 110.686 10.8619 110.686H3.55358V100.201L11.0709 100.189C12.3177 100.189 16.3817 100.552 16.3817 105.221V106.027Z" fill="white"/>
<path d="M24.8846 113.545H41.9178V110.724H27.9502L27.9358 100.166L40.9124 100.152V97.3296H27.9502L27.9358 88.2512L41.9178 88.2368V85.4146H24.8846V113.545Z" fill="white"/>
<path d="M65.1338 93.6876V92.3418C65.1338 91.1856 64.7375 85.4146 56.9208 85.4146H47.3057V113.545H50.3563V100.13L56.2574 100.119L62.6233 113.545H66.097L59.4779 99.8596C64.3845 98.736 65.1338 95.5336 65.1338 93.6876ZM50.1706 97.2971V88.2512L56.6547 88.2376C59.0956 88.2376 61.8969 88.7179 61.8969 92.4579V93.6476C61.8969 96.6925 60.2689 97.304 57.6407 97.304L50.1706 97.2971Z" fill="white"/>
<path d="M87.4678 108.65L75.0592 85.4146H71.3229V113.545H74.3983V90.5295L86.6798 113.545H90.5457V85.4146H87.4678V108.65Z" fill="white"/>
<path d="M185.869 84.8713C177.807 84.8713 171.242 91.4341 171.242 99.5001C171.242 107.566 177.807 114.129 185.869 114.129C193.935 114.129 200.5 107.566 200.5 99.5001C200.5 91.4339 193.935 84.8713 185.869 84.8713ZM185.869 105.442C182.592 105.442 179.925 102.726 179.925 99.3884C179.925 96.0508 182.592 93.3358 185.869 93.3358C189.148 93.3358 191.816 96.0508 191.816 99.3884C191.816 102.726 189.148 105.442 185.869 105.442Z" fill="white"/>
</g>
<defs>
<clipPath id="clip0_2287_2068">
<rect width="200" height="200" fill="white"/>
</clipPath>
</defs>
</svg>
