<svg width="200" height="200" viewBox="0 0 200 200" fill="none" xmlns="http://www.w3.org/2000/svg">
<g clip-path="url(#clip0_2746_1944)">
<g clip-path="url(#clip1_2746_1944)">
<path d="M172.065 68.0219C172.065 67.3741 172.571 66.949 173.178 66.949H174.494C175.02 66.949 175.446 67.3336 175.587 67.8397V72.0907C175.587 72.6777 175.142 73.1838 174.494 73.1838H173.178C172.571 73.1838 172.065 72.6777 172.065 72.0907V68.0219ZM169.818 71.9895C169.818 73.8316 171.195 75.2688 173.037 75.2688H174.312C174.838 75.2688 175.324 75.0259 175.547 74.8437V76.281C175.547 76.8073 174.98 77.0907 174.454 77.0907H173.705C173.259 77.0907 172.591 76.9692 172.591 76.2202H170.344C170.344 78.1433 171.579 79.0947 173.482 79.0947H174.676C176.599 79.0947 177.753 77.6575 177.753 75.8559V65.0259H175.506V65.6737C175.506 65.6737 174.818 64.8437 174.029 64.8437H173.037C171.195 64.8437 169.778 66.3012 169.778 68.1028V71.9895H169.818ZM165.223 75.1069H167.45V68.0421C167.45 66.2405 166.053 64.8437 164.19 64.8437H163.219C162.429 64.8437 161.761 65.5927 161.721 65.6737V65.0259H159.494V75.1069H161.721V67.8397C161.863 67.3336 162.308 66.949 162.814 66.949H164.13C164.757 66.949 165.243 67.3741 165.243 68.0219V75.1069H165.223ZM151.235 65.0259H149.008V72.0907C149.008 73.8923 150.425 75.2891 152.267 75.2891H153.259C154.049 75.2891 154.697 74.5603 154.737 74.4591V75.1069H156.964V65.0259H154.737V72.3134C154.595 72.7992 154.19 73.1838 153.644 73.1838H152.328C151.721 73.1838 151.215 72.7587 151.215 72.1109V65.0259H151.235ZM146.802 67.1312V65.0259H144.373V61.0178H142.146V65.0259H140.668V67.1312H142.146V71.9287C142.146 73.7506 143.684 75.3093 145.506 75.3093H146.721V73.2041H145.506C144.879 73.2041 144.373 72.617 144.373 71.9895V67.1312H146.802ZM138.826 67.1312V65.0259H136.417V64.115C136.417 63.5077 136.903 62.8802 137.531 62.8802H138.745V60.7749H137.531C135.688 60.7749 134.19 62.3336 134.19 64.1555V65.0259H132.713V67.1312H134.19V75.1069H136.417V67.1312H138.826ZM130.607 60.7749H128.259V63.1231H130.607V60.7749ZM130.567 65.0259H128.34V75.1069H130.567V65.0259ZM126.053 67.1312V65.0259H123.624V61.0178H121.397V65.0259H119.919V67.1312H121.397V71.9287C121.397 73.7506 122.915 75.3093 124.757 75.3093H125.972V73.2041H124.757C124.13 73.2041 123.624 72.617 123.624 71.9895V67.1312H126.053ZM118.138 72.5563V71.7061C118.138 70.0462 117.105 68.9935 115.628 68.9935H112.935C112.652 68.9935 112.409 68.7911 112.409 68.4672V67.4955C112.409 67.1717 112.652 66.949 112.935 66.949H114.919C115.223 66.949 115.526 67.0704 115.526 67.7182H117.794C117.794 66.0583 116.559 64.864 115.041 64.864H112.895C111.397 64.864 110.162 66.0381 110.162 67.5968V68.4267C110.162 69.9854 111.377 71.0988 112.895 71.0988H115.344C115.628 71.0988 115.891 71.3012 115.891 71.6251V72.698C115.891 73.0016 115.628 73.2243 115.304 73.2243H112.753C112.45 73.2243 112.186 73.0219 112.186 72.4551H109.939C109.939 74.0745 111.174 75.3093 112.692 75.3093H115.344C116.903 75.3093 118.118 74.0947 118.118 72.5765" fill="white"/>
<path d="M39.5746 85.3295H34.4531V101.159C34.4531 105.208 37.7122 108.325 41.9228 108.325H44.2102C46.0321 108.325 47.5098 106.686 47.611 106.483V107.921H52.7325V85.3295H47.611V101.666C47.3074 102.738 46.3357 103.609 45.1211 103.609H42.1252C40.7487 103.609 39.5746 102.637 39.5746 101.2V85.3295Z" fill="white"/>
<path d="M69.9187 84.9247H67.5908C65.8094 84.9247 64.2912 86.5239 64.1293 86.7668V85.3296H59.0078V107.921H64.1293V91.6251C64.4329 90.5522 65.3438 89.7223 66.4572 89.6211H69.19C70.4046 89.7223 71.3762 90.7547 71.3762 91.9692V107.9H76.4977V91.9692C76.4977 90.6939 77.6718 89.6211 78.9876 89.6211H81.1131C82.4896 89.6211 83.6637 90.7547 83.6637 92.0704V107.9H88.7851V92.0097C88.7851 87.9207 85.8904 84.8842 81.8216 84.8842H78.6839C76.8621 84.8842 75.5868 85.451 74.1698 86.6251C72.854 85.3903 71.8823 84.8842 69.8985 84.8842" fill="white"/>
<path d="M122.833 85.3295H117.469C116.153 90.451 114.878 95.1069 113.562 100.289L109.817 85.3295H104.453C103.198 90.3498 101.963 95.2081 100.708 100.289L96.8616 85.3295H91.4365L98.0155 107.921H103.238C103.238 107.921 106.578 95.9368 107.145 93.9935C107.449 95.0259 111.052 107.921 111.052 107.921H116.214L122.854 85.3295H122.833Z" fill="white"/>
<path d="M143.502 99.2162V92.3539C143.502 88.2648 140.101 84.9247 135.931 84.9247H132.834C128.623 84.9247 125.263 88.2648 125.263 92.3539V100.917C125.263 105.006 128.623 108.346 132.834 108.346H136.396C140.202 108.346 143.461 105.471 143.461 101.747H138.279C138.34 102.516 137.712 103.649 136.457 103.649H132.955C131.538 103.649 130.425 102.678 130.425 101.241V99.2365H143.522L143.502 99.2162ZM138.36 94.5604H130.384V92.111C130.384 90.7749 131.498 89.6616 132.915 89.6616H135.809C137.186 89.6616 138.34 90.7952 138.34 92.111V94.5604H138.36Z" fill="white"/>
<path d="M178.098 90.0461L178.138 85.1473H161.6V89.9854H167.328V107.921H172.531L172.511 90.0461H178.098Z" fill="white"/>
<path d="M159.879 103.002L159.939 107.921H149.109V85.1473H154.312L154.292 103.002H159.879Z" fill="white"/>
<mask id="mask0_2746_1944" style="mask-type:luminance" maskUnits="userSpaceOnUse" x="7" y="44" width="52" height="91">
<path d="M8.56254 99.115C13.9876 122.394 35.6678 137.253 58.1982 133.933C37.4492 134.155 18.5423 119.641 13.5018 97.9409C8.38035 75.9976 19.1698 53.9126 38.1982 44.6008C16.2144 51.9085 3.07671 75.5725 8.56254 99.115Z" fill="white"/>
</mask>
<g mask="url(#mask0_2746_1944)">
<path d="M78.5828 132.212L55.2022 31.6859L-17.3281 49.6413L6.07268 150.168L78.5828 132.212Z" fill="white"/>
</g>
<mask id="mask1_2746_1944" style="mask-type:luminance" maskUnits="userSpaceOnUse" x="18" y="43" width="64" height="72">
<path d="M27.7526 58.8518C14.534 75.532 16.032 99.6616 30.6069 114.5C19.1494 99.2972 18.9267 77.4146 31.2546 61.868C43.7243 46.119 64.9388 42.0705 81.7809 51.0583C74.8579 46.0786 66.8417 43.6494 58.8862 43.6494C47.2465 43.6494 35.7081 48.8518 27.7728 58.8721" fill="white"/>
</mask>
<g mask="url(#mask1_2746_1944)">
<path d="M54.9189 148.487L116.174 71.0178L41.3967 8.10284L-19.8584 85.5725L54.9189 148.487Z" fill="white"/>
</g>
<mask id="mask2_2746_1944" style="mask-type:luminance" maskUnits="userSpaceOnUse" x="28" y="50" width="73" height="36">
<path d="M64.2713 50.9976C45.4656 51.1595 30.1417 66.119 28.583 85.0664C32.1862 68.1433 46.7409 55.3903 64.2713 55.2283C82.0041 55.0664 96.9433 67.8599 100.607 85.0664C99.0284 65.9571 83.4818 50.9976 64.6154 50.9976H64.2915" fill="white"/>
</mask>
<g mask="url(#mask2_2746_1944)">
<path d="M100.591 50.346L28.2861 51.0023L28.6012 85.7174L100.906 85.0612L100.591 50.346Z" fill="white"/>
</g>
<path d="M98.5623 127.759C98.5623 127.091 99.2708 126.585 99.8781 126.585H106.579V129.965C106.579 131.301 105.141 131.443 103.967 131.504H99.7769C99.1089 131.504 98.5421 130.896 98.5421 130.228V127.779L98.5623 127.759ZM99.7972 136.22H103.178C104.615 136.22 105.83 135.411 106.599 134.317V135.795H111.761V119.074C111.761 115.289 109.109 112.779 105.323 112.779H100.668C96.9834 112.779 94.2708 115.694 94.2708 119.398H99.4328C99.4328 118.629 99.7972 117.496 100.668 117.496H105.323C106.032 117.496 106.599 118.002 106.599 118.73V122.01H99.7972C96.3154 122.01 93.4004 124.581 93.4004 128.062V130.309C93.4004 133.751 96.3154 136.2 99.7972 136.2" fill="white"/>
<path d="M122.956 119.763C123.26 118.629 124.292 117.759 125.466 117.759H130.365V112.637H126.438C124.596 112.637 123.057 114.479 122.956 114.641V113.204H117.794V135.815H122.956V119.763Z" fill="white"/>
<path d="M138.238 119.965C138.238 118.629 139.372 117.495 140.789 117.495H143.704C145.08 117.495 146.255 118.629 146.255 119.965V122.435H138.238V119.965ZM151.376 129.601H146.174C146.234 130.37 145.607 131.504 144.332 131.504H140.809C139.372 131.504 138.259 130.532 138.259 129.095V127.091H151.437V120.228C151.437 116.119 148.016 112.799 143.825 112.799H140.708C136.457 112.799 133.097 116.139 133.097 120.228V128.791C133.097 132.9 136.477 136.22 140.708 136.22H144.291C148.117 136.22 151.396 133.346 151.396 129.601" fill="white"/>
<path d="M162.246 119.5C162.55 118.366 163.582 117.496 164.756 117.496H167.772C169.209 117.496 170.323 118.467 170.323 119.904V135.795H175.485V119.945C175.485 115.896 172.266 112.759 167.975 112.759H165.728C163.886 112.759 162.347 114.439 162.246 114.601V113.164H157.084V135.775H162.246V119.479V119.5Z" fill="white"/>
<path d="M194.312 129.965C194.312 131.301 192.874 131.443 191.7 131.504H187.51C186.842 131.504 186.275 130.896 186.275 130.228V127.759C186.275 127.091 186.984 126.585 187.611 126.585H194.312V129.965ZM193.016 112.799H188.36C184.676 112.799 181.963 115.714 181.963 119.419H187.125C187.125 118.649 187.49 117.516 188.36 117.516H193.016C193.725 117.516 194.291 118.022 194.291 118.751V122.03H187.49C184.008 122.03 181.113 124.601 181.113 128.083V130.35C181.113 133.791 184.028 136.24 187.49 136.24H190.87C192.308 136.24 193.522 135.431 194.291 134.338V135.815H199.453V119.095C199.453 115.309 196.802 112.799 193.016 112.799Z" fill="white"/>
<path d="M139.818 153.386V152.536C139.818 150.876 138.786 149.823 137.308 149.823H134.595C134.312 149.823 134.069 149.621 134.069 149.297V148.305C134.069 147.981 134.312 147.759 134.595 147.759H136.599C136.903 147.759 137.207 147.88 137.207 148.528H139.474C139.474 146.868 138.239 145.674 136.721 145.674H134.575C133.077 145.674 131.842 146.848 131.842 148.406V149.236C131.842 150.795 133.057 151.908 134.575 151.908H137.045C137.328 151.908 137.591 152.111 137.591 152.435V153.508C137.591 153.811 137.328 154.034 137.004 154.034H134.454C134.15 154.034 133.887 153.832 133.887 153.265H131.66C131.66 154.884 132.895 156.119 134.413 156.119H137.085C138.644 156.119 139.859 154.904 139.859 153.386M149.595 152.921V152.799H147.369C147.369 153.832 146.984 154.034 146.276 154.034H145.02C144.393 154.034 143.907 153.508 143.907 152.86V148.913C143.907 148.285 144.393 147.799 145.02 147.799H146.276C146.883 147.799 147.348 148.265 147.348 148.892H149.595C149.595 146.989 148.199 145.694 146.276 145.694H144.879C143.037 145.694 141.66 147.172 141.66 149.034V152.799C141.66 154.601 143.097 156.139 144.94 156.139H146.316C148.158 156.139 149.595 154.722 149.595 152.921ZM157.672 155.957H159.899V148.913C159.899 147.111 158.502 145.694 156.64 145.694H155.668C154.879 145.694 154.211 146.443 154.17 146.504V141.868H151.944V155.937H154.17V148.67C154.312 148.164 154.737 147.779 155.263 147.779H156.579C157.207 147.779 157.693 148.204 157.693 148.852V155.937L157.672 155.957ZM175.446 145.876H173.097C172.531 148.164 171.964 150.249 171.397 152.556L169.757 145.876H167.409C166.863 148.123 166.316 150.289 165.769 152.556L164.089 145.876H161.721L164.595 155.957H166.883C166.883 155.957 168.34 150.613 168.583 149.742C168.725 150.208 170.284 155.957 170.284 155.957H172.551L175.446 145.876ZM185.081 152.07V149.014C185.081 147.192 183.603 145.694 181.782 145.694H180.425C178.583 145.694 177.126 147.172 177.126 149.014V152.84C177.126 154.661 178.583 156.159 180.425 156.159H181.984C183.644 156.159 185.061 154.884 185.061 153.204H182.794C182.814 153.548 182.551 154.054 182.004 154.054H180.466C179.838 154.054 179.352 153.609 179.352 152.981V152.091H185.061L185.081 152.07ZM182.834 149.985H179.352V148.892C179.352 148.305 179.838 147.799 180.466 147.799H181.741C182.348 147.799 182.854 148.305 182.854 148.892V149.985H182.834ZM189.778 145.876H187.551V155.957H189.778V145.876ZM189.818 141.625H187.47V143.973H189.818V141.625ZM200 145.876H192.328V147.981H196.134L191.579 155.957H199.231V153.852H195.506L200 145.876Z" fill="white"/>
<mask id="mask3_2746_1944" style="mask-type:luminance" maskUnits="userSpaceOnUse" x="0" y="76" width="93" height="71">
<path d="M0.830078 95.6534V95.8761C0.870564 114.459 10.7694 132.354 27.9353 141.382C50.9313 153.467 78.7855 145.289 92.328 123.224C77.5305 141.483 51.9839 147.496 30.5467 136.22C8.82603 124.823 -1.47761 99.4793 4.63575 76.1595C2.08514 82.5158 0.850321 89.1149 0.830078 95.6737" fill="white"/>
</mask>
<g mask="url(#mask3_2746_1944)">
<path d="M122.653 92.0907L17.8551 37.0097L-31.8008 137.536L72.9968 192.617L122.653 92.0907Z" fill="white"/>
</g>
</g>
</g>
<defs>
<clipPath id="clip0_2746_1944">
<rect width="200" height="200" fill="white"/>
</clipPath>
<clipPath id="clip1_2746_1944">
<rect width="200" height="114.032" fill="white" transform="translate(0 43)"/>
</clipPath>
</defs>
</svg>
