<svg width="200" height="200" viewBox="0 0 200 200" fill="none" xmlns="http://www.w3.org/2000/svg">
<g clip-path="url(#clip0_2515_354)">
<g clip-path="url(#clip1_2515_354)">
<mask id="mask0_2515_354" style="mask-type:luminance" maskUnits="userSpaceOnUse" x="0" y="84" width="200" height="32">
<path d="M200 84H0V116H200V84Z" fill="white"/>
</mask>
<g mask="url(#mask0_2515_354)">
<path d="M10.7034 116L9.48012 111.045C8.97046 108.774 8.5627 106.09 8.5627 106.09H8.46075C8.46075 106.09 8.05299 108.877 7.54332 111.045L6.42203 116H0L4.89295 100L0.101937 84.4129H6.32008L7.44137 89.1613C7.95108 91.1226 8.35884 94.1161 8.35884 94.1161H8.46075C8.46075 94.1161 8.97046 91.0193 9.37817 89.1613L10.6014 84.4129H16.9215L12.2324 100.103L17.1254 116H10.7034Z" fill="white"/>
<path d="M56.6773 91.4323C56.6773 90.2968 55.862 89.6774 55.1483 89.6774C54.435 89.6774 53.6193 90.2968 53.6193 91.4323V99.4839H56.7794V91.4323H56.6773ZM56.6773 116V105.058H53.5176V116H47.1973V91.2258C47.1973 86.6839 50.3574 83.8968 55.0466 83.8968C59.7354 83.8968 62.8956 86.5807 62.8956 91.2258V116H56.6773Z" fill="white"/>
<path d="M105.504 116H97.9612L93.1699 84.4129H99.4903L101.223 99.4839C101.427 101.548 101.733 106.503 101.733 106.503H101.835C101.835 106.503 102.14 101.548 102.344 99.4839L104.179 84.4129H110.499L105.504 116Z" fill="white"/>
<path d="M140.775 116V84.4129H153.11V90.0903H147.095V96.9032H152.396V102.581H146.994V110.323H153.11V116H140.775Z" fill="white"/>
<path d="M192.967 93.0839V91.742C192.967 90.6065 192.355 89.9871 191.438 89.9871H190.011V97.5226H191.54C192.355 97.5226 192.865 96.9032 192.865 95.871V93.0839H192.967ZM193.578 116C193.17 115.071 192.967 113.832 192.967 112.49V104.852C192.967 103.716 192.355 103.2 191.641 103.2H190.112V116H183.895V84.4129H191.54C196.84 84.4129 199.185 86.8903 199.185 91.6387V95.7678C199.185 98.0387 198.471 100 196.636 100.619C198.369 101.239 199.185 103.097 199.185 105.471V112.594C199.185 114.039 199.491 115.071 200 116.31H193.578V116Z" fill="white"/>
</g>
</g>
</g>
<defs>
<clipPath id="clip0_2515_354">
<rect width="200" height="200" fill="white"/>
</clipPath>
<clipPath id="clip1_2515_354">
<rect width="200" height="32" fill="white" transform="translate(0 84)"/>
</clipPath>
</defs>
</svg>
