<svg width="200" height="200" viewBox="0 0 200 200" fill="none" xmlns="http://www.w3.org/2000/svg">
<g clip-path="url(#clip0_1886_10666)">
<g clip-path="url(#clip1_1886_10666)">
<path d="M200 140.253H0V59.0029H200V140.253ZM3.12417 99.6278C3.12417 119.275 43.732 135.565 99.9989 135.565C156.266 135.565 196.874 119.275 196.874 99.6278C196.874 79.981 156.266 63.6902 99.9989 63.6902C43.732 63.6902 3.12417 79.981 3.12417 99.6278Z" fill="white"/>
<path d="M48.0132 84.0024C48.4364 84.851 48.4364 85.6996 48.4364 86.546V111.144C48.4364 111.992 48.4364 112.828 48.0132 113.687H66.0479C65.6247 112.839 65.6247 111.99 65.6247 111.144V100.797C65.6247 100.797 70.5821 108.322 71.5114 109.704C72.443 111.086 73.2575 112.839 73.2575 113.687H94.8885C94.0399 112.839 93.3509 112.02 92.7681 111.144C91.6388 109.445 82.966 96.2354 82.966 96.2354C82.966 96.2354 88.8294 89.1045 89.8566 87.8454C91.0178 86.4205 92.4576 84.851 93.7507 84.0024H74.9568C74.9568 84.851 73.7105 86.7034 72.7109 88.0369C71.3966 89.7914 65.6268 97.2839 65.6268 97.2839V86.5481C65.6268 85.6996 65.6268 84.8531 66.05 84.0046H48.0153L48.0132 84.0024Z" fill="white"/>
<path d="M132.812 92.2286C131.964 91.816 131.115 91.816 130.269 91.816H115.626V95.7228H129.688V101.973H115.626V105.88H130.269C131.117 105.88 131.966 105.88 132.812 105.457V113.694H98.0146C98.4379 112.845 98.4379 111.997 98.4379 111.15V86.5524C98.4379 85.7038 98.4379 84.8574 98.0146 84.0088H132.812V92.235V92.2286Z" fill="white"/>
<path d="M182.837 111.137C182.201 109.476 174.145 88.445 173.418 86.548C173.09 85.6951 172.644 84.853 172.863 84.0044H147.723C147.838 84.853 147.531 85.7015 147.223 86.548C146.528 88.462 138.788 109.797 138.297 111.15C137.987 112.003 137.683 112.843 136.951 113.691H151.832C151.704 112.843 152.015 111.994 152.317 111.148C152.621 110.291 152.927 109.449 152.927 109.449L153.086 109.004H163.952C163.952 109.004 164.094 109.381 164.122 109.446C164.511 110.459 164.8 111.146 164.8 111.146C165.132 111.994 165.468 112.841 165.373 113.689H184.232C183.49 112.841 183.165 111.992 182.837 111.137ZM155.354 102.752C156.651 99.1808 157.746 96.1523 157.844 95.8779C158.148 95.0272 158.359 93.9256 158.359 93.9256C158.359 93.9256 158.618 95.0272 158.943 95.8801C159.06 96.1884 160.205 99.185 161.566 102.752H155.354Z" fill="white"/>
<path d="M39.0616 86.546C39.0616 85.6974 39.0616 84.8489 39.4848 84.0024H19.887C20.3102 84.851 20.3102 85.6996 20.3102 86.546V111.144C20.3102 111.992 20.3102 112.841 19.887 113.687H39.4848C39.0616 112.839 39.0616 111.99 39.0616 111.144V86.546Z" fill="white"/>
</g>
</g>
<defs>
<clipPath id="clip0_1886_10666">
<rect width="200" height="200" fill="white"/>
</clipPath>
<clipPath id="clip1_1886_10666">
<rect width="200" height="81.2552" fill="white" transform="translate(0 59)"/>
</clipPath>
</defs>
</svg>
