<svg width="200" height="200" viewBox="0 0 200 200" fill="none" xmlns="http://www.w3.org/2000/svg">
<g clip-path="url(#clip0_3317_7)">
<path d="M68.4172 99.9944V101.109C68.4172 103.783 67.4576 106.041 65.5455 107.89C63.6334 109.731 61.0652 110.656 57.8548 110.656C54.581 110.656 51.8716 109.576 49.7338 107.417C47.5959 105.258 46.5234 102.612 46.5234 99.4793C46.5234 96.3466 47.5959 93.7078 49.7338 91.5417C51.8716 89.3827 54.581 88.3032 57.8548 88.3032C59.8516 88.3032 61.6861 88.79 63.3512 89.7566C65.0163 90.7233 66.3075 92.0074 67.2107 93.6161L65.2986 94.7309C64.6212 93.4115 63.6123 92.3672 62.2717 91.584C60.9311 90.8009 59.4635 90.4128 57.8548 90.4128C55.1596 90.4128 52.9582 91.2877 51.2507 93.0375C49.5433 94.7873 48.6895 96.9393 48.6895 99.4935C48.6895 102.048 49.5433 104.2 51.2507 105.949C52.9582 107.699 55.1596 108.574 57.8548 108.574C60.282 108.574 62.2294 107.96 63.6899 106.74C65.1504 105.512 65.983 103.953 66.1876 102.062H57.6008V100.023H68.4101L68.4172 99.9944ZM88.9562 94.8367H90.9953V110.275H88.9562V107.248C87.538 109.513 85.4566 110.641 82.719 110.641C80.5176 110.641 78.6408 109.858 77.0815 108.292C75.5293 106.726 74.7532 104.813 74.7532 102.549C74.7532 100.284 75.5293 98.3716 77.0815 96.8052C78.6338 95.2389 80.5106 94.4557 82.719 94.4557C85.4566 94.4557 87.538 95.5846 88.9562 97.8495V94.8226V94.8367ZM78.5491 106.895C79.7204 108.08 81.1597 108.673 82.8742 108.673C84.5817 108.673 86.0211 108.08 87.1994 106.895C88.3706 105.709 88.9562 104.263 88.9562 102.556C88.9562 100.848 88.3706 99.4017 87.1994 98.2164C86.0281 97.031 84.5817 96.4383 82.8742 96.4383C81.1668 96.4383 79.7274 97.031 78.5491 98.2164C77.3779 99.4017 76.7923 100.848 76.7923 102.556C76.7923 104.263 77.3779 105.709 78.5491 106.895ZM99.448 110.275V87.7387H101.487V110.275H99.448ZM116.664 94.4698C118.95 94.4698 120.798 95.2812 122.203 96.897C123.614 98.5127 124.319 100.425 124.319 102.626C124.319 102.852 124.298 103.169 124.256 103.586H110.702C110.906 105.152 111.57 106.394 112.692 107.304C113.813 108.221 115.196 108.68 116.847 108.68C118.019 108.68 119.035 108.44 119.888 107.953C120.742 107.466 121.384 106.838 121.814 106.055L123.607 107.107C122.929 108.2 121.998 109.061 120.827 109.703C119.655 110.345 118.315 110.663 116.812 110.663C114.385 110.663 112.409 109.901 110.885 108.377C109.361 106.853 108.599 104.919 108.599 102.57C108.599 100.22 109.347 98.3363 110.85 96.7982C112.353 95.253 114.286 94.4839 116.657 94.4839L116.664 94.4698ZM116.664 96.4454C115.055 96.4454 113.715 96.9252 112.635 97.8777C111.556 98.8373 110.913 100.072 110.702 101.596H122.217C122.012 99.9732 121.384 98.7032 120.333 97.8001C119.282 96.897 118.061 96.4383 116.657 96.4383L116.664 96.4454ZM138.953 94.4698C140.822 94.4698 142.304 95.0413 143.384 96.1843C144.463 97.3274 145.006 98.8655 145.006 100.799V110.275H142.967V100.799C142.967 99.4229 142.6 98.3504 141.874 97.5884C141.14 96.8264 140.11 96.4454 138.769 96.4454C137.288 96.4454 136.081 96.9111 135.157 97.8495C134.232 98.7879 133.767 100.234 133.767 102.189V110.282H131.728V94.8367H133.767V97.2427C134.917 95.3871 136.646 94.4628 138.953 94.4628V94.4698ZM155.153 91.1325C154.863 91.4218 154.518 91.5629 154.101 91.5629C153.685 91.5629 153.339 91.4218 153.05 91.1325C152.761 90.8432 152.62 90.4975 152.62 90.0812C152.62 89.6649 152.761 89.3192 153.05 89.0299C153.339 88.7406 153.685 88.5995 154.101 88.5995C154.518 88.5995 154.863 88.7406 155.153 89.0299C155.442 89.3192 155.583 89.6649 155.583 90.0812C155.583 90.4975 155.442 90.8432 155.153 91.1325ZM153.085 110.275V94.8367H155.124V110.275H153.085ZM170.506 110.648C168.177 110.648 166.244 109.872 164.699 108.32C163.154 106.768 162.385 104.849 162.385 102.563C162.385 100.277 163.154 98.3575 164.699 96.8052C166.244 95.253 168.177 94.4769 170.506 94.4769C172.03 94.4769 173.398 94.8438 174.612 95.5705C175.826 96.3043 176.715 97.285 177.265 98.5198L175.6 99.4793C175.191 98.555 174.527 97.8142 173.61 97.2709C172.693 96.7276 171.663 96.4525 170.506 96.4525C168.798 96.4525 167.359 97.0451 166.181 98.2305C165.009 99.4158 164.424 100.862 164.424 102.57C164.424 104.277 165.009 105.724 166.181 106.909C167.352 108.094 168.791 108.687 170.506 108.687C171.656 108.687 172.686 108.412 173.596 107.869C174.489 107.334 175.225 106.572 175.727 105.66L177.427 106.648C176.792 107.883 175.854 108.863 174.619 109.583C173.384 110.303 172.016 110.663 170.513 110.663L170.506 110.648ZM197.966 94.8367H200.005V110.275H197.966V107.248C196.548 109.513 194.467 110.641 191.729 110.641C189.528 110.641 187.651 109.858 186.092 108.292C184.539 106.726 183.763 104.813 183.763 102.549C183.763 100.284 184.539 98.3716 186.092 96.8052C187.644 95.2389 189.521 94.4557 191.729 94.4557C194.467 94.4557 196.548 95.5846 197.966 97.8495V94.8226V94.8367ZM187.559 106.895C188.73 108.08 190.17 108.673 191.884 108.673C193.599 108.673 195.031 108.08 196.209 106.895C197.381 105.709 197.966 104.263 197.966 102.556C197.966 100.848 197.381 99.4017 196.209 98.2164C195.038 97.031 193.592 96.4383 191.884 96.4383C190.177 96.4383 188.737 97.031 187.559 98.2164C186.388 99.4017 185.802 100.848 185.802 102.556C185.802 104.263 186.388 105.709 187.559 106.895Z" fill="white"/>
<path d="M17.842 95.8668H35.6787V93.8278H17.842C14.5752 93.8278 11.4989 95.0978 9.1917 97.412C6.87744 99.7263 5.60742 102.796 5.60742 106.062C5.60742 109.329 6.87744 112.405 9.1917 114.713C11.506 117.027 14.5752 118.297 17.842 118.297C21.1087 118.297 24.185 117.027 26.4922 114.713C28.8065 112.398 30.0765 109.329 30.0765 106.062V105.046H28.0374V106.062C28.0374 108.786 26.979 111.347 25.0528 113.273C23.1266 115.199 20.5654 116.258 17.842 116.258C15.1185 116.258 12.5573 115.199 10.6311 113.273C8.70486 111.347 7.64651 108.786 7.64651 106.062C7.64651 103.339 8.70486 100.778 10.6311 98.8514C12.5573 96.9252 15.1185 95.8668 17.842 95.8668Z" fill="white"/>
<path d="M17.8438 99.43C14.189 99.43 11.2185 102.4 11.2185 106.055C11.2185 109.71 14.189 112.681 17.8438 112.681C21.4986 112.681 24.4691 109.71 24.4691 106.055V105.032H18.0061V107.071H22.3171L22.2606 107.283C21.9895 108.247 21.4117 109.096 20.6147 109.702C19.8177 110.308 18.845 110.638 17.8438 110.641C15.3108 110.641 13.2576 108.581 13.2576 106.055C13.2576 103.529 15.3179 101.469 17.8438 101.469H33.6485V106.055C33.6485 108.186 33.2322 110.26 32.4067 112.208C31.6137 114.086 30.4635 115.792 29.02 117.231C27.5805 118.675 25.8744 119.825 23.9963 120.618C22.049 121.444 19.9817 121.86 17.8438 121.86C15.7059 121.86 13.6386 121.444 11.6912 120.618C9.81319 119.825 8.10704 118.675 6.66761 117.231C5.22404 115.792 4.07383 114.086 3.28089 112.208C2.45537 110.26 2.03909 108.193 2.03909 106.055C2.03909 103.917 2.45537 101.85 3.28089 99.9027C4.07818 98.0189 5.21414 96.3326 6.66761 94.8791C8.12108 93.4256 9.80738 92.2897 11.6912 91.4924C13.6386 90.6669 15.7059 90.2506 17.8438 90.2506H35.6805V88.2115H17.8438C15.4378 88.2115 13.0953 88.6842 10.901 89.6156C8.78019 90.5107 6.85356 91.8095 5.22825 93.4397C3.59805 95.065 2.29925 96.9917 1.40408 99.1125C0.47273 101.314 0 103.649 0 106.062C0 108.475 0.47273 110.811 1.40408 113.005C2.29925 115.126 3.59805 117.053 5.22825 118.678C6.85356 120.308 8.78019 121.607 10.901 122.502C13.1024 123.433 15.4378 123.906 17.8438 123.906C20.2498 123.906 22.5923 123.433 24.7866 122.502C26.9103 121.606 28.8224 120.315 30.4593 118.678C32.0962 117.041 33.3874 115.129 34.2835 113.005C35.2148 110.804 35.6876 108.468 35.6876 106.062V99.4371H17.8438V99.43Z" fill="white"/>
<path d="M18.0117 82.6093H35.6862V84.6483H18.0117V82.6093Z" fill="white"/>
<path d="M23.6152 77H35.6804V79.0391H23.6152V77Z" fill="white"/>
</g>
<defs>
<clipPath id="clip0_3317_7">
<rect width="200" height="46.9061" fill="white" transform="translate(0 77)"/>
</clipPath>
</defs>
</svg>
