<svg width="200" height="200" viewBox="0 0 200 200" fill="none" xmlns="http://www.w3.org/2000/svg">
<g clip-path="url(#clip0_1886_10689)">
<path d="M193.343 70.1787C192.468 69.0177 191.358 68.0534 190.087 67.3481C188.815 66.643 187.41 66.2123 185.961 66.0845C184.933 66.1083 183.923 66.3665 183.009 66.8395C182.095 67.3124 181.302 67.9877 180.688 68.8138C179.851 69.8685 179.242 71.0861 178.9 72.3889C178.558 73.6919 178.491 75.0515 178.703 76.3818C179.324 80.1038 180.471 86.8653 180.782 88.7882C179.397 89.8363 178.261 91.178 177.457 92.7172C176.652 94.2562 176.199 95.9547 176.129 97.69C176.257 99.1364 176.695 100.538 177.412 101.801C178.129 103.064 179.109 104.158 180.285 105.01C182.332 106.592 184.286 110.034 183.666 111.802C183.356 112.733 182.364 113.167 180.565 113.167C180.183 113.197 179.799 113.197 179.417 113.167C172.469 112.454 168.127 98.6515 167.228 95.4878C169.003 94.612 170.561 93.3509 171.787 91.7968C172.301 90.9902 172.634 90.0816 172.762 89.1337C172.891 88.1859 172.812 87.2215 172.531 86.307C172.531 85.9347 171.229 79.5144 171.229 79.5144C170.918 77.9016 170.546 76.0717 170.174 74.1487L169.895 72.5978C175.757 68.9689 182.891 64.6577 188.287 61.7111L189.373 61.0908L188.381 60.3464C186.625 59.18 184.525 58.6441 182.425 58.8266L192.257 51.6929L191.017 51.1036C184.814 48.002 178.61 53.2437 178.61 53.4608L172.004 58.8887C172.229 56.8659 172.04 54.8183 171.446 52.8715L170.67 50.4833L169.895 52.9026C169.161 55.0153 168.312 57.0861 167.352 59.1058C166.669 55.4149 166.111 52.4373 165.894 51.1346C165.727 50.0849 165.3 49.0935 164.653 48.2501C164.255 47.7329 163.797 47.2644 163.288 46.8544C162 45.8605 160.538 45.1138 158.977 44.6522C156.809 43.97 154.551 43.6146 152.278 43.5977C151.285 43.4836 150.28 43.6196 149.354 43.9934C148.427 44.3672 147.609 44.9669 146.974 45.7378C146.633 46.141 146.323 46.2341 145.485 46.2341H140.305C139.681 46.1817 139.053 46.2595 138.46 46.4623C137.868 46.6652 137.324 46.9888 136.863 47.4127C136.399 47.8988 136.134 48.5402 136.118 49.2116L135.529 56.3453H136.398C136.398 56.3453 142.198 56.5935 142.198 59.2299V59.571C140.583 58.6536 138.75 58.1926 136.894 58.2373C134.629 58.2373 133.203 57.8341 132.769 57.1208C132.496 56.6493 132.353 56.1144 132.353 55.5699C132.353 55.0255 132.496 54.4906 132.769 54.0191C132.769 54.0191 130.07 55.7871 131.218 58.0512C131.993 59.3229 133.73 59.9432 136.708 59.9742C138.369 59.8956 140.015 60.3286 141.422 61.2149C141.106 61.3746 140.751 61.4393 140.398 61.401H139.499H138.724H137.514C137.161 61.3828 136.815 61.5055 136.553 61.7422C136.246 62.1854 136.124 62.7303 136.211 63.2619V63.5411C136.211 65.34 139.313 66.4567 141.236 66.9838C140.833 67.6358 140.267 68.1707 139.592 68.5348C136.017 69.956 132.994 72.4897 130.97 75.7615C129.508 74.7844 127.996 73.8839 126.441 73.0631C123.13 70.9738 119.18 70.1379 115.307 70.7058C110.22 72.2876 107.521 73.9936 106.808 76.1338C106.686 76.3085 106.582 76.4957 106.498 76.692H93.5022C93.534 76.2494 93.4706 75.8052 93.3159 75.3892C92.6026 73.2491 89.9042 71.5433 84.8176 69.9615C80.9676 69.3996 77.0431 70.224 73.7447 72.2876C72.1899 73.1084 70.6784 74.009 69.2164 74.986C67.2112 71.698 64.1818 69.159 60.5938 67.7593C59.9196 67.3953 59.3527 66.8606 58.9501 66.2084C60.9352 65.6812 64.0058 64.5646 64.0058 62.7657V62.4866C64.0058 61.8042 64.0056 61.339 63.6336 60.9668C63.5044 60.8481 63.3527 60.7568 63.1875 60.6981C63.0224 60.6395 62.8471 60.6148 62.6721 60.6256H59.5705C59.2184 60.6639 58.8629 60.5992 58.547 60.4395C59.9545 59.5532 61.6 59.1202 63.2613 59.1988C66.3629 59.1988 67.9759 58.5475 68.7511 57.2758C69.8988 55.0117 67.2004 53.2437 67.2004 53.2437C67.4966 53.7015 67.6669 54.2292 67.6941 54.7737C67.7214 55.3183 67.6045 55.8603 67.3555 56.3453C66.9212 57.0587 65.4944 57.4619 63.2304 57.4619C61.3835 57.4118 59.5586 57.8733 57.9575 58.7956C57.9406 58.6825 57.9406 58.5675 57.9575 58.4544C57.9575 55.8181 64.626 55.3528 64.626 55.3528L63.9747 48.7774C63.9651 48.5022 63.9126 48.2302 63.8196 47.971C63.6998 47.6002 63.4984 47.2611 63.2304 46.9785C62.8036 46.5528 62.2948 46.2179 61.7351 45.9941C61.1755 45.7702 60.5762 45.6619 59.9737 45.6758H54.7629C53.8945 45.6758 53.5843 45.6758 53.2432 45.1795C52.6146 44.4089 51.802 43.8089 50.8806 43.4349C49.959 43.0609 48.9581 42.9249 47.9703 43.0394C45.6971 43.054 43.4388 43.4095 41.2709 44.094C39.0012 44.6901 36.9804 45.9938 35.5019 47.8159C34.8648 48.6617 34.449 49.6532 34.2923 50.7004C33.9821 52.4993 33.0516 57.4309 31.9659 63.1069L16.4579 49.2116C15.7032 48.5592 14.7246 48.2256 13.7285 48.2812C13.1187 48.3374 12.5275 48.521 11.9932 48.8202C11.459 49.1194 10.9935 49.5275 10.6269 50.0181C10.2409 50.4341 9.9408 50.9222 9.74386 51.4544C9.54694 51.9867 9.45702 52.5526 9.47929 53.1197C9.59326 54.3239 10.1718 55.4364 11.0921 56.2213L29.95 73.9004C28.7093 80.1038 27.6857 85.5315 27.5927 86.0589C27.3121 86.9732 27.233 87.9376 27.3618 88.8856C27.4903 89.8335 27.8229 90.7421 28.3372 91.5487C29.5193 93.1007 31.0214 94.3806 32.7414 95.3016C31.842 98.4034 27.4997 112.267 20.5831 112.981C20.2011 113.009 19.8175 113.009 19.4355 112.981C17.7296 112.981 16.7371 112.547 16.3339 111.616C15.7135 109.848 17.6676 106.406 19.7146 104.824C20.891 103.972 21.8709 102.878 22.5879 101.615C23.3049 100.352 23.7425 98.9504 23.8708 97.5038C23.8011 95.7684 23.3475 94.0702 22.5432 92.531C21.7387 90.992 20.6033 89.65 19.2184 88.6022C19.5285 86.8032 20.6761 80.0417 21.2965 76.1956C21.5165 74.8655 21.4534 73.5041 21.1114 72.1999C20.7693 70.8959 20.156 69.6786 19.3114 68.6278C18.6997 67.7998 17.9064 67.1234 16.9923 66.6503C16.0782 66.177 15.0677 65.9198 14.0387 65.8983C12.5902 66.0262 11.1848 66.4567 9.91327 67.1621C8.64168 67.8672 7.53229 68.8314 6.65682 69.9924C-0.197752 77.6844 -0.321818 80.0417 0.17444 81.1583C0.30573 81.4307 0.507027 81.6632 0.757722 81.832C1.00842 82.0011 1.2995 82.1003 1.60118 82.1198C2.97383 82.3591 4.36404 82.4835 5.75736 82.492C7.11082 82.6453 8.48139 82.4783 9.75834 82.0041C11.0353 81.5301 12.1828 80.7622 13.1082 79.7625C13.7286 78.7286 14.0919 77.5607 14.1674 76.3571C14.243 75.1535 14.0286 73.9494 13.5424 72.8459C13.1392 71.8224 13.3253 71.5122 13.3253 71.5122C13.8975 71.64 14.3978 71.9846 14.721 72.4737C15.3847 73.3458 15.8366 74.3599 16.0411 75.4366C16.2456 76.5131 16.1972 77.6223 15.8996 78.6771C14.8761 83.0812 9.20015 106.84 9.13811 107.088C9.07607 107.336 9.13811 107.615 8.92101 108.359C8.91207 108.463 8.91207 108.567 8.92101 108.67C8.49035 111.594 9.17694 114.572 10.844 117.013C12.9221 119.68 16.52 120.673 21.5446 120.114L20.428 128.272C19.8385 129.742 18.9284 131.061 17.764 132.134C16.5996 133.207 15.2103 134.007 13.6975 134.475C12.8513 134.702 12.068 135.119 11.407 135.694C10.746 136.269 10.2246 136.987 9.8825 137.794C9.62148 139.113 9.62982 140.472 9.90697 141.789C10.1841 143.105 10.7244 144.352 11.4953 145.455C13.3351 148.205 15.3339 150.846 17.4815 153.364L17.9777 153.953L18.567 153.519C19.4167 152.921 20.0913 152.108 20.521 151.162L20.9863 151.875C20.4404 153.027 20.3195 154.334 20.6451 155.566C20.8546 155.991 21.1504 156.368 21.5135 156.672C21.8766 156.977 22.2992 157.202 22.7542 157.334H29.9188H30.136C30.8968 156.707 31.404 155.825 31.5628 154.853H32.059C32.477 154.897 32.8997 154.847 33.296 154.706C33.6923 154.566 34.0522 154.339 34.3494 154.041C34.6467 153.744 34.8737 153.384 35.0142 152.988C35.1546 152.592 35.2045 152.169 35.1608 151.751C35.0975 150.367 34.5484 149.049 33.6099 148.029C33.5123 147.9 33.3975 147.785 33.2688 147.688L32.5554 147.037C32.4704 146.33 32.1242 145.68 31.585 145.215C31.0455 144.75 30.3516 144.504 29.6398 144.524C28.9278 144.552 28.2254 144.699 27.5618 144.959L26.7554 145.238L24.1189 137.235C27.4431 136.603 30.5028 134.993 32.9063 132.612C35.3099 130.23 36.9481 127.186 37.6111 123.868C37.6111 123.64 37.6729 123.392 37.7971 123.123C37.7971 122.658 38.0452 122.069 38.1694 121.448C38.2933 120.828 38.5105 120.084 38.6035 119.618H39.2859C40.1949 119.507 41.1175 119.594 41.99 119.872C42.8626 120.15 43.6646 120.614 44.3414 121.231C44.6094 121.658 44.7691 122.144 44.8069 122.647C44.8447 123.149 44.7595 123.653 44.5585 124.116C43.3304 126.835 41.3775 129.163 38.9137 130.846C36.6805 132.707 34.7576 134.32 34.6025 136.243C34.5773 136.715 34.6497 137.187 34.8151 137.63C34.9805 138.073 35.2355 138.477 35.564 138.817C38.7432 142.24 42.1527 145.443 45.7681 148.401L46.3264 148.836L46.8538 148.37C47.5314 147.731 48.0883 146.974 48.4977 146.137L48.9629 146.758C48.7476 147.426 48.6722 148.132 48.7416 148.831C48.8111 149.53 49.0237 150.207 49.3661 150.821C49.7822 151.349 50.3235 151.764 50.9409 152.03C51.5585 152.295 52.2327 152.402 52.9018 152.34H59.1052C60.0667 152.34 60.5629 150.883 60.532 149.425C62.2068 149.239 63.6336 148.494 63.6336 146.882C63.6212 146.789 63.6212 146.695 63.6336 146.602C63.6336 143.191 62.5791 141.299 60.1288 140.957C59.9178 140.421 59.551 139.959 59.0757 139.633C58.6001 139.307 58.0379 139.131 57.4613 139.127C56.3202 139.218 55.2358 139.662 54.3597 140.399L54.1116 140.089L50.0795 134.723C52.5298 133.204 59.6324 128.303 59.6324 122.317C59.6324 116.331 55.3521 113.012 46.5436 113.012H44.9929C50.9168 110.748 59.0432 106.995 60.5008 102.994H61.6485C61.359 104.093 61.3116 105.242 61.5097 106.361C61.7079 107.48 62.1468 108.543 62.796 109.476L59.8805 112.578L64.2228 115.989L67.3244 112.454C67.6664 112.447 68.0036 112.373 68.317 112.236V123.713C68.1122 130.569 70.3059 137.282 74.5202 142.694C80.0411 149.332 88.8497 152.713 100.636 152.713C112.422 152.713 120.951 149.146 126.441 142.136C130.403 136.75 132.485 130.211 132.365 123.526V112.485C132.623 112.587 132.895 112.65 133.172 112.671C133.974 112.651 134.748 112.367 135.374 111.864L135.777 111.554L136.708 110.748C137.427 110.092 138.026 109.315 138.476 108.452C139.248 106.761 139.413 104.854 138.941 103.056H140.088C141.453 107.057 149.61 110.81 155.596 113.074H154.077C145.237 113.074 140.957 116.176 140.957 122.379C140.957 128.582 148.06 133.359 150.51 134.785L146.478 140.151L146.23 140.461C145.354 139.724 144.269 139.28 143.128 139.19C142.551 139.193 141.989 139.369 141.514 139.695C141.038 140.022 140.671 140.483 140.461 141.019C138.01 141.361 136.832 143.253 136.987 146.664V146.944C136.987 148.556 138.506 149.301 140.088 149.487C140.088 150.945 140.554 152.402 141.546 152.402H147.749C148.419 152.464 149.093 152.357 149.71 152.092C150.328 151.826 150.869 151.411 151.285 150.883C151.628 150.269 151.84 149.592 151.91 148.893C151.979 148.194 151.904 147.488 151.689 146.819L152.154 146.199C152.559 147.047 153.128 147.806 153.829 148.432L154.356 148.898L154.883 148.463C158.365 145.441 161.64 142.187 164.684 138.724C165.019 138.389 165.278 137.985 165.444 137.541C165.61 137.097 165.679 136.623 165.646 136.15C165.646 134.227 163.568 132.614 161.366 130.753C158.893 129.071 156.93 126.743 155.689 124.023C155.489 123.56 155.403 123.056 155.441 122.554C155.479 122.051 155.639 121.565 155.907 121.138C156.588 120.519 157.396 120.054 158.274 119.775C159.151 119.497 160.079 119.412 160.993 119.525H161.645C161.645 119.991 161.924 120.673 162.079 121.355C162.234 122.038 162.358 122.565 162.451 123.03C162.544 123.495 162.451 123.557 162.637 123.775C163.302 127.097 164.945 130.145 167.354 132.527C169.764 134.908 172.83 136.516 176.16 137.142L173.524 145.145L172.748 144.866C172.086 144.602 171.383 144.456 170.67 144.431C169.96 144.418 169.27 144.666 168.732 145.13C168.194 145.594 167.846 146.239 167.755 146.944L167.041 147.595C166.922 147.693 166.818 147.808 166.731 147.936C165.822 149.01 165.327 150.375 165.336 151.782C165.292 152.2 165.342 152.623 165.482 153.019C165.622 153.415 165.85 153.775 166.147 154.073C166.444 154.37 166.804 154.597 167.2 154.737C167.596 154.878 168.019 154.928 168.437 154.884H168.747C168.887 155.856 169.385 156.741 170.143 157.365H170.36H177.556C178.021 157.2 178.443 156.933 178.791 156.584C179.14 156.236 179.407 155.814 179.572 155.349C179.898 154.117 179.777 152.81 179.231 151.658L179.696 150.945C180.14 151.881 180.812 152.692 181.65 153.302L182.27 153.736L182.736 153.147C184.883 150.629 186.882 147.988 188.722 145.238C189.498 144.138 190.044 142.892 190.326 141.575C190.609 140.259 190.622 138.899 190.366 137.577C190.016 136.769 189.489 136.051 188.823 135.476C188.157 134.902 187.369 134.485 186.52 134.258C185.006 133.798 183.617 133.001 182.457 131.927C181.296 130.852 180.395 129.528 179.82 128.055L178.579 120.114C183.604 120.797 187.171 119.805 189.249 117.013C190.905 114.58 191.56 111.604 191.079 108.701C191.088 108.597 191.088 108.494 191.079 108.391C191.079 107.646 190.862 107.181 190.862 107.119C190.862 107.057 185.124 83.1124 184.1 78.708C183.81 77.6526 183.765 76.545 183.969 75.4696C184.174 74.3943 184.622 73.3801 185.279 72.5048C185.609 72.0224 186.106 71.6796 186.675 71.5433C186.734 71.9994 186.658 72.4631 186.458 72.8771C185.971 73.9806 185.757 75.1846 185.833 76.388C185.908 77.5916 186.271 78.7595 186.892 79.7936C187.817 80.7931 188.965 81.561 190.242 82.0352C191.519 82.5092 192.889 82.6764 194.243 82.5229C195.636 82.5145 197.026 82.3901 198.399 82.1509C198.701 82.1346 198.994 82.0366 199.245 81.8673C199.496 81.698 199.697 81.4637 199.826 81.1892C200.322 80.2277 200.198 77.8707 193.343 70.1787ZM171.074 86.493C171.268 87.177 171.319 87.8938 171.223 88.5985C171.127 89.3032 170.886 89.9804 170.515 90.5872C169.298 92.055 167.759 93.2224 166.018 93.999C165.132 94.418 164.22 94.7806 163.288 95.0846C161.232 95.6752 159.036 95.5558 157.055 94.7456C155.074 93.9353 153.424 92.4813 152.371 90.6181L151.44 89.1605C151.44 89.1605 152.836 87.8267 154.542 86.214L156.124 88.6022C157.311 90.211 159.071 91.3017 161.04 91.6483C163.009 91.9947 165.035 91.5704 166.7 90.463C165.115 90.9556 163.417 90.9489 161.836 90.4443C160.255 89.9394 158.867 88.9607 157.861 87.6407C157.023 86.4 156.496 85.6245 156.062 84.9112C157.054 84.0434 158.089 83.2258 159.163 82.4609C159.559 83.2132 160.106 83.8761 160.769 84.4083C161.432 84.9405 162.198 85.3306 163.018 85.5547C163.838 85.7785 164.696 85.8314 165.537 85.7102C166.379 85.5888 167.186 85.2958 167.91 84.8493C166.517 85.0637 165.091 84.8493 163.822 84.2344C162.554 83.6196 161.502 82.6331 160.807 81.4064C161.408 81.0483 162.042 80.7471 162.699 80.507C164.824 79.6136 167.134 79.2516 169.43 79.4523C170.515 83.5777 171.043 86.4 171.074 86.493ZM162.265 77.1882L168.468 73.2803L168.84 75.2032C169.058 76.4128 169.306 77.5914 169.492 78.6771C167.231 77.7025 164.789 77.2162 162.327 77.2503L162.265 77.1882ZM171.632 61.1839L179.758 54.5154C181.035 53.4449 182.525 52.6588 184.13 52.2095C185.734 51.7603 187.416 51.6582 189.063 51.91L177.835 60.0053C177.312 60.2771 176.805 60.5774 176.315 60.9047L170.112 65.0299C170.733 63.7961 171.242 62.5089 171.632 61.1839ZM167.352 62.5796L167.941 61.494C168.882 59.7088 169.731 57.8765 170.484 56.0042C170.57 59.0432 169.91 62.0569 168.561 64.7817L168.189 65.5571C168.189 65.5571 168.189 65.7743 168.034 65.8673C167.904 66.1339 167.759 66.3928 167.6 66.6427V66.8288V67.015L164.746 71.202L168.778 68.1004L169.088 67.8835C170.081 67.1701 172.19 65.6502 177.308 62.3625C178.556 61.3686 180.039 60.7125 181.614 60.4572C183.19 60.202 184.804 60.356 186.302 60.9047C181.247 63.7272 174.982 67.5112 169.678 70.7988L168.251 71.6984L164.467 74.0555H164.25L163.878 74.2727L163.413 74.5828L158.822 77.4673L158.45 77.6844L156.868 78.708L154.542 80.1968L158.977 79.2042C160.1 78.9769 161.243 78.8626 162.389 78.8631L161.582 79.2042C157.518 81.6018 153.785 84.5215 150.479 87.8888L145.02 92.8515L136.335 93.813L155.286 76.816L158.822 73.5904L159.442 72.9701L160.125 72.3188C162.661 69.7546 164.86 66.878 166.669 63.7582C166.886 63.324 167.103 62.9518 167.289 62.5796H167.352ZM152.216 44.8073H153.953C153.474 45.0349 153.043 45.3505 152.681 45.7378H148.68C149.672 44.9869 150.919 44.6531 152.154 44.8073H152.216ZM149.734 51.7239C149.423 51.3514 149.219 50.901 149.145 50.4212V49.7389H148.463C148.463 49.7389 144.896 49.7389 144.213 48.1881C144.213 48.1881 143.997 49.5218 144.213 49.8009C142.942 49.8009 142.384 49.5838 142.384 52.4373C142.384 55.2908 145.919 55.1047 145.919 55.1047C145.919 55.1047 143.779 54.3293 143.779 52.6234C143.779 50.9175 144.152 51.3828 145.082 51.3828H147.811C148.011 52.1078 148.438 52.7494 149.03 53.213C149.622 53.6766 150.347 53.9374 151.099 53.9571C151.788 54.0287 152.484 53.9368 153.131 53.6889C153.777 53.441 154.356 53.0441 154.821 52.5304C155.162 52.1582 155.286 52.0651 155.627 52.0651H163.475C163.438 52.7233 163.264 53.3665 162.965 53.9539C162.666 54.5413 162.248 55.06 161.738 55.4769C159.529 56.6773 156.952 57.0091 154.511 56.4074C154.75 57.4313 155.29 58.3602 156.062 59.0748C156.796 59.4957 157.435 60.0624 157.942 60.7397C158.449 61.4171 158.812 62.191 159.008 63.0138C159.509 64.5626 160.408 65.9529 161.614 67.0459C161.614 67.0459 161.055 64.3165 160.373 61.9593C159.905 60.5155 159.007 59.2493 157.799 58.3304C159.562 58.328 161.283 57.7869 162.73 56.7796C163.802 55.9507 164.557 54.7793 164.87 53.4608C165.243 55.3838 165.739 58.1133 166.328 61.1839C164.439 64.7894 162.036 68.1013 159.194 71.016L139.065 89.3776C138.73 87.4334 138.102 85.551 137.204 83.7946C136.504 82.3956 136.211 80.8277 136.359 79.2702C136.507 77.7126 137.09 76.2281 138.041 74.986C137.256 75.4513 136.571 76.0687 136.027 76.8022C135.483 77.5358 135.092 78.3705 134.875 79.2576C134.658 80.1446 134.621 81.066 134.765 81.9676C134.909 82.8693 135.232 83.733 135.715 84.508C137.824 89.0054 137.483 90.7114 137.421 90.7114L133.42 94.092H132.303V76.4749C132.303 75.9787 133.73 72.5978 140.492 69.3411C141.555 68.7675 142.404 67.8642 142.911 66.7667L144.245 67.0459L146.012 67.2631C146.012 67.7902 145.454 68.7517 143.624 70.0236C139.127 73.1252 140.523 75.2341 142.011 78.4908L142.508 79.6074C142.828 80.277 143.057 80.9862 143.19 81.7166C143.8 80.4919 143.9 79.0759 143.469 77.7774C141.732 74.1487 141.391 73.4972 144.524 71.3882C146.021 70.5759 147.135 69.2044 147.625 67.5733C147.625 67.5733 147.625 67.5733 147.625 67.3561C148.821 67.3866 150.01 67.1866 151.13 66.7667C150.322 68.6979 149.213 70.4882 147.842 72.0705C147.458 72.5071 147.166 73.0168 146.984 73.5691C146.802 74.1217 146.733 74.7052 146.782 75.2848C146.832 75.8641 146.998 76.4279 147.27 76.9415C147.543 77.4551 147.917 77.9085 148.37 78.2739C147.772 77.5057 147.491 76.5385 147.583 75.57C147.675 74.6014 148.134 73.7045 148.866 73.0631C151.738 70.4057 153.5 66.7605 153.797 62.8587V63.0138C154.266 64.1673 154.266 65.4583 153.797 66.6118C153.478 67.6564 153.529 68.7792 153.942 69.7906C154.354 70.802 155.103 71.6402 156.062 72.1637C155.602 71.4036 155.304 70.5567 155.186 69.6761C155.069 68.7955 155.135 67.9 155.379 67.0459C155.662 66.2412 155.782 65.3884 155.734 64.5368C155.687 63.6852 155.471 62.8515 155.1 62.0833C154.896 61.7628 154.628 61.4875 154.313 61.2741C153.999 61.0608 153.644 60.914 153.27 60.8427H152.557L151.626 63.9443C150.944 65.8983 147.346 65.8363 144.679 65.4331C144.094 65.3492 143.515 65.2353 142.942 65.0919H142.322C140.611 64.865 139.005 64.1427 137.7 63.0138V62.5176H138.599H139.313H140.336C142.539 62.5176 143.624 61.3079 143.624 58.7956C143.624 55.3839 139.034 54.5464 137.08 54.3293L137.514 51.879C138.01 50.0181 140.616 49.0255 140.616 49.0255H137.886C137.867 48.8405 137.887 48.6533 137.946 48.4768C138.005 48.3002 138.101 48.1383 138.227 48.002H138.413H138.599H138.817C139.27 47.9471 139.728 47.9471 140.181 48.002H151.44C150.665 48.9325 151.316 50.8865 149.672 51.879L149.734 51.7239ZM158.605 45.8309C159.479 46.1143 160.321 46.4885 161.117 46.9474C162.552 47.6887 163.658 48.9385 164.219 50.4523H155.566C155.191 50.4519 154.821 50.5353 154.483 50.6963C154.145 50.8573 153.847 51.0918 153.611 51.3828C153.364 51.6655 153.059 51.8921 152.716 52.0472C152.374 52.2023 152.002 52.2825 151.626 52.2822C152.235 51.5202 152.631 50.6106 152.774 49.6459C152.851 48.992 153.07 48.3628 153.415 47.8022C153.761 47.2415 154.224 46.763 154.773 46.3998C155.323 46.0366 155.944 45.7975 156.595 45.6993C157.246 45.601 157.911 45.6459 158.543 45.8309H158.605ZM108.328 76.0096C108.855 74.4587 111.43 72.908 115.772 71.6054C118.873 70.6749 123.185 72.5048 126.41 74.2727C127.816 75.041 129.182 75.8797 130.504 76.785H122.906C122.437 76.4089 122.001 75.994 121.603 75.5443C121.577 76.0105 121.483 76.4703 121.324 76.909C121.138 77.4831 120.888 78.0345 120.579 78.5529C120.303 79.0003 119.992 79.4255 119.649 79.8245C119.249 80.1773 118.786 80.4509 118.284 80.6309C117.709 80.5668 117.178 80.2903 116.795 79.8557L116.423 79.4834C116.18 79.1923 115.962 78.8809 115.772 78.5529C115.636 78.3002 115.565 78.0177 115.565 77.7309C115.565 77.4441 115.636 77.1617 115.772 76.909V76.7539C117.043 75.2653 118.129 74.1487 118.129 74.1487C116.754 74.6523 115.534 75.5079 114.593 76.6299L114.376 76.909C114.188 77.1342 114.054 77.3992 113.984 77.6842C113.914 77.9692 113.91 78.2663 113.973 78.5529C114.226 79.277 114.639 79.9343 115.182 80.4758C115.029 80.6788 114.81 80.8215 114.562 80.879C114.432 80.9029 114.298 80.8985 114.17 80.8664C114.042 80.8344 113.921 80.7752 113.818 80.693L111.678 78.5529C111.512 78.3405 111.425 78.0778 111.43 77.8086C111.419 77.5083 111.483 77.21 111.616 76.9401C111.858 76.4096 112.245 75.958 112.732 75.6373L114.965 73.9936C113.632 74.3586 112.351 74.89 111.15 75.5755C110.635 75.884 110.249 76.3688 110.065 76.9401C109.929 77.4796 109.929 78.0443 110.065 78.584C110.026 78.768 110.026 78.9581 110.065 79.1423C108.979 79.1423 108.483 77.4363 108.452 76.9401C108.319 76.6492 108.276 76.3253 108.328 76.0096ZM73.7138 74.2417C76.8154 72.4737 81.3128 70.6749 84.3214 71.6054C88.7567 72.9701 91.2688 74.4587 91.7653 76.0096C91.8125 76.2659 91.8125 76.5287 91.7653 76.785C91.7653 77.2812 91.207 79.1112 90.1214 78.9872C90.2125 78.8122 90.2753 78.6237 90.3074 78.429C90.4414 77.889 90.4414 77.3248 90.3074 76.785C90.1232 76.2224 89.7509 75.7404 89.2529 75.4204C88.0406 74.7375 86.7488 74.2065 85.4068 73.8385L87.6711 75.4822C88.1469 75.8073 88.5228 76.2584 88.7567 76.785C88.8891 77.0549 88.953 77.3532 88.9427 77.6535C88.9475 77.9227 88.86 78.1854 88.6946 78.3978L86.5545 80.5379C86.4507 80.6202 86.3307 80.6793 86.2024 80.7113C86.0741 80.7434 85.9403 80.7478 85.8102 80.7242C85.5625 80.6664 85.3429 80.5237 85.1898 80.3207C85.7328 79.7792 86.1463 79.1219 86.3994 78.3978C86.4596 78.1133 86.4576 77.8189 86.3934 77.5351C86.3291 77.2515 86.2042 76.9848 86.0271 76.7539L85.779 76.4749C84.8377 75.3528 83.6185 74.4972 82.2433 73.9936C82.2433 73.9936 83.3287 75.1102 84.6004 76.599V76.7539C84.7188 77.018 84.7667 77.3083 84.7394 77.5965C84.7124 77.8844 84.6109 78.1605 84.4453 78.3978C84.2549 78.7258 84.0371 79.0372 83.794 79.3283L83.4217 79.7006C83.0394 80.1352 82.5086 80.4117 81.9332 80.4758C81.4397 80.2978 80.9863 80.0238 80.5994 79.6695C79.821 78.8367 79.2382 77.8407 78.8934 76.7539C78.7342 76.3152 78.6403 75.8554 78.6144 75.3892C78.2293 75.8407 77.8037 76.2561 77.3427 76.6299H69.5886C70.9231 75.7658 72.2999 74.9688 73.7138 74.2417ZM47.9703 44.8073C49.2131 44.6772 50.4577 45.0329 51.4442 45.7999H47.5671C47.1944 45.4116 46.7527 45.0961 46.2645 44.8694L47.9703 44.8073ZM37.642 47.909C38.7899 46.9437 40.1184 46.2163 41.55 45.7688C42.1983 45.4722 42.911 45.3434 43.622 45.3945C44.3331 45.4455 45.0202 45.6747 45.6194 46.0609C46.2187 46.447 46.7113 46.9778 47.0517 47.6043C47.3921 48.2308 47.5694 48.9329 47.5671 49.6459C47.7071 50.6172 48.1151 51.5302 48.7458 52.2822C48.3692 52.2866 47.9964 52.2083 47.6535 52.0529C47.3103 51.8975 47.0056 51.6687 46.7607 51.3828C46.5207 51.0967 46.2219 50.8656 45.885 50.705C45.5477 50.5445 45.1801 50.4583 44.8066 50.4523H36.1222C36.402 49.506 36.9261 48.6501 37.642 47.971V47.909ZM35.3777 53.3988C35.7106 54.7086 36.462 55.874 37.5178 56.7175C38.9654 57.7249 40.6861 58.266 42.4496 58.2684C41.2414 59.1872 40.3431 60.4534 39.8751 61.8972C39.1927 64.2545 38.6344 66.8599 38.6344 66.9838C39.8408 65.8909 40.739 64.5006 41.2398 62.9518C41.4542 62.1155 41.8409 61.3332 42.3749 60.6549C42.9091 59.9767 43.5787 59.4173 44.3414 59.0127C45.0955 58.2895 45.6236 57.3629 45.8614 56.3453C43.4207 56.9471 40.8432 56.6153 38.6344 55.4149C38.124 54.998 37.7057 54.4793 37.4067 53.8919C37.1078 53.3045 36.9344 52.6612 36.8975 52.0031H44.7757C45.0859 52.0031 45.2098 52.0031 45.5512 52.4683C46.0155 52.982 46.5947 53.3789 47.2414 53.6269C47.8881 53.8748 48.5843 53.9666 49.2731 53.8951C50.0261 53.8676 50.7516 53.6043 51.347 53.1424C51.9424 52.6805 52.3779 52.0433 52.5919 51.3207H55.2903C56.2206 51.3207 56.5929 50.9795 56.5929 52.5614C56.5929 54.1432 54.4837 55.0117 54.4527 55.0427C54.4218 55.0737 57.9887 55.0427 57.9887 52.3753C57.9887 49.7079 57.4302 49.8009 56.1585 49.7389C56.4068 49.4598 56.1585 48.1261 56.1585 48.1261C55.4763 49.6459 51.8783 49.6769 51.8783 49.6769H51.1961V50.3592C51.1218 50.839 50.918 51.2894 50.6069 51.6619C49.4282 50.9485 49.4591 50.2972 49.211 49.2116C49.211 48.9945 48.9629 48.3742 48.8079 47.909C48.7504 47.7275 48.6777 47.5511 48.5907 47.3817H59.8186C60.6117 47.2869 61.413 47.4736 62.0827 47.909C62.2875 48.2108 62.3956 48.5678 62.3928 48.9325H59.6945C59.6945 48.9325 62.1447 49.925 62.796 51.786L62.9823 54.2052C61.0282 54.4223 56.4687 55.5389 56.4687 58.6715C56.4687 60.9357 57.5234 62.3935 59.5705 62.3935H60.5938H61.3072H62.3308V62.8898C61.0261 64.0186 59.4198 64.741 57.7094 64.9678H57.1202C55.5049 65.3524 53.8489 65.5398 52.1885 65.5261C50.5136 65.5261 49.0869 64.9988 48.5907 63.8202L47.6913 60.7186H46.9779C46.6018 60.7826 46.2439 60.9264 45.9282 61.1404C45.6126 61.3545 45.3466 61.6337 45.148 61.9593C44.7617 62.7225 44.5377 63.5574 44.4896 64.4114C44.4415 65.2654 44.5707 66.1202 44.8687 66.9218C45.1127 67.7776 45.1752 68.6747 45.0525 69.556C44.9297 70.4373 44.6241 71.2831 44.1554 72.0395C45.1182 71.5204 45.8707 70.6829 46.2838 69.6699C46.6968 68.6571 46.7449 67.532 46.4196 66.4876C45.9438 65.3355 45.9438 64.0419 46.4196 62.8898V62.7347C46.7252 66.6409 48.4984 70.2866 51.3821 72.9389C52.1158 73.5806 52.5736 74.4804 52.6601 75.4511C52.747 76.4217 52.4558 77.3884 51.8474 78.1497C52.306 77.7893 52.6858 77.3387 52.9641 76.8263C53.2423 76.3136 53.4127 75.7496 53.4649 75.1686C53.5172 74.5877 53.4503 74.0021 53.2681 73.4482C53.086 72.894 52.7923 72.3829 52.4056 71.9465C51.0247 70.372 49.9139 68.5799 49.118 66.6427C49.6179 66.8423 50.1379 66.9877 50.6687 67.0769H52.2817H52.6228C52.61 67.1488 52.61 67.2223 52.6228 67.294C52.8622 68.1034 53.2597 68.8571 53.7918 69.5118C54.3242 70.1665 54.981 70.7095 55.7244 71.109C58.826 73.2182 58.5158 73.8695 56.7789 77.4984C56.3679 78.8019 56.479 80.2142 57.0891 81.4375C57.2249 80.7118 57.4435 80.0041 57.7404 79.3283L58.2677 78.2118C59.8495 75.1102 61.1212 72.722 56.6549 69.7443C54.7939 68.4727 54.2977 67.5112 54.2356 66.9838L55.7865 66.7978C56.2518 66.7978 56.6238 66.7978 57.027 66.6118C57.6077 67.6667 58.4945 68.5212 59.5705 69.0619C66.3008 72.1637 67.6657 75.6994 67.8208 76.1956V94.1231L66.4871 93.9369L61.0591 89.1605C61.4066 87.4384 61.9803 85.7698 62.7651 84.1978C63.6395 82.7669 64.0384 81.096 63.9046 79.4246C63.7708 77.7529 63.1115 76.1667 62.0206 74.893C62.5001 76.3298 62.6815 77.8494 62.5534 79.3586C62.4254 80.8678 61.9908 82.3351 61.2763 83.6707C60.7013 85.1254 60.2651 86.6311 59.9737 88.1678L41.3639 71.7294L33.2997 64.4406C34.1372 60.0983 34.9124 56.0662 35.3777 53.4608V53.3988ZM12.0226 54.9806C11.4551 54.4972 11.0808 53.8255 10.9681 53.0886C10.9515 52.7173 11.0118 52.3466 11.1452 51.9997C11.2787 51.6527 11.4823 51.3371 11.7435 51.0726C12.2214 50.4457 12.92 50.0243 13.6975 49.894C14.2677 49.869 14.8249 50.0696 15.2483 50.4523L39.72 72.1637L44.3104 76.2577L45.8614 77.6535L49.3971 80.7551L57.8645 88.3229L63.8196 93.6267L54.1735 92.5722C52.2902 92.118 50.5844 91.1139 49.2731 89.6878L12.0226 54.9806ZM29.5468 90.5872C29.1835 89.9946 28.9441 89.3346 28.8428 88.6469C28.7416 87.9594 28.7805 87.2584 28.9574 86.586C28.9574 86.586 29.95 81.5305 31.1596 75.3583L38.5725 82.306C37.834 83.322 36.8292 84.1146 35.6689 84.5962C34.5088 85.0777 33.2381 85.2296 31.9971 85.0353C33.2642 85.8445 34.7883 86.1498 36.2691 85.8914C37.7501 85.6332 39.0809 84.8298 39.9993 83.6395L43.1009 86.4621L42.1703 87.8267C41.1708 89.1557 39.7851 90.1432 38.2026 90.6541C36.6203 91.165 34.9186 91.1739 33.3308 90.6802C34.9942 91.7823 37.0187 92.2009 38.9828 91.8486C40.947 91.496 42.6995 90.4 43.8763 88.7882L44.5585 87.8267L47.6601 90.9283C46.5997 92.7656 44.9544 94.1948 42.9868 94.9875C41.0189 95.7801 38.8424 95.8908 36.8045 95.3016C35.8586 95.009 34.936 94.6461 34.044 94.2161C32.2901 93.404 30.75 92.1931 29.5468 90.6802V90.5872ZM17.6365 78.9561C17.9525 77.6803 17.9801 76.3502 17.7172 75.0625C17.4543 73.7749 16.9075 72.5621 16.1168 71.5122C15.8044 71.0852 15.4053 70.7292 14.9456 70.4671C14.4859 70.2052 13.976 70.0435 13.4494 69.9924C13.1832 69.9846 12.9193 70.0431 12.6812 70.1619C12.4431 70.2811 12.2381 70.4572 12.0847 70.6749C11.8562 71.1156 11.737 71.605 11.737 72.1016C11.737 72.598 11.8562 73.0874 12.0847 73.5284C12.4766 74.3867 12.6612 75.3253 12.6235 76.2682C12.5857 77.2109 12.3268 78.1318 11.8675 78.9561C11.0769 79.7205 10.1286 80.3026 9.08913 80.6616C8.04966 81.0206 6.94423 81.1477 5.85039 81.0341C4.54932 81.0304 3.25142 80.9058 1.97337 80.6621H1.75626C1.75626 80.6621 0.980856 79.1423 7.95949 71.3571C8.69572 70.3711 9.62579 69.5462 10.6925 68.9327C11.7593 68.3194 12.9402 67.9307 14.1627 67.7902C14.9457 67.8163 15.7126 68.0198 16.4056 68.3852C17.0987 68.7503 17.6998 69.2683 18.1638 69.8994C18.8561 70.7612 19.36 71.7584 19.6432 72.8269C19.9263 73.8954 19.9824 75.0112 19.8077 76.1026C19.0943 80.3828 17.6676 88.8194 17.6676 88.8194V89.2846C16.984 92.6089 15.5403 95.7299 13.4494 98.4034L12.8911 99.1167C14.597 91.7659 17.0162 81.7166 17.6365 79.0491V78.9561ZM28.2752 146.478C28.7155 146.28 29.1885 146.164 29.6707 146.137C29.9088 146.121 30.1456 146.178 30.3507 146.3C30.5555 146.422 30.7186 146.603 30.8185 146.819C29.5956 146.777 28.3732 146.913 27.1895 147.223V146.913L28.2752 146.478ZM57.4613 140.771C57.6416 140.772 57.8194 140.815 57.9807 140.896C58.1419 140.976 58.2826 141.093 58.3919 141.237C57.878 141.316 57.3704 141.43 56.8719 141.578L55.3833 141.95V141.764C55.94 141.255 56.6272 140.912 57.3683 140.771H57.4613ZM46.4506 114.687C54.3597 114.687 57.9266 117.013 57.9266 122.255C57.9266 128.458 48.6216 133.731 48.3735 133.793L47.5671 134.258L53.3983 142.012L54.7318 143.811L57.3062 143.16C58.3825 142.744 59.5531 142.637 60.6871 142.849C61.8966 143.47 62.0517 144.959 61.9897 146.54C61.9897 146.54 61.9897 146.819 61.9897 146.913C61.9897 147.502 60.9352 147.781 60.0046 147.843C59.8227 147.197 59.3987 146.647 58.8209 146.306C58.2432 145.965 57.5562 145.86 56.903 146.013C58.7639 147.254 58.919 148.308 58.8571 149.332C58.7951 150.355 58.8569 150.728 58.2677 150.728H52.7467C52.3422 150.777 51.9314 150.73 51.5486 150.59C51.1658 150.45 50.8217 150.22 50.5448 149.921C50.3365 149.431 50.2293 148.903 50.2293 148.37C50.2293 147.837 50.3365 147.31 50.5448 146.819V146.416L41.9532 136.801L46.3576 143.811C46.6018 144.26 46.6973 144.776 46.6306 145.283C46.5637 145.79 46.3379 146.263 45.9853 146.633C42.6876 143.878 39.5789 140.904 36.6805 137.732C36.4952 137.556 36.3474 137.344 36.2462 137.11C36.1449 136.875 36.0922 136.623 36.0911 136.367C36.0911 135.095 37.9522 133.638 39.813 132.087C42.5508 130.224 44.7022 127.62 46.0164 124.581C46.2994 123.87 46.4077 123.102 46.3321 122.341C46.2565 121.58 45.9993 120.849 45.5821 120.208C44.745 119.391 43.7391 118.768 42.6351 118.382C41.5314 117.996 40.3562 117.857 39.1927 117.974H38.5725C38.5725 117.199 38.5725 116.207 38.5725 115.152C41.1553 114.834 43.7554 114.679 46.3576 114.687H46.4506ZM38.8827 113.415C38.8827 111.771 39.0687 110.314 39.1308 109.259L37.1767 118.192V118.719C36.8045 120.425 36.0911 123.588 36.0911 123.588C35.4586 126.783 33.8245 129.693 31.4265 131.895C29.0284 134.098 25.9907 135.48 22.7542 135.84H21.7617L25.3287 146.695L26.042 149.146L26.8484 148.898C28.5853 148.37 31.4388 147.967 32.214 148.898C32.932 149.711 33.3288 150.759 33.3308 151.844C33.3308 152.558 33.3308 153.209 31.8729 153.209H31.5939C31.0975 150.945 28.151 151.162 28.151 151.162C28.5718 151.351 28.9455 151.631 29.2442 151.982C29.5431 152.334 29.7599 152.747 29.8787 153.193C29.9976 153.638 30.0155 154.105 29.9312 154.558C29.8471 155.012 29.6627 155.441 29.3917 155.814H23.1885C22.9756 155.727 22.7831 155.596 22.623 155.431C22.4629 155.265 22.3386 155.068 22.2579 154.853C22.0569 153.887 22.2228 152.881 22.7232 152.03L22.9403 151.596L20.459 147.781L15.2173 139.469L19.0633 148.588C19.2479 149.094 19.2725 149.646 19.1338 150.167C18.9952 150.688 18.6999 151.155 18.2879 151.503C16.3755 149.258 14.6042 146.896 12.9841 144.431C12.3118 143.561 11.8292 142.559 11.5674 141.491C11.3057 140.422 11.2706 139.311 11.4643 138.228C11.7262 137.651 12.1167 137.141 12.6059 136.738C13.0951 136.335 13.6701 136.049 14.2868 135.902C16.0562 135.355 17.6774 134.412 19.0266 133.143C20.3758 131.874 21.4174 130.315 22.0719 128.582L23.5296 118.036L22.413 118.254C17.5125 119.122 14.0387 118.254 12.2087 116.051C10.7932 113.811 10.2727 111.121 10.751 108.515C11.3215 105.247 12.6847 102.169 14.721 99.5509C16.7683 96.92 18.2373 93.8867 19.0323 90.6493C20.0362 91.5118 20.8538 92.5702 21.4351 93.7594C22.0164 94.9485 22.3491 96.2438 22.413 97.5658C22.297 98.7914 21.9217 99.9781 21.3121 101.048C20.7025 102.117 19.8725 103.045 18.8772 103.769C16.644 105.475 13.9766 109.507 14.9381 112.361C15.3103 113.508 16.4269 114.842 19.4975 114.842H20.8002C28.6783 114.004 33.2067 99.9852 34.3232 96.2321L35.5949 96.7283C35.3777 97.5038 35.0675 98.5894 35.0057 98.9305C34.805 99.6375 34.7649 100.38 34.8884 101.105C35.0119 101.829 35.2957 102.517 35.7191 103.118C36.9254 104.446 38.5847 105.276 40.3713 105.444H53.7703L52.1885 103.304H58.6088C56.2206 107.305 43.1318 112.174 38.7895 113.415H38.8827ZM63.6957 113.973L61.9276 112.578L63.5715 110.748C64.1156 111.255 64.6961 111.721 65.3084 112.143L63.6957 113.973ZM66.9523 111.244C65.5691 110.542 64.409 109.468 63.6024 108.142V107.925C63.1614 107.111 62.8877 106.217 62.7972 105.296C62.7067 104.374 62.8011 103.444 63.0753 102.559L63.5406 101.412H50.6687L49.118 99.892L50.2346 102.529L50.6378 103.552H44.9929L41.8911 99.3337L43.2869 103.552H40.4025C39.0997 103.426 37.8871 102.831 36.9907 101.877C36.7048 101.466 36.5149 100.997 36.4343 100.503C36.3539 100.009 36.385 99.5037 36.5254 99.0235C36.5254 98.7445 36.8665 97.783 37.1146 96.9455C37.8734 97.071 38.641 97.1331 39.4099 97.1315C41.3266 97.1817 43.2216 96.7159 44.8967 95.7829C46.572 94.8498 47.9655 93.484 48.9318 91.8279C50.3375 93.1734 52.1053 94.0787 54.0186 94.4331L65.7425 95.7359H66.1769L67.9447 95.984C69.5257 96.3723 70.9593 97.213 72.0699 98.4034C73.5598 99.547 74.8491 100.931 75.8848 102.497C76.003 102.783 76.0663 103.088 76.0711 103.397C76.0509 103.657 75.9769 103.911 75.8539 104.141L75.2336 103.397C73.9085 102.063 72.4772 100.839 70.9533 99.7369C70.9533 99.7369 78.3042 106.778 73.7447 109.786C73.2199 110.222 72.5656 110.473 71.8839 110.5C71.3226 110.502 70.7728 110.34 70.302 110.034C70.5048 109.608 70.6608 109.161 70.7673 108.701C71.7288 105.413 68.1308 101.877 68.1308 101.877C68.2368 102.078 68.3301 102.285 68.41 102.497C70.2711 105.878 69.2785 112.299 66.9833 111.244H66.9523ZM73.3415 97.3798C72.5491 96.6463 71.6868 95.9918 70.7673 95.4257H75.0785L73.3415 97.3798ZM76.8463 95.9219L78.3042 97.2247L75.9781 99.9231L74.5511 98.4034L76.8463 95.9219ZM78.18 114.128L74.6132 111.027C75.0681 110.677 75.4658 110.259 75.7918 109.786L79.3278 112.888L78.18 114.128ZM82.0571 112.422C82.5214 112.98 82.7755 113.682 82.7755 114.408C82.7755 115.133 82.5214 115.835 82.0571 116.393C81.8179 116.697 81.5116 116.943 81.1618 117.11C80.812 117.277 80.4285 117.36 80.0411 117.354C79.271 117.308 78.5198 117.097 77.8389 116.734L82.0571 112.422ZM75.8539 117.385H69.6507V115.617H76.7533L77.0635 115.307L75.4816 117.013L75.8539 117.385ZM69.6507 113.973V112.299H73.4345L75.4816 113.911L69.6507 113.973ZM100.419 151.193C95.8155 151.266 91.2297 150.606 86.8337 149.239H113.508C109.246 150.645 104.782 151.337 100.295 151.286L100.419 151.193ZM117.353 147.564H82.8635C81.8972 147.068 80.9646 146.508 80.0721 145.889H120.083C119.219 146.547 118.307 147.138 117.353 147.657V147.564ZM122.192 144.245H77.9319C77.312 143.687 76.7219 143.097 76.1641 142.477H123.929C123.393 143.136 122.813 143.758 122.192 144.338V144.245ZM125.294 140.833H74.7994C74.3962 140.275 73.993 139.686 73.6517 139.127H126.379C126.069 139.779 125.697 140.368 125.263 140.926L125.294 140.833ZM130.535 123.806C130.566 129.028 129.241 134.168 126.689 138.724L126.503 139.034L125.108 137.546H72.7212C72.4421 136.987 72.1629 136.429 71.9459 135.871H123.526L122.006 134.227H71.2944C71.1084 133.638 70.9224 133.048 70.7673 132.49H120.393L118.842 130.815H70.3641C70.3641 130.226 70.1469 129.668 70.0539 129.109H117.229L115.679 127.434H69.8367C69.8367 126.876 69.8367 126.318 69.8367 125.76H114.097L112.546 124.116H69.6507V122.379H110.933L109.382 120.704H69.6507V119.029H107.801L106.25 117.385H83.4838C83.9516 116.845 84.2719 116.193 84.4144 115.493H104.637L103.086 113.911H84.4765C84.4936 114.045 84.4936 114.181 84.4765 114.314C84.4171 113.567 84.2061 112.838 83.8561 112.174H101.535L99.9535 110.5H82.6774L82.0882 109.972L80.6303 111.492L77.5288 108.794H98.4646L96.914 107.119H76.8463C76.8337 107.191 76.8337 107.264 76.8463 107.336C76.9439 106.782 76.9439 106.215 76.8463 105.661L77.0325 105.444H95.3631L93.8124 103.8H77.6529C77.6683 103.687 77.6683 103.572 77.6529 103.459C77.6786 102.907 77.5833 102.357 77.3737 101.846V102.063H91.9204L90.3694 100.419H77.6529L79.1106 98.7133H88.9427L87.3918 97.0696H80.7233L78.7695 95.3016H85.779L84.2284 93.6267H69.6507V92.2H82.6465L81.0956 90.5563H69.6507V88.8503H79.5138L77.9631 87.1754H69.6507V85.4385H76.3192L74.7683 83.7637H69.6507V82.0577H73.1864L71.6358 80.414H69.6507V78.5529H77.7459C78.0756 79.4878 78.6421 80.3212 79.3898 80.9723C79.6902 81.3498 80.0659 81.6607 80.4931 81.8849C80.9204 82.1092 81.3898 82.2419 81.8711 82.2748C82.5968 82.2579 83.3001 82.0199 83.887 81.5926C84.2735 82.0602 84.8109 82.3782 85.4068 82.492H85.8411C86.4372 82.4721 87.012 82.2661 87.485 81.9026L89.0048 80.3828C89.4059 80.594 89.854 80.7008 90.3074 80.693C90.7435 80.6488 91.1653 80.5125 91.5449 80.2933C91.9245 80.074 92.2532 79.7769 92.5096 79.4214C92.7187 79.1536 92.8958 78.8619 93.0369 78.5529H106.994C107.147 78.8557 107.323 79.1462 107.521 79.4214C107.778 79.7769 108.107 80.074 108.486 80.2933C108.866 80.5125 109.288 80.6488 109.724 80.693C110.177 80.7008 110.625 80.594 111.026 80.3828L112.546 81.9026C113.019 82.2661 113.594 82.4721 114.19 82.492H114.624C115.229 82.38 115.777 82.0623 116.175 81.5926C116.504 81.8565 116.884 82.0506 117.291 82.1628C117.698 82.2748 118.124 82.3028 118.542 82.2448C118.96 82.1866 119.362 82.0439 119.723 81.8251C120.084 81.6061 120.396 81.3161 120.641 80.9723C121.389 80.3212 121.955 79.4878 122.285 78.5529H130.442V94.9295C129.059 95.5774 127.792 96.447 126.689 97.5038C125.337 98.6414 124.11 99.9204 123.029 101.319C122.558 102.011 122.328 102.84 122.378 103.676C122.346 103.913 122.346 104.153 122.378 104.389L117.633 109.538V120.114L125.914 111.616C126.325 111.821 126.75 111.998 127.186 112.143H128.054C128.859 112.133 129.649 111.92 130.349 111.523L130.535 123.806ZM123.464 108.297C123.741 109.139 124.196 109.911 124.797 110.562L119.401 116.176V110.158L123.402 105.754C123.212 106.572 123.223 107.423 123.433 108.235L123.464 108.297ZM140.616 101.505H136.553L137.018 102.652C137.343 103.534 137.485 104.472 137.438 105.41C137.39 106.349 137.152 107.268 136.739 108.111V108.359C135.932 109.685 134.772 110.759 133.389 111.461C133.243 111.546 133.077 111.59 132.908 111.59C132.739 111.59 132.574 111.546 132.427 111.461C130.877 110.624 130.411 105.599 131.993 102.777C132.073 102.564 132.167 102.357 132.272 102.156C131.711 102.722 131.212 103.346 130.784 104.017C130.252 104.716 129.875 105.52 129.677 106.375C129.479 107.231 129.465 108.118 129.636 108.98C129.757 109.435 129.913 109.881 130.101 110.314C129.63 110.619 129.081 110.781 128.519 110.779C127.838 110.752 127.183 110.501 126.658 110.065C122.13 106.964 129.45 100.016 129.45 100.016C127.926 101.118 126.495 102.342 125.17 103.676L124.549 104.421C124.44 104.185 124.367 103.933 124.332 103.676C124.337 103.367 124.4 103.062 124.518 102.777C125.493 101.121 126.741 99.642 128.209 98.4034C128.942 97.6969 129.766 97.0916 130.659 96.6044C131.169 96.313 131.725 96.1134 132.303 96.0149L134.071 95.7668H134.413L145.671 94.5263H146.075C147.989 94.177 149.759 93.2707 151.161 91.9209C152.127 93.577 153.521 94.943 155.196 95.8759C156.871 96.8089 158.766 97.2749 160.683 97.2247C161.452 97.2263 162.22 97.164 162.978 97.0385C163.226 97.876 163.506 98.8375 163.568 99.1167C163.704 99.5955 163.736 100.098 163.661 100.591C163.586 101.083 163.406 101.554 163.133 101.97C162.227 102.928 161.004 103.523 159.691 103.645H156.806L158.202 99.4269L155.1 103.645H149.579L149.983 102.622L151.099 99.9852L149.548 101.505H140.616ZM142.849 140.864C143.675 140.968 144.452 141.313 145.082 141.857L144.927 142.043L143.438 141.671C142.949 141.527 142.452 141.413 141.949 141.33C142.028 141.184 142.138 141.057 142.272 140.961C142.407 140.864 142.562 140.799 142.725 140.771L142.849 140.864ZM161.21 118.129C160.047 118.008 158.87 118.145 157.766 118.531C156.661 118.917 155.656 119.543 154.821 120.363C154.399 121.001 154.136 121.732 154.055 122.493C153.974 123.254 154.077 124.023 154.356 124.736C155.67 127.776 157.821 130.379 160.559 132.242C162.42 133.793 164.188 135.344 164.281 136.522C164.28 137.032 164.08 137.522 163.723 137.887C160.824 141.059 157.716 144.033 154.418 146.789C154.052 146.427 153.814 145.955 153.741 145.445C153.668 144.935 153.764 144.416 154.015 143.966L158.419 136.956L149.827 146.571L149.983 146.975C150.191 147.465 150.298 147.993 150.298 148.525C150.298 149.058 150.191 149.586 149.983 150.076C149.706 150.376 149.361 150.605 148.979 150.745C148.596 150.885 148.185 150.932 147.78 150.883H142.477C141.887 150.883 141.949 150.51 141.856 149.487C141.763 148.463 141.856 147.409 143.81 146.168C143.157 146.015 142.47 146.12 141.892 146.461C141.315 146.802 140.891 147.353 140.709 147.998C139.778 147.998 138.724 147.657 138.724 147.068V146.695C138.724 145.114 138.724 143.594 139.995 143.004C141.129 142.791 142.3 142.899 143.376 143.315L145.95 143.966L147.284 142.167L153.115 134.413L152.309 133.948C152.309 133.948 142.787 128.644 142.787 122.41C142.787 117.168 146.323 114.842 154.263 114.842C156.815 114.86 159.363 115.036 161.893 115.369C161.893 116.424 161.893 117.416 161.893 118.192L161.21 118.129ZM170.515 146.23C171.007 146.26 171.49 146.376 171.942 146.571L173.121 147.006V147.316C171.937 147.003 170.715 146.867 169.492 146.913C169.562 146.711 169.686 146.533 169.85 146.396C170.014 146.26 170.211 146.17 170.422 146.137L170.515 146.23ZM188.07 116.083C186.241 118.409 182.767 119.184 177.835 118.285L176.75 118.068L178.207 128.613C178.853 130.346 179.887 131.907 181.232 133.176C182.576 134.445 184.194 135.389 185.961 135.933C186.578 136.08 187.153 136.366 187.642 136.769C188.131 137.172 188.522 137.682 188.784 138.259C188.977 139.342 188.942 140.453 188.681 141.522C188.419 142.59 187.936 143.592 187.264 144.462C185.644 146.919 183.884 149.281 181.991 151.534C181.57 151.192 181.266 150.728 181.122 150.205C180.977 149.683 180.999 149.128 181.185 148.618L185.031 139.5L179.789 147.812L177.308 151.627L177.556 152.061C178.043 152.917 178.208 153.917 178.021 154.884C177.939 155.103 177.81 155.303 177.645 155.469C177.479 155.634 177.279 155.763 177.06 155.845H170.856C170.585 155.472 170.401 155.043 170.317 154.59C170.233 154.136 170.25 153.669 170.369 153.224C170.488 152.778 170.705 152.364 171.004 152.013C171.303 151.662 171.676 151.381 172.097 151.193C172.097 151.193 168.995 150.976 168.654 153.24H168.375C167.103 153.24 166.917 152.588 166.917 151.875C166.919 150.79 167.316 149.743 168.034 148.929C168.809 148.091 171.663 148.495 173.431 148.929L174.206 149.177L174.92 146.726L178.486 135.871H177.494C174.306 135.46 171.328 134.055 168.984 131.856C166.64 129.657 165.049 126.775 164.436 123.619C164.436 123.619 163.692 120.518 163.319 118.75V118.223L161.366 109.29C161.366 110.251 161.366 111.802 161.614 113.446C157.302 112.206 144.183 107.243 141.949 103.087H148.339L146.757 105.227H160.125C161.9 105.051 163.547 104.222 164.746 102.901C165.167 102.299 165.452 101.612 165.58 100.889C165.709 100.166 165.678 99.4235 165.491 98.7133C165.491 98.3722 165.088 97.2866 164.87 96.5114L166.142 96.0149C167.259 99.799 171.787 113.818 179.665 114.625H180.999C184.1 114.625 185.155 113.291 185.527 112.143C186.52 109.29 183.821 105.258 181.619 103.552C180.615 102.834 179.777 101.908 179.162 100.838C178.546 99.7676 178.168 98.5777 178.052 97.3487C178.116 96.0236 178.452 94.7256 179.039 93.5358C179.626 92.3459 180.452 91.2896 181.464 90.4321C182.269 93.6599 183.726 96.6891 185.744 99.3337C187.861 101.903 189.234 105.003 189.714 108.297C190.172 110.99 189.548 113.755 187.977 115.989L188.07 116.083ZM198.43 80.7551H198.244C196.955 80.9952 195.647 81.1196 194.336 81.1274C193.242 81.2408 192.136 81.1136 191.097 80.7546C190.058 80.3957 189.109 79.8135 188.319 79.0491C187.859 78.2248 187.6 77.3041 187.563 76.3612C187.525 75.4183 187.709 74.4798 188.101 73.6214C188.33 73.1804 188.449 72.6911 188.449 72.1946C188.449 71.698 188.33 71.2089 188.101 70.7679C187.939 70.5519 187.728 70.3773 187.486 70.2586C187.243 70.14 186.976 70.0806 186.706 70.0854C186.182 70.1329 185.676 70.2932 185.22 70.5557C184.765 70.8181 184.373 71.1763 184.069 71.6054C183.265 72.6482 182.708 73.8598 182.439 75.1491C182.171 76.4384 182.198 77.7719 182.519 79.0491C183.17 81.7166 185.62 91.7659 187.326 99.1786C187.158 98.9275 186.971 98.6893 186.768 98.4652C184.664 95.7373 183.239 92.548 182.612 89.1605V88.6952C182.612 88.6952 181.154 80.2589 180.44 75.9787C180.266 74.8871 180.322 73.7712 180.605 72.7027C180.888 71.6343 181.392 70.6371 182.084 69.7753C182.548 69.1441 183.15 68.6264 183.842 68.261C184.535 67.8956 185.302 67.6924 186.085 67.6663C187.308 67.8065 188.489 68.1953 189.556 68.8087C190.622 69.422 191.552 70.2472 192.289 71.2332C199.143 79.1423 198.368 80.6621 198.337 80.6621L198.43 80.7551Z" fill="white"/>
</g>
<defs>
<clipPath id="clip0_1886_10689">
<rect width="200" height="200" fill="white"/>
</clipPath>
</defs>
</svg>
