<svg width="200" height="200" viewBox="0 0 200 200" fill="none" xmlns="http://www.w3.org/2000/svg">
<g clip-path="url(#clip0_3493_1671)">
<path d="M98.0337 0.261135C102.556 -0.0598799 107.827 0.812209 112.146 2.08145C120.319 4.48265 127.729 8.81095 135.505 12.1244C146.865 16.9356 159.398 19.5531 168.945 27.8363C179.571 37.0537 182.445 51.0416 187.565 63.4691C190.713 71.1112 194.88 78.2271 197.52 86.1254C198.811 89.882 199.605 93.7905 199.885 97.7523C200.861 112.387 192.827 123.996 187.492 136.885C184.431 144.28 182.345 151.88 178.757 159.111C174.731 167.224 169.223 173.464 161.144 177.707C153.486 181.929 144.927 184.148 136.896 187.47C125.374 192.238 115.105 199.082 102.28 199.868C102.158 199.88 102.036 199.893 101.915 199.903C97.4268 200.27 92.1417 199.363 87.8531 198.106C79.6925 195.712 72.3124 191.401 64.5523 188.085C53.3233 183.322 41.0158 180.736 31.4654 172.716C20.5831 163.574 17.65 149.581 12.5533 137.041C9.4419 129.386 5.28052 122.324 2.57769 114.423C1.2877 110.751 0.464874 106.931 0.128471 103.054C-1.01828 88.7709 6.24954 77.5781 11.7252 65.0912C16.6983 53.7498 19.0463 41.3404 27.3169 31.6059C36.1761 21.0597 50.019 17.8618 62.2779 13.0277C70.8977 9.62857 78.9202 4.67753 87.8794 2.06289C91.2411 1.08181 94.225 0.560366 97.7085 0.288479C97.8161 0.277731 97.9241 0.268643 98.0337 0.261135ZM135.041 21.0736C123.894 16.8389 109.548 7.13397 97.3003 8.80117C86.6297 10.023 77.4304 15.7112 67.6988 19.9516C56.2611 24.9353 41.2708 27.5842 33.1832 37.8148C26.2525 46.5823 23.9616 58.5513 19.4488 68.6059C14.6608 79.5141 7.17762 91.0768 8.68023 103.467C10.0136 114.462 16.5569 124.081 20.5435 134.212C25.016 145.212 28.0035 159.392 37.8443 166.983C46.6292 173.758 58.3643 176.051 68.3697 180.503C79.207 185.23 90.9223 192.78 103.203 191.306C113.849 190.149 124.156 183.484 134.081 179.476C145.009 174.912 159.038 172.197 166.748 162.425C173.524 153.835 176.044 141.834 180.406 131.862C184.473 122.281 191.036 112.024 191.471 101.373C191.981 88.8816 183.886 77.0926 179.358 65.7875C174.856 54.9003 172.045 40.9162 162.287 33.3188C154.819 27.5058 143.929 24.4503 135.041 21.0736Z" fill="white"/>
<path d="M107.922 62.7974L115.742 62.797L124.522 86.0027C127.233 78.3858 130.404 70.4018 133.28 62.7974L141.093 62.7966V100.102H134.144V88.8325L134.152 77.1712L127.042 96.6918H122C119.587 90.3491 117.284 83.7681 114.922 77.3767C114.709 84.6 114.902 92.8 114.9 100.102H107.908L107.922 62.7974Z" fill="white"/>
<path d="M122.408 109.349C130.605 109.599 135.404 113.4 137.934 121.139L131.542 122.818C131.371 122.423 131.188 122.033 130.993 121.649C126.402 112.668 115.056 114.249 112.304 123.59C111.201 127.33 111.518 132.801 113.499 136.26C114.733 138.456 116.804 140.057 119.239 140.699C124.985 142.246 129.176 139.711 130.611 134.036L123.611 134.037C123.589 132.95 123.359 129.024 123.863 128.268L124.339 128.211H137.341L137.343 147.03L131.487 147.03C131.276 145.773 131.101 144.445 130.914 143.178C130.65 143.498 130.381 143.813 130.105 144.123C128.107 146.35 125.784 147.271 122.715 147.459C105.172 148.533 99.4933 126.353 109.31 114.862C112.589 111.022 117.321 109.547 122.408 109.349Z" fill="white"/>
<path d="M102.878 147.03H95.3213C94.7969 145.264 93.2887 139.817 92.5732 138.502C92.0042 138.181 91.2419 138.28 90.5488 138.287L80.8516 138.286C80.0345 141.14 79.0344 144.178 78.1523 147.03H70.6426L83.2559 109.755H90.2256L102.878 147.03ZM86.6787 119.344C85.4064 123.476 84.1519 127.8 82.8145 131.891L87.0938 131.889L90.6543 131.89C90.2091 130.399 87.1259 119.748 86.6787 119.344Z" fill="white"/>
<path d="M165.673 62.7966C170.022 74.624 174.236 88.0422 178.321 100.098L170.823 100.101L168.096 91.3171L165.752 91.3015H156.338C155.625 93.5865 154.391 98.005 153.511 100.101H146.1C149.811 88.0977 154.643 74.8146 158.714 62.7976L165.673 62.7966ZM158.293 84.8738H166.081C165.595 83.2377 162.701 73.0547 162.109 72.4382L158.293 84.8738Z" fill="white"/>
<path d="M31.0256 62.798L37.9906 62.7969L37.9898 77.4719C41.7071 72.8375 46.7102 67.3752 50.6705 62.7973H59.2784L44.1091 80.3669C47.5669 84.4077 51.124 88.8739 54.5197 93.0008L60.3532 100.101L51.4738 100.102L37.9896 83.2692L37.9911 100.102H31.0254L31.0256 62.798Z" fill="white"/>
<path d="M44.7307 109.755L72.3815 109.755V116.214H62.0217L62.0238 136.548V147.03H55.0805L55.0817 116.212L44.7305 116.214L44.7307 109.755Z" fill="white"/>
<path d="M64.4379 62.7968L71.4359 62.7974L71.4318 93.6288L87.2082 93.6282V100.102H64.4277L64.4379 62.7968Z" fill="white"/>
<path d="M93.4297 62.7963L100.385 62.7965V100.095L93.4297 100.102V62.7963Z" fill="white"/>
<path d="M147.885 109.508C150.42 108.969 153.047 109.831 154.766 111.766C156.486 113.701 157.032 116.41 156.195 118.859C155.359 121.307 153.27 123.118 150.725 123.6C146.853 124.334 143.109 121.817 142.332 117.957C141.554 114.096 144.03 110.329 147.885 109.508ZM151.162 114.585C150.456 113.941 149.459 113.728 148.55 114.03C147.195 114.482 146.447 115.933 146.866 117.299C147.287 118.665 148.721 119.446 150.097 119.059C151.018 118.8 151.725 118.064 151.947 117.135C152.168 116.206 151.867 115.23 151.162 114.585Z" fill="white"/>
</g>
<defs>
<clipPath id="clip0_3493_1671">
<rect width="200" height="200" fill="white"/>
</clipPath>
</defs>
</svg>
