<svg width="200" height="200" viewBox="0 0 200 200" fill="none" xmlns="http://www.w3.org/2000/svg">
<g clip-path="url(#clip0_1157_16408)">
<path fill-rule="evenodd" clip-rule="evenodd" d="M1 122.185H46.1849V77H1V122.185Z" stroke="white" stroke-width="2"/>
<path fill-rule="evenodd" clip-rule="evenodd" d="M41.6656 81.5185H24.3146L14.5547 100.175L24.3146 117.666H41.6656L31.9057 100.175L41.6656 81.5185Z" fill="white"/>
<path d="M189.805 99.9697H191.905V109.939L196.475 105.321H199.332L194.045 110.362L200 116.698H196.989L191.905 110.854V116.698H189.805V99.9697ZM176.667 105.323H178.697V107.128H178.742C179.367 105.835 180.883 105.055 182.468 105.055C185.413 105.055 186.728 106.884 186.728 109.94V116.697H184.632V110.81C184.632 108.156 184.051 106.862 182.222 106.75C179.836 106.75 178.765 108.669 178.765 111.434V116.698H176.668V105.323H176.667ZM171.515 111.278C171.069 111.278 170.623 111.233 170.176 111.233C169.039 111.233 166.228 111.413 166.228 113.419C166.228 114.623 167.387 115.27 168.348 115.27C170.422 115.27 171.515 113.977 171.515 112.283V111.278ZM165.292 106.126C166.34 105.501 167.59 105.055 169.039 105.055C172.296 105.055 173.611 106.662 173.611 109.76V114.468C173.611 115.762 173.656 116.364 173.701 116.698H171.738V115.226H171.692C171.204 115.917 170.087 116.966 168.168 116.966C165.716 116.966 163.997 115.895 163.997 113.419C163.997 110.563 167.121 109.671 169.285 109.671C170.11 109.671 170.689 109.671 171.515 109.716C171.515 107.754 170.801 106.75 168.705 106.75C167.523 106.75 166.25 107.196 165.403 107.911L165.29 106.126H165.292ZM157.083 106.75C154.807 106.75 153.714 108.913 153.714 111.033C153.714 112.928 154.696 115.269 157.06 115.269C159.313 115.269 160.25 112.75 160.205 110.965C160.25 108.913 159.356 106.75 157.083 106.75ZM151.617 99.9697H153.714V106.883H153.76C154.407 105.835 155.543 105.054 157.529 105.054C160.83 105.054 162.436 107.753 162.436 110.81C162.436 113.932 160.986 116.965 157.552 116.965C155.521 116.965 154.227 115.939 153.672 115.091H153.626V116.698H151.618V99.9686L151.617 99.9697ZM146.174 99.9697H148.271V116.697H146.174V99.9697ZM140.753 111.278C140.307 111.278 139.861 111.233 139.415 111.233C138.277 111.233 135.467 111.413 135.467 113.419C135.467 114.623 136.627 115.27 137.586 115.27C139.659 115.27 140.753 113.977 140.753 112.283V111.278ZM134.529 106.126C135.58 105.501 136.828 105.055 138.277 105.055C141.533 105.055 142.849 106.662 142.849 109.76V114.468C142.849 115.762 142.894 116.364 142.939 116.698H140.976V115.226H140.931C140.438 115.917 139.324 116.966 137.407 116.966C134.951 116.966 133.234 115.895 133.234 113.419C133.234 110.563 136.358 109.671 138.521 109.671C139.347 109.671 139.926 109.671 140.752 109.716C140.752 107.754 140.037 106.75 137.94 106.75C136.759 106.75 135.488 107.196 134.641 107.911L134.529 106.126ZM120.857 105.323H122.888V107.128H122.933C123.558 105.835 125.076 105.055 126.659 105.055C129.603 105.055 130.919 106.884 130.919 109.94V116.697H128.822V110.81C128.822 108.156 128.243 106.862 126.413 106.75C124.027 106.75 122.955 108.669 122.955 111.434V116.698H120.859V105.323H120.857ZM112.759 115.27C115.214 115.27 116.306 113.041 116.306 111.011C116.306 108.846 114.99 106.75 112.759 106.75C110.505 106.75 109.19 108.847 109.19 111.011C109.19 113.041 110.284 115.269 112.759 115.269V115.27ZM112.759 105.055C116.216 105.055 118.536 107.554 118.536 111.011C118.536 114.267 116.171 116.966 112.759 116.966C109.324 116.966 106.959 114.267 106.959 111.01C106.959 107.553 109.28 105.055 112.759 105.055ZM105.574 107.019H102.564V113.242C102.564 114.555 103.367 115.27 104.326 115.27C104.974 115.27 105.441 115.069 105.754 114.869V116.653C105.286 116.786 104.638 116.965 103.97 116.965C101.807 116.965 100.467 115.939 100.467 113.665V107.019H97.9032V105.323H100.467V102.691L102.564 102.021V105.323H105.574V107.019ZM86.3935 105.322H88.4234V107.129H88.4686C89.0922 105.835 90.6081 105.055 92.193 105.055C95.1368 105.055 96.4528 106.884 96.4528 109.94V116.697H94.3562V110.81C94.3562 108.156 93.7756 106.862 91.9467 106.75C89.561 106.75 88.4901 108.669 88.4901 111.434V116.698H86.3935V105.322ZM81.2379 111.278C80.7917 111.278 80.3477 111.233 79.8993 111.233C78.7629 111.233 75.9535 111.413 75.9535 113.419C75.9535 114.623 77.1125 115.27 78.0716 115.27C80.1467 115.27 81.2379 113.977 81.2379 112.283V111.278ZM75.0148 106.126C76.0631 105.501 77.3124 105.055 78.7629 105.055C82.0185 105.055 83.3356 106.662 83.3356 109.76V114.468C83.3356 115.762 83.3797 116.364 83.4248 116.698H81.4616V115.226H81.4164C80.9261 115.917 79.8112 116.966 77.8919 116.966C75.4395 116.966 73.7225 115.895 73.7225 113.419C73.7225 110.563 76.8448 109.671 79.0091 109.671C79.8338 109.671 80.4144 109.671 81.239 109.716C81.239 107.754 80.5251 106.75 78.4285 106.75C77.2469 106.75 75.975 107.196 75.1278 107.911L75.0148 106.126ZM60.4065 101.129H62.6375V107.978L69.2842 101.129H72.2495L64.9329 108.489L72.829 116.697H69.5734L62.6375 109.069V116.697H60.4065V101.129ZM129.4 85.9895H131.363V87.7517H131.408C131.965 86.569 133.17 85.7218 134.373 85.7218C134.998 85.7218 135.311 85.7884 135.758 85.8777V87.7517C135.376 87.5936 134.953 87.5507 134.596 87.5507C132.722 87.5507 131.496 89.3343 131.496 92.1889V97.3648H129.399V85.9884L129.4 85.9895ZM124.805 90.5837C124.805 88.8441 123.781 87.4162 121.974 87.4162C119.921 87.4162 119.072 89.1129 118.916 90.5837H124.805ZM126.166 96.896C125.364 97.1863 124.448 97.6325 122.574 97.6325C118.539 97.6325 116.687 95.179 116.687 91.4761C116.687 88.1087 118.806 85.7218 122.018 85.7218C125.809 85.7218 127.035 88.4871 127.035 92.146H118.916C118.916 94.3973 120.679 95.937 122.665 95.937C124.048 95.937 125.652 95.2242 126.166 94.8006V96.896ZM104.258 80.6362H106.357V87.6173H106.403C107.159 86.4131 108.476 85.7218 110.059 85.7218C113.003 85.7218 114.318 87.5507 114.318 90.6063V97.3637H112.223V91.4761C112.223 88.8215 111.644 87.5281 109.815 87.4162C107.428 87.4162 106.357 89.3343 106.357 92.0996V97.3637H104.258V80.6362ZM102.029 87.9076C101.227 87.5732 100.423 87.4162 99.7535 87.4162C97.4118 87.4162 96.0958 89.5139 96.0958 91.6783C96.0958 93.7071 97.1882 95.9381 99.8868 95.9381C100.601 95.9381 101.493 95.7144 102.14 95.2908L102.297 97.1637C101.428 97.5648 100.423 97.6325 99.6654 97.6325C96.2291 97.6325 93.8659 94.9339 93.8659 91.6783C93.8659 88.2194 96.1851 85.7218 99.6654 85.7218C100.513 85.7218 101.607 85.9229 102.207 86.168L102.029 87.9076ZM86.5708 85.9884H88.5341V87.7506H88.5782C89.1351 86.569 90.3415 85.7218 91.5446 85.7218C92.1681 85.7218 92.4822 85.7884 92.9284 85.8777V87.7517C92.5488 87.5936 92.1263 87.5507 91.7682 87.5507C89.8953 87.5507 88.6686 89.3343 88.6686 92.1889V97.3648H86.572L86.5708 85.9884ZM79.2091 82.02H81.3057V84.251H79.2091V82.02ZM75.5525 82.02H77.6491V84.251H75.5525V82.02ZM83.4463 97.3648H81.4175V95.5574H81.3757C80.751 96.852 79.2351 97.6325 77.6525 97.6325C74.7064 97.6325 73.3904 95.8037 73.3904 92.748V85.9884H75.487V91.8782C75.487 94.5317 76.0676 95.8251 77.8965 95.937C80.2845 95.937 81.3542 94.0189 81.3542 91.2536V85.9895H83.4497V97.3648H83.4463ZM60.3613 95.3597L68.4359 83.7608H60.6302V81.8009H71.0001V83.8093L62.9482 95.4061H71.1334V97.3693H60.3613V95.3597Z" fill="white"/>
</g>
<defs>
<clipPath id="clip0_1157_16408">
<rect width="200" height="200" fill="white"/>
</clipPath>
</defs>
</svg>
