<svg width="200" height="200" viewBox="0 0 200 200" fill="none" xmlns="http://www.w3.org/2000/svg">
<g clip-path="url(#clip0_1886_10680)">
<path d="M20.4238 102.671L12.1 82.7046H0V118.086H9.06667V97.6617L17.6714 118.086H22.5048L31.2857 97.6617V118.086H40.319V82.7427H29.1381L20.4238 102.671Z" fill="white"/>
<path d="M92.9808 97.7333H81.4808L81.5189 104.929H85.8903V111.119C84.5812 111.303 83.2597 111.384 81.9379 111.362C75.2713 111.362 71.676 107.167 71.676 100.324C71.676 93.9048 74.7808 89.4952 81.4474 89.4952C84.283 89.6039 87.0722 90.2503 89.6665 91.4L93.2284 85.3333C90.3713 83.3905 85.8903 82 80.776 82C69.1713 82 62.2046 89.481 62.2046 100.31C62.2046 112.443 69.1522 118.724 82.3427 118.724C86.3797 118.709 90.4066 118.318 94.3713 117.557V99.3191C94.3903 98.4905 93.8998 97.7333 92.9808 97.7333Z" fill="white"/>
<path d="M54.9904 82.7046H47.2666V118.086C47.2666 118.086 56.3666 118.086 56.3142 118.047V84.1141C56.3041 83.7579 56.1637 83.4178 55.9198 83.1581C55.6759 82.8984 55.3452 82.737 54.9904 82.7046Z" fill="white"/>
<path d="M121.552 101.752C125.643 100.943 127.829 96.9189 127.829 92.9713C127.829 84.1522 121.976 82.7427 115.167 82.7427H102.61C102.251 82.7872 101.919 82.9533 101.669 83.2133C101.418 83.4734 101.264 83.8115 101.233 84.1712V118.105H110.124V105.386H113.81C115.643 105.386 116.243 106.376 117.091 108.347L121.291 118.086H130.848L126.791 107.89C125.643 105.066 123.6 102.457 121.552 101.752ZM114.567 98.4189H110.124V89.5474H114.567C117.214 89.5474 119.295 90.2189 119.329 93.6379C119.362 97.057 117.214 98.3998 114.567 98.3998V98.4189Z" fill="white"/>
<path d="M187.195 96.0046C184.129 95.0856 181.695 94.1332 181.695 92.2999C181.695 90.4665 183.6 89.1951 186.934 89.1951C189.719 89.1951 192.172 90.3237 194.624 91.7713L199.524 86.1618C197.3 84.0475 192.929 82.0332 187.281 82.0332C178.71 82.0332 172.153 86.1618 172.153 93.5713C172.153 100.447 178.076 102.495 183.191 103.938C187.424 105.138 190.634 105.843 190.634 108.224C190.634 110.762 187.743 111.186 185.448 111.186C181.429 111.186 177.053 109.105 174.795 107.728L170.776 114.871C173.243 116.567 178.781 118.719 184.776 118.719C194.124 118.719 199.948 113.709 199.981 106.405C200 99.3903 192.591 97.6618 187.195 96.0046Z" fill="white"/>
<path d="M150.443 82.0332C138.871 82.0332 132.733 90.1856 132.733 100.343C132.733 110.571 138.871 118.757 150.443 118.757C161.271 118.757 167.41 110.571 167.41 100.343C167.41 90.2189 161.271 82.0332 150.443 82.0332ZM150.443 111.276C145.681 111.276 142.291 107.89 142.291 100.376C142.291 92.9713 145.681 89.5475 150.443 89.5475C154.533 89.5475 157.886 92.9332 157.886 100.376C157.886 107.89 154.533 111.276 150.443 111.276Z" fill="white"/>
</g>
<defs>
<clipPath id="clip0_1886_10680">
<rect width="200" height="200" fill="white"/>
</clipPath>
</defs>
</svg>
