<svg width="200" height="200" viewBox="0 0 200 200" fill="none" xmlns="http://www.w3.org/2000/svg">
<g clip-path="url(#clip0_1886_10676)">
<g clip-path="url(#clip1_1886_10676)">
<path d="M193.219 97.4763L187.619 94.7334C185.714 93.943 184.762 93.0763 184.762 92.0668C184.762 91.3096 185.19 90.6382 186.057 90.162C187.113 89.61 188.296 89.3487 189.486 89.4049C191.9 89.4049 194.643 90.0144 197.743 91.1715V85.2382C196.262 84.9144 194.748 84.662 193.052 84.443C191.644 84.2419 190.223 84.1337 188.8 84.1191C184.99 84.1191 181.909 84.9858 179.605 86.643C178.521 87.3804 177.637 88.3757 177.032 89.5394C176.428 90.703 176.122 91.9986 176.143 93.3096C176.128 95.1736 176.708 96.9938 177.8 98.5049C178.919 99.981 180.614 101.243 182.919 102.314L189.162 104.986C190.59 105.595 191.252 106.414 191.252 107.367C191.252 109.352 189.557 110.324 186.205 110.324C182.992 110.248 179.812 109.651 176.79 108.557V114.748C178.448 115.184 180.135 115.502 181.838 115.7C183.49 115.884 185.152 115.968 186.814 115.952C190.819 115.952 194.029 115.086 196.409 113.281C197.558 112.485 198.49 111.415 199.119 110.168C199.749 108.92 200.056 107.535 200.014 106.138C200 102.491 197.762 99.6382 193.219 97.4763Z" fill="white"/>
<path d="M17.0572 97.4763L11.4667 94.7334C9.52385 93.943 8.57147 93.0763 8.57147 92.0668C8.57147 91.3096 9.0048 90.6382 9.86671 90.162C10.9222 89.61 12.1055 89.3487 13.2953 89.4049C15.6762 89.4049 18.4143 90.0144 21.5191 91.1715V85.2382C20.0381 84.9144 18.5238 84.662 16.9381 84.443C15.5279 84.2405 14.1057 84.1323 12.681 84.1191C8.87147 84.1191 5.79528 84.9477 3.48576 86.643C2.39855 87.3773 1.51229 88.372 0.907649 89.5364C0.303008 90.7007 -0.000810115 91.9978 0.023851 93.3096C-0.00720743 95.1761 0.574944 97.0011 1.68099 98.5049C2.80004 99.981 4.49528 101.243 6.8048 102.314L13.0429 104.986C14.4143 105.595 15.1 106.414 15.1 107.367C15.1 109.352 13.4048 110.324 10.0477 110.324C6.83699 110.241 3.66032 109.644 0.638137 108.557V114.748C2.29672 115.181 3.98328 115.499 5.68576 115.7C7.33793 115.884 8.99966 115.968 10.6619 115.952C14.7 115.952 17.8762 115.086 20.2905 113.281C21.4296 112.478 22.3521 111.406 22.9753 110.159C23.5985 108.913 23.9032 107.531 23.8619 106.138C23.8381 102.491 21.5667 99.6382 17.0572 97.4763Z" fill="white"/>
<path d="M37.0381 84.6382H27.9143V115.362H37.0381V84.6382Z" fill="white"/>
<path d="M52.9047 102.272H64.6571V97.1525H52.9047V90.3334H66.4619V84.6382H44.1047V115.362H66.7143V109.414H52.9047V102.272Z" fill="white"/>
<path d="M90.5143 103.462L82.9048 84.6382H71.762V115.362H77.9286V95.0953L86.4429 115.652H91.6715L100.543 95.0953V115.362H109.052V84.6382H98.4477L90.5143 103.462Z" fill="white"/>
<path d="M124.952 102.272H136.71V97.1525H124.952V90.3334H138.443V84.6382H116.086V115.362H138.695V109.414H124.952V102.272Z" fill="white"/>
<path d="M164.3 104.005L153.695 84.6382H143.743V115.362H149.91V95.6715L160.767 115.362H170.429V84.6382H164.3V104.005Z" fill="white"/>
</g>
</g>
<defs>
<clipPath id="clip0_1886_10676">
<rect width="200" height="200" fill="white"/>
</clipPath>
<clipPath id="clip1_1886_10676">
<rect width="200" height="200" fill="white"/>
</clipPath>
</defs>
</svg>
