<svg width="200" height="200" viewBox="0 0 200 200" fill="none" xmlns="http://www.w3.org/2000/svg">
<g clip-path="url(#clip0_1886_10670)">
<path d="M61.9014 81.1386C61.0328 80.8137 60.0792 80.6607 59.0556 80.6607C56.9616 80.6607 54.8994 81.7523 54.8994 84.7383C54.8994 89.16 60.1132 88.1066 60.1132 90.653C60.1132 91.8571 58.9027 92.3753 58.0001 92.3753C57.0635 92.3753 56.1269 92.0504 55.3093 91.5513L55.0863 93.9639C56.2629 94.2888 56.8426 94.48 58.136 94.48C60.538 94.48 62.6001 93.3714 62.6001 90.4406C62.6001 85.9616 57.3863 86.9385 57.3863 84.6215C57.3863 83.1668 58.444 82.7654 59.2616 82.7654C60.0962 82.7654 60.9309 82.9756 61.6805 83.3409L61.9014 81.1386Z" fill="white"/>
<path d="M65.4731 91.2837C65.4731 93.2355 66.4607 94.48 68.2489 94.48C68.9306 94.48 69.4594 94.4035 69.9372 94.2506L69.8693 92.2224C69.6293 92.3945 69.2385 92.49 68.8286 92.49C67.96 92.49 67.7562 91.7042 67.7562 90.8632V86.2674H69.7822V84.3922H67.7562V81.5973L65.4731 82.4213V84.3922H63.7869V86.2674H65.4731V91.2837Z" fill="white"/>
<path d="M71.5144 94.2515H73.8994V91.5713H71.5144V94.2515Z" fill="white"/>
<path d="M86.0575 81.215C85.036 80.871 83.9444 80.6607 82.5661 80.6607C78.5288 80.6607 76.0398 83.2241 76.0398 87.8008C76.0398 92.318 78.7157 94.48 82.5661 94.48C83.8425 94.48 85.1549 94.1742 86.4143 93.7919V86.5945H81.6104V88.6991H84.1334V92.1842C83.7235 92.2989 83.2117 92.3753 82.5661 92.3753C80.0261 92.3753 78.5288 90.3259 78.5288 87.6097C78.5288 84.8721 80.0622 82.7654 82.8379 82.7654C83.7915 82.7654 84.985 82.9947 85.9046 83.4747L86.0575 81.215Z" fill="white"/>
<path fill-rule="evenodd" clip-rule="evenodd" d="M89.3399 87.1111C90.1066 86.4612 91.0771 86.0386 92.0477 86.0386C93.3941 86.0386 94.0249 86.5759 94.0249 88.1644H92.7634C91.8098 88.1644 90.6863 88.26 89.8177 88.7379C88.9491 89.2178 88.3184 90.0779 88.3184 91.5518C88.3184 93.4271 89.8347 94.4805 91.3851 94.4805C92.4236 94.4805 93.564 93.8688 94.0928 92.7772H94.1268C94.1438 93.083 94.1438 93.735 94.2288 94.2511H96.2399C96.189 93.4844 96.155 92.7963 96.138 92.0488C96.121 91.3225 96.104 90.5749 96.104 89.581V88.3173C96.104 85.4078 94.9954 84.1633 92.3216 84.1633C91.3511 84.1633 90.1575 84.45 89.2719 84.9109L89.3399 87.1111ZM90.4973 91.3989C90.4973 89.8868 92.0137 89.6957 93.0373 89.6957H94.0249C94.0249 90.4602 93.9229 91.1695 93.547 91.7238C93.1902 92.2612 92.6444 92.6052 91.9457 92.6052C91.1281 92.6052 90.4973 92.242 90.4973 91.3989Z" fill="white"/>
<path d="M98.5667 94.2516H100.85V79.895H98.5667V94.2516Z" fill="white"/>
<path d="M103.468 94.2516H105.751V79.895H103.468V94.2516Z" fill="white"/>
<path fill-rule="evenodd" clip-rule="evenodd" d="M109.935 88.3551C110.037 87.0341 110.685 86.0381 111.964 86.0381C113.24 86.0381 113.752 87.1106 113.82 88.3551H109.935ZM115.353 91.6087C114.502 92.146 113.548 92.6047 112.439 92.6047C111.025 92.6047 110.037 91.7042 109.935 90.1157H116.001C116.001 86.671 115.079 84.1628 111.826 84.1628C109.101 84.1628 107.754 86.518 107.754 89.3702C107.754 92.6047 109.441 94.48 112.337 94.48C113.563 94.48 114.519 94.2124 115.353 93.6963V91.6087Z" fill="white"/>
<path d="M118.005 94.251H120.288V90.6321C120.288 89.2177 120.288 86.614 122.144 86.614C122.552 86.614 122.961 86.6904 123.167 86.8242V84.2396C122.927 84.1632 122.69 84.1632 122.469 84.1632C121.105 84.1632 120.169 85.7135 120.067 86.6331H120.031V84.3925H118.005V94.251Z" fill="white"/>
<path d="M55.6289 119.389H58.5979V111.671H58.6404L63.9604 119.389H67.8405L61.5011 110.598L67.5856 102.762H63.9391L58.5979 109.908V102.762H55.6289V119.389Z" fill="white"/>
<path fill-rule="evenodd" clip-rule="evenodd" d="M70.4684 110.503C71.422 109.694 72.6304 109.17 73.8388 109.17C75.5144 109.17 76.2981 109.837 76.2981 111.814H74.7308C73.5415 111.814 72.1441 111.933 71.0631 112.527C69.98 113.124 69.1963 114.197 69.1963 116.029C69.1963 118.366 71.0843 119.674 73.0127 119.674C74.306 119.674 75.7268 118.914 76.3831 117.554H76.4255C76.4468 117.937 76.4468 118.746 76.553 119.389H79.0547C78.991 118.436 78.9485 117.578 78.9273 116.65C78.9061 115.745 78.8848 114.815 78.8848 113.577V112.005C78.8848 108.384 77.5065 106.836 74.1786 106.836C72.9702 106.836 71.4857 107.193 70.3835 107.764L70.4684 110.503ZM71.9104 115.84C71.9104 113.957 73.7963 113.719 75.0685 113.719H76.2981C76.2981 114.672 76.1707 115.554 75.7056 116.244C75.2596 116.911 74.5821 117.34 73.7114 117.34C72.6941 117.34 71.9104 116.887 71.9104 115.84Z" fill="white"/>
<path d="M82.0571 119.389H84.8987V113.385C84.8987 111.813 85.3426 109.311 87.4005 109.311C89.2227 109.311 89.2439 111.338 89.2439 112.837V119.389H92.0855V111.645C92.0855 108.882 90.962 106.835 88.3753 106.835C86.8908 106.835 85.6824 107.383 84.7925 108.787H84.75V107.12H82.0571V119.389Z" fill="white"/>
<path d="M96.3175 115.697C96.3175 118.126 97.5472 119.674 99.7728 119.674C100.622 119.674 101.279 119.579 101.871 119.39L101.788 116.865C101.491 117.079 101.002 117.198 100.495 117.198C99.4139 117.198 99.1591 116.221 99.1591 115.172V109.455H101.682V107.121H99.1591V103.642L96.3175 104.666V107.121H94.2192V109.455H96.3175V115.697Z" fill="white"/>
<path fill-rule="evenodd" clip-rule="evenodd" d="M103.306 113.338C103.306 116.863 105.404 119.675 109.008 119.675C112.636 119.675 114.734 116.863 114.734 113.338C114.734 109.288 112.253 106.835 109.008 106.835C105.786 106.835 103.306 109.288 103.306 113.338ZM106.275 112.956C106.275 111.123 107.165 109.311 109.008 109.311C110.875 109.311 111.765 111.074 111.765 112.956C111.765 115.005 111.194 117.197 109.008 117.197C106.846 117.197 106.275 114.982 106.275 112.956Z" fill="white"/>
<path d="M117.333 119.389H120.173V113.385C120.173 111.813 120.619 109.311 122.677 109.311C124.499 109.311 124.52 111.338 124.52 112.837V119.389H127.362V111.645C127.362 108.882 126.238 106.835 123.651 106.835C122.167 106.835 120.958 107.383 120.069 108.787H120.026V107.12H117.333V119.389Z" fill="white"/>
<path fill-rule="evenodd" clip-rule="evenodd" d="M131.233 110.503C132.187 109.694 133.395 109.17 134.604 109.17C136.279 109.17 137.063 109.837 137.063 111.814H135.496C134.308 111.814 132.909 111.933 131.826 112.527C130.745 113.124 129.961 114.197 129.961 116.029C129.961 118.366 131.849 119.674 133.778 119.674C135.071 119.674 136.492 118.914 137.148 117.554H137.19C137.212 117.937 137.212 118.746 137.318 119.389H139.82C139.756 118.436 139.713 117.578 139.692 116.65C139.671 115.745 139.65 114.815 139.65 113.577V112.005C139.65 108.384 138.271 106.836 134.943 106.836C133.735 106.836 132.251 107.193 131.148 107.764L131.233 110.503ZM132.675 115.84C132.675 113.957 134.561 113.719 135.833 113.719H137.063C137.063 114.672 136.936 115.554 136.47 116.244C136.024 116.911 135.347 117.34 134.476 117.34C133.459 117.34 132.675 116.887 132.675 115.84Z" fill="white"/>
<path d="M142.885 119.388H145.727V101.521H142.885V119.388Z" fill="white"/>
<path fill-rule="evenodd" clip-rule="evenodd" d="M151.952 113.219C151.952 111.503 152.672 109.314 154.497 109.314C156.34 109.314 156.85 111.575 156.85 113.219C156.85 114.91 156.321 117.197 154.454 117.197C152.566 117.197 151.952 114.958 151.952 113.219ZM149.09 119.389H151.846V117.889H151.889C152.715 119.197 154.029 119.675 155.238 119.675C158.589 119.675 159.819 116.579 159.819 113.219C159.819 109.836 158.589 106.835 155.238 106.835C153.753 106.835 152.757 107.525 151.974 108.693H151.931V101.521H149.09V119.389Z" fill="white"/>
<path fill-rule="evenodd" clip-rule="evenodd" d="M162.99 110.503C163.944 109.694 165.152 109.17 166.361 109.17C168.036 109.17 168.82 109.837 168.82 111.814H167.25C166.063 111.814 164.666 111.933 163.583 112.527C162.502 113.124 161.718 114.197 161.718 116.029C161.718 118.366 163.604 119.674 165.534 119.674C166.828 119.674 168.249 118.914 168.905 117.554H168.947C168.968 117.937 168.968 118.746 169.075 119.389H171.576C171.513 118.436 171.47 117.578 171.449 116.65C171.428 115.745 171.407 114.815 171.407 113.577V112.005C171.407 108.384 170.028 106.836 166.7 106.836C165.492 106.836 164.007 107.193 162.905 107.764L162.99 110.503ZM164.432 115.84C164.432 113.957 166.318 113.719 167.59 113.719H168.82C168.82 114.672 168.692 115.554 168.227 116.244C167.781 116.911 167.104 117.34 166.233 117.34C165.216 117.34 164.432 116.887 164.432 115.84Z" fill="white"/>
<path d="M174.579 119.389H177.42V113.385C177.42 111.813 177.864 109.311 179.922 109.311C181.744 109.311 181.766 111.338 181.766 112.837V119.389H184.607V111.645C184.607 108.882 183.484 106.835 180.897 106.835C179.413 106.835 178.204 107.383 177.314 108.787H177.272V107.12H174.579V119.389Z" fill="white"/>
<path d="M187.97 119.389H190.809V113.434H190.852L194.5 119.389H198.104L193.525 112.599L197.595 107.12H194.245L190.852 112.028H190.809V101.522H187.97V119.389Z" fill="white"/>
<path d="M2.49805 81.9363H39.7146V118.921H2.49805V81.9363Z" stroke="white" stroke-width="1.20629" stroke-miterlimit="3.864"/>
<path d="M25.7608 99.8642L37.1569 84.089L19.5892 84.1017L8.04663 99.8663L19.6911 116.788L37.52 116.81L25.7608 99.8642Z" fill="white"/>
</g>
<defs>
<clipPath id="clip0_1886_10670">
<rect width="200" height="200" fill="white"/>
</clipPath>
</defs>
</svg>
