<svg width="200" height="201" viewBox="0 0 200 201" fill="none" xmlns="http://www.w3.org/2000/svg">
<g clip-path="url(#clip0_3230_1435)">
<path d="M21.6498 85.5061C21.7873 85.4672 22.2145 85.4573 22.3806 85.452C27.3157 85.2929 31.9595 88.0558 34.3011 92.331C35.9739 95.3776 36.3738 98.9613 35.4138 102.301C34.3756 105.751 32.0106 108.649 28.8375 110.359C25.7834 111.98 22.2155 112.344 18.8968 111.371C16.0196 110.514 12.9546 108.391 11.4128 105.781C10.0054 103.398 12.1257 100.733 14.8358 101.615C15.8726 102.196 16.0122 102.651 16.7375 103.516C21.6466 109.372 31.0453 105.348 30.1838 97.7682C29.9596 95.744 28.9312 93.8947 27.3295 92.6355C23.6666 89.7348 18.3464 91.0642 16.0085 94.7808C15.1652 96.1213 13.2031 96.2667 11.9918 95.2554C10.1308 93.7018 11.3171 91.5251 12.5889 90.0506C14.9036 87.3615 18.1242 85.8006 21.6498 85.5061Z" fill="white"/>
<path d="M161.43 95.2581C163.981 95.2293 165.423 96.7055 165.738 99.1709C166.271 103.334 162.936 106.629 158.932 103.843L158.96 104.859L158.987 107.909L157.203 107.911C157.224 103.75 157.219 99.5892 157.188 95.4283C157.631 95.4244 158.44 95.3093 158.731 95.5286C158.909 95.9255 158.834 95.9337 158.791 96.4259C159.797 95.5282 160.095 95.4139 161.43 95.2581ZM161.877 103.402C163.968 102.936 164.367 100.558 163.968 98.7465C163.625 97.1933 162.631 96.6289 161.109 96.7085C160.379 96.838 159.861 97.0539 159.455 97.6901C158.525 99.145 158.544 102.004 160.119 103.025C160.695 103.398 161.236 103.4 161.877 103.402Z" fill="white"/>
<path d="M95.5492 92.2347L97.1725 92.2046L97.1889 96.4172C97.8607 95.7806 98.4632 95.4182 99.4027 95.276C100.43 95.1185 101.478 95.3713 102.321 95.9798C104.566 97.6339 104.493 101.454 102.944 103.573C101.82 104.816 99.7572 105.26 98.2572 104.462C97.8743 104.258 97.5398 103.962 97.134 103.808L97.0214 103.912C97.106 104.122 97.114 104.156 97.1283 104.382C96.8692 104.801 96.0185 104.69 95.574 104.68C95.4384 100.827 95.5484 96.1466 95.5492 92.2347ZM100.155 103.396C100.796 103.289 101.45 103.05 101.773 102.462C103.058 100.129 102.608 96.3891 99.221 96.709C97.2093 97.2215 96.8075 99.6214 97.2653 101.354C97.6878 102.953 98.6273 103.428 100.155 103.396Z" fill="white"/>
<path d="M171.724 95.2663C174.35 95.0735 176.64 97.0319 176.856 99.6539C177.071 102.276 175.131 104.581 172.509 104.819C169.855 105.059 167.513 103.092 167.295 100.438C167.077 97.784 169.067 95.4614 171.724 95.2663ZM172.48 103.395C173.193 103.287 173.927 103.036 174.311 102.399C175.656 100.163 174.934 96.3702 171.718 96.7094C170.987 96.8233 170.173 97.0942 169.812 97.7703C168.464 100.293 169.105 103.577 172.48 103.395Z" fill="white"/>
<path d="M139.208 95.2628C142.278 95.371 143.966 96.8741 144.009 100.044C144.046 102.877 142.335 104.81 139.429 104.81C138.303 104.82 137.296 104.596 136.412 103.871C133.746 101.682 134.351 96.2577 137.998 95.4336C138.392 95.3443 138.808 95.3037 139.208 95.2628ZM140.042 103.371C140.701 103.244 141.451 102.916 141.755 102.302C143.056 99.6715 142.227 96.4181 138.811 96.7065C138.098 96.8819 137.338 97.2592 137.024 97.9438C135.79 100.639 136.601 103.742 140.042 103.371Z" fill="white"/>
<path d="M88.9261 95.2626C88.9859 95.2607 89.0456 95.2605 89.1054 95.2619C92.7934 95.3553 93.3742 97.8068 93.31 100.876C91.363 100.752 88.3179 100.844 86.3153 100.869C86.4446 101.266 86.6064 101.829 86.8281 102.171C87.2316 102.794 87.8712 103.226 88.6001 103.368C89.7955 103.609 90.83 103.278 91.812 102.632C91.8362 102.609 92.0068 102.513 92.0477 102.489C92.3636 102.565 92.8496 103.224 93.0919 103.51C87.9927 107.558 82.212 102.165 85.7566 96.7739C86.4359 95.7407 87.767 95.3909 88.9261 95.2626ZM89.6975 99.3904C90.0365 99.3938 91.4108 99.448 91.6174 99.3278C92.1496 98.5713 91.274 97.5893 90.6776 97.1417C89.9695 96.6103 89.3182 96.656 88.4836 96.7193C87.5944 96.9917 86.2644 98.1002 86.3167 99.0525C86.7017 99.663 88.9044 99.3793 89.6975 99.3904Z" fill="white"/>
<path d="M74.2619 95.2594H74.2831C78.1086 95.3003 78.5998 97.7469 78.5355 100.879C76.4976 100.769 73.7346 100.844 71.6642 100.867C72.2211 103.782 75.1093 104.124 77.1824 102.523L77.3807 102.483C77.6968 102.66 78.1099 103.209 78.3592 103.507C75.4284 105.882 70.5046 105.253 70.0456 100.85C69.7292 97.8154 71.0137 95.5986 74.2619 95.2594ZM71.6441 99.3845L74.9675 99.3898L76.9959 99.3971C76.7018 97.3569 76.1289 96.5048 73.8883 96.7037C72.271 97.0882 71.923 97.8856 71.6441 99.3845Z" fill="white"/>
<path d="M116.76 95.2618L116.795 95.2615C117.899 95.2557 119.023 95.4405 119.834 96.2536C120.237 96.6642 120.52 97.1767 120.653 97.7359C120.905 98.7602 120.78 103.387 120.771 104.687L119.438 104.681L119.104 103.637C117.378 105.4 114.32 105.34 113.099 103.027C112.987 102.538 112.94 101.982 113.03 101.486C113.142 100.834 113.515 100.255 114.063 99.8825C115.508 98.8841 117.532 99.1246 119.143 99.4208C119.17 96.7836 117.768 96.0147 115.215 97.1284C115.015 97.2159 114.649 97.5357 114.467 97.6847L113.533 96.5387C114.645 95.5664 115.348 95.3963 116.76 95.2618ZM117.708 103.278C118.532 102.89 118.857 102.37 119.186 101.536C119.711 100.203 116.821 100.413 116.099 100.504C113.388 101.187 114.357 104.088 117.708 103.278Z" fill="white"/>
<path d="M133.319 111.141C133.846 111.084 134.335 111.046 134.843 111.164C137.037 111.67 137.087 114.041 135.461 115.275C135.13 115.526 134.791 115.729 134.446 115.941C135.362 116.859 136.691 118.064 137.652 118.925C137.975 118.14 137.915 117.754 138.574 117.127L138.798 117.147C139.015 117.746 138.432 118.863 138.149 119.415C138.509 119.752 139.531 120.64 139.716 121.028C139.593 121.257 139.565 121.301 139.356 121.456L139.163 121.397L137.708 119.992C136.011 121.782 132.079 122.325 130.93 119.831C130.643 119.202 130.619 118.485 130.865 117.838C131.266 116.799 132.237 116.265 133.192 115.835C131.414 114.274 130.735 112.27 133.319 111.141ZM131.396 118.851C131.57 119.328 131.684 119.668 131.946 120.111C132.888 120.754 133.776 120.95 134.916 120.741L134.943 120.736C135.96 120.478 136.398 120.276 137.184 119.535C136.679 119.047 134.061 116.407 133.617 116.384C132.196 117.015 131.795 117.352 131.396 118.851ZM134.597 115.102C135.911 114.063 136.524 112.857 134.823 111.79C134.399 111.784 133.838 111.759 133.427 111.808C132.347 112.466 132.131 113.343 132.826 114.444C133.105 114.883 133.534 115.205 134.034 115.351C134.307 115.294 134.363 115.255 134.597 115.102Z" fill="white"/>
<path d="M181.697 113.685C186.642 112.747 187.661 120.465 183.187 121.445C177.934 122.424 176.964 114.618 181.697 113.685ZM183.207 120.77C184.01 120.5 184.517 120.183 184.895 119.383C185.62 117.854 185.349 115.392 183.675 114.586C182.91 114.214 182.23 114.302 181.437 114.377C178.099 115.677 179.099 121.9 183.207 120.77Z" fill="white"/>
<path d="M187.781 95.2586C191.969 95.1766 191.727 98.4887 191.709 101.503L191.708 104.7L190.011 104.694C190.014 103.989 190.038 103.265 190.02 102.559C189.945 99.6804 190.808 95.6993 186.344 96.9061C184.325 97.9404 185.013 102.637 185.042 104.697L183.237 104.699C183.279 101.726 183.319 98.3869 183.209 95.4319C183.77 95.4164 184.22 95.4067 184.783 95.4387C185.059 95.6743 184.752 96.0071 184.964 96.4338C185.18 96.3663 185.201 96.393 185.341 96.2064C185.897 95.4586 186.866 95.3626 187.781 95.2586Z" fill="white"/>
<path d="M150.748 95.2622C154.834 95.257 154.621 98.4089 154.606 101.401L154.584 104.69L152.924 104.681C152.906 103.744 152.932 102.774 152.933 101.836C152.938 99.0203 153.46 95.9639 149.399 96.8366C147.157 97.849 147.853 102.513 147.86 104.687L146.221 104.678C146.173 101.63 146.214 98.4816 146.215 95.426C146.561 95.4206 147.576 95.3673 147.828 95.5181C147.834 95.8271 147.843 96.0741 147.874 96.3818C148.066 96.3725 148.628 95.791 148.991 95.6424C149.653 95.3725 150.059 95.3391 150.748 95.2622Z" fill="white"/>
<path d="M156.203 113.676C156.341 113.654 156.482 113.642 156.621 113.641C159.53 113.596 160.124 115.472 160.149 117.957L154.03 117.956C154.341 120.127 155.315 120.966 157.529 120.868C158.271 120.738 158.903 120.313 159.36 120.277C159.61 120.536 159.588 120.437 159.592 120.726C158.875 121.721 155.951 121.726 154.972 121.024C152.26 119.078 152.746 114.51 156.203 113.676ZM154.038 117.247L157.687 117.242L159.466 117.241C159.224 114.868 158.405 114.208 156.07 114.361C154.602 114.913 154.271 115.768 154.038 117.247Z" fill="white"/>
<path d="M64.8895 95.2618C66.6082 95.2862 67.1867 95.4811 68.5551 96.5053L67.6191 97.6367C64.494 95.2313 61.3474 97.5581 62.1832 101.193C62.7514 103.663 65.7131 103.991 67.5292 102.632C67.5855 102.56 67.6693 102.537 67.755 102.503C68.0876 102.663 68.4999 103.21 68.7564 103.511C67.8001 104.302 67.3095 104.598 65.9996 104.793C61.1125 105.518 58.7719 100.513 61.4172 96.8484C62.2232 95.732 63.5165 95.3888 64.8895 95.2618Z" fill="white"/>
<path d="M96.1139 113.789C99.3002 113.65 99.8314 115.253 99.9613 118.034C99.1 117.971 94.8957 117.943 94.1409 118.044C93.978 118.216 94.0095 118.255 94.018 118.495C94.0884 120.474 95.7974 120.919 97.3972 120.888C98.1576 120.735 98.4047 120.485 99.0765 120.327C99.3373 120.436 99.2513 120.382 99.4369 120.616L99.392 120.788C98.4037 121.764 95.6893 121.78 94.5933 120.904C92.21 118.999 92.7309 114.286 96.1139 113.789ZM96.8265 117.353L99.2406 117.349C99.0033 115.377 98.6664 114.523 96.5219 114.372C95.994 114.439 95.4744 114.532 95.0813 114.918C94.5018 115.487 93.4777 116.468 94.075 117.289C94.4522 117.416 96.3098 117.352 96.8265 117.353Z" fill="white"/>
<path d="M74.3561 113.796C78.1019 113.512 78.0867 115.818 77.9959 118.748C77.9702 119.574 78.0813 120.415 77.9553 121.247C77.7759 121.468 77.8648 121.417 77.5994 121.482L77.4708 121.393C77.2493 121.052 77.238 120.664 77.1938 120.262C75.8667 121.969 73.1349 122.114 71.9139 120.225C71.2217 116.606 74.8284 116.82 77.1897 117.371C77.3605 114.452 75.4707 113.522 72.9579 115.026C72.8261 115.105 72.7959 115.182 72.6295 115.167C72.4251 114.929 72.3606 114.928 72.3121 114.646C72.5518 114.184 73.8538 113.826 74.3561 113.796ZM75.2441 120.86C75.5169 120.759 76.1475 120.539 76.3325 120.339C78.6029 117.888 76.6255 117.637 74.4571 117.712C73.8078 117.792 73.2893 117.88 72.852 118.435C72.6177 118.73 72.5127 119.107 72.5609 119.481C72.7525 120.865 74.1537 120.952 75.2441 120.86Z" fill="white"/>
<path d="M125.479 93.0286C125.59 93.1825 125.533 95.0771 125.529 95.4173L128.112 95.4216L128.11 96.914C127.312 96.8801 126.344 96.9113 125.534 96.9165C125.553 98.7929 124.607 105.887 128.35 102.763C128.705 103.186 129.274 103.583 128.952 104.068C128.732 104.24 128.219 104.595 127.961 104.659C122.79 105.959 123.809 100.2 123.834 96.916L122.358 96.9054L122.355 95.4401L123.827 95.4197L123.832 93.5869C124.22 93.4114 125.041 93.1691 125.479 93.0286Z" fill="white"/>
<path d="M45.1254 115.947C46.1106 115.8 47.0986 116.195 47.7102 116.981C48.322 117.766 48.4623 118.82 48.0774 119.739C47.6927 120.657 46.8424 121.296 45.853 121.412C44.3566 121.586 42.9966 120.529 42.7978 119.037C42.5992 117.545 43.6352 116.169 45.1254 115.947Z" fill="white"/>
<path d="M80.8477 90.923L82.5191 90.8956L82.5125 104.7C82.0565 104.668 81.3262 104.685 80.8499 104.682L80.8477 90.923Z" fill="white"/>
<path d="M62.5432 113.798C63.9984 113.702 64.2115 113.79 65.0789 114.887C66.1389 113.847 66.5271 113.587 68.0538 113.82C68.9176 113.951 69.6695 115.068 69.638 115.87C69.582 117.299 69.874 120.032 69.5636 121.366L69.3136 121.447C68.3947 120.908 69.5573 115.427 68.4039 114.753C65.0163 112.774 65.3825 117.612 65.3955 118.984C65.404 119.517 65.4946 121.045 65.235 121.405C65.024 121.413 64.8382 121.445 64.6715 121.316C64.4526 119.882 64.7903 117.776 64.6545 116.255C64.4577 114.053 62.6807 113.755 61.3101 115.322C60.9391 116.961 61.1443 119.059 61.1374 120.754C61.1361 121.086 61.1329 121.157 60.929 121.365C60.7028 121.382 60.5513 121.417 60.3677 121.283C60.282 120.567 60.2136 114.2 60.4726 113.958C60.7473 113.896 60.8424 113.858 61.0984 113.985C61.1013 114.238 61.0987 114.323 61.1645 114.566C61.6262 114.223 61.9818 113.897 62.5432 113.798Z" fill="white"/>
<path d="M177.513 113.767C177.748 114.198 175.899 120.293 175.738 121.136C175.676 121.462 174.959 121.377 174.686 121.281C174.383 120.719 174.187 119.575 173.982 118.922C173.589 117.659 173.225 116.372 172.86 115.098C172.531 115.976 171.253 121.073 170.828 121.328C170.471 121.396 170.395 121.408 170.05 121.297C169.709 120.82 168.464 115.522 168.193 114.445L168.053 114.039L168.167 113.87C168.501 113.765 168.381 113.758 168.684 113.841C169.043 114.254 170.267 119.579 170.551 120.567C170.887 119.392 172.083 114.747 172.651 114.062C172.721 114.033 172.832 113.96 172.9 113.989C173.526 114.251 174.801 119.609 175.188 120.596C175.437 119.04 176.383 115.66 176.863 114.014C176.914 113.838 177.299 113.809 177.513 113.767Z" fill="white"/>
<path d="M110 95.2532C110.714 95.2797 111.625 95.3437 111.755 96.15C111.69 96.5133 111.298 96.8645 111.035 97.1455C111.013 97.1302 110.99 97.1152 110.968 97.1005C109.791 96.3327 108.793 96.5123 108.038 97.6787C107.901 99.7893 107.962 102.539 107.97 104.696C107.439 104.675 106.826 104.685 106.288 104.681C106.254 101.617 106.283 98.5032 106.283 95.4357C106.809 95.4199 107.261 95.4156 107.788 95.43C108.083 95.6588 107.77 95.9053 108.049 96.2092C108.814 95.4431 108.907 95.4326 110 95.2532Z" fill="white"/>
<path d="M178.889 95.4323L180.58 95.427V104.711L178.897 104.699L178.889 95.4323Z" fill="white"/>
<path d="M147.614 113.684C151.826 113.205 151.127 117.015 151.151 119.799C151.153 120.144 151.199 121.013 151.118 121.302C150.903 121.433 150.827 121.408 150.572 121.374C150.214 120.997 150.341 120.89 150.307 120.382C150.195 118.752 150.891 116.053 149.676 114.798C149.117 114.221 148.13 114.313 147.426 114.352C147.369 114.364 147.312 114.378 147.256 114.393C144.19 115.23 146.025 119.941 145.261 121.287C144.977 121.458 145.101 121.429 144.751 121.379C144.471 120.912 144.713 115.75 144.631 114.81C144.589 114.332 144.593 114.003 144.961 113.688C145.43 113.743 145.388 114.398 145.42 114.796C145.627 114.772 146.337 114.087 146.634 113.957C146.967 113.81 147.261 113.755 147.614 113.684Z" fill="white"/>
<path d="M130.946 95.4266L132.55 95.4199L132.548 104.692L130.949 104.679L130.946 95.4266Z" fill="white"/>
<path d="M114.636 113.795C118.067 113.55 118.223 115.716 118.093 118.451C118.07 118.93 118.126 121.078 117.998 121.397C117.717 121.436 117.825 121.448 117.556 121.332C116.439 119.927 119.437 113.733 114.221 114.485C111.898 115.421 112.544 117.396 112.479 119.445C112.467 119.839 112.54 121.079 112.376 121.386L112.089 121.41C111.5 121.062 111.646 119.531 111.708 118.935C111.812 117.946 111.479 114.605 111.864 113.891L112.209 113.88C112.605 114.149 112.254 114.522 112.523 114.882C113.454 114.231 113.456 113.966 114.636 113.795Z" fill="white"/>
<path d="M102.962 112.029C103.095 112.035 103.145 112.075 103.261 112.138C103.389 112.607 103.331 113.381 103.317 113.889C104.077 113.869 104.906 113.769 105.575 114.134L105.599 114.279C105.105 114.68 103.965 114.581 103.314 114.57C103.337 116.039 102.761 120.166 104.232 120.828C105.203 121.264 105.521 120.24 106.424 120.596C106.41 120.7 106.332 120.945 106.24 120.995C101.611 123.499 102.518 117.189 102.536 114.565C102.044 114.573 101.441 114.712 101.218 114.217L101.363 114.022C101.676 113.824 102.149 113.878 102.528 113.886C102.533 113.058 102.291 112.531 102.962 112.029Z" fill="white"/>
<path d="M163.01 111.947C163.229 111.954 163.285 111.949 163.471 112.059C163.646 112.552 163.569 113.278 163.556 113.829C164.302 113.81 165.222 113.708 165.86 114.084L165.884 114.232C165.382 114.634 164.198 114.53 163.538 114.515C163.591 115.999 163.022 120.093 164.468 120.829C165.31 121.257 165.84 120.229 166.657 120.561L166.679 120.827C166.668 120.839 166.655 120.852 166.644 120.864C165.879 121.64 164.241 121.83 163.438 120.969C162.548 120.013 162.824 118.335 162.81 117.108C162.8 116.277 162.837 115.36 162.853 114.505C162.332 114.511 161.697 114.674 161.47 114.142L161.617 113.957C161.931 113.759 162.446 113.821 162.832 113.832C162.815 113.286 162.733 112.381 163.01 111.947Z" fill="white"/>
<path d="M194.154 111.134C194.413 111.143 194.72 111.104 194.894 111.231C195.088 114.035 194.941 118.467 194.929 121.425C194.654 121.423 194.426 121.447 194.189 121.308C194.092 120.622 194.142 118.688 194.143 117.906L194.154 111.134Z" fill="white"/>
<path d="M190.367 113.683C190.933 113.631 192.06 113.646 192.431 114.136C192.445 114.422 192.455 114.324 192.253 114.601C191.985 114.708 191.049 114.35 190.578 114.34C188.346 114.294 188.96 118.776 188.972 120.376C188.971 120.767 189.032 121.076 188.854 121.379C188.626 121.399 188.571 121.381 188.348 121.325C188.179 120.85 188.296 115.457 188.263 114.594C188.247 114.18 188.248 114.015 188.523 113.756L188.685 113.778C188.9 113.989 188.929 114.273 188.995 114.57C189.516 114.111 189.715 113.929 190.367 113.683Z" fill="white"/>
<path d="M82.7756 113.791C83.2867 113.766 84.7615 113.835 84.8126 114.483C84.738 114.576 84.4594 114.842 84.3507 114.783C82.0973 113.549 81.1324 115.304 81.2583 117.41C81.3078 118.237 81.2694 119.483 81.2759 120.35C81.2763 120.781 81.3444 121.06 81.1455 121.381C80.895 121.393 80.8469 121.388 80.6151 121.293L80.6107 121.257C80.5133 120.436 80.4289 114.309 80.7034 113.96C81.055 113.909 80.9586 113.874 81.2456 114.005L81.2429 114.536C81.7874 114.696 81.689 114.021 82.7756 113.791Z" fill="white"/>
<path d="M86.4259 111.329C86.6166 111.331 86.82 111.347 87.0115 111.358C87.275 111.66 87.1527 120 87.1503 121.106C87.1493 121.277 87.1505 121.227 87.062 121.386C86.824 121.43 86.7841 121.435 86.5738 121.323C86.2516 120.857 86.4327 119.362 86.4265 118.722L86.4259 111.329Z" fill="white"/>
<path d="M199.42 113.814L199.454 113.894C199.238 114.24 196.492 116.952 196.022 117.423C196.842 118.231 199.136 120.388 199.774 121.222L199.744 121.367L199.409 121.544C198.84 121.302 195.709 118.19 195.454 117.587C195.47 116.583 197.625 114.845 198.347 114.14C198.699 113.796 198.941 113.807 199.42 113.814Z" fill="white"/>
<path d="M90.9147 113.901C91.1476 113.889 91.4081 113.899 91.6432 113.902L91.6742 114.044C90.6072 114.996 89.2969 116.442 88.2476 117.5C89.4956 118.667 90.8515 120.092 92.072 121.314C91.9363 121.361 91.4728 121.418 91.3696 121.348C90.4937 120.753 87.69 118.232 87.6875 117.269C87.9582 116.645 90.3165 114.381 90.9147 113.901Z" fill="white"/>
<path d="M108.278 113.824C108.619 113.874 108.71 113.832 108.95 114.031C109.102 115.758 108.98 119.576 108.973 121.455C108.741 121.436 108.49 121.448 108.322 121.296C108.153 119.822 108.275 115.461 108.278 113.824Z" fill="white"/>
<path d="M178.781 92.2321C179.46 92.2074 180.073 92.2193 180.752 92.2362C180.7 92.8218 180.69 93.3097 180.682 93.8958L178.761 93.8953C178.74 93.2928 178.751 92.8343 178.781 92.2321Z" fill="white"/>
<path d="M130.858 92.2338L132.645 92.2061L132.639 93.8753L130.863 93.867L130.858 92.2338Z" fill="white"/>
<path d="M108.194 111.737C108.509 111.728 108.608 111.723 108.922 111.793C109.125 112.088 109.058 112.28 109.065 112.689C108.777 112.692 108.585 112.712 108.309 112.619C108.124 112.312 108.192 112.143 108.194 111.737Z" fill="white"/>
<path d="M20.9302 76H24.5989C31.2127 76.8381 36.6708 79.4326 40.7945 84.861C41.9975 86.4446 46.0359 92.2045 43.9242 94.3229C43.6931 94.5549 42.8159 94.82 42.4577 94.9079C40.0681 93.9433 40.3769 92.2797 39.3445 90.2377C37.2883 86.2412 33.8713 83.1098 29.709 81.4077C25.0514 79.5114 19.9837 79.6825 15.3715 81.626C10.9094 83.5062 7.37047 87.0706 5.52456 91.5442C3.61706 96.1898 3.64661 101.405 5.60663 106.028C7.53033 110.556 11.184 114.13 15.756 115.954C24.9173 119.661 35.5081 115.557 39.5514 106.548C40.4635 104.773 40.7146 101.677 43.5416 102.794C45.4473 103.547 44.3796 105.936 43.857 107.231C39.0954 119.028 25.4814 124.622 13.7703 119.623C8.19665 117.236 3.80571 112.727 1.57038 107.094C1.01282 105.69 0.591387 104.237 0.311868 102.752C0.208059 102.224 0.116315 101.428 0 100.953V96.6273C1.71082 84.9523 9.13955 77.4207 20.9302 76Z" fill="white"/>
<path d="M122.492 124.302C121.721 124.074 120.874 123.828 120.454 123.079C120.2 122.625 120.119 121.871 120.593 121.541C120.853 121.619 120.767 121.573 120.953 121.809C121.009 123.862 122.922 123.782 124.481 123.5C125.299 123.352 125.96 122.126 125.26 121.483C124.014 120.327 120.891 121.684 120.479 119.64C120.377 119.129 121.447 118.402 121.266 118.255C120.069 117.276 119.861 115.854 120.816 114.562C121.159 114.099 122.29 113.764 122.918 113.799C124.033 113.838 125.007 113.977 126.151 114.001L126.263 114.112L126.258 114.496C125.987 114.727 125.549 114.617 125.204 114.572L125.185 114.682C125.704 115.29 125.9 115.856 125.83 116.648C125.636 118.822 123.364 118.506 121.806 118.754C121.351 118.827 121.152 119.563 121.506 119.888C122.936 120.825 126.176 119.603 126.275 122.254C126.326 123.613 125.199 123.971 124.061 124.302H122.492ZM123.43 117.986C124.073 117.849 124.464 117.767 124.844 117.18C125.1 116.781 125.184 116.296 125.078 115.834C124.968 115.354 124.673 114.936 124.258 114.671C123.831 114.404 123.386 114.404 122.892 114.371C122.201 114.477 121.72 114.595 121.281 115.203C121.006 115.582 120.895 116.057 120.976 116.518C121.203 117.829 122.326 118.006 123.43 117.986Z" fill="white"/>
<path d="M194.579 93.6187C195.215 93.3507 195.724 93.1946 196.385 92.9932L196.386 95.4351C197.271 95.4262 198.158 95.4256 199.044 95.4334L199.034 96.9521C198.146 96.9494 197.258 96.9405 196.37 96.9251C196.458 98.7874 195.353 105.892 199.193 102.751L200 103.7V103.848C198.717 105.059 196.761 105.291 195.483 104.08C194.169 102.834 194.592 98.6222 194.588 96.909L193.152 96.9392C193.138 96.4643 193.151 95.919 193.152 95.4383L194.624 95.4307L194.579 93.6187Z" fill="white"/>
</g>
<defs>
<clipPath id="clip0_3230_1435">
<rect width="200" height="200.302" fill="white"/>
</clipPath>
</defs>
</svg>
