<svg width="200" height="200" viewBox="0 0 200 200" fill="none" xmlns="http://www.w3.org/2000/svg">
<g clip-path="url(#clip0_2580_359)">
<path d="M10.4217 81.1167V102.567H7.88011V81.1167H0.987305V78.8505H17.3169V81.1167H10.4217Z" fill="white"/>
<path d="M25.1133 102.567V78.8505H27.6581V102.567H25.1133Z" fill="white"/>
<path d="M45.3261 102.769C42.9845 102.769 40.8421 101.9 39.2365 100.302C36.9941 98.069 36.9941 95.7375 36.9941 90.7097C36.9941 85.6811 36.9941 83.3471 39.2365 81.1167C40.8421 79.5177 42.9845 78.6514 45.3261 78.6514C48.2381 78.6514 50.1773 79.7829 52.0181 81.5483L50.3133 83.2484C48.8405 81.8158 47.6013 80.9176 45.3261 80.9176C43.7525 80.9176 42.2477 81.5156 41.2101 82.5811C39.7053 84.1148 39.5373 85.7464 39.5373 90.7097C39.5373 95.6714 39.7053 97.3038 41.2109 98.8375C42.2477 99.9029 43.7533 100.501 45.3269 100.501C47.6021 100.501 48.8413 99.6011 50.3141 98.171L52.0189 99.8695C50.1773 101.635 48.2381 102.769 45.3261 102.769Z" fill="white"/>
<path d="M75.7111 102.567L68.4495 89.9429L63.4303 95.9406V102.567H60.8887V78.8505H63.4303V92.4735L74.5407 78.8505H77.6519L70.1559 88.0111L78.7247 102.566L75.7111 102.567Z" fill="white"/>
<path d="M85.9844 102.567V78.8505H100.776V81.1167H88.5292V89.477H98.9708V91.7425H88.5292V100.303H100.776V102.567H85.9844Z" fill="white"/>
<path d="M116.406 81.1167V102.567H113.861V81.1167H106.966V78.8505H123.297V81.1167H116.406Z" fill="white"/>
<path d="M131.097 102.567V78.8505H133.639V102.567H131.097Z" fill="white"/>
<path d="M159.072 102.567L146.424 83.547V102.566H143.878V78.8505H146.287L158.938 97.8055V78.8505H161.481V102.567H159.072Z" fill="white"/>
<path d="M185.242 100.303C183.636 101.901 181.526 102.77 179.151 102.77C176.776 102.77 174.668 101.901 173.059 100.303C170.816 98.0698 170.816 95.7383 170.816 90.7105C170.816 85.6819 170.816 83.3479 173.059 81.1175C174.668 79.5185 176.776 78.6522 179.151 78.6522C181.527 78.6522 183.636 79.5185 185.242 81.1175C187.484 83.3487 187.484 85.6819 187.484 90.7105C187.483 95.7383 187.483 98.0698 185.242 100.303ZM183.268 82.6145C182.229 81.5483 180.724 80.9176 179.151 80.9176C177.578 80.9176 176.072 81.5483 175.034 82.6145C173.531 84.1474 173.363 85.7456 173.363 90.7097C173.363 95.6714 173.531 97.2712 175.034 98.8032C176.073 99.8703 177.579 100.502 179.151 100.502C180.724 100.502 182.23 99.8703 183.268 98.8032C184.774 97.2712 184.942 95.6722 184.942 90.7097C184.942 85.7464 184.774 84.1474 183.268 82.6145Z" fill="white"/>
<path d="M199.003 100.386C199.003 102.25 197.487 103.759 195.611 103.759C193.743 103.759 192.227 102.25 192.227 100.386C192.227 98.5245 193.743 97.0148 195.611 97.0148C197.487 97.0148 199.003 98.5245 199.003 100.386Z" fill="white"/>
<path d="M86.0508 117.42V108.876H91.3804V109.693H86.9684V112.703H90.73V113.518H86.9684V116.604H91.3804V117.418H86.0508V117.42Z" fill="white"/>
<path d="M95.1154 117.42H94.345L92.1738 111.516H93.1146L94.7306 116.256L96.3586 111.516H97.2986L95.1154 117.42Z" fill="white"/>
<path d="M98.9362 114.696C98.9362 115.994 99.5506 116.736 100.683 116.736C101.371 116.736 101.769 116.534 102.241 116.064L102.829 116.58C102.225 117.18 101.673 117.492 100.659 117.492C99.0938 117.492 98.0674 116.557 98.0674 114.468C98.0674 112.558 98.9962 111.445 100.503 111.445C102.035 111.445 102.938 112.549 102.938 114.301V114.696H98.9362ZM101.887 113.065C101.659 112.521 101.131 112.177 100.503 112.177C99.8778 112.177 99.3458 112.522 99.1162 113.065C98.9842 113.387 98.9594 113.569 98.9362 114.048H102.07C102.045 113.569 102.023 113.387 101.887 113.065Z" fill="white"/>
<path d="M108.095 112.645C107.77 112.32 107.527 112.213 107.07 112.213C106.202 112.213 105.65 112.897 105.65 113.795V117.42H104.78V111.516H105.65V112.234C105.975 111.744 106.625 111.445 107.311 111.445C107.878 111.445 108.313 111.576 108.734 111.995L108.095 112.645Z" fill="white"/>
<path d="M111.326 118.848C111.204 119.172 111.073 119.386 110.903 119.543C110.59 119.843 110.166 119.952 109.748 119.952H109.374V119.185H109.638C110.24 119.185 110.422 118.993 110.614 118.453L111.037 117.3L108.902 111.516H109.843L111.47 116.256L113.086 111.516H114.024L111.326 118.848Z" fill="white"/>
<path d="M119.233 116.976C118.918 117.288 118.389 117.492 117.786 117.492C117.134 117.492 116.592 117.335 116.109 116.71V117.42H115.24V108.876H116.109V112.199C116.592 111.587 117.133 111.445 117.786 111.445C118.389 111.445 118.918 111.647 119.233 111.96C119.835 112.558 119.955 113.544 119.955 114.468C119.955 115.391 119.835 116.374 119.233 116.976ZM117.607 112.213C116.315 112.213 116.11 113.316 116.11 114.468C116.11 115.619 116.315 116.724 117.607 116.724C118.894 116.724 119.088 115.619 119.088 114.468C119.087 113.316 118.894 112.213 117.607 112.213Z" fill="white"/>
<path d="M125.618 116.819C125.207 117.227 124.642 117.492 123.918 117.492C123.195 117.492 122.629 117.227 122.218 116.819C121.615 116.208 121.495 115.379 121.495 114.468C121.495 113.555 121.615 112.728 122.218 112.115C122.629 111.707 123.195 111.445 123.918 111.445C124.642 111.445 125.207 111.707 125.618 112.115C126.221 112.729 126.342 113.555 126.342 114.468C126.342 115.379 126.221 116.208 125.618 116.819ZM125.006 112.645C124.726 112.368 124.341 112.213 123.919 112.213C123.499 112.213 123.124 112.368 122.846 112.645C122.413 113.078 122.365 113.809 122.365 114.468C122.365 115.128 122.413 115.86 122.846 116.292C123.124 116.569 123.498 116.724 123.919 116.724C124.341 116.724 124.727 116.569 125.006 116.292C125.439 115.86 125.475 115.128 125.475 114.468C125.475 113.809 125.439 113.078 125.006 112.645Z" fill="white"/>
<path d="M131.744 117.42V116.71C131.259 117.335 130.706 117.492 130.055 117.492C129.453 117.492 128.921 117.287 128.607 116.976C128.006 116.374 127.885 115.391 127.885 114.468C127.885 113.544 128.006 112.558 128.607 111.96C128.921 111.647 129.453 111.445 130.055 111.445C130.706 111.445 131.248 111.588 131.731 112.199V108.876H132.6V117.42H131.744ZM130.247 112.213C128.957 112.213 128.754 113.316 128.754 114.468C128.754 115.619 128.957 116.724 130.247 116.724C131.537 116.724 131.73 115.619 131.73 114.468C131.73 113.316 131.538 112.213 130.247 112.213Z" fill="white"/>
<path d="M136.235 118.848C136.117 119.172 135.984 119.386 135.815 119.543C135.501 119.843 135.079 119.952 134.657 119.952H134.284V119.185H134.549C135.153 119.185 135.333 118.993 135.525 118.453L135.948 117.3L133.813 111.516H134.753L136.381 116.256L137.997 111.516H138.937L136.235 118.848Z" fill="white"/>
<path d="M140.129 110.831V108.876H141.179V109.883L140.129 110.831Z" fill="white"/>
<path d="M144.466 117.492C143.466 117.492 142.683 117.263 142.031 116.641L142.61 116.064C143.08 116.557 143.718 116.746 144.455 116.746C145.432 116.746 146.035 116.401 146.035 115.704C146.035 115.187 145.732 114.899 145.046 114.837L144.07 114.755C142.914 114.661 142.297 114.144 142.297 113.173C142.297 112.093 143.214 111.445 144.481 111.445C145.322 111.445 146.084 111.647 146.614 112.078L146.046 112.645C145.626 112.32 145.082 112.177 144.466 112.177C143.598 112.177 143.14 112.549 143.14 113.148C143.14 113.653 143.43 113.952 144.178 114.013L145.129 114.096C146.166 114.192 146.878 114.587 146.878 115.692C146.878 116.834 145.901 117.492 144.466 117.492Z" fill="white"/>
<path d="M154.252 109.693V117.42H153.335V109.693H150.854V108.877H156.737V109.693H154.252Z" fill="white"/>
<path d="M158.134 109.837V108.864H159.111V109.838L158.134 109.837ZM158.181 117.42V111.516H159.05V117.42H158.181Z" fill="white"/>
<path d="M163.533 117.492C162.038 117.492 160.905 116.484 160.905 114.468C160.905 112.453 162.038 111.445 163.533 111.445C164.35 111.445 164.872 111.661 165.485 112.32L164.894 112.872C164.448 112.379 164.099 112.213 163.533 112.213C162.953 112.213 162.472 112.439 162.156 112.885C161.88 113.267 161.772 113.723 161.772 114.468C161.772 115.213 161.88 115.667 162.156 116.053C162.472 116.496 162.953 116.724 163.533 116.724C164.099 116.724 164.449 116.543 164.894 116.053L165.485 116.616C164.872 117.277 164.35 117.492 163.533 117.492Z" fill="white"/>
<path d="M171.041 117.42L169.161 114.396L168.003 115.717V117.42H167.134V108.876H168.003V114.587L170.68 111.516H171.763L169.75 113.771L172.114 117.42H171.041Z" fill="white"/>
<path d="M173.896 114.696C173.896 115.994 174.51 116.736 175.643 116.736C176.33 116.736 176.728 116.534 177.199 116.064L177.79 116.58C177.186 117.18 176.632 117.492 175.621 117.492C174.052 117.492 173.028 116.557 173.028 114.468C173.028 112.558 173.955 111.445 175.464 111.445C176.994 111.445 177.897 112.549 177.897 114.301V114.696H173.896ZM176.848 113.065C176.62 112.521 176.089 112.177 175.464 112.177C174.838 112.177 174.307 112.522 174.078 113.065C173.944 113.387 173.921 113.569 173.896 114.048H177.031C177.007 113.569 176.981 113.387 176.848 113.065Z" fill="white"/>
<path d="M181.407 117.42C180.391 117.42 179.888 116.71 179.888 115.837V112.213H179.14V111.553H179.888V109.705H180.754V111.553H182.021V112.213H180.754V115.812C180.754 116.352 181.007 116.677 181.562 116.677H182.021V117.421L181.407 117.42Z" fill="white"/>
<path d="M183.693 109.837V108.864H184.673V109.838L183.693 109.837ZM183.743 117.42V111.516H184.612V117.42H183.743Z" fill="white"/>
<path d="M190.589 117.42V113.786C190.589 112.741 190.022 112.213 189.13 112.213C188.238 112.213 187.659 112.751 187.659 113.786V117.42H186.792V111.516H187.659V112.163C188.081 111.682 188.658 111.445 189.322 111.445C189.962 111.445 190.479 111.635 190.84 111.995C191.262 112.403 191.457 112.956 191.457 113.638V117.419H190.589V117.42Z" fill="white"/>
<path d="M195.47 120.132C194.578 120.132 194.084 119.905 193.457 119.341L194.024 118.789C194.457 119.172 194.76 119.376 195.446 119.376C196.59 119.376 197.073 118.572 197.073 117.565V116.641C196.59 117.253 196.049 117.41 195.407 117.41C194.805 117.41 194.288 117.194 193.974 116.881C193.383 116.293 193.252 115.38 193.252 114.42C193.252 113.461 193.383 112.549 193.974 111.96C194.288 111.647 194.819 111.445 195.42 111.445C196.072 111.445 196.603 111.588 197.084 112.213V111.516H197.941V117.602C197.942 119.065 197.025 120.132 195.47 120.132ZM195.6 112.213C194.314 112.213 194.118 113.316 194.118 114.419C194.118 115.523 194.313 116.628 195.6 116.628C196.891 116.628 197.074 115.523 197.074 114.419C197.074 113.316 196.891 112.213 195.6 112.213Z" fill="white"/>
</g>
<defs>
<clipPath id="clip0_2580_359">
<rect width="200" height="43" fill="white" transform="translate(0 78)"/>
</clipPath>
</defs>
</svg>
