<svg width="200" height="200" viewBox="0 0 200 200" fill="none" xmlns="http://www.w3.org/2000/svg">
<g clip-path="url(#clip0_1886_10692)">
<path d="M50.1007 112.586V86.0355C50.3369 86.0248 50.5397 86.0061 50.7425 86.0061C55.2116 86.0048 59.6794 85.9902 64.1485 86.0115C66.7866 86.0248 69.2955 86.5326 71.4933 88.0371C73.9105 89.691 75.2831 92.0085 75.954 94.7232C76.8279 98.2521 76.8042 101.77 75.4928 105.207C74.0411 109.011 71.0932 111.216 67.0533 112.071C65.5071 112.397 63.8943 112.537 62.3078 112.565C58.3957 112.633 54.4823 112.588 50.5703 112.588C50.4355 112.588 50.3008 112.588 50.1021 112.588L50.1007 112.586ZM58.6097 105.639C60.2545 105.639 61.8577 105.764 63.4303 105.606C65.1959 105.429 66.4976 104.429 67.2381 102.855C68.1175 100.985 68.2217 99.0317 67.7188 97.0647C67.2756 95.3296 66.2003 94.0355 64.4472 93.3492C62.5689 92.6136 60.5935 92.8548 58.6097 92.8188V105.639Z" fill="white"/>
<path d="M25.3574 112.55V86.0501H48.5656V92.8041H33.8844V96.0972H48.5795V102.459H33.8844V105.728H48.5642V112.55H25.356H25.3574Z" fill="white"/>
<path d="M0 92.8388V86.0488H23.9334V92.7828H16.2649V112.549H7.74349V92.8388H0Z" fill="white"/>
<path d="M77.4474 102.327C79.4229 99.5355 81.3636 96.7902 83.3155 94.0315C81.4401 91.3955 79.5785 88.7821 77.6572 86.0821H83.8851C84.6061 87.3095 85.3521 88.5795 86.1676 89.9669C86.9747 88.6355 87.7318 87.3855 88.5237 86.0808H94.7488C92.8455 88.7555 90.977 91.3835 89.0905 94.0329C91.0382 96.7862 92.9803 99.5328 94.9682 102.345H88.7404C87.9235 101.053 87.0775 99.7154 86.169 98.2774C85.3146 99.6648 84.5116 100.969 83.6739 102.327H77.4474Z" fill="white"/>
<path d="M117.976 88.962H103.059V86.8591H120.967C120.991 87.7093 121.112 88.4823 120.565 89.2792C115.879 96.0905 111.235 102.927 106.579 109.756C106.443 109.954 106.31 110.154 106.104 110.459H121.029V112.585H103.147C103.04 111.656 103.062 110.831 103.644 109.985C108.285 103.252 112.877 96.489 117.482 89.735C117.628 89.5204 117.763 89.2965 117.975 88.962H117.976Z" fill="white"/>
<path d="M186.976 112.6H184.628V86.8604H186.966V96.1865C187.016 96.2038 187.068 96.2224 187.118 96.2398C187.322 95.9426 187.522 95.6414 187.733 95.3482C188.789 93.8836 190.363 93.2546 192.102 93.072C194.125 92.8601 196.077 93.16 197.702 94.49C199.182 95.7014 199.914 97.3179 199.949 99.1197C200.033 103.536 199.986 107.954 199.992 112.372C199.992 112.433 199.968 112.494 199.949 112.589H197.624C197.624 112.317 197.624 112.08 197.624 111.841C197.624 107.978 197.623 104.116 197.624 100.252C197.624 99.0491 197.379 97.9083 196.617 96.9301C195.352 95.3056 193.087 94.7005 190.731 95.3216C188.783 95.836 187.304 97.5285 187.051 99.5648C186.991 100.049 186.982 100.539 186.982 101.027C186.976 104.601 186.979 108.175 186.979 111.749V112.597L186.976 112.6Z" fill="white"/>
<path d="M138.228 109.508C136.987 111.318 135.421 112.492 133.195 112.825C129.196 113.422 125.766 111.016 125.556 107.148C125.338 103.118 125.435 99.0717 125.396 95.0337C125.391 94.4833 125.396 93.9329 125.396 93.3319H127.765C127.765 93.5997 127.765 93.837 127.765 94.0755C127.765 97.8057 127.755 101.536 127.77 105.265C127.776 106.516 127.926 107.75 128.748 108.8C130.011 110.413 131.77 110.915 133.733 110.582C135.908 110.213 137.384 108.926 137.992 106.859C138.177 106.231 138.191 105.545 138.195 104.884C138.213 101.287 138.203 97.6897 138.203 94.0942V93.3292H140.551V112.604H138.23V109.508H138.228Z" fill="white"/>
<path d="M180.698 99.0104H178.509C178.01 98.2161 177.656 97.3686 177.054 96.7395C174.743 94.3181 170.614 94.5846 168.336 97.234C165.686 100.314 165.904 106.387 168.768 109.26C171.459 111.961 176.36 111.366 177.932 108.141C178.106 107.785 178.225 107.404 178.374 107.021H180.704C180.431 108.884 179.513 110.325 178.039 111.475C174.57 114.182 167.683 113.67 165.201 108.125C163.529 104.386 163.628 100.603 165.724 96.9994C168.475 92.2724 175.587 91.6141 179.228 95.7094C180.059 96.6436 180.5 97.7457 180.698 99.0117V99.0104Z" fill="white"/>
<path d="M145.67 93.3265H147.899V96.1718C149.439 93.5571 151.843 92.8028 154.793 93.0387V95.1763C153.8 95.2563 152.794 95.2243 151.85 95.4362C149.438 95.9786 148.029 97.7111 148.014 100.085C147.988 103.992 148.006 107.899 148.004 111.808C148.004 112.049 148.004 112.291 148.004 112.577H145.672V93.3265H145.67Z" fill="white"/>
<path d="M160.059 112.604H157.765V93.3332H160.059V112.604Z" fill="white"/>
<path d="M158.943 86.7511C159.9 86.7618 160.674 87.5041 160.657 88.397C160.642 89.2406 159.849 89.9575 158.924 89.9615C157.976 89.9655 157.159 89.2112 157.172 88.345C157.184 87.4628 157.986 86.7418 158.943 86.7524V86.7511Z" fill="white"/>
<path d="M138.034 88.2917C138.041 89.2166 137.353 89.9322 136.436 89.9522C135.514 89.9722 134.701 89.2152 134.69 88.3237C134.68 87.4788 135.478 86.7458 136.4 86.7511C137.317 86.7564 138.027 87.4255 138.034 88.2917Z" fill="white"/>
<path d="M129.749 86.7551C130.646 86.7831 131.366 87.5094 131.337 88.3557C131.305 89.2779 130.525 89.9855 129.579 89.9509C128.685 89.9176 127.982 89.1646 128.001 88.261C128.021 87.3975 128.798 86.7258 129.747 86.7551H129.749Z" fill="white"/>
</g>
<defs>
<clipPath id="clip0_1886_10692">
<rect width="200" height="200" fill="white"/>
</clipPath>
</defs>
</svg>
